<svg width="32" height="32" viewBox="0 0 32 32" fill="none" xmlns="http://www.w3.org/2000/svg">
<g clip-path="url(#clip0_2403_19307)">
<path d="M16 32C24.8366 32 32 24.8366 32 16C32 7.16344 24.8366 0 16 0C7.16344 0 0 7.16344 0 16C0 24.8366 7.16344 32 16 32Z" fill="black"/>
<path d="M22.1543 7H13.8487V18.1103H24.9955V9.89068C25 8.32998 23.7201 7 22.1543 7ZM11.298 7H9.90469C8.33888 7 7 8.27117 7 9.8952V11.284H11.298V7ZM7 13.8851H11.298V18.1691H7V13.8851ZM20.702 24.9955H22.0953C23.6611 24.9955 25 23.7243 25 22.1003V20.716H20.702V24.9955ZM13.8487 20.716H18.1467V25H13.8487V20.716ZM7 20.716V22.1048C7 23.6655 8.27534 25 9.90469 25H11.298V20.716H7Z" fill="white"/>
</g>
<defs>
<clipPath id="clip0_2403_19307">
<rect width="32" height="32" rx="16" fill="white"/>
</clipPath>
</defs>
</svg>
