<svg width="32" height="32" viewBox="0 0 32 32" fill="none" xmlns="http://www.w3.org/2000/svg">
<path d="M16 32C24.8366 32 32 24.8366 32 16C32 7.16344 24.8366 0 16 0C7.16344 0 0 7.16344 0 16C0 24.8366 7.16344 32 16 32Z" fill="#2E3148"/>
<path d="M15.9992 25.284C21.1266 25.284 25.2831 21.1274 25.2831 16.0001C25.2831 10.8727 21.1266 6.71614 15.9992 6.71614C10.8718 6.71614 6.71527 10.8727 6.71527 16.0001C6.71527 21.1274 10.8718 25.284 15.9992 25.284Z" fill="#1B1E36"/>
<path d="M16.0322 2.0414C14.3051 2.0414 12.9047 8.30572 12.9047 16.0332C12.9047 23.7607 14.3051 30.025 16.0322 30.025C17.7593 30.025 19.1598 23.7607 19.1598 16.0332C19.1598 8.30572 17.7593 2.0414 16.0322 2.0414ZM16.2482 29.2354C16.0506 29.4988 15.8531 29.3012 15.8531 29.3012C15.0578 28.3796 14.6601 26.6675 14.6601 26.6675C13.2688 22.1901 13.6 12.577 13.6 12.577C14.2538 4.94508 15.4432 3.1422 15.8479 2.74194C15.8892 2.70109 15.9436 2.67613 16.0016 2.67145C16.0595 2.66676 16.1172 2.68266 16.1646 2.71634C16.7518 3.13247 17.2444 4.87276 17.2444 4.87276C18.6988 10.2719 18.5671 15.3419 18.5671 15.3419C18.6988 19.7534 17.8383 24.6917 17.8383 24.6917C17.1759 28.4446 16.2482 29.2354 16.2482 29.2354Z" fill="#6F7390"/>
<path d="M28.1693 9.06982C27.3094 7.57119 21.1793 9.47404 14.4732 13.3194C7.76717 17.1648 3.0368 21.4972 3.89606 22.9952C4.75533 24.4932 10.886 22.591 17.5921 18.7456C24.2981 14.9002 29.0285 10.5678 28.1693 9.06982ZM4.68941 22.7896C4.36019 22.7482 4.43456 22.4776 4.43456 22.4776C4.8384 21.3293 6.12352 20.1322 6.12352 20.1322C9.31623 16.6972 17.8201 12.2007 17.8201 12.2007C24.7646 8.96972 26.9216 9.10604 27.4688 9.2567C27.525 9.27238 27.5738 9.30743 27.6066 9.35564C27.6394 9.40386 27.6541 9.46212 27.648 9.52012C27.5823 10.2369 26.3147 11.5297 26.3147 11.5297C22.3579 15.4797 17.8944 17.8889 17.8944 17.8889C14.1334 20.1993 9.4217 21.9092 9.4217 21.9092C5.83654 23.2011 4.68953 22.7896 4.68953 22.7896H4.68941Z" fill="#6F7390"/>
<path d="M28.1388 23.0452C29.0054 21.5506 24.2869 17.1984 17.6045 13.3241C10.9221 9.44989 4.79287 7.52352 3.92709 9.02072C3.0613 10.5179 7.77895 14.8676 14.4652 18.7418C21.1515 22.6161 27.273 24.5426 28.1388 23.0452ZM4.50129 9.59824C4.37329 9.29476 4.64349 9.22167 4.64349 9.22167C5.83977 8.99576 7.52014 9.51057 7.52014 9.51057C12.0916 10.5516 20.2432 15.6577 20.2432 15.6577C26.5194 20.0494 27.4819 21.9839 27.6262 22.533C27.6408 22.5893 27.6351 22.649 27.6101 22.7015C27.585 22.7541 27.5422 22.7961 27.4892 22.8201C26.8348 23.1197 25.0819 22.6733 25.0819 22.6733C19.6795 21.2247 15.3589 18.5707 15.3589 18.5707C11.4768 16.4769 7.63815 13.2552 7.63815 13.2552C4.72132 10.7993 4.50218 9.60157 4.50218 9.60157L4.50129 9.59824Z" fill="#6F7390"/>
<path d="M16.0003 17.6459C16.9094 17.6459 17.6463 16.9089 17.6463 15.9998C17.6463 15.0907 16.9094 14.3537 16.0003 14.3537C15.0912 14.3537 14.3542 15.0907 14.3542 15.9998C14.3542 16.9089 15.0912 17.6459 16.0003 17.6459Z" fill="#B7B9C8"/>
<path d="M22.7481 10.6667C23.2754 10.6667 23.7029 10.2245 23.7029 9.67905C23.7029 9.13359 23.2754 8.69141 22.7481 8.69141C22.2209 8.69141 21.7934 9.13359 21.7934 9.67905C21.7934 10.2245 22.2209 10.6667 22.7481 10.6667Z" fill="#B7B9C8"/>
<path d="M7.07816 14.0245C7.60546 14.0245 8.03292 13.5823 8.03292 13.0369C8.03292 12.4914 7.60546 12.0492 7.07816 12.0492C6.55087 12.0492 6.12341 12.4914 6.12341 13.0369C6.12341 13.5823 6.55087 14.0245 7.07816 14.0245Z" fill="#B7B9C8"/>
<path d="M14.0572 26.1398C14.5845 26.1398 15.012 25.6976 15.012 25.1521C15.012 24.6067 14.5845 24.1645 14.0572 24.1645C13.5299 24.1645 13.1024 24.6067 13.1024 25.1521C13.1024 25.6976 13.5299 26.1398 14.0572 26.1398Z" fill="#B7B9C8"/>
</svg>
