<svg width="32" height="32" viewBox="0 0 32 32" fill="none" xmlns="http://www.w3.org/2000/svg">
<path d="M16.0009 30.2683C23.8811 30.2683 30.2692 23.8802 30.2692 16C30.2692 8.11989 23.8811 1.73177 16.0009 1.73177C8.12079 1.73177 1.73267 8.11989 1.73267 16C1.73267 23.8802 8.12079 30.2683 16.0009 30.2683Z" fill="white"/>
<path d="M16 0C12.8355 0 9.74207 0.938383 7.11088 2.69648C4.4797 4.45459 2.42894 6.95344 1.21793 9.87706C0.00693249 12.8007 -0.309921 16.0177 0.307443 19.1214C0.924806 22.2251 2.44866 25.0761 4.6863 27.3137C6.92394 29.5513 9.77486 31.0752 12.8786 31.6925C15.9823 32.3099 19.1993 31.9931 22.1229 30.7821C25.0466 29.5711 27.5454 27.5203 29.3035 24.8891C31.0616 22.2579 32 19.1645 32 16C32.0061 13.9049 31.5995 11.8292 30.8034 9.8913C30.0073 7.95339 28.8373 6.19126 27.3602 4.70553C25.8831 3.21979 24.1278 2.03954 22.1946 1.23216C20.2614 0.424785 18.188 0.00609614 16.093 0H16ZM16.2712 16.5424L14.6053 22.1598H23.5157C23.5748 22.1577 23.6336 22.1673 23.6889 22.188C23.7442 22.2087 23.7949 22.2401 23.8381 22.2804C23.8813 22.3207 23.9161 22.3691 23.9406 22.4229C23.965 22.4766 23.9786 22.5347 23.9806 22.5937V22.7409L23.2058 25.414C23.1716 25.5404 23.0955 25.6515 22.9899 25.7289C22.8843 25.8064 22.7555 25.8456 22.6247 25.8402H8.9879L11.2736 18.0533L8.71671 18.8281L9.29783 17.046L11.8547 16.2712L15.0702 5.34624C15.1056 5.22054 15.1821 5.11029 15.2874 5.03307C15.3927 4.95584 15.5208 4.91607 15.6513 4.92009H19.0993C19.1583 4.91802 19.2172 4.92761 19.2725 4.9483C19.3278 4.96899 19.3785 5.00038 19.4217 5.04068C19.4648 5.08098 19.4996 5.12939 19.5241 5.18315C19.5485 5.23691 19.5622 5.29497 19.5642 5.35399V5.50121L16.8523 14.7215L19.4092 13.9467L18.8668 15.8063L16.2712 16.5424Z" fill="#345D9D"/>
</svg>
