<svg width="32" height="32" viewBox="0 0 32 32" fill="none" xmlns="http://www.w3.org/2000/svg">
<g clip-path="url(#clip0_2379_17354)">
<mask id="mask0_2379_17354" style="mask-type:alpha" maskUnits="userSpaceOnUse" x="0" y="0" width="32" height="32">
<path fill-rule="evenodd" clip-rule="evenodd" d="M0 0H32V32H0V0Z" fill="white"/>
</mask>
<g mask="url(#mask0_2379_17354)">
<path fill-rule="evenodd" clip-rule="evenodd" d="M16 32C7.2 32 0 24.8 0 15.92C0.08 7.12 7.2 -0.0799958 16.08 4.15795e-06C24.88 0.0800042 32 7.20001 32 16.16C31.92 24.88 24.8 32 16 32Z" fill="white"/>
<path d="M9.73498 7.32401L26.3072 18.6394L22.2087 24.6981L5.63647 13.2936L9.73498 7.32401Z" fill="url(#paint0_linear_2379_17354)"/>
<path d="M26.3074 18.6399C24.8818 20.6891 20.0705 19.8872 15.5265 16.6797C10.8935 13.5613 8.39871 9.37368 9.73518 7.32443C11.1607 5.27517 15.972 6.07705 20.516 9.28458C25.1491 12.3139 27.6439 16.5906 26.3074 18.6399Z" fill="url(#paint1_linear_2379_17354)"/>
<path d="M22.209 24.6089C20.7835 26.6582 15.9722 25.8563 11.4282 22.6488C6.88418 19.4413 4.30034 15.3428 5.7259 13.2044C7.15147 11.1551 11.9628 11.957 16.5068 15.1646C21.0507 18.3721 23.5455 22.5597 22.209 24.6089Z" fill="url(#paint2_linear_2379_17354)"/>
<path d="M26.3073 18.6396L22.2088 24.6983C20.7833 26.7475 15.972 25.8565 11.428 22.7381C10.537 22.1144 9.73511 21.4907 8.93323 20.7779C9.55691 20.6888 10.3588 20.3325 11.1607 19.4415C12.5862 17.9268 13.299 17.5704 13.9227 17.6595C14.5464 17.6595 15.2592 18.2832 16.4175 19.7979C17.5757 21.3125 19.1795 21.758 20.1596 20.9561C20.2487 20.867 20.3378 20.867 20.4269 20.7779C21.2287 20.1543 21.496 19.887 23.0107 17.0358C23.3671 16.323 24.6145 15.1648 26.3073 15.6994C26.7528 16.8576 26.7528 17.8377 26.3073 18.6396Z" fill="#0E0F23"/>
<path fill-rule="evenodd" clip-rule="evenodd" d="M25.6836 18.2833C24.4363 20.0652 20.0705 19.1743 15.8829 16.234C11.6062 13.2938 9.11143 9.55169 10.3588 7.76973C11.6062 5.98777 15.972 6.87875 20.1596 9.81898C24.3472 12.7592 26.8419 16.5013 25.6836 18.2833ZM21.7633 15.6103C21.1397 16.5013 19.0013 16.0558 16.863 14.6303C14.8137 13.2047 13.5663 11.3336 14.19 10.4427C14.8137 9.55169 16.952 9.99718 19.0904 11.4227C21.1397 12.8483 22.387 14.7194 21.7633 15.6103Z" fill="white"/>
<path d="M9.37824 9.37359C9.37824 9.28449 9.28914 9.1954 9.20005 9.28449C9.11095 9.37359 9.02185 9.37359 9.02185 9.46269C9.11095 9.72998 9.20005 9.90818 9.20005 10.0864C9.20005 10.1755 9.28914 10.2646 9.37824 10.1755C9.46734 10.1755 9.55644 10.0864 9.46734 9.99728C9.46734 9.81908 9.46734 9.64089 9.37824 9.37359Z" fill="white"/>
<path d="M9.8243 10.799C9.8243 10.7099 9.7352 10.6208 9.6461 10.7099C9.55701 10.799 9.55701 10.799 9.55701 10.8881C10.5371 13.1156 12.5863 15.5212 15.2593 17.3032C15.3484 17.3923 15.4375 17.3032 15.5266 17.3032C15.6157 17.2141 15.5266 17.125 15.5266 17.0359C12.7645 15.2539 10.8044 12.9374 9.8243 10.799Z" fill="white"/>
<path d="M20.6043 19.5308C20.5152 19.5308 20.4261 19.5308 20.4261 19.6199C20.4261 19.709 20.4261 19.7981 20.5152 19.7981C20.7825 19.8872 21.1389 19.9763 21.4062 20.0653C21.4953 20.0653 21.5844 20.0653 21.5844 19.9763C21.5844 19.8872 21.5844 19.7981 21.4953 19.7981C21.228 19.709 20.8716 19.6199 20.6043 19.5308Z" fill="white"/>
<path d="M22.2092 19.8869C22.1201 19.8869 22.031 19.976 22.031 20.0651C22.031 20.1542 22.1201 20.2433 22.2092 20.2433C22.922 20.3324 23.7239 20.4215 24.3476 20.3324C24.4367 20.3324 24.5257 20.2433 24.5257 20.1542C24.5257 20.0651 24.4367 19.976 24.3476 19.976C23.6348 20.0651 22.922 19.976 22.2092 19.8869Z" fill="white"/>
</g>
</g>
<defs>
<linearGradient id="paint0_linear_2379_17354" x1="12.9819" y1="5.71516" x2="16.2684" y2="17.0005" gradientUnits="userSpaceOnUse">
<stop stop-color="#03B8FF"/>
<stop offset="1" stop-color="#FA52A0"/>
</linearGradient>
<linearGradient id="paint1_linear_2379_17354" x1="15.6885" y1="4.92733" x2="18.9751" y2="16.2127" gradientUnits="userSpaceOnUse">
<stop stop-color="#03B8FF"/>
<stop offset="1" stop-color="#FA52A0"/>
</linearGradient>
<linearGradient id="paint2_linear_2379_17354" x1="10.2842" y1="6.50076" x2="13.5707" y2="17.7862" gradientUnits="userSpaceOnUse">
<stop stop-color="#03B8FF"/>
<stop offset="1" stop-color="#FA52A0"/>
</linearGradient>
<clipPath id="clip0_2379_17354">
<rect width="32" height="32" fill="white"/>
</clipPath>
</defs>
</svg>
