<svg width="32" height="32" viewBox="0 0 32 32" fill="none" xmlns="http://www.w3.org/2000/svg">
<path d="M16 32C24.8366 32 32 24.8366 32 16C32 7.16344 24.8366 0 16 0C7.16344 0 0 7.16344 0 16C0 24.8366 7.16344 32 16 32Z" fill="black"/>
<path fill-rule="evenodd" clip-rule="evenodd" d="M16.0038 3.98396C16.2053 3.98277 16.4004 4.0771 16.5241 4.24598L21.6326 11.2252C21.6479 11.2456 21.6619 11.2669 21.6747 11.2889C21.6863 11.309 21.6968 11.3297 21.7062 11.3509C21.7252 11.3937 21.7395 11.4386 21.7487 11.4849L24.2193 22.7723C24.2209 22.7794 24.2224 22.7865 24.2237 22.7937C24.2271 22.8115 24.2298 22.8294 24.2316 22.8474C24.2396 22.9254 24.2333 23.0044 24.2127 23.0805C24.1982 23.1341 24.1766 23.1861 24.1479 23.2353C24.1049 23.3091 24.0485 23.3723 23.9826 23.4224C23.9672 23.4341 23.9512 23.4452 23.9348 23.4554C23.9345 23.4556 23.9342 23.4558 23.9339 23.456L16.3474 28.2097C16.242 28.2758 16.1226 28.3081 16.0038 28.3073C15.8849 28.3081 15.7656 28.2758 15.6601 28.2097L8.07369 23.456C8.07299 23.4556 8.07229 23.4551 8.07159 23.4547C8.05558 23.4446 8.04 23.4338 8.02492 23.4224C7.94682 23.3629 7.88484 23.2875 7.84185 23.2027C7.82064 23.1609 7.80429 23.1174 7.79282 23.0728C7.77274 22.9949 7.7676 22.914 7.77742 22.8346C7.77983 22.815 7.78316 22.7956 7.78738 22.7763C7.78767 22.7749 7.78795 22.7736 7.78825 22.7723L10.2588 11.4849C10.2701 11.4284 10.289 11.3738 10.3147 11.3227C10.3169 11.3181 10.3193 11.3136 10.3217 11.3091C10.3373 11.2798 10.3551 11.2518 10.375 11.2253L15.4835 4.24598C15.6071 4.0771 15.8022 3.98277 16.0038 3.98396ZM15.3599 6.58193L11.5951 11.7254L12.4663 14.4613L15.3599 9.35494V6.58193ZM16.0038 10.815L12.9957 16.1235L14.9539 22.2731H17.0537L19.0119 16.1235L16.0038 10.815ZM19.8719 17.6412L18.397 22.2731H22.4967L19.8719 17.6412ZM21.3683 23.5531H17.9894L17.1472 26.1981L21.3683 23.5531ZM16.0038 25.5701L16.6461 23.5531H15.3615L16.0038 25.5701ZM13.6106 22.2731L12.1356 17.6412L9.51086 22.2731H13.6106ZM9.94301 18.9142L11.6063 15.979L11.0013 14.0791L9.94301 18.9142ZM10.6393 23.5531H14.0182L14.8604 26.1981L10.6393 23.5531ZM22.0646 18.9142L20.4013 15.979L21.0062 14.0791L22.0646 18.9142ZM20.4124 11.7254L19.5412 14.4613L16.6476 9.35494V6.58193L20.4124 11.7254Z" fill="white"/>
</svg>
