<svg width="32" height="32" viewBox="0 0 32 32" fill="none" xmlns="http://www.w3.org/2000/svg">
<circle cx="16" cy="16" r="16" fill="#101428"/>
<path d="M13.2265 8.34287C13.3285 8.22105 13.6362 7.88449 13.9631 7.52809C14.1711 7.30145 14.3983 7.05215 14.5512 6.88217L15.162 7.62442L14.664 8.17289C14.3592 8.50548 14.0441 8.84997 13.9557 8.95536C11.7262 11.6184 9.42293 14.3743 9.42293 17.4544C9.42293 19.3808 10.2111 21.0602 11.6417 22.1883C12.8203 23.1181 14.3688 23.6298 16.0046 23.6298C17.6404 23.6298 19.1866 23.1198 20.3674 22.1883C21.7981 21.0602 22.5862 19.3786 22.5862 17.4544C22.5862 14.3743 20.2807 11.6184 18.0534 8.95536C17.965 8.84997 17.65 8.50548 17.3452 8.17289L16.8477 7.62725L17.4585 6.885C17.6115 7.05498 17.8387 7.30315 18.0466 7.53093C18.373 7.88732 18.6806 8.22388 18.7832 8.3457C21.1216 11.1396 23.5426 14.0287 23.5426 17.4544C23.5426 19.676 22.6259 21.6223 20.9618 22.9351C19.6167 23.9964 17.8591 24.5783 16.0125 24.5783C14.166 24.5783 12.4084 23.9941 11.0632 22.9351C9.38667 21.62 8.46991 19.6749 8.46991 17.4521C8.46991 14.0264 10.8882 11.1373 13.2265 8.34287ZM15.0487 9.86872C15.1547 9.74237 15.2584 9.61715 15.3632 9.49193L15.634 9.16727L16 8.72589L16.3661 9.16727L16.6369 9.49193C16.7417 9.61715 16.8454 9.74237 16.9514 9.86872C17.4233 10.4353 17.8982 11.0019 18.3514 11.5725C18.3956 11.628 18.4393 11.6835 18.4823 11.7391C19.7436 13.3494 20.8054 14.9868 21.0825 16.6305C21.1017 16.7439 21.117 16.8572 21.1284 16.9705C21.1323 17.0107 21.1346 17.0515 21.138 17.0918C21.1471 17.2113 21.1533 17.3309 21.1533 17.451C21.1545 17.8126 21.1184 18.1733 21.0456 18.5275C21.006 18.717 20.9546 18.9038 20.8915 19.0868C20.6216 19.87 20.1294 20.5578 19.475 21.0659C18.8678 21.5357 18.1653 21.8672 17.4165 22.0371H17.4131C17.3032 22.0631 17.191 22.0852 17.0783 22.105C17.0386 22.1124 16.9984 22.1186 16.9587 22.1249C16.8477 22.1426 16.7357 22.1572 16.6227 22.1685C16.4171 22.1889 16.2086 22.2002 15.9995 22.2002C15.7904 22.2002 15.5802 22.1889 15.3762 22.1685C15.2482 22.1557 15.1212 22.1389 14.9955 22.1181L14.9388 22.1084C14.0322 21.9521 13.1965 21.5957 12.5245 21.0653C11.8702 20.5572 11.3779 19.8695 11.108 19.0862C11.045 18.9032 10.9935 18.7164 10.9539 18.527C10.8811 18.1728 10.845 17.812 10.8462 17.4504C10.8462 17.3303 10.8525 17.2107 10.8615 17.0912C10.8649 17.051 10.8672 17.0102 10.8712 16.9699C10.8825 16.8566 10.8978 16.7433 10.9171 16.63C11.1941 14.9868 12.2559 13.3488 13.5172 11.7385C13.5603 11.6818 13.6045 11.6252 13.6481 11.5719C14.1019 11.0014 14.5756 10.4331 15.0487 9.86929V9.86872ZM16 21.25C17.0613 21.25 18.0902 20.9254 18.8365 20.3582C18.8534 20.3452 18.8716 20.3327 18.8886 20.3191C19.4851 19.8524 19.9062 19.1976 20.0835 18.4612C20.096 18.4114 20.1073 18.3609 20.1181 18.31C20.1462 18.1714 20.1672 18.0314 20.181 17.8907C20.1952 17.7479 20.2025 17.6011 20.2025 17.4516C20.2025 17.3592 20.1974 17.2663 20.1906 17.1739C20.1709 16.9122 20.1279 16.6528 20.062 16.3988C19.9691 16.0457 19.8459 15.7012 19.6937 15.3693C19.6864 15.354 19.6801 15.3381 19.6733 15.3228C19.543 15.0395 19.39 14.7562 19.2246 14.4667L19.2155 14.4503C18.818 13.7883 18.3798 13.1518 17.9033 12.5442L17.7962 12.4054C17.6398 12.2041 17.4802 12.0029 17.3174 11.802C17.2692 11.7453 17.2211 11.683 17.1723 11.6241C17.161 11.6093 17.1491 11.5952 17.1378 11.581L17.0568 11.4824C16.8766 11.2626 16.6947 11.0433 16.5111 10.8246L16.2233 10.4801L16 10.2127L15.7785 10.4778L15.4907 10.8223C15.3075 11.0418 15.1256 11.2611 14.945 11.4801L14.864 11.5787C14.8527 11.5929 14.8408 11.6071 14.8294 11.6218C14.7807 11.6784 14.7326 11.7402 14.6844 11.7997C13.9693 12.6836 13.3002 13.5715 12.7863 14.448L12.7772 14.4644C12.6072 14.7511 12.4588 15.0367 12.3285 15.3206C12.3217 15.3359 12.3154 15.3517 12.3081 15.367C12.1561 15.699 12.0329 16.0435 11.9398 16.3965C11.8739 16.6506 11.8309 16.91 11.8112 17.1716C11.8044 17.264 11.7993 17.3569 11.7993 17.4493C11.7993 17.5989 11.8066 17.7456 11.8208 17.8884C11.8346 18.0291 11.8556 18.1691 11.8837 18.3077C11.8944 18.3587 11.9058 18.4091 11.9182 18.459C12.0955 19.1953 12.5167 19.8501 13.1132 20.3169C13.1302 20.3305 13.1483 20.3429 13.1653 20.3559C13.9099 20.926 14.9388 21.2506 16 21.2506V21.25ZM20.5969 6.81814C20.5006 6.70482 20.2116 6.39262 19.747 5.89402C19.4467 5.57219 19.1141 5.21409 18.9617 5.04411L18.3509 5.78636C18.5067 5.95634 18.7418 6.20961 19.0518 6.54164C19.3917 6.9088 19.781 7.32468 19.8671 7.42724C22.2525 10.2778 24.9563 13.5086 24.9563 17.4516C24.9563 20.1191 23.8469 22.4631 21.8326 24.0519C20.2365 25.3109 18.1656 26.0038 16 26.0038C13.8345 26.0038 11.7636 25.3114 10.1674 24.0525C8.15318 22.466 7.04377 20.1197 7.04377 17.4521C7.04377 13.5091 9.7476 10.2784 12.133 7.42781C12.2191 7.32525 12.6067 6.90936 12.9483 6.54221C13.2583 6.21018 13.4934 5.95747 13.6492 5.78693L13.0384 5.04468C12.886 5.21466 12.5534 5.57219 12.2531 5.89458C11.7885 6.39319 11.4995 6.70426 11.4032 6.81871C8.91413 9.7928 6.09302 13.1646 6.09302 17.4527C6.09302 20.4177 7.33104 23.0269 9.57875 24.7992C11.3414 26.1902 13.622 26.9557 16 26.9557C18.3781 26.9557 20.6586 26.1908 22.4213 24.7987C24.669 23.0263 25.9076 20.4171 25.9076 17.4521C25.9076 13.1635 23.086 9.79223 20.5969 6.81814Z" fill="url(#paint0_linear_2379_17519)"/>
<defs>
<linearGradient id="paint0_linear_2379_17519" x1="8.69258" y1="9.39051" x2="23.3075" y2="24.0049" gradientUnits="userSpaceOnUse">
<stop stop-color="#A8EEE3"/>
<stop offset="0.23" stop-color="#97E7DD"/>
<stop offset="0.69" stop-color="#6AD6CD"/>
<stop offset="1" stop-color="#47C8C1"/>
</linearGradient>
</defs>
</svg>
