<svg width="32" height="32" viewBox="0 0 32 32" fill="none" xmlns="http://www.w3.org/2000/svg">
<g clip-path="url(#clip0_2403_20077)">
<path d="M16 32C24.8366 32 32 24.8366 32 16C32 7.16344 24.8366 0 16 0C7.16344 0 0 7.16344 0 16C0 24.8366 7.16344 32 16 32Z" fill="#0052FF"/>
<path d="M16.1344 11.3072C18.0181 11.3072 19.5125 12.4691 20.08 14.1969H23.875C23.1875 10.5028 20.1397 8 16.1647 8C11.6506 8 8.125 11.4266 8.125 16.0153C8.125 20.6041 11.5625 24 16.1647 24C20.0506 24 23.1591 21.4972 23.8472 17.7725H20.0797C19.5416 19.5006 18.0484 20.6928 16.1634 20.6928C13.5625 20.6928 11.7397 18.6962 11.7397 16.0153C11.7409 13.3038 13.5344 11.3072 16.1344 11.3072Z" fill="white"/>
</g>
<defs>
<clipPath id="clip0_2403_20077">
<rect width="32" height="32" rx="16" fill="white"/>
</clipPath>
</defs>
</svg>
