<svg width="32" height="32" viewBox="0 0 32 32" fill="none" xmlns="http://www.w3.org/2000/svg">
<path d="M16 32C24.8366 32 32 24.8366 32 16C32 7.16344 24.8366 0 16 0C7.16344 0 0 7.16344 0 16C0 24.8366 7.16344 32 16 32Z" fill="white"/>
<path d="M21.357 8.01976L17.6475 13.5309C17.391 13.9062 17.8843 14.3605 18.2395 14.0444L21.8897 10.8642C21.9884 10.7852 22.1265 10.8444 22.1265 10.9827V20.9185C22.1265 21.0568 21.9489 21.1161 21.87 21.0173L10.8205 7.78272C10.4654 7.34815 9.95237 7.11111 9.38017 7.11111H8.98554C7.95952 7.11111 7.11108 7.9605 7.11108 9.00741V22.9926C7.11108 24.0395 7.95952 24.8889 9.00528 24.8889C9.6564 24.8889 10.2681 24.5531 10.6232 23.9803L14.3327 18.4691C14.5892 18.0938 14.0959 17.6395 13.7408 17.9556L10.0905 21.1161C9.99183 21.1951 9.85372 21.1358 9.85372 20.9975V11.0815C9.85372 10.9432 10.0313 10.884 10.1102 10.9827L21.1597 24.2173C21.5148 24.6519 22.0476 24.8889 22.6 24.8889H22.9947C24.0404 24.8889 24.8889 24.0395 24.8889 22.9926V9.00741C24.8889 7.9605 24.0404 7.11111 22.9947 7.11111C22.3238 7.11111 21.7121 7.44692 21.357 8.01976Z" fill="black"/>
</svg>
