<svg width="32" height="32" viewBox="0 0 32 32" fill="none" xmlns="http://www.w3.org/2000/svg">
<circle cx="16" cy="16" r="16" fill="#E84142"/>
<path fill-rule="evenodd" clip-rule="evenodd" d="M11.3413 22.3673H8.2362C7.58372 22.3673 7.26141 22.3673 7.0649 22.2416C6.85264 22.104 6.72293 21.8761 6.70721 21.6244C6.69541 21.3926 6.85658 21.1095 7.17888 20.5435L14.8459 7.0294C15.1721 6.45553 15.3372 6.1686 15.5455 6.06248C15.7696 5.94849 16.0368 5.94849 16.2609 6.06248C16.4692 6.1686 16.6343 6.45553 16.9605 7.0294L18.5367 9.7808L18.5447 9.79484C18.8971 10.4105 19.0758 10.7227 19.1538 11.0504C19.2403 11.4081 19.2403 11.7854 19.1538 12.1431C19.0752 12.4732 18.8983 12.7877 18.5406 13.4127L14.5133 20.5318L14.5029 20.55C14.1482 21.1707 13.9685 21.4853 13.7194 21.7227C13.4482 21.9822 13.1219 22.1707 12.7642 22.277C12.438 22.3673 12.0724 22.3673 11.3413 22.3673ZM19.1829 22.3673H23.6322C24.2886 22.3673 24.6188 22.3673 24.8155 22.2378C25.0277 22.1002 25.1613 21.8682 25.1732 21.6168C25.1845 21.3924 25.0268 21.1204 24.7179 20.5873C24.7073 20.5691 24.6966 20.5506 24.6857 20.5318L22.457 16.7192L22.4317 16.6763C22.1185 16.1467 21.9604 15.8792 21.7574 15.7759C21.5335 15.6619 21.2699 15.6619 21.046 15.7759C20.8416 15.882 20.6765 16.1611 20.3503 16.7231L18.1295 20.5358L18.1219 20.5489C17.7968 21.1101 17.6343 21.3905 17.646 21.6206C17.6618 21.8722 17.7915 22.104 18.0037 22.2416C18.1963 22.3673 18.5265 22.3673 19.1829 22.3673Z" fill="white"/>
</svg>
