<?xml version="1.0" encoding="UTF-8"?>
<svg width="200px" height="200px" viewBox="0 0 200 200" version="1.1" xmlns="http://www.w3.org/2000/svg" xmlns:xlink="http://www.w3.org/1999/xlink">
    <title>Group 7227snowballlogo</title>
    <defs>
        <linearGradient x1="50%" y1="0%" x2="50%" y2="100%" id="linearGradient-1">
            <stop stop-color="#3391FF" offset="0%"></stop>
            <stop stop-color="#237EE9" offset="100%"></stop>
        </linearGradient>
        <linearGradient x1="49.9998936%" y1="-2.54838255e-06%" x2="49.9998936%" y2="99.9999423%" id="linearGradient-2">
            <stop stop-color="#8AB9F0" offset="35.4167%"></stop>
            <stop stop-color="#3E96FD" offset="100%"></stop>
        </linearGradient>
        <linearGradient x1="50.0000541%" y1="-2.54838255e-06%" x2="50.0000541%" y2="99.9999423%" id="linearGradient-3">
            <stop stop-color="#8AB9F0" offset="35.4167%"></stop>
            <stop stop-color="#3E96FD" offset="100%"></stop>
        </linearGradient>
        <linearGradient x1="50.0002175%" y1="-2.54838255e-06%" x2="50.0002175%" y2="99.9999423%" id="linearGradient-4">
            <stop stop-color="#8AB9F0" offset="35.4167%"></stop>
            <stop stop-color="#3E96FD" offset="100%"></stop>
        </linearGradient>
        <linearGradient x1="50.000258%" y1="-2.54838255e-06%" x2="50.000258%" y2="99.9999423%" id="linearGradient-5">
            <stop stop-color="#8AB9F0" offset="35.4167%"></stop>
            <stop stop-color="#3E96FD" offset="100%"></stop>
        </linearGradient>
    </defs>
    <g id="Page-3" stroke="none" stroke-width="1" fill="none" fill-rule="evenodd">
        <g id="Group-7227snowballlogo">
            <rect id="Rectangle" fill="#F5F5F5" fill-rule="nonzero" x="2" y="28" width="139" height="144"></rect>
            <rect id="Rectangle" fill="url(#linearGradient-1)" fill-rule="nonzero" x="0" y="0" width="200" height="200"></rect>
            <g id="Group" opacity="0.1" transform="translate(6.000000, 32.000003)" fill="#FFFFFF">
                <path d="M61.4982998,0.0688165342 C78.8727998,0.960036534 92.3249998,13.6659965 104.735,26.1091965 C117.302,38.7101965 130.543,52.2828965 131.48,70.2381965 C132.453,88.9006965 123.078,106.682997 109.597,119.328997 C96.6459998,131.477997 79.0806998,135.378997 61.4982998,135.884997 C43.2678998,136.408997 23.1726998,135.669997 10.6106998,122.175997 C-1.77820021,108.867997 -0.17384021,88.5865965 0.38627979,70.2381965 C0.92181979,52.6945965 2.26060979,34.5573965 13.6857998,21.4388965 C25.7022998,7.64139653 43.4339998,-0.857793466 61.4982998,0.0688165342 Z" id="Path"></path>
                <path d="M61.4982998,0.0688165342 C78.8727998,0.960036534 92.3249998,13.6659965 104.735,26.1091965 C117.302,38.7101965 130.543,52.2828965 131.48,70.2381965 C132.453,88.9006965 123.078,106.682997 109.597,119.328997 C96.6459998,131.477997 79.0806998,135.378997 61.4982998,135.884997 C43.2678998,136.408997 23.1726998,135.669997 10.6106998,122.175997 C-1.77820021,108.867997 -0.17384021,88.5865965 0.38627979,70.2381965 C0.92181979,52.6945965 2.26060979,34.5573965 13.6857998,21.4388965 C25.7022998,7.64139653 43.4339998,-0.857793466 61.4982998,0.0688165342 Z" id="Path" stroke="url(#linearGradient-2)" stroke-width="6.08108"></path>
            </g>
            <g id="Group" opacity="0.2" transform="translate(21.232642, 32.000003)" fill="#FFFFFF">
                <path d="M61.4982584,0.0688165342 C78.8728584,0.960036534 92.3253584,13.6659965 104.735358,26.1091965 C117.302358,38.7101965 130.543358,52.2828965 131.479358,70.2381965 C132.453358,88.9006965 123.078358,106.682997 109.596358,119.328997 C96.6463584,131.477997 79.0807584,135.378997 61.4982584,135.884997 C43.2679584,136.408997 23.1727584,135.669997 10.6106584,122.175997 C-1.77814159,108.867997 -0.173841589,88.5865965 0.386258411,70.2381965 C0.921858411,52.6945965 2.26065841,34.5573965 13.6858584,21.4388965 C25.7022584,7.64139653 43.4340584,-0.857793466 61.4982584,0.0688165342 Z" id="Path"></path>
                <path d="M61.4982584,0.0688165342 C78.8728584,0.960036534 92.3253584,13.6659965 104.735358,26.1091965 C117.302358,38.7101965 130.543358,52.2828965 131.479358,70.2381965 C132.453358,88.9006965 123.078358,106.682997 109.596358,119.328997 C96.6463584,131.477997 79.0807584,135.378997 61.4982584,135.884997 C43.2679584,136.408997 23.1727584,135.669997 10.6106584,122.175997 C-1.77814159,108.867997 -0.173841589,88.5865965 0.386258411,70.2381965 C0.921858411,52.6945965 2.26065841,34.5573965 13.6858584,21.4388965 C25.7022584,7.64139653 43.4340584,-0.857793466 61.4982584,0.0688165342 Z" id="Path" stroke="url(#linearGradient-3)" stroke-width="6.08108"></path>
            </g>
            <g id="Group" opacity="0.5" transform="translate(41.842142, 32.000003)" fill="#FFFFFF">
                <path d="M61.4978584,0.0688165342 C78.8728584,0.960036534 92.3248584,13.6659965 104.734858,26.1091965 C117.301858,38.7101965 130.542858,52.2828965 131.479858,70.2381965 C132.452858,88.9006965 123.078858,106.682997 109.596858,119.328997 C96.6458584,131.477997 79.0808584,135.378997 61.4978584,135.884997 C43.2679584,136.408997 23.1727584,135.669997 10.6106584,122.175997 C-1.77814159,108.867997 -0.173841589,88.5865965 0.386258411,70.2381965 C0.921858411,52.6945965 2.26065841,34.5573965 13.6858584,21.4388965 C25.7022584,7.64139653 43.4340584,-0.857793466 61.4978584,0.0688165342 Z" id="Path"></path>
                <path d="M61.4978584,0.0688165342 C78.8728584,0.960036534 92.3248584,13.6659965 104.734858,26.1091965 C117.301858,38.7101965 130.542858,52.2828965 131.479858,70.2381965 C132.452858,88.9006965 123.078858,106.682997 109.596858,119.328997 C96.6458584,131.477997 79.0808584,135.378997 61.4978584,135.884997 C43.2679584,136.408997 23.1727584,135.669997 10.6106584,122.175997 C-1.77814159,108.867997 -0.173841589,88.5865965 0.386258411,70.2381965 C0.921858411,52.6945965 2.26065841,34.5573965 13.6858584,21.4388965 C25.7022584,7.64139653 43.4340584,-0.857793466 61.4978584,0.0688165342 Z" id="Path" stroke="url(#linearGradient-4)" stroke-width="6.08108"></path>
            </g>
            <path d="M123.949,32.06882 C141.324,32.96004 154.776,45.666 167.186,58.1092 C179.753,70.7102 192.994,84.2829 193.931,102.2382 C194.904,120.9007 185.529,138.683 172.048,151.329 C159.097,163.478 141.532,167.379 123.949,167.885 C105.719,168.409 85.6238,167.67 73.0617,154.176 C60.6729,140.868 62.2772,120.5866 62.8373,102.2382 C63.3729,84.6946 64.7117,66.5574 76.1368,53.4389 C88.1533,39.6414 105.885,31.14221 123.949,32.06882 Z" id="Path" fill="#FFFFFF"></path>
            <path d="M123.949,32.06882 C141.324,32.96004 154.776,45.666 167.186,58.1092 C179.753,70.7102 192.994,84.2829 193.931,102.2382 C194.904,120.9007 185.529,138.683 172.048,151.329 C159.097,163.478 141.532,167.379 123.949,167.885 C105.719,168.409 85.6238,167.67 73.0617,154.176 C60.6729,140.868 62.2772,120.5866 62.8373,102.2382 C63.3729,84.6946 64.7117,66.5574 76.1368,53.4389 C88.1533,39.6414 105.885,31.14221 123.949,32.06882 Z" id="Path" stroke="url(#linearGradient-5)" stroke-width="6.08108" fill="#FFFFFF"></path>
        </g>
    </g>
</svg>