<svg width="32" height="32" viewBox="0 0 32 32" fill="none" xmlns="http://www.w3.org/2000/svg">
<g clip-path="url(#clip0_2406_20236)">
<path d="M16 32C24.8366 32 32 24.8366 32 16C32 7.16344 24.8366 0 16 0C7.16344 0 0 7.16344 0 16C0 24.8366 7.16344 32 16 32Z" fill="#FF875B"/>
<path d="M18.0538 8.67999H13.9321C13.7916 8.67999 13.6843 8.79563 13.6843 8.93605C13.6017 12.9256 11.578 16.7169 8.10055 19.4014C7.99317 19.484 7.96839 19.6492 8.04273 19.7648L10.4546 23.201C10.5372 23.3166 10.6942 23.3414 10.8098 23.2588C12.9904 21.5903 14.7415 19.5831 15.997 17.3529C17.2608 19.5831 19.0119 21.5903 21.1843 23.2588C21.2999 23.3414 21.4569 23.3166 21.5395 23.201L23.9514 19.7648C24.034 19.6492 24.0092 19.4922 23.8935 19.4014C20.4079 16.7169 18.3924 12.9339 18.3098 8.93605C18.3016 8.79563 18.1859 8.67999 18.0538 8.67999Z" fill="white"/>
</g>
<defs>
<clipPath id="clip0_2406_20236">
<rect width="32" height="32" rx="16" fill="white"/>
</clipPath>
</defs>
</svg>
