<svg width="32" height="32" viewBox="0 0 32 32" fill="none" xmlns="http://www.w3.org/2000/svg">
<g clip-path="url(#clip0_2379_17327)">
<path fill-rule="evenodd" clip-rule="evenodd" d="M9.77398 30.7324C11.7468 31.5654 13.8413 31.9888 16.0017 31.9888C18.1621 31.9888 20.2565 31.5654 22.2294 30.7255C24.1328 29.9203 25.8451 28.7681 27.3144 27.3C28.7836 25.832 29.9367 24.1244 30.7426 22.2191C31.5762 20.2478 31.9999 18.155 31.9999 15.9963C31.9999 13.8411 31.5762 11.7449 30.7426 9.77359C29.9367 7.87172 28.7836 6.16072 27.3144 4.69267C25.8451 3.22461 24.1363 2.07238 22.2294 1.26721C20.2565 0.434268 18.1552 0.014328 15.9982 0.014328C13.8413 0.014328 11.7434 0.437738 9.77051 1.27068C7.86712 2.07585 6.15476 3.22808 4.68554 4.69614C3.21631 6.16419 2.06317 7.87172 1.25735 9.77706C0.423748 11.7484 0 13.8411 0 15.9998C0 18.1585 0.423748 20.2513 1.26082 22.226C2.06664 24.1279 3.21979 25.8389 4.68901 27.307C6.15824 28.775 7.86712 29.9272 9.77398 30.7324Z" fill="#ECB244"/>
<path d="M15.0396 19.9805H21.9724V23.4615H17.7036C17.7731 24.4575 17.8113 25.3807 17.8808 26.3732H14.2893V23.4962H10.0206C10.0206 22.3578 9.87817 21.223 10.09 20.1575C10.1977 19.5883 10.8368 19.0921 11.2293 18.5958C12.5804 16.9959 13.9316 15.4341 15.3174 13.8342C15.8523 13.2303 16.3838 12.6612 16.9881 11.9879H10.3401V8.50694H14.2859V5.59517H17.7349V8.43753H22.0384C22.0384 9.61057 22.1808 10.7454 21.9689 11.8144C21.8612 12.3835 21.2221 12.8798 20.7949 13.3761C19.4438 14.976 18.0927 16.5377 16.7068 18.1377C16.1788 18.7728 15.6474 19.3385 15.0396 19.9805Z" fill="white"/>
</g>
<defs>
<clipPath id="clip0_2379_17327">
<rect width="32" height="32" fill="white"/>
</clipPath>
</defs>
</svg>
