<svg width="32" height="32" viewBox="0 0 32 32" fill="none" xmlns="http://www.w3.org/2000/svg">
<path d="M16 32C24.8667 32 32 24.8667 32 16C32 7.13328 24.8667 0 16 0C7.13328 0 0 7.13328 0 16C0 24.8667 7.13328 32 16 32Z" fill="#2775CA"/>
<path d="M20.402 18.5354C20.402 16.2021 19.002 15.4021 16.202 15.0688C14.202 14.8021 13.802 14.2688 13.802 13.3354C13.802 12.4019 14.4687 11.8021 15.802 11.8021C17.002 11.8021 17.6687 12.2021 18.002 13.2021C18.0687 13.4021 18.2687 13.5354 18.4687 13.5354H19.5353C19.802 13.5354 20.002 13.3354 20.002 13.0688V13.0021C19.7353 11.5354 18.5353 10.4021 17.002 10.2688V8.66882C17.002 8.4021 16.802 8.2021 16.4688 8.13538H15.4687C15.202 8.13538 15.002 8.33538 14.9353 8.66882V10.2021C12.9353 10.4688 11.6687 11.8021 11.6687 13.4688C11.6687 15.6688 13.002 16.5354 15.802 16.8688C17.6687 17.2021 18.2687 17.6021 18.2687 18.6688C18.2687 19.7356 17.3353 20.4688 16.0687 20.4688C14.3353 20.4688 13.7353 19.7354 13.5353 18.7354C13.4688 18.4688 13.2687 18.3354 13.0687 18.3354H11.9353C11.6688 18.3354 11.4688 18.5354 11.4688 18.8021V18.8688C11.7353 20.5354 12.802 21.7354 15.002 22.0689V23.6689C15.002 23.9354 15.202 24.1354 15.5353 24.2021H16.5353C16.802 24.2021 17.002 24.0021 17.0687 23.6689V22.0689C19.0687 21.7354 20.402 20.3354 20.402 18.5354Z" fill="white"/>
<path d="M12.6013 25.5333C7.40131 23.6667 4.73458 17.8667 6.66803 12.7332C7.66803 9.93321 9.86803 7.79992 12.6013 6.79992C12.868 6.66664 13.0013 6.46664 13.0013 6.13319V5.19991C13.0013 4.93319 12.868 4.73319 12.6013 4.66663C12.5346 4.66663 12.4013 4.66663 12.3346 4.73319C6.00131 6.7332 2.53458 13.4667 4.53458 19.8C5.73458 23.5333 8.60131 26.4 12.3346 27.6C12.6013 27.7333 12.868 27.6 12.9346 27.3333C13.0013 27.2667 13.0013 27.2 13.0013 27.0667V26.1333C13.0013 25.9333 12.8013 25.6667 12.6013 25.5333ZM19.6681 4.73319C19.4013 4.59991 19.1346 4.73319 19.0681 4.99991C19.0013 5.06663 19.0013 5.13319 19.0013 5.26663V6.19991C19.0013 6.46664 19.2013 6.7332 19.4013 6.86664C24.6014 8.73321 27.2681 14.5332 25.3346 19.6667C24.3346 22.4667 22.1346 24.6 19.4013 25.6C19.1346 25.7333 19.0013 25.9333 19.0013 26.2667V27.2C19.0013 27.4667 19.1346 27.6667 19.4013 27.7333C19.4681 27.7333 19.6013 27.7333 19.6681 27.6667C26.0014 25.6667 29.4681 18.9333 27.4681 12.5999C26.2681 8.79993 23.3346 5.93319 19.6681 4.73319Z" fill="white"/>
</svg>
