<svg width="32" height="32" viewBox="0 0 32 32" fill="none" xmlns="http://www.w3.org/2000/svg">
<path fill-rule="evenodd" clip-rule="evenodd" d="M16 0C24.8352 0 32 7.1648 32 16C32 24.8352 24.8352 32 16 32C7.1648 32 0 24.8352 0 16C0 7.1648 7.1648 0 16 0Z" fill="#006AE3"/>
<path d="M15.3403 22.7456V9.43359H16.7899V22.7456H15.3403Z" fill="white"/>
<path d="M22.7193 13.8689L18.2425 15.0561L17.2441 10.4097L18.5753 10.1089L19.1001 12.3105C19.1001 12.3105 20.3097 10.3265 18.6969 8.27206C17.7465 7.21606 17.2953 7.17126 16.2297 7.00486C15.2921 6.87046 13.1129 7.18727 12.4633 9.73127C12.1881 11.3697 12.4985 12.5825 14.6105 14.1697L14.4921 15.9361C14.4921 15.9361 12.1337 14.2753 11.5257 13.1105C11.0553 12.1889 10.2489 10.3681 11.7049 7.83366C12.4889 6.56647 14.0345 5.35046 16.7577 5.47846C18.1273 5.53606 21.4713 7.20966 20.9529 11.1201C20.8633 11.8529 20.4825 12.8289 20.4825 12.8289L22.3193 12.4193L22.7193 13.8689Z" fill="white"/>
<path d="M20.1637 24.2849C19.3445 25.5297 17.7669 26.7041 15.0501 26.5057C13.6805 26.4129 10.3845 24.6497 11.0053 20.7553C11.1141 20.0257 11.5205 19.0625 11.5205 19.0625L9.6741 19.4209L9.3125 17.9649L13.8213 16.8961L14.6981 21.5681L13.3573 21.8337L12.8901 19.6161C12.8901 19.6161 11.6293 21.5649 13.1845 23.6641C14.1061 24.7457 14.5541 24.8001 15.6197 24.9953C16.5509 25.1553 18.7397 24.8929 19.4565 22.3681C19.7733 20.7393 19.4949 19.5169 17.4277 17.8721L17.5941 16.1089C17.5941 16.1089 19.9077 17.8305 20.4837 19.0113C20.9253 19.9489 21.6837 21.7921 20.1637 24.2849Z" fill="white"/>
</svg>
