<svg width="32" height="32" viewBox="0 0 32 32" fill="none" xmlns="http://www.w3.org/2000/svg">
<g clip-path="url(#clip0_2379_17523)">
<mask id="mask0_2379_17523" style="mask-type:alpha" maskUnits="userSpaceOnUse" x="0" y="0" width="32" height="32">
<path d="M16 32C24.8366 32 32 24.8366 32 16C32 7.16344 24.8366 0 16 0C7.16344 0 0 7.16344 0 16C0 24.8366 7.16344 32 16 32Z" fill="white"/>
</mask>
<g mask="url(#mask0_2379_17523)">
<path d="M16 32C24.8366 32 32 24.8366 32 16C32 7.16344 24.8366 0 16 0C7.16344 0 0 7.16344 0 16C0 24.8366 7.16344 32 16 32Z" fill="#E6BC7B"/>
</g>
<path fill-rule="evenodd" clip-rule="evenodd" d="M14.0166 6.64815C14.3929 6.64815 14.698 6.95322 14.698 7.32955V10.6488H17.291V7.32955C17.291 6.95322 17.5961 6.64815 17.9724 6.64815C18.3487 6.64815 18.6538 6.95322 18.6538 7.32955V11.3302C18.6538 11.7065 18.3487 12.0116 17.9724 12.0116H14.0166C13.6403 12.0116 13.3352 11.7065 13.3352 11.3302V7.32955C13.3352 6.95322 13.6403 6.64815 14.0166 6.64815Z" fill="black"/>
<path fill-rule="evenodd" clip-rule="evenodd" d="M13.3362 20.6247C13.3362 20.2483 13.6413 19.9433 14.0176 19.9433H17.9724C18.3487 19.9433 18.6538 20.2483 18.6538 20.6247V24.6253C18.6538 25.0017 18.3487 25.3067 17.9724 25.3067C17.5961 25.3067 17.291 25.0017 17.291 24.6253V21.3061H14.699V24.6253C14.699 25.0017 14.3939 25.3067 14.0176 25.3067C13.6413 25.3067 13.3362 25.0017 13.3362 24.6253V20.6247Z" fill="black"/>
<path fill-rule="evenodd" clip-rule="evenodd" d="M8.87268 11.3305C8.87268 10.9542 9.17775 10.6491 9.55408 10.6491H22.4369C22.8132 10.6491 23.1183 10.9542 23.1183 11.3305C23.1183 11.7068 22.8132 12.0119 22.4369 12.0119H10.2355V19.9436H21.7555V16.5411H14.0176C13.6413 16.5411 13.3362 16.236 13.3362 15.8597C13.3362 15.4833 13.6413 15.1782 14.0176 15.1782H22.4369C22.8132 15.1782 23.1183 15.4833 23.1183 15.8597V20.625C23.1183 21.0013 22.8132 21.3064 22.4369 21.3064H9.55408C9.17775 21.3064 8.87268 21.0013 8.87268 20.625V11.3305Z" fill="black"/>
<path fill-rule="evenodd" clip-rule="evenodd" d="M15.9954 3.83416C9.28882 3.83416 3.85206 9.27092 3.85206 15.9775C3.85206 22.6841 9.28882 28.1208 15.9954 28.1208C22.702 28.1208 28.1387 22.6841 28.1387 15.9775C28.1387 9.27092 22.702 3.83416 15.9954 3.83416ZM2.48926 15.9775C2.48926 8.51827 8.53616 2.47136 15.9954 2.47136C23.4546 2.47136 29.5015 8.51827 29.5015 15.9775C29.5015 23.4367 23.4546 29.4837 15.9954 29.4837C8.53616 29.4837 2.48926 23.4367 2.48926 15.9775Z" fill="black"/>
</g>
<defs>
<clipPath id="clip0_2379_17523">
<rect width="32" height="32" fill="white"/>
</clipPath>
</defs>
</svg>
