<svg width="32" height="32" viewBox="0 0 32 32" fill="none" xmlns="http://www.w3.org/2000/svg">
<g clip-path="url(#clip0_2386_18156)">
<rect width="32" height="32" rx="12" fill="url(#paint0_radial_2386_18156)"/>
<path d="M10.0469 12.3578C13.2656 9.21406 18.4906 9.21406 21.7094 12.3578L22.0969 12.7391C22.2594 12.8953 22.2594 13.1516 22.0969 13.3078L20.7719 14.6016C20.6906 14.6828 20.5594 14.6828 20.4781 14.6016L19.9469 14.0828C17.6969 11.8891 14.0594 11.8891 11.8094 14.0828L11.2406 14.6391C11.1594 14.7203 11.0281 14.7203 10.9469 14.6391L9.62188 13.3453C9.45938 13.1891 9.45938 12.9328 9.62188 12.7766L10.0469 12.3578ZM24.4531 15.0328L25.6344 16.1828C25.7969 16.3391 25.7969 16.5953 25.6344 16.7516L20.3156 21.9453C20.1531 22.1016 19.8906 22.1016 19.7344 21.9453L15.9594 18.2578C15.9219 18.2203 15.8531 18.2203 15.8156 18.2578L12.0406 21.9453C11.8781 22.1016 11.6156 22.1016 11.4594 21.9453L6.12187 16.7516C5.95938 16.5953 5.95938 16.3391 6.12187 16.1828L7.30312 15.0328C7.46562 14.8766 7.72813 14.8766 7.88438 15.0328L11.6594 18.7203C11.6969 18.7578 11.7656 18.7578 11.8031 18.7203L15.5781 15.0328C15.7406 14.8766 16.0031 14.8766 16.1594 15.0328L19.9344 18.7203C19.9719 18.7578 20.0406 18.7578 20.0781 18.7203L23.8531 15.0328C24.0281 14.8766 24.2906 14.8766 24.4531 15.0328Z" fill="white"/>
</g>
<defs>
<radialGradient id="paint0_radial_2386_18156" cx="0" cy="0" r="1" gradientUnits="userSpaceOnUse" gradientTransform="translate(9.91821e-05 16.0005) scale(32)">
<stop stop-color="#5D9DF6"/>
<stop offset="1" stop-color="#006FFF"/>
</radialGradient>
<clipPath id="clip0_2386_18156">
<rect width="32" height="32" rx="12" fill="white"/>
</clipPath>
</defs>
</svg>
