<svg width="32" height="32" viewBox="0 0 32 32" fill="none" xmlns="http://www.w3.org/2000/svg">
<rect width="32" height="32" rx="12" fill="#0075FF"/>
<g opacity="0.1">
<path fill-rule="evenodd" clip-rule="evenodd" d="M11.5917 7.00961C14.019 7.13412 15.8983 8.90923 17.6321 10.6476C19.3878 12.408 21.2377 14.3042 21.3685 16.8127C21.5045 19.42 20.1948 21.9042 18.3113 23.671C16.502 25.3682 14.048 25.9133 11.5917 25.9839C9.04478 26.0572 6.23737 25.9539 4.48237 24.0687C2.75158 22.2095 2.97571 19.3761 3.05396 16.8127C3.12878 14.3618 3.31582 11.8279 4.91199 9.99514C6.59076 8.06756 9.06798 6.88016 11.5917 7.00961Z" fill="white"/>
<path fill-rule="evenodd" clip-rule="evenodd" d="M11.5917 7.00961C14.019 7.13412 15.8983 8.90923 17.6321 10.6476C19.3878 12.408 21.2377 14.3042 21.3685 16.8127C21.5045 19.42 20.1948 21.9042 18.3113 23.671C16.502 25.3682 14.048 25.9133 11.5917 25.9839C9.04478 26.0572 6.23737 25.9539 4.48237 24.0687C2.75158 22.2095 2.97571 19.3761 3.05396 16.8127C3.12878 14.3618 3.31582 11.8279 4.91199 9.99514C6.59076 8.06756 9.06798 6.88016 11.5917 7.00961Z" fill="white" stroke="url(#paint0_linear_258_20)" stroke-width="0.849562"/>
</g>
<g opacity="0.2">
<path fill-rule="evenodd" clip-rule="evenodd" d="M13.7198 7.00961C16.1471 7.13412 18.0264 8.90923 19.7602 10.6476C21.5159 12.408 23.3657 14.3042 23.4966 16.8127C23.6325 19.42 22.3229 21.9042 20.4394 23.671C18.6301 25.3682 16.1761 25.9133 13.7198 25.9839C11.1729 26.0572 8.36545 25.9539 6.61045 24.0687C4.87966 22.2095 5.1038 19.3761 5.18205 16.8127C5.25687 14.3618 5.4439 11.8279 7.04007 9.99514C8.71884 8.06756 11.1961 6.88016 13.7198 7.00961Z" fill="white"/>
<path fill-rule="evenodd" clip-rule="evenodd" d="M13.7198 7.00961C16.1471 7.13412 18.0264 8.90923 19.7602 10.6476C21.5159 12.408 23.3657 14.3042 23.4966 16.8127C23.6325 19.42 22.3229 21.9042 20.4394 23.671C18.6301 25.3682 16.1761 25.9133 13.7198 25.9839C11.1729 26.0572 8.36545 25.9539 6.61045 24.0687C4.87966 22.2095 5.1038 19.3761 5.18205 16.8127C5.25687 14.3618 5.4439 11.8279 7.04007 9.99514C8.71884 8.06756 11.1961 6.88016 13.7198 7.00961Z" fill="white" stroke="url(#paint1_linear_258_20)" stroke-width="0.849562"/>
</g>
<g opacity="0.5">
<path fill-rule="evenodd" clip-rule="evenodd" d="M16.599 7.00961C19.0264 7.13412 20.9057 8.90923 22.6394 10.6476C24.3951 12.408 26.245 14.3042 26.3758 16.8127C26.5118 19.42 25.2021 21.9042 23.3186 23.671C21.5094 25.3682 19.0554 25.9133 16.599 25.9839C14.0521 26.0572 11.2447 25.9539 9.48973 24.0687C7.75893 22.2095 7.98307 19.3761 8.06132 16.8127C8.13614 14.3618 8.32317 11.8279 9.91934 9.99514C11.5981 8.06756 14.0753 6.88016 16.599 7.00961Z" fill="white"/>
<path fill-rule="evenodd" clip-rule="evenodd" d="M16.599 7.00961C19.0264 7.13412 20.9057 8.90923 22.6394 10.6476C24.3951 12.408 26.245 14.3042 26.3758 16.8127C26.5118 19.42 25.2021 21.9042 23.3186 23.671C21.5094 25.3682 19.0554 25.9133 16.599 25.9839C14.0521 26.0572 11.2447 25.9539 9.48973 24.0687C7.75893 22.2095 7.98307 19.3761 8.06132 16.8127C8.13614 14.3618 8.32317 11.8279 9.91934 9.99514C11.5981 8.06756 14.0753 6.88016 16.599 7.00961Z" fill="white" stroke="url(#paint2_linear_258_20)" stroke-width="0.849562"/>
</g>
<path fill-rule="evenodd" clip-rule="evenodd" d="M19.4782 7.00961C21.9055 7.13412 23.7849 8.90923 25.5186 10.6476C27.2743 12.408 29.1242 14.3042 29.255 16.8127C29.391 19.42 28.0813 21.9042 26.1978 23.671C24.3886 25.3682 21.9346 25.9133 19.4782 25.9839C16.9313 26.0572 14.1239 25.9539 12.3689 24.0687C10.6381 22.2095 10.8622 19.3761 10.9405 16.8127C11.0153 14.3618 11.2024 11.8279 12.7985 9.99514C14.4773 8.06756 16.9545 6.88016 19.4782 7.00961Z" fill="white"/>
<path fill-rule="evenodd" clip-rule="evenodd" d="M19.4782 7.00961C21.9055 7.13412 23.7849 8.90923 25.5186 10.6476C27.2743 12.408 29.1242 14.3042 29.255 16.8127C29.391 19.42 28.0813 21.9042 26.1978 23.671C24.3886 25.3682 21.9346 25.9133 19.4782 25.9839C16.9313 26.0572 14.1239 25.9539 12.3689 24.0687C10.6381 22.2095 10.8622 19.3761 10.9405 16.8127C11.0153 14.3618 11.2024 11.8279 12.7985 9.99514C14.4773 8.06756 16.9545 6.88016 19.4782 7.00961Z" fill="white" stroke="url(#paint3_linear_258_20)" stroke-width="0.849562"/>
<defs>
<linearGradient id="paint0_linear_258_20" x1="12.1891" y1="7" x2="12.1891" y2="26" gradientUnits="userSpaceOnUse">
<stop offset="0.354167" stop-color="#8AB9F0"/>
<stop offset="1" stop-color="#3E96FD"/>
</linearGradient>
<linearGradient id="paint1_linear_258_20" x1="14.3172" y1="7" x2="14.3172" y2="26" gradientUnits="userSpaceOnUse">
<stop offset="0.354167" stop-color="#8AB9F0"/>
<stop offset="1" stop-color="#3E96FD"/>
</linearGradient>
<linearGradient id="paint2_linear_258_20" x1="17.1964" y1="7" x2="17.1964" y2="26" gradientUnits="userSpaceOnUse">
<stop offset="0.354167" stop-color="#8AB9F0"/>
<stop offset="1" stop-color="#3E96FD"/>
</linearGradient>
<linearGradient id="paint3_linear_258_20" x1="20.0756" y1="7" x2="20.0756" y2="26" gradientUnits="userSpaceOnUse">
<stop offset="0.354167" stop-color="#8AB9F0"/>
<stop offset="1" stop-color="#3E96FD"/>
</linearGradient>
</defs>
</svg>
