<svg width="32" height="32" viewBox="0 0 32 32" fill="none" xmlns="http://www.w3.org/2000/svg">
<rect width="32" height="32" rx="16" fill="white"/>
<path d="M9.45204 24.0002L12.0064 19.5924L14.5607 15.2002L17.0995 10.7924L17.52 10.094L17.7069 10.7924L18.4857 13.6947L17.6135 15.2002L15.0591 19.5924L12.5204 24.0002H15.5731L18.1274 19.5924L19.4513 17.3109L20.0743 19.5924L21.2581 24.0002H23.9993L22.8156 19.5924L21.6319 15.2002L21.3204 14.0672L23.2205 10.7924H20.4481L20.3547 10.4665L19.389 6.86579L19.2644 6.40018H16.6011L16.5388 6.4933L14.0467 10.7924L11.4924 15.2002L8.95363 19.5924L6.39929 24.0002H9.45204Z" fill="#18181B"/>
</svg>
