<svg width="32" height="32" viewBox="0 0 32 32" fill="none" xmlns="http://www.w3.org/2000/svg">
<rect width="32" height="32" rx="16" fill="#335CBE"/>
<path d="M10.3756 15.9231C10.3513 16.3346 10.5037 16.7382 10.7995 17.0457C11.0953 17.3532 11.5104 17.5395 11.9539 17.5638H12.0508C12.3784 17.5636 12.6987 17.4743 12.9722 17.3071C13.2458 17.1398 13.4605 16.9019 13.5898 16.6227C13.7192 16.3435 13.7575 16.0353 13.7001 15.7361C13.6427 15.4369 13.4921 15.1599 13.2668 14.9392C13.0415 14.7186 12.7515 14.564 12.4325 14.4946C12.1136 14.4252 11.7797 14.4439 11.4722 14.5486C11.1646 14.6532 10.8968 14.8392 10.7019 15.0835C10.5071 15.3277 10.3936 15.6196 10.3756 15.9231ZM4.12745 15.5229C4.02052 15.5173 3.91421 15.5413 3.82196 15.5918C3.72972 15.6422 3.65568 15.7169 3.6092 15.8064C3.56272 15.8959 3.54589 15.9962 3.56085 16.0946C3.5758 16.193 3.62185 16.285 3.6932 16.3591C3.76454 16.4332 3.85796 16.486 3.96166 16.5109C4.06535 16.5357 4.17466 16.5315 4.27576 16.4987C4.37687 16.466 4.46523 16.4061 4.52968 16.3268C4.59412 16.2474 4.63176 16.1521 4.63784 16.053C4.64196 15.987 4.63202 15.921 4.60858 15.8587C4.58515 15.7963 4.54868 15.7389 4.50126 15.6896C4.45384 15.6404 4.39642 15.6003 4.33227 15.5717C4.26813 15.5431 4.19852 15.5265 4.12745 15.5229ZM10.2694 6.8992C10.3647 6.85418 10.4435 6.784 10.4959 6.69749C10.5482 6.61098 10.5718 6.51203 10.5636 6.41311C10.5554 6.31419 10.5159 6.21972 10.4499 6.14163C10.3839 6.06354 10.2945 6.00532 10.1929 5.97431C10.0913 5.94329 9.98211 5.94088 9.87904 5.96736C9.77597 5.99385 9.68366 6.04805 9.61375 6.12314C9.54384 6.19822 9.49946 6.29083 9.48621 6.38928C9.47296 6.48772 9.49143 6.58761 9.5393 6.67633C9.5714 6.73548 9.61577 6.78818 9.66985 6.8314C9.72394 6.87463 9.78669 6.90753 9.8545 6.92823C9.92231 6.94894 9.99386 6.95703 10.0651 6.95205C10.1362 6.94706 10.2057 6.92911 10.2694 6.8992ZM11.9698 9.64939C12.1176 9.58028 12.24 9.47207 12.3215 9.33844C12.403 9.20482 12.4399 9.05178 12.4277 8.89867C12.4154 8.74556 12.3545 8.59926 12.2526 8.47826C12.1507 8.35727 12.0125 8.26701 11.8553 8.2189C11.6981 8.17079 11.5291 8.16698 11.3696 8.20797C11.2101 8.24896 11.0673 8.33289 10.9592 8.44916C10.8511 8.56544 10.7826 8.70882 10.7624 8.8612C10.7421 9.01358 10.771 9.1681 10.8455 9.30524C10.9454 9.4891 11.12 9.62863 11.3308 9.69316C11.5417 9.7577 11.7715 9.74195 11.9698 9.64939ZM6.24865 11.5407C6.36274 11.6101 6.49645 11.6465 6.63285 11.6453C6.76924 11.6442 6.90221 11.6055 7.01493 11.5342C7.12764 11.463 7.21504 11.3623 7.26607 11.245C7.3171 11.1276 7.32947 10.9989 7.30162 10.875C7.27376 10.7512 7.20693 10.6377 7.10957 10.5491C7.01222 10.4605 6.88872 10.4006 6.75469 10.3771C6.62066 10.3536 6.48212 10.3675 6.35661 10.417C6.23109 10.4666 6.12423 10.5495 6.04954 10.6554C5.94943 10.7973 5.91417 10.9703 5.95151 11.1363C5.98884 11.3023 6.09572 11.4478 6.24865 11.5407ZM7.26743 15.2458C7.10202 15.2371 6.93751 15.274 6.79473 15.352C6.65195 15.4299 6.5373 15.5454 6.46529 15.6839C6.39328 15.8223 6.36715 15.9774 6.3902 16.1296C6.41324 16.2818 6.48443 16.4242 6.59476 16.5389C6.70509 16.6536 6.84961 16.7353 7.01002 16.7738C7.17043 16.8122 7.33954 16.8057 7.49596 16.755C7.65237 16.7043 7.78906 16.6117 7.88873 16.4889C7.98841 16.3662 8.04659 16.2187 8.05592 16.0653C8.06842 15.8596 7.99239 15.6578 7.84453 15.5041C7.69668 15.3505 7.48911 15.2576 7.26743 15.2458ZM6.34289 20.4618C6.22107 20.5187 6.12017 20.6078 6.05297 20.7179C5.98577 20.8281 5.95529 20.9542 5.96537 21.0804C5.97546 21.2066 6.02567 21.3271 6.10964 21.4269C6.19361 21.5266 6.30758 21.601 6.43712 21.6406C6.56667 21.6802 6.70597 21.6833 6.83742 21.6495C6.96886 21.6157 7.08653 21.5464 7.17556 21.4506C7.26458 21.3547 7.32096 21.2365 7.33755 21.1109C7.35414 20.9853 7.3302 20.8579 7.26876 20.745C7.22813 20.6699 7.17191 20.603 7.10335 20.5481C7.03479 20.4932 6.95522 20.4514 6.8692 20.4251C6.78319 20.3988 6.69242 20.3885 6.60211 20.3948C6.51179 20.4011 6.42371 20.4238 6.34289 20.4618ZM9.59505 13.6383C9.75794 13.7374 9.94885 13.7895 10.1436 13.7879C10.3384 13.7864 10.5283 13.7313 10.6894 13.6296C10.8504 13.5279 10.9753 13.3842 11.0483 13.2167C11.1213 13.0492 11.1391 12.8653 11.0995 12.6884C11.0599 12.5115 10.9646 12.3495 10.8257 12.2228C10.6868 12.0961 10.5105 12.0105 10.3191 11.9767C10.1278 11.943 9.92991 11.9626 9.75058 12.0332C9.57125 12.1037 9.4185 12.222 9.31165 12.3731C9.2406 12.4734 9.19157 12.5857 9.16736 12.7036C9.14315 12.8215 9.14424 12.9427 9.17056 13.0602C9.19688 13.1777 9.24792 13.2893 9.32076 13.3885C9.3936 13.4877 9.4868 13.5726 9.59505 13.6383ZM19.9137 9.58783C20.0522 9.67215 20.2145 9.71647 20.3802 9.71519C20.5459 9.71391 20.7074 9.66708 20.8444 9.58062C20.9814 9.49417 21.0876 9.37197 21.1497 9.22949C21.2118 9.08701 21.227 8.93065 21.1933 8.78018C21.1596 8.6297 21.0785 8.49188 20.9604 8.38415C20.8422 8.27641 20.6923 8.2036 20.5295 8.17492C20.3668 8.14624 20.1985 8.16298 20.046 8.22303C19.8935 8.28307 19.7636 8.38373 19.6727 8.51225C19.6124 8.59753 19.5707 8.69302 19.5501 8.79324C19.5296 8.89347 19.5305 8.99647 19.5529 9.09636C19.5752 9.19625 19.6186 9.29108 19.6805 9.3754C19.7424 9.45973 19.8217 9.53192 19.9137 9.58783ZM21.6313 6.84626C21.7209 6.90065 21.8259 6.92918 21.9329 6.92826C22.04 6.92734 22.1444 6.897 22.2329 6.84108C22.3213 6.78516 22.39 6.70617 22.4301 6.61408C22.4702 6.52199 22.48 6.42094 22.4582 6.3237C22.4364 6.22645 22.384 6.13738 22.3077 6.06774C22.2314 5.99809 22.1345 5.95099 22.0293 5.9324C21.9241 5.9138 21.8154 5.92454 21.7168 5.96326C21.6182 6.00198 21.5342 6.06694 21.4754 6.14993C21.4362 6.20513 21.4092 6.26695 21.3959 6.33184C21.3826 6.39673 21.3832 6.46342 21.3977 6.5281C21.4121 6.59278 21.4402 6.65417 21.4803 6.70877C21.5204 6.76336 21.5717 6.81008 21.6313 6.84626ZM20.0451 14.4399C19.8253 14.4283 19.6053 14.457 19.3975 14.5242C19.1897 14.5915 18.9983 14.6961 18.8341 14.832C18.6698 14.968 18.5361 15.1326 18.4404 15.3164C18.3448 15.5003 18.2891 15.6998 18.2766 15.9037C18.2641 16.1075 18.295 16.3116 18.3676 16.5043C18.4401 16.6971 18.5528 16.8747 18.6994 17.027C18.8459 17.1794 19.0233 17.3034 19.2215 17.3922C19.4198 17.4809 19.6349 17.5325 19.8546 17.5441H19.9508C20.3871 17.5441 20.8062 17.3863 21.119 17.1041C21.4318 16.822 21.6137 16.4378 21.626 16.0333C21.6382 15.6287 21.48 15.2357 21.1847 14.9377C20.8895 14.6397 20.4807 14.4602 20.0451 14.4374V14.4399ZM12.5207 13.5306C12.6598 13.788 12.8737 14.0043 13.1383 14.1551C13.4028 14.3058 13.7075 14.3851 14.018 14.3839C14.3041 14.3838 14.5854 14.3158 14.8352 14.1863C15.085 14.0569 15.2948 13.8702 15.4448 13.6442C15.5948 13.4182 15.6799 13.1603 15.692 12.8951C15.7041 12.6299 15.6428 12.3663 15.514 12.1293C15.3139 11.7611 14.9644 11.4817 14.5422 11.3525C14.1201 11.2234 13.6599 11.2551 13.263 11.4407C12.8661 11.6263 12.5649 11.9505 12.4256 12.3421C12.2864 12.7337 12.3206 13.1605 12.5207 13.5287V13.5306ZM25.6567 11.5389C25.7781 11.4816 25.8785 11.3922 25.9452 11.282C26.0119 11.1718 26.0419 11.0458 26.0314 10.9198C26.021 10.7938 25.9706 10.6735 25.8865 10.5741C25.8025 10.4746 25.6885 10.4005 25.5591 10.3611C25.4297 10.3216 25.2906 10.3186 25.1594 10.3525C25.0281 10.3863 24.9106 10.4554 24.8216 10.5511C24.7327 10.6468 24.6763 10.7647 24.6595 10.8901C24.6428 11.0155 24.6664 11.1427 24.7275 11.2557C24.7683 11.331 24.8248 11.3981 24.8936 11.4531C24.9625 11.5081 25.0424 11.55 25.1287 11.5763C25.215 11.6026 25.3061 11.6128 25.3967 11.6064C25.4873 11.6 25.5757 11.577 25.6567 11.5389ZM21.409 12.0339C21.2351 12.1152 21.0911 12.2426 20.9952 12.3999C20.8994 12.5571 20.8559 12.7372 20.8703 12.9174C20.8848 13.0975 20.9565 13.2697 21.0764 13.4121C21.1963 13.5544 21.359 13.6606 21.5439 13.7173C21.7289 13.7739 21.9278 13.7784 22.1155 13.7301C22.3031 13.6819 22.4712 13.5832 22.5984 13.4463C22.7256 13.3095 22.8062 13.1408 22.8301 12.9615C22.8539 12.7822 22.82 12.6004 22.7324 12.439C22.6147 12.2226 22.4092 12.0584 22.161 11.9825C21.9129 11.9065 21.6424 11.925 21.409 12.0339ZM15.9367 6.61169C16.0728 6.61876 16.208 6.58828 16.3254 6.5241C16.4428 6.45993 16.5371 6.36493 16.5963 6.2511C16.6556 6.13727 16.6771 6.00971 16.6583 5.88453C16.6394 5.75935 16.581 5.64215 16.4904 5.54773C16.3998 5.45331 16.2811 5.38591 16.1493 5.35402C16.0174 5.32213 15.8783 5.32719 15.7496 5.36857C15.6208 5.40994 15.5082 5.48577 15.4258 5.58649C15.3435 5.6872 15.2952 5.80828 15.287 5.93445C15.2814 6.01855 15.2938 6.10285 15.3235 6.18248C15.3532 6.26211 15.3996 6.33551 15.46 6.39846C15.5204 6.4614 15.5936 6.51264 15.6754 6.54924C15.7572 6.58583 15.846 6.60705 15.9367 6.61169ZM15.9288 10.6363C16.1232 10.6462 16.3165 10.6025 16.4841 10.5106C16.6517 10.4187 16.7862 10.2827 16.8706 10.1199C16.955 9.95714 16.9855 9.7748 16.9582 9.59595C16.9309 9.4171 16.847 9.24977 16.7172 9.1151C16.5874 8.98044 16.4175 8.88448 16.229 8.83936C16.0404 8.79423 15.8417 8.80197 15.6579 8.86158C15.4741 8.9212 15.3134 9.03002 15.1963 9.1743C15.0791 9.31857 15.0106 9.49183 14.9996 9.67217C14.9922 9.7921 15.0105 9.91219 15.0532 10.0256C15.0959 10.139 15.1624 10.2434 15.2487 10.333C15.335 10.4225 15.4395 10.4954 15.5562 10.5475C15.6729 10.5995 15.7995 10.6297 15.9288 10.6363ZM10.5906 19.9668C10.7646 19.8855 10.9087 19.7582 11.0046 19.6009C11.1006 19.4437 11.1442 19.2636 11.1298 19.0834C11.1154 18.9032 11.0438 18.731 10.9239 18.5885C10.804 18.4461 10.6413 18.3398 10.4563 18.2832C10.2714 18.2265 10.0724 18.222 9.8847 18.2703C9.69697 18.3185 9.52887 18.4173 9.40165 18.5541C9.27444 18.6909 9.19383 18.8597 9.17001 19.0391C9.14619 19.2184 9.18024 19.4003 9.26784 19.5617C9.38546 19.778 9.59083 19.9422 9.83885 20.0181C10.0869 20.0941 10.3573 20.0756 10.5906 19.9668ZM16.5639 11.9698C16.36 12.2589 16.2659 12.6027 16.2963 12.947C16.3267 13.2913 16.4801 13.6163 16.732 13.8706C16.9839 14.125 17.3201 14.2942 17.6874 14.3514C18.0546 14.4086 18.4319 14.3505 18.7596 14.1865C19.0873 14.0224 19.3466 13.7617 19.4966 13.4455C19.6466 13.1293 19.6787 12.7758 19.5877 12.4409C19.4968 12.1059 19.288 11.8086 18.9945 11.5961C18.7009 11.3836 18.3394 11.2679 17.967 11.2674C17.6887 11.2673 17.4147 11.3315 17.1698 11.4541C16.9249 11.5768 16.7167 11.754 16.5639 11.9698ZM19.4789 18.4701C19.3298 18.1953 19.0961 17.9677 18.8075 17.8161C18.5189 17.6645 18.1883 17.5958 17.8576 17.6185C17.5268 17.6413 17.2108 17.7545 16.9494 17.9439C16.6881 18.1333 16.4931 18.3903 16.3893 18.6825C16.2854 18.9747 16.2774 19.2889 16.366 19.5853C16.4547 19.8818 16.6362 20.1471 16.8875 20.3479C17.1388 20.5486 17.4487 20.6757 17.7779 20.7131C18.1071 20.7505 18.4408 20.6964 18.7369 20.5578C18.9343 20.4668 19.1102 20.3403 19.2545 20.1858C19.3988 20.0313 19.5087 19.8518 19.5777 19.6576C19.6467 19.4634 19.6735 19.2585 19.6565 19.0547C19.6396 18.8508 19.5792 18.6521 19.4789 18.4701ZM22.4045 18.3623C22.2417 18.2632 22.0507 18.2112 21.856 18.2127C21.6612 18.2143 21.4713 18.2694 21.3102 18.3711C21.1492 18.4727 21.0243 18.6164 20.9513 18.7839C20.8783 18.9515 20.8605 19.1353 20.9001 19.3122C20.9397 19.4891 21.035 19.6512 21.1739 19.7779C21.3128 19.9045 21.4891 19.9902 21.6805 20.0239C21.8718 20.0577 22.0697 20.038 22.249 19.9675C22.4283 19.8969 22.5811 19.7786 22.6879 19.6275C22.7589 19.5272 22.8079 19.4149 22.832 19.297C22.8562 19.1791 22.8551 19.058 22.8288 18.9405C22.8024 18.823 22.7514 18.7115 22.6786 18.6123C22.6059 18.5131 22.5127 18.4281 22.4045 18.3623ZM25.6155 16.0265C25.625 15.873 25.5852 15.7204 25.5011 15.588C25.4171 15.4555 25.2926 15.3492 25.1433 15.2824C24.9941 15.2156 24.8269 15.1914 24.6628 15.2127C24.4987 15.2341 24.3452 15.3002 24.2216 15.4025C24.098 15.5048 24.0098 15.6389 23.9684 15.7877C23.9269 15.9365 23.934 16.0934 23.9886 16.2385C24.0433 16.3836 24.1431 16.5104 24.2754 16.6028C24.4078 16.6953 24.5667 16.7492 24.7322 16.7579C24.9538 16.7695 25.1714 16.699 25.3371 16.5618C25.5027 16.4247 25.6029 16.2321 25.6155 16.0265ZM27.9332 15.4742C27.8263 15.4687 27.72 15.4926 27.6277 15.5431C27.5355 15.5936 27.4614 15.6683 27.415 15.7578C27.3685 15.8473 27.3517 15.9476 27.3666 16.046C27.3816 16.1443 27.4276 16.2364 27.499 16.3105C27.5703 16.3846 27.6637 16.4374 27.7674 16.4622C27.8711 16.4871 27.9804 16.4829 28.0815 16.4501C28.1826 16.4173 28.271 16.3575 28.3354 16.2781C28.3999 16.1988 28.4375 16.1035 28.4436 16.0043C28.4516 15.8713 28.4023 15.7407 28.3066 15.6413C28.2109 15.542 28.0766 15.4819 27.9332 15.4742ZM25.7509 20.4593C25.6368 20.39 25.5032 20.3537 25.3668 20.3549C25.2304 20.3561 25.0975 20.3948 24.9849 20.466C24.8722 20.5373 24.7848 20.6379 24.7338 20.7553C24.6828 20.8726 24.6704 21.0013 24.6983 21.1251C24.7261 21.2489 24.7929 21.3623 24.8902 21.451C24.9875 21.5396 25.1109 21.5995 25.2449 21.623C25.3789 21.6466 25.5174 21.6328 25.6429 21.5833C25.7684 21.5339 25.8753 21.451 25.9501 21.3452C25.9997 21.275 26.034 21.1963 26.0509 21.1137C26.0677 21.0311 26.0669 20.9463 26.0484 20.864C26.0299 20.7817 25.9941 20.7036 25.9431 20.6342C25.892 20.5648 25.8268 20.5053 25.7509 20.4593ZM10.3683 25.1544C10.2787 25.0998 10.1738 25.0711 10.0667 25.0719C9.95956 25.0727 9.8551 25.1029 9.7665 25.1588C9.67791 25.2146 9.60916 25.2936 9.56894 25.3857C9.52873 25.4778 9.51886 25.5788 9.54058 25.6761C9.5623 25.7734 9.61463 25.8626 9.69097 25.9323C9.7673 26.002 9.86421 26.0491 9.96943 26.0678C10.0746 26.0864 10.1835 26.0756 10.2821 26.0369C10.3807 25.9981 10.4648 25.9331 10.5236 25.8501C10.6022 25.7387 10.6301 25.6029 10.601 25.4725C10.5719 25.342 10.4882 25.2276 10.3683 25.1544ZM21.7296 25.1014C21.6342 25.1465 21.5554 25.2166 21.5031 25.3032C21.4507 25.3897 21.4271 25.4886 21.4353 25.5875C21.4435 25.6865 21.483 25.7809 21.549 25.859C21.615 25.9371 21.7044 25.9953 21.806 26.0263C21.9076 26.0574 22.0168 26.0598 22.1199 26.0333C22.223 26.0068 22.3153 25.9526 22.3852 25.8775C22.4551 25.8024 22.4995 25.7098 22.5127 25.6114C22.526 25.5129 22.5075 25.413 22.4596 25.3243C22.4277 25.265 22.3834 25.2122 22.3293 25.1689C22.2752 25.1256 22.2125 25.0926 22.1446 25.0719C22.0767 25.0512 22.0051 25.0431 21.9339 25.0482C21.8627 25.0533 21.7932 25.0714 21.7296 25.1014ZM15.4356 20.0302C15.64 19.7409 15.7346 19.3966 15.7043 19.0518C15.674 18.707 15.5206 18.3814 15.2684 18.1267C15.0161 17.8719 14.6795 17.7024 14.3118 17.645C13.944 17.5877 13.5661 17.6458 13.238 17.8101C12.9098 17.9744 12.6501 18.2355 12.5 18.5522C12.3498 18.8688 12.3178 19.2228 12.409 19.5583C12.5002 19.8937 12.7094 20.1913 13.0034 20.404C13.2975 20.6167 13.6597 20.7324 14.0326 20.7327C14.3111 20.7337 14.5855 20.67 14.8306 20.5472C15.0757 20.4245 15.2837 20.2467 15.4356 20.0302ZM12.0859 22.4128C11.9474 22.3285 11.7851 22.2842 11.6194 22.2855C11.4537 22.2867 11.2922 22.3336 11.1552 22.42C11.0182 22.5065 10.912 22.6287 10.8499 22.7711C10.7877 22.9136 10.7726 23.07 10.8063 23.2205C10.84 23.3709 10.9211 23.5088 11.0392 23.6165C11.1574 23.7242 11.3073 23.797 11.4701 23.8257C11.6328 23.8544 11.8011 23.8377 11.9536 23.7776C12.1061 23.7176 12.236 23.6169 12.3269 23.4884C12.4486 23.3161 12.4916 23.106 12.4465 22.9043C12.4013 22.7026 12.2716 22.5258 12.0859 22.4128ZM15.9918 25.3883C15.8558 25.3811 15.7205 25.4115 15.603 25.4756C15.4855 25.5397 15.3911 25.6347 15.3318 25.7485C15.2725 25.8623 15.2508 25.9898 15.2696 26.1151C15.2883 26.2403 15.3467 26.3575 15.4372 26.452C15.5278 26.5465 15.6465 26.614 15.7784 26.6459C15.9102 26.6778 16.0494 26.6728 16.1781 26.6315C16.3069 26.5901 16.4196 26.5143 16.502 26.4136C16.5844 26.3129 16.6327 26.1918 16.6409 26.0656C16.6464 25.9815 16.634 25.8973 16.6043 25.8178C16.5746 25.7382 16.5283 25.6649 16.468 25.6019C16.4077 25.539 16.3346 25.4878 16.2528 25.4511C16.1711 25.4145 16.0824 25.3931 15.9918 25.3883ZM15.9991 21.3637C15.8047 21.3538 15.6115 21.3975 15.4439 21.4894C15.2763 21.5813 15.1418 21.7172 15.0574 21.88C14.973 22.0427 14.9425 22.225 14.9698 22.4039C14.997 22.5827 15.0808 22.75 15.2105 22.8847C15.3402 23.0194 15.5101 23.1154 15.6986 23.1606C15.8871 23.2058 16.0858 23.1981 16.2696 23.1386C16.4534 23.0791 16.6141 22.9703 16.7314 22.8262C16.8486 22.682 16.9171 22.5088 16.9283 22.3285C16.9357 22.2085 16.9175 22.0884 16.8747 21.975C16.832 21.8615 16.7656 21.757 16.6793 21.6674C16.593 21.5778 16.4885 21.5049 16.3718 21.4528C16.2551 21.4007 16.1285 21.3704 15.9991 21.3637ZM20.0291 22.3506C19.8817 22.4202 19.7597 22.5287 19.6786 22.6625C19.5975 22.7964 19.561 22.9494 19.5736 23.1025C19.5863 23.2555 19.6475 23.4017 19.7495 23.5225C19.8516 23.6433 19.99 23.7334 20.1472 23.7813C20.3043 23.8293 20.4733 23.8329 20.6328 23.7919C20.7922 23.7509 20.935 23.6669 21.043 23.5507C21.1511 23.4345 21.2197 23.2911 21.24 23.1388C21.2604 22.9865 21.2316 22.832 21.1574 22.6948C21.108 22.6033 21.0394 22.5217 20.9559 22.4549C20.8723 22.388 20.7753 22.3371 20.6704 22.3051C20.5656 22.2731 20.4549 22.2607 20.3449 22.2685C20.2348 22.2763 20.1275 22.3042 20.0291 22.3506Z" fill="white"/>
</svg>
