<svg width="32" height="32" viewBox="0 0 32 32" fill="none" xmlns="http://www.w3.org/2000/svg">
<g clip-path="url(#clip0_2379_30716)">
<path d="M16 32C24.8366 32 32 24.8366 32 16C32 7.16344 24.8366 0 16 0C7.16344 0 0 7.16344 0 16C0 24.8366 7.16344 32 16 32Z" fill="#13B5EC"/>
<path fill-rule="evenodd" clip-rule="evenodd" d="M17.4411 12.2875L21.764 9.76575V14.8092L17.4411 12.2875ZM21.764 23.0948L16.0001 26.4571L10.2361 23.0948V17.2108L16.0001 20.5731L21.764 17.2108V23.0948ZM10.2361 9.76575L14.5591 12.2875L10.2361 14.8092V9.76575ZM16.7206 13.4883L21.0435 16.01L16.7206 18.5317V13.4883ZM15.2796 18.5317L10.9566 16.01L15.2796 13.4883V18.5317ZM21.0435 8.56493L16.0001 11.4469L10.9566 8.56493L16.0001 5.56288L21.0435 8.56493ZM8.79517 8.0846V23.8153L16.0001 27.8981L23.205 23.8153V8.0846L16.0001 4.00182L8.79517 8.0846Z" fill="white"/>
</g>
<defs>
<clipPath id="clip0_2379_30716">
<rect width="32" height="32" fill="white"/>
</clipPath>
</defs>
</svg>
