<svg width="32" height="32" viewBox="0 0 32 32" fill="none" xmlns="http://www.w3.org/2000/svg">
<path d="M16 32C24.8366 32 32 24.8366 32 16C32 7.16344 24.8366 0 16 0C7.16344 0 0 7.16344 0 16C0 24.8366 7.16344 32 16 32Z" fill="#988430"/>
<path d="M16 31.4875C24.5535 31.4875 31.4875 24.5535 31.4875 16C31.4875 7.4465 24.5535 0.512527 16 0.512527C7.44655 0.512527 0.512573 7.4465 0.512573 16C0.512573 24.5535 7.44655 31.4875 16 31.4875Z" fill="#7A6A2A"/>
<path d="M15.9999 31.1611C24.3732 31.1611 31.1611 24.3732 31.1611 16C31.1611 7.62669 24.3732 0.838806 15.9999 0.838806C7.62662 0.838806 0.838745 7.62669 0.838745 16C0.838745 24.3732 7.62662 31.1611 15.9999 31.1611Z" fill="#BA9F33"/>
<path fill-rule="evenodd" clip-rule="evenodd" d="M6.99561 14.2913C6.90499 14.2085 6.80924 14.1256 6.72118 14.0428C6.63311 13.96 6.54266 13.8771 6.45204 13.7943L6.18272 13.5383C6.13869 13.4943 6.0921 13.4555 6.04807 13.4113C6.00404 13.3726 5.95232 13.3286 5.90829 13.2897C5.55092 12.9505 5.19149 12.6114 4.83907 12.2721C5.20412 12.6061 5.5615 12.9377 5.92655 13.2767L6.05336 13.4037C6.09739 13.4475 6.14398 13.4864 6.18801 13.5305L6.45716 13.779C6.54778 13.8617 6.63584 13.9447 6.72647 14.035C6.81709 14.1252 6.90516 14.2084 6.99578 14.291L6.99561 14.2913ZM2.25261 14.2401C2.25261 14.2401 3.55224 14.3746 4.18661 14.4652C4.77421 14.5482 6.61246 14.8303 6.61246 14.8303L2.25261 14.2401ZM2.25261 14.2401C2.61767 14.2712 2.98272 14.3099 3.34778 14.3488C3.53415 14.3669 3.71284 14.3876 3.89152 14.4056L4.16579 14.4369C4.25641 14.4497 4.34447 14.4626 4.4351 14.4756L5.52259 14.649L6.06616 14.7396C6.24485 14.7707 6.42353 14.8045 6.6099 14.8356C6.43121 14.8175 6.24485 14.7915 6.06616 14.7656L5.52259 14.6879L4.4351 14.5275C4.34447 14.5145 4.25641 14.4963 4.16579 14.4835L3.89135 14.4519C3.71267 14.4338 3.5263 14.4079 3.34761 14.387C2.98255 14.3432 2.6175 14.2964 2.25244 14.2396L2.25261 14.2401ZM6.4831 15.1689C6.4831 15.1689 5.09541 15.5211 4.62676 15.6558C4.16596 15.7826 2.77041 16.2072 2.77041 16.2072L6.48293 15.169L6.4831 15.1689Z" fill="#CFB66C"/>
<path fill-rule="evenodd" clip-rule="evenodd" d="M6.48274 15.1688C6.17469 15.2595 5.86834 15.3475 5.55585 15.4305L4.62896 15.679C4.32091 15.7696 4.01456 15.8577 3.70736 15.9483L3.24656 16.0751C3.09381 16.1192 2.93851 16.1579 2.78064 16.2021C2.93322 16.1509 3.08869 16.0985 3.24144 16.0545L3.70224 15.907C4.01029 15.8111 4.31664 15.7205 4.62384 15.6247C4.93701 15.5471 5.24524 15.4641 5.55841 15.389C5.85605 15.3139 6.1694 15.239 6.48274 15.169V15.1688ZM2.96445 17.0616C3.11702 17.0046 4.87762 16.184 5.28671 15.9924C5.49151 15.8964 6.08679 15.6851 6.08679 15.6851L2.96445 17.0616Z" fill="#CFB66C"/>
<path fill-rule="evenodd" clip-rule="evenodd" d="M2.96453 17.0616C3.09901 17.0104 3.22599 16.9477 3.35535 16.8882L3.7385 16.7095L4.50752 16.3393C4.76352 16.2176 5.01236 16.0833 5.27638 15.969C5.41103 15.9121 5.54569 15.8655 5.68017 15.8215L5.88497 15.7568C5.95478 15.7387 6.01963 15.7179 6.08977 15.6998C5.83377 15.8215 5.56429 15.9251 5.30795 16.044C5.05195 16.171 4.79015 16.2746 4.52596 16.3885L3.74413 16.7327C3.48165 16.839 3.22565 16.9528 2.96436 17.0616H2.96453ZM3.13519 17.7784C3.13519 17.7784 4.7299 16.8438 5.27877 16.5434C5.56617 16.383 6.49562 15.922 6.49562 15.922L3.13519 17.7784Z" fill="#CFB66C"/>
<path fill-rule="evenodd" clip-rule="evenodd" d="M3.13538 17.7787C3.40452 17.6129 3.67895 17.4447 3.95338 17.2738L4.36298 17.0252C4.50276 16.9424 4.63741 16.8647 4.77992 16.782C4.9197 16.699 5.05435 16.6163 5.19669 16.5386C5.26445 16.4968 5.33544 16.4604 5.409 16.4299L5.62643 16.3212C5.91383 16.1814 6.20123 16.0389 6.50417 15.9172C6.22973 16.0908 5.94745 16.2384 5.66534 16.391C5.52556 16.4686 5.38306 16.5386 5.24328 16.6163C5.1035 16.6939 4.96885 16.7769 4.82634 16.8519C4.68657 16.9347 4.55191 17.0124 4.40957 17.0875L3.98751 17.3179L3.13572 17.7787H3.13538ZM6.48283 16.1268C6.48283 16.1268 5.49126 16.888 5.17023 17.1313C4.84921 17.3747 3.90423 18.0582 3.90423 18.0582L6.48283 16.1268Z" fill="#CFB66C"/>
<path fill-rule="evenodd" clip-rule="evenodd" d="M12.1734 22.2654L11.666 21.3048L11.9611 20.1035L14.0659 19.2906L13.1701 17.4526L13.6128 15.5962L14.444 13.9339L17.0123 13.5301L18.8996 11.7308L22.9747 12.0388L23.7746 16.3961L22.2342 21.8822L21.3566 24.7224L17.7993 24.8571L16.1476 23.7128L14.2136 22.9048L12.1734 22.2654Z" fill="#E2CC85"/>
<path fill-rule="evenodd" clip-rule="evenodd" d="M18.4131 22.2343C18.4131 22.2343 17.9211 22.4595 17.0819 22.4077C16.8391 22.0815 15.1382 21.9288 15.1382 21.9288C15.1382 21.9288 14.9259 21.8641 14.5504 22.0194C14.1726 22.173 13.8152 22.154 13.4812 22.2368C13.1472 22.3196 12.8156 21.8847 12.5596 21.7941C12.3036 21.6984 11.9642 21.468 11.9642 21.468L11.2474 21.398L9.80795 20.7896L7.52119 18.5113L6.89979 19.4841L6.70813 20.688L7.3995 22.1146L9.26096 23.8104L12.8907 24.732L15.0421 24.0981L17.7373 22.9589L18.4131 22.2341V22.2343Z" fill="#F1D789"/>
<path fill-rule="evenodd" clip-rule="evenodd" d="M5.51706 14.1826L5.97786 12.7872L6.5269 11.8861L8.295 11.7384L7.76423 13.2867L6.28609 15.9172L6.89963 18.2654L5.81232 18.809L5.47815 18.2965L5.20901 17.1211L5.19092 15.8007L5.51706 14.1826Z" fill="#F4ECB4"/>
<path fill-rule="evenodd" clip-rule="evenodd" d="M7.50042 22.1385L7.16129 21.6648C7.16129 21.6648 7.07067 21.4395 7.12255 21.2427C7.17375 21.0434 7.16641 21.0304 7.14064 20.9553C7.11487 20.8802 6.89727 20.6213 6.91024 20.3986C6.92304 20.1733 6.89215 20.0982 7.0577 19.9197C7.2311 19.7463 7.17939 19.4459 7.17939 19.4459L7.40467 19.5857L7.45587 19.5081C7.45587 19.5081 7.53864 19.5727 7.53864 19.6738C7.55674 19.534 7.48164 18.8867 7.65248 18.7392C7.82332 18.5917 8.12626 19.4304 8.12626 19.4304L7.93989 18.2136L7.46082 16.9658L6.60901 15.8266L6.55781 14.5708V14.4621C6.55781 14.4621 6.1668 15.0629 6.05808 15.5373C5.98043 15.8635 6.1668 16.2596 6.12806 16.7282C6.09683 17.1943 6.05808 17.158 6.17192 17.3426C6.28576 17.5273 6.56293 17.907 6.45421 18.1815C6.35846 18.4172 6.03214 18.2514 6.03214 18.2514C6.03214 18.2514 5.96746 18.4429 5.87939 18.5129C5.84833 18.3991 5.81471 18.3265 5.75258 18.2569C5.74729 18.3009 5.73449 18.3605 5.73449 18.3605C5.73449 18.3605 5.67749 18.1818 5.62049 17.9565C5.543 17.6563 5.46006 17.2602 5.38496 17.0479C5.3539 17.1696 5.27625 17.5398 5.27625 17.5398L5.32028 18.1094L5.53259 18.8913L5.7374 19.4033L5.93674 20.0298L6.10997 20.4507L6.24975 20.7717L6.37143 21.4941L6.95905 22.1153L7.2724 22.2553L7.50007 22.1387L7.50042 22.1385Z" fill="#F3E19D"/>
<path fill-rule="evenodd" clip-rule="evenodd" d="M5.82523 13.0434C5.82523 13.0434 5.40317 13.7602 5.28165 14.4828C5.16013 15.2054 5.05125 15.9689 5.12805 16.9527C5.2057 17.9444 5.35333 18.5527 5.47246 18.9877C5.67726 19.7101 6.2077 20.7147 6.2077 20.7147L6.22579 20.6758C6.13663 20.5068 6.06547 20.3289 6.01348 20.145C5.9435 19.8706 5.91756 19.5444 5.85288 19.3968C5.79587 19.2493 5.70013 19.1224 5.65354 18.9411C5.6095 18.7677 5.60234 18.4933 5.46717 18.2888C5.41016 18.2059 5.34019 17.9884 5.31954 17.771C5.2936 17.4447 5.33251 17.0796 5.30145 16.7794C5.24444 16.2797 5.2057 15.9406 5.25741 15.679C5.30913 15.4174 5.57861 14.6746 5.74433 14.0843C5.85305 13.7062 5.78819 13.3878 5.98753 13.0589C6.18688 12.7328 6.30873 12.4454 6.35259 12.246C6.4038 12.0648 5.82455 13.0434 5.82455 13.0434H5.82523Z" fill="#F2E8B0"/>
<path fill-rule="evenodd" clip-rule="evenodd" d="M7.82669 12.756C7.82669 12.756 7.60925 12.8208 7.50566 12.9347C7.40206 13.0434 7.35803 13.134 7.21825 13.3178C7.07847 13.5016 7.07062 13.6518 6.95661 13.8822C6.84277 14.1074 6.59155 14.4466 6.56049 14.5682C6.52942 14.6899 6.47771 15.2594 6.41303 15.5287C6.35602 15.798 6.47771 16.1295 6.47771 16.1295L6.62517 16.0982C6.62517 16.0982 6.62517 16.2899 6.7728 16.4194C6.92026 16.5462 6.9462 15.9895 6.9462 15.9895L7.49764 14.1281L8.32863 13.5637L8.41925 13.108L7.82635 12.756H7.82669Z" fill="#F5EEC0"/>
<path fill-rule="evenodd" clip-rule="evenodd" d="M8.23037 13.6001C8.23037 13.6001 7.83937 13.6258 7.64788 13.7658C7.57023 13.8226 7.53917 13.8692 7.4564 13.9392C7.30365 14.066 7.14817 14.1826 7.07325 14.3488C6.9903 14.5143 6.89968 14.7656 6.83756 15.2393C6.81162 15.4387 6.81162 15.6225 6.79353 15.7831C6.76758 16.0005 6.72884 16.1739 6.74949 16.2951C6.77544 16.5436 7.03178 16.6731 7.05669 16.9552L7.58747 16.6861L8.08718 14.7157L9.14873 14.0501L8.54798 13.377L8.22969 13.5989L8.23037 13.6001Z" fill="#E6DB9D"/>
<path fill-rule="evenodd" clip-rule="evenodd" d="M5.43035 26.8679C5.43256 26.8484 5.43478 26.829 5.437 26.809C5.51449 26.1434 5.52763 25.6389 5.58446 25.323C5.66723 24.8752 5.72423 24.7086 5.71126 24.541C5.69317 24.2719 5.67252 24.0751 5.69846 23.8679C5.73721 23.5935 6.00652 23.2673 5.99884 23.0421C5.99355 22.8634 5.90292 22.747 5.82527 22.6383C5.74762 22.5296 5.68549 22.4389 5.68549 22.4389C5.68549 22.4389 6.21627 22.0739 6.21115 20.6032C6.22199 20.6063 6.23241 20.6107 6.24221 20.6162L6.50367 21.3591L6.68236 21.5766L7.36844 22.8555L8.2513 23.7126L9.55604 24.5902L10.3742 25.4806L10.457 27.8547L9.38776 29.2424L9.21266 29.5595C7.82151 28.8611 6.54582 27.9533 5.43018 26.8677L5.43035 26.8679Z" fill="#E5CB7A"/>
<path fill-rule="evenodd" clip-rule="evenodd" d="M8.69666 29.1391C8.69666 29.1391 8.71475 28.844 8.95811 28.6524C8.99703 28.7171 9.0228 28.7793 9.01512 28.8258C9.05915 28.7483 9.3672 28.2511 10.0637 28.1216C10.7602 27.9948 10.9284 27.4874 10.9284 27.4874L12.4066 26.1437L14.0972 24.5878L16.1528 23.8653L17.1135 23.6297C17.1135 23.6297 17.1316 23.6996 17.0954 23.8549C17.2739 23.8421 17.6701 23.7515 18.0817 23.6064C18.2474 23.5418 18.4029 23.5158 18.4857 23.6013C18.6074 23.7152 18.6254 23.9845 18.6331 24.1449C18.8325 24.1009 19.0629 23.9094 19.2475 23.9275C19.5428 23.9585 19.8042 24.3055 20.1046 24.3055C20.5007 24.3055 20.6792 24.0621 20.9564 23.8705C21.1221 23.7566 21.3602 23.6145 21.4948 23.5184C21.8159 23.2827 25.2126 22.2445 25.2126 22.2445L26.4035 22.3222L26.5952 23.6012L26.4928 26.9445C26.4801 26.9566 26.4675 26.9693 26.4547 26.9814L21.0398 29.8095L13.534 30.9601C11.8526 30.6854 10.2301 30.1273 8.73557 29.3096L8.69717 29.1389L8.69666 29.1391Z" fill="#D8C173"/>
<path fill-rule="evenodd" clip-rule="evenodd" d="M5.88538 27.2932C5.99204 27.0701 6.08796 26.8836 6.10485 26.8168C6.11817 26.9513 6.14257 27.2464 6.19172 27.5601C6.08853 27.4724 5.98641 27.3833 5.88538 27.293V27.2932Z" fill="#F1D789"/>
<path fill-rule="evenodd" clip-rule="evenodd" d="M11.3684 30.4397L12.3391 30.1697L12.4219 30.1956C12.4219 30.1956 12.4659 30.2215 12.4659 30.3094C12.5876 30.2396 12.6912 30.2524 12.7663 30.206C12.8051 30.2888 12.8438 30.5632 13.0148 30.5968C13.1933 30.6358 13.385 30.5192 13.5792 30.3717C13.7707 30.219 13.9888 30.0273 14.1538 29.9497C14.2144 30.061 14.268 30.176 14.3144 30.2939C14.5319 30.1205 14.9099 29.4163 15.4483 29.4291C15.604 29.0613 15.864 28.7472 16.1962 28.5256C16.6959 28.1865 17.0091 28.1606 17.4001 28.1916C17.5554 27.9899 17.7467 27.8187 17.9645 27.6868C18.0292 27.7127 18.2078 27.8214 18.4306 27.7178C18.6558 27.6144 18.9095 27.213 19.2435 27.1613C19.4234 27.1365 19.6064 27.175 19.7613 27.27C19.7613 27.27 20.7341 26.3042 21.4053 25.9832C21.3793 25.9055 21.3276 25.613 22.1146 24.9657C22.1586 25.0046 22.1276 25.1133 22.1586 25.1193C22.1714 25.1193 22.3634 25.0365 22.6064 24.8499C22.9068 24.6248 23.2666 24.3891 23.484 24.3245C23.8936 24.2028 24.3281 24.4513 24.3281 24.4513C24.3651 24.4253 24.4063 24.4061 24.4498 24.3943C24.5532 24.3762 24.6283 24.3632 24.6853 24.3431C24.6802 24.4777 24.7553 24.7081 24.6853 24.9075C24.7664 24.953 24.8522 24.9895 24.9413 25.0162C24.8975 25.1119 24.8016 25.3553 24.6411 25.4719C24.7756 25.5365 24.7937 25.6116 24.9854 25.6767C24.9077 25.7854 24.7806 25.9719 24.7239 26.0863C24.6669 26.2079 24.4623 26.7128 24.3716 26.9043C24.2759 27.0959 24.1465 27.448 24.0842 27.5187C24.0219 27.5893 23.7968 27.8889 23.6234 28.0363C23.777 27.9793 24.4054 27.7878 24.672 27.7153C24.5927 27.8317 24.1904 28.4285 23.8037 29.0025C21.952 30.1123 19.8851 30.8148 17.7406 31.063C15.5962 31.3113 13.4234 31.0997 11.3672 30.4422L11.3684 30.4397Z" fill="#E0CD81"/>
<path fill-rule="evenodd" clip-rule="evenodd" d="M8.29436 13.5301C8.29436 13.5301 8.06925 13.5301 8.02522 13.5612C7.98118 13.5922 8.2505 13.6571 8.33327 13.6881C8.41605 13.7192 8.59473 13.8615 8.64133 13.9755C8.68536 14.0842 10.2594 14.7184 10.2594 14.7184L11.3727 14.6614L11.7565 14.1312L11.0264 13.4917L11.5384 11.9823L10.8602 12.091L9.22911 13.0638L8.41093 13.3772L8.29436 13.5301Z" fill="#DFC57C"/>
<path fill-rule="evenodd" clip-rule="evenodd" d="M10.7393 14.0298C10.7553 14.0559 10.778 14.0773 10.805 14.0918C10.8319 14.1063 10.8622 14.1135 10.8929 14.1126C11.1233 14.1126 11.3354 14.1696 11.4235 14.286C11.5711 14.4726 11.9802 15.068 11.9802 15.068L12.9588 15.4201L13.0219 14.2678L11.9527 13.5248L10.7358 13.9727V14.0297H10.7386L10.7393 14.0298Z" fill="#E5CC7C"/>
<path fill-rule="evenodd" clip-rule="evenodd" d="M10.5473 14.457C10.5473 14.457 10.7258 14.47 10.9511 14.387C11.1763 14.3041 11.5465 14.1256 11.7071 14.1955C11.9322 14.2913 11.8856 14.5917 12.1292 14.8611C12.2766 15.0269 12.5459 15.0217 12.6987 15.2004C12.8514 15.3791 13.3769 15.2962 13.3769 15.2962L13.5763 16.3714L12.7763 17.3967L12.5147 18.6704H11.433L10.4449 18.2784L9.95813 17.1008L10.2015 15.9099L10.5473 14.457Z" fill="#D2C281"/>
<path fill-rule="evenodd" clip-rule="evenodd" d="M12.6397 14.5087C12.6665 14.5169 12.6944 14.5213 12.7224 14.5216C12.6914 14.5476 12.6265 14.6044 12.6525 14.752C12.6784 14.8997 12.7612 15.086 12.6914 15.1999C12.7471 15.2608 12.7886 15.3333 12.8131 15.4122C12.8571 15.5391 12.8701 15.6555 13.1573 15.6738C13.1158 15.6993 13.0776 15.7297 13.0435 15.7644C13.0435 15.7644 13.2428 15.9378 13.3438 16.0982C13.4473 16.0938 13.7217 16.0084 13.7217 16.0084L13.7787 16.0474L13.9004 15.9962C13.9004 15.9962 13.7865 15.9521 13.8693 15.6751C13.947 15.4318 14.0169 15.4447 14.0229 15.4267C14.0289 15.4086 14.0799 15.1522 14.0799 15.0486C14.1187 14.9142 14.1497 14.5051 14.1497 14.5051L14.0669 13.6016L13.601 13.3193L13.2221 12.9536L12.8648 13.6267L12.6294 13.8614L12.6113 14.4438L12.6397 14.5087Z" fill="#E2C270"/>
<path fill-rule="evenodd" clip-rule="evenodd" d="M13.7604 13.7528C13.7604 13.7528 13.8431 13.9883 13.8744 14.1696C13.8854 14.1344 13.8915 14.0978 13.8925 14.0609C13.8925 14.0609 13.9572 14.4183 13.97 14.5659C13.9959 14.5606 14.0212 14.5529 14.027 14.5787C14.0328 14.6045 14.0918 14.892 14.0782 15.0525C14.186 14.8746 14.3352 14.7254 14.513 14.6176C14.6166 14.5527 14.7383 14.4829 14.8653 14.4776C15.0646 14.4725 15.2095 14.6046 15.4478 14.6046C16.0224 14.6046 16.5429 14.1826 16.9261 14.0532C17.2082 13.9573 17.4516 13.8875 17.6224 13.732C17.7053 13.6622 17.853 13.5069 17.9874 13.2763C18.1661 12.9691 18.3525 12.7017 18.539 12.6681C18.4546 12.6836 18.3688 12.6896 18.283 12.6862C18.283 12.6862 18.34 12.6292 18.4366 12.5515C18.5332 12.4738 18.649 12.3781 18.8145 12.3781C19.1098 12.3781 19.2572 12.422 19.4229 12.422C19.5886 12.4168 19.6844 12.3781 19.6844 12.3781C19.6844 12.3781 19.858 12.4998 20.2488 12.4998C20.6398 12.5049 20.9012 12.5385 21.1059 12.5568C21.3105 12.5751 21.9964 12.4998 22.1932 12.5056C22.3215 12.5105 22.4475 12.5414 22.5635 12.5962L21.9292 10.753L19.6504 8.76134L18.2938 9.72185L16.2069 11.8086L14.1876 12.5568L13.7655 13.0306V13.7528H13.7604Z" fill="#CCB360"/>
<path fill-rule="evenodd" clip-rule="evenodd" d="M18.2914 12.6964C18.2914 12.6964 18.3484 12.6396 18.4439 12.5619C18.5395 12.4843 18.6564 12.3884 18.822 12.3884C19.1171 12.3884 19.2647 12.4324 19.4304 12.4324C19.5961 12.4273 19.6919 12.3884 19.6919 12.3884C19.6919 12.3884 19.8656 12.5099 20.2563 12.5099C20.6473 12.515 20.9088 12.5486 21.1134 12.5667C21.318 12.5848 22.004 12.5099 22.2007 12.5155C22.329 12.5203 22.4549 12.5512 22.5709 12.6061L22.2835 11.775L21.9497 11.1408L20.9968 10.0973C20.9968 10.0973 19.8533 9.42421 19.8446 9.41909C19.8395 9.41397 19.4485 9.31038 19.4485 9.31038L18.4129 9.9369L17.4732 12.368L17.4551 12.88L18.0633 13.1674C18.2161 12.9114 18.3845 12.7066 18.5424 12.6807C18.3999 12.6962 18.2912 12.6962 18.2912 12.6962L18.2914 12.6964Z" fill="#D5B457"/>
<path fill-rule="evenodd" clip-rule="evenodd" d="M18.2783 12.87C18.1877 12.8751 18.1128 12.857 18.092 12.7923C18.0143 12.5749 17.9522 12.5438 17.8872 12.5438C17.8222 12.5438 17.7344 12.6836 17.6824 12.6964C17.6303 12.7092 17.5685 12.536 17.5685 12.536L17.5115 12.51C17.5115 12.51 17.1776 12.7275 16.942 12.9838C16.7065 13.2402 16.3206 13.6752 16.1472 13.7527C15.9738 13.8301 15.3782 13.8563 15.1745 13.9003C14.9707 13.9443 14.7447 14.0919 14.7137 14.1256C14.6826 14.1592 14.8044 14.1954 14.8225 14.229C14.8406 14.2601 14.623 14.2471 14.6049 14.2802C14.5921 14.3061 14.6561 14.4536 14.6879 14.5287C14.7434 14.5011 14.8044 14.486 14.8664 14.4847C15.0657 14.4795 15.2108 14.6116 15.4489 14.6116C16.0237 14.6116 16.544 14.1896 16.9272 14.06C17.2095 13.9643 17.4528 13.8943 17.6237 13.739C17.7064 13.6692 17.8541 13.5137 17.9887 13.2833C18.087 13.1255 18.1829 12.9778 18.2789 12.8691L18.2783 12.87Z" fill="#D2B257"/>
<path fill-rule="evenodd" clip-rule="evenodd" d="M10.0352 25.683C10.0352 25.683 9.984 25.4914 9.50955 24.9969C9.3749 24.8572 9.29212 24.7409 9.2015 24.6578C8.97622 24.4453 8.84412 24.3885 8.6837 24.2668C8.33161 24.0053 7.94846 24.0053 7.65338 23.6843C7.3583 23.3633 7.0144 22.7499 6.77547 22.123C6.53995 21.4965 6.4751 21.2972 6.4751 21.2791C6.4751 21.261 6.53995 21.1393 6.62272 21.1574C6.7055 21.1755 6.7055 21.3359 6.72632 21.3748C6.76756 21.4383 6.81433 21.4981 6.8661 21.5533C6.98778 21.6933 7.16118 21.8605 7.24924 22.1101C7.23115 21.8977 7.15862 21.6622 7.15862 21.6622C7.15862 21.6622 7.6143 21.9496 8.00256 22.2498C8.39356 22.5502 8.55399 22.6538 8.66816 22.8453C8.78234 23.0368 9.05131 23.5418 9.18017 23.6894C9.30902 23.8371 11.0746 24.3936 11.0746 24.3936L11.9144 25.0198L12.3314 25.9338L12.005 26.4458L11.3785 26.5804L10.361 26.1247L10.0352 25.6829V25.683Z" fill="#D2B159"/>
<path fill-rule="evenodd" clip-rule="evenodd" d="M7.77478 22.5346C7.77478 22.5346 7.98709 22.8738 8.50489 23.1948C8.97098 23.4771 9.70877 23.7334 10.3665 23.8861C10.7444 23.9768 11.1224 24.0466 11.4615 24.0519C12.3754 24.0647 13.0045 23.8034 13.784 23.7179C14.206 23.6738 14.7238 23.6402 15.2623 23.5131C15.9535 23.3474 16.3626 23.1608 16.9193 22.8987C17.3231 22.7123 17.6934 22.5725 17.9936 22.3938C18.4157 22.1453 18.7237 21.8684 19.0811 21.7856C19.0371 21.9073 18.9905 22.1247 18.6384 22.35C18.8248 22.3447 19.0811 22.3319 19.0811 22.3319C19.0811 22.3319 18.8326 22.4793 18.395 22.8108C18.1257 23.0156 17.7685 23.3622 17.4035 23.5926C17.1678 23.7402 16.9114 23.8486 16.7431 23.937C16.3335 24.1623 16.1683 24.2761 15.8992 24.5514C15.9949 24.5463 16.0028 24.5514 16.0028 24.5514C16.0028 24.5514 15.6635 24.5954 15.4203 24.7248C15.3691 24.7248 15.2804 24.7067 15.1251 24.7507C15.0034 24.7895 14.8428 24.8777 14.6772 24.9241C14.4415 24.9941 14.364 24.9631 14.364 24.9631L14.4028 25.0407C14.4028 25.0407 14.0956 25.0354 13.9932 25.0458C14.0113 25.0509 14.0062 25.0588 14.0062 25.0588C13.9882 25.0618 13.9708 25.0679 13.955 25.0769C13.9057 25.1088 13.8515 25.1324 13.7945 25.1467C13.7635 25.1518 13.7375 25.1518 13.6986 25.1597C13.7116 25.1907 13.8126 25.3645 13.8592 25.4669C13.8205 25.4928 13.2378 25.933 13.2378 25.933C13.2559 25.9614 13.2707 25.9918 13.2819 26.0236C13.2999 26.0804 13.3078 26.1634 13.3259 26.2021C13.3697 26.2797 13.3957 26.2927 13.3957 26.2927C13.3957 26.2927 13.3259 26.3057 13.204 26.3368C13.1006 26.3627 12.9736 26.4066 12.7944 26.4325C12.7394 26.4396 12.6841 26.444 12.6287 26.4455C12.6547 26.5025 12.7685 26.7199 12.5587 26.9709C12.349 27.222 12.2843 27.2585 12.2196 27.4189C12.1871 27.3943 12.1524 27.3726 12.116 27.3541C12.0462 27.323 11.9503 27.2766 11.9167 27.2143C11.8971 27.2973 11.8711 27.3787 11.839 27.4577C11.7744 27.6311 11.6786 27.8021 11.6605 27.9315C11.5905 27.8538 11.4612 27.7011 11.2825 27.7321C11.1038 27.7632 10.9615 28.0066 10.9304 28.0765C10.9304 28.0325 10.8993 27.9989 10.8917 28.0506C10.8864 28.1076 10.7881 28.7029 10.2392 29.1845C10.2341 29.0628 10.2341 28.7935 10.2211 28.7056C10.1699 28.7568 10.1073 28.8324 9.73437 28.993C9.36932 29.1534 9.42717 29.314 9.42717 29.314C9.42717 29.314 9.39611 29.058 9.59289 28.7884C9.79223 28.5192 9.91392 28.3923 9.91392 28.3716C9.9107 28.3506 9.90172 28.3309 9.88797 28.3146C9.86203 28.2887 9.81032 28.2576 9.81032 28.237C9.84138 28.2242 10.1494 28.0765 10.1313 27.7709C10.1133 27.4966 9.99686 27.3541 9.91392 27.2532C9.90112 27.2403 10.0358 27.1445 10.0175 27.1135C10.0045 27.0954 9.83899 26.9735 9.81817 26.9087C9.82307 26.87 9.83175 26.8318 9.84411 26.7948C9.8622 26.7378 9.87517 26.6989 9.87005 26.6602C9.85708 26.5955 9.78711 26.4168 9.76646 26.3987C9.78455 26.4038 9.91392 26.3987 9.91392 26.3987C9.91392 26.3987 9.81049 26.233 9.79223 26.1553C9.77397 26.0777 9.73523 25.8731 9.71458 25.8343C9.75861 25.8394 9.86732 25.8471 9.86732 25.8343C9.87261 25.7954 9.77158 25.7307 9.81612 25.6807C9.84718 25.6858 9.90675 25.7118 9.96358 25.7843C9.93252 25.7014 9.88081 25.5409 9.77192 25.4763C9.82312 25.4582 9.9972 25.4114 10.1499 25.502C10.3027 25.5926 10.3547 25.7195 10.3547 25.7195C10.3547 25.7195 10.4454 25.7894 10.5853 25.893C10.7457 26.0198 10.9502 26.2002 11.2765 26.3279C11.3465 26.3668 11.525 26.3668 11.6545 26.3408C11.7109 26.3274 11.765 26.3056 11.815 26.2762C11.833 26.2655 11.8521 26.2568 11.872 26.2502C11.8441 26.1944 11.8121 26.1407 11.7762 26.0896C11.8203 26.0896 11.872 26.0949 11.872 26.0949C11.872 26.0949 11.903 26.0249 11.7633 25.8901C11.7943 25.8591 11.8332 25.8389 11.8332 25.7865C11.7892 25.7814 11.7115 25.7167 11.6935 25.6908C11.7192 25.6727 11.7581 25.6131 11.8022 25.595C11.7633 25.564 11.6675 25.4344 11.6235 25.4216C11.6655 25.406 11.7062 25.387 11.7452 25.3646C11.7452 25.3646 11.5277 25.3076 11.4578 25.261C11.3878 25.2098 11.2844 25.1213 11.2222 25.0953C11.1574 25.0694 11.0436 25.0566 10.997 25.0047C11.0408 25.0177 11.1108 25.0047 11.1627 25.0047C11.2014 25.0047 11.2197 25.0098 11.2325 25.0098C11.2274 24.9917 11.2274 24.9528 11.3284 24.94C11.377 24.9327 11.4242 24.9178 11.4682 24.896C11.4682 24.896 11.3723 24.8909 11.2634 24.7873C11.1545 24.6837 11.064 24.6009 11.0019 24.5879C10.9372 24.575 10.8155 24.632 10.7405 24.6267C10.6369 24.6139 10.5928 24.562 10.5928 24.562C10.5928 24.562 10.2486 24.593 9.48486 24.1271C8.82455 23.7232 8.53715 23.366 8.53715 23.366C8.47535 23.3435 8.41562 23.3158 8.35863 23.283C8.11014 23.1536 7.76574 22.8843 7.77615 22.5321L7.77478 22.5346Z" fill="#C2A44D"/>
<path fill-rule="evenodd" clip-rule="evenodd" d="M17.2995 6.99547C17.3594 7.01492 17.4126 7.05082 17.4531 7.09906C17.5748 7.23884 17.6524 7.50286 17.3754 7.78514C17.4842 7.82388 17.529 7.83634 17.6239 7.82388C17.5282 7.93789 17.3108 8.18126 17.2978 8.39357C17.2848 8.56696 17.3935 8.61885 17.3935 8.61885C17.3935 8.61885 17.2278 8.81034 17.2201 9.13085C17.2984 9.04259 17.384 8.96118 17.4761 8.88748C17.6678 8.73473 17.9318 8.56133 18.1105 8.45262C18.1081 8.49818 18.1142 8.5438 18.1286 8.5871C18.1286 8.5871 18.4624 8.31267 18.743 8.43453C18.8698 8.49153 18.8128 8.67005 18.8128 8.67005C18.8128 8.67005 18.9864 8.60537 19.1081 8.72705C19.2298 8.84874 19.4018 9.16259 19.49 9.28428C19.5288 9.34128 19.6298 9.44999 19.7332 9.61827C19.8745 9.85387 19.9925 10.1027 20.0855 10.3612C20.0906 10.2265 20.1242 10.0169 20.5076 10.1489C20.8907 10.2835 21.3256 10.5658 21.6906 11.1217C22.0557 11.6775 22.1462 12.3051 22.33 12.544C22.5163 12.7744 22.708 13.1576 22.721 13.3182C22.734 13.4788 22.664 13.9964 23.0471 15.397C23.1558 14.9622 23.3216 13.9964 23.3216 13.9964L23.4122 13.1446L23.5158 10.509L20.7636 8.22256L18.6121 6.6613L17.2114 6.79596L17.2993 6.9953L17.2995 6.99547Z" fill="#CAA13E"/>
<path fill-rule="evenodd" clip-rule="evenodd" d="M22.413 10.9177C22.413 10.9177 22.3741 10.6617 21.7269 10.2265C21.0796 9.79681 20.5747 9.79681 20.1088 9.43175C19.7514 9.14434 19.3787 8.48403 19.136 8.2666C18.9003 8.05173 18.8616 7.43033 18.8616 7.43033L19.6564 6.76473L20.8384 5.05618L21.8377 3.95589L22.3165 4.62149L22.9821 5.40332L23.3523 6.97226L23.487 9.26876L22.4118 10.9179L22.413 10.9177Z" fill="#B59544"/>
<path fill-rule="evenodd" clip-rule="evenodd" d="M23.2132 13.6704C23.2328 13.3221 23.1898 12.9732 23.0862 12.6401C22.9156 12.1093 22.5427 11.1669 22.3694 10.8139C22.2995 10.4229 22.3513 10.3919 22.4264 10.3479C22.5015 10.3038 22.7838 10.1431 22.9384 9.579C23.0931 9.01494 23.5728 8.99651 23.5728 8.99651L23.8679 8.77908L24.3159 9.90002L24.7067 10.9124L24.8284 11.6866L24.9191 12.3467L24.7067 13.7422L23.6583 14.6898L23.213 13.6704H23.2132Z" fill="#C89D3A"/>
<path fill-rule="evenodd" clip-rule="evenodd" d="M8.58264 29.2248V29.1961C8.60443 29.1825 8.62366 29.1652 8.63947 29.1449C8.65756 29.119 8.67071 29.0879 8.68351 29.0802C8.70945 29.0673 8.83113 29.029 8.89581 29.0413C8.9605 29.0536 9.13151 29.1241 9.22213 29.119C9.4085 29.1139 9.62593 28.9713 9.97033 29.0362C10.4881 29.132 10.6098 29.484 10.9102 29.6834C11.115 29.8233 11.327 29.761 11.358 29.761H11.4278C11.4408 29.761 11.5365 29.6523 11.5884 29.6576C11.692 29.6627 11.7023 29.7482 11.7669 29.7534C11.9197 29.7715 12.2149 29.6757 12.3626 29.7146C12.4063 29.7283 12.4462 29.7524 12.4786 29.7848C12.5111 29.8173 12.5352 29.8571 12.5489 29.9008C12.58 29.9966 12.5541 30.1183 12.479 30.1882C12.3185 30.3357 12.1658 30.4756 12.1347 30.5978C12.1742 30.628 12.2122 30.6601 12.2484 30.6941C10.9674 30.3677 9.73491 29.8742 8.58264 29.2263V29.2248Z" fill="#CEB052"/>
<path fill-rule="evenodd" clip-rule="evenodd" d="M22.3689 24.0519C22.3689 24.0519 22.7727 23.5134 22.9127 23.2467C23.0524 22.9717 22.4699 19.4901 22.4699 19.4901L23.6402 15.6559L23.609 14.408C23.609 14.408 23.666 13.2558 23.8007 12.7561C23.9613 13.0435 24.461 13.3905 24.5697 13.5743C24.6209 13.2221 24.7948 12.4791 24.7691 11.6869C24.8648 11.8344 25.0952 13.318 25.0952 13.318L25.3256 14.3172L25.626 15.3788L25.96 16.4999L26.1594 17.274L26.2732 17.4604L26.3691 17.7865L26.4597 18.1388L26.7212 18.9646L26.8748 19.6429L26.9965 20.8727C27.023 20.9669 27.042 21.063 27.0535 21.1601C27.0586 21.2948 27.0354 21.3724 27.0354 21.3958C27.0354 21.4192 27.0795 21.6909 27.0614 21.8955C27.0354 22.1003 27.0354 22.2606 26.8748 22.4075C26.7142 22.5544 26.6134 23.4327 26.6134 23.4327L26.3259 23.2412C26.3259 23.2412 26.3829 22.9796 26.2483 22.7415C26.1136 22.5034 25.8522 22.4541 25.7045 22.493C25.5571 22.5241 25.262 22.5705 25.166 22.6534C25.0754 22.7362 24.8529 22.9925 24.6482 23.1091C24.3922 23.2627 23.9751 23.2748 23.7525 23.3265C23.5273 23.3777 23.2788 23.5313 23.0171 23.7097C22.812 23.8425 22.5954 23.9567 22.3699 24.051L22.3689 24.0519Z" fill="#CCA847"/>
<path fill-rule="evenodd" clip-rule="evenodd" d="M22.3689 29.7088C22.3689 29.7088 22.386 29.7199 22.4189 29.738C24.2583 28.8762 25.9063 27.6547 27.2658 26.1455C27.251 25.6215 27.2317 25.0844 27.2105 24.8854C27.1667 24.4634 27.1977 24.0336 27.1848 23.7851C27.1718 23.5366 27.032 22.5243 26.9673 22.2628C26.8974 22.0013 26.7625 21.8718 26.7421 21.8718C26.724 21.8771 26.6151 22.3638 26.6151 22.4862C26.6151 22.6086 26.5891 22.9031 26.5891 22.9782C26.571 22.9729 26.5634 22.927 26.5634 22.9083C26.5374 22.9729 26.5064 23.0869 26.4934 23.0999C26.4804 23.1129 26.5115 22.9912 26.4934 22.9653C26.4753 22.9393 26.4422 22.9523 26.4494 22.8876C26.4524 22.8492 26.4585 22.8112 26.4675 22.7738C26.4675 22.7738 26.3898 22.8876 26.333 23.1776C26.276 23.465 26.276 23.4728 26.2553 23.4986C26.2372 23.5298 26.1336 23.6332 26.1283 23.6722C26.1232 23.742 26.2243 23.8119 26.2319 23.8507C26.2371 23.9155 26.1413 24.2157 26.1102 24.3627C26.0792 24.5096 26.0922 24.7975 26.059 24.9452C26.0331 25.0798 26.0078 25.1575 25.9193 25.2143C25.984 25.2273 26.0461 25.2454 26.0461 25.2454C26.0461 25.2454 26.1367 25.6285 25.9063 25.9548C25.8235 26.0687 25.8029 26.1205 25.7148 26.2241C25.5412 26.4156 25.4066 26.6337 25.3936 26.7756C25.3847 26.7337 25.3786 26.6913 25.3755 26.6486C25.3755 26.6486 25.1064 26.9619 24.9924 27.1406C24.8449 27.371 24.6403 27.358 24.5828 27.415C24.5253 27.472 24.5128 27.5755 24.5316 27.6584C24.4804 27.6712 24.3841 27.6895 24.3193 27.8888C24.2882 27.9922 24.2106 28.0936 24.0889 28.1632C23.9672 28.2329 23.8196 28.2539 23.7445 28.272C23.8092 28.2901 23.8351 28.2901 23.8662 28.3107C23.8274 28.3754 23.6487 28.4764 23.4494 28.606C23.25 28.7276 23.1541 28.9062 23.105 29.0227C23.0538 29.1314 22.9782 29.2014 22.8565 29.2144C22.9077 29.2454 22.9835 29.3178 23.0222 29.3412C22.9652 29.3542 22.8686 29.3542 22.6961 29.5018C22.5148 29.652 22.4527 29.696 22.3697 29.709L22.3689 29.7088Z" fill="#C39D3C"/>
<path fill-rule="evenodd" clip-rule="evenodd" d="M18.7665 30.9086C18.8656 30.8391 18.973 30.7822 19.0861 30.7391C19.4899 30.5787 19.9171 30.5477 20.0854 30.4959C20.246 30.4447 20.3728 30.3741 20.5721 30.3353C20.5668 30.3807 20.5624 30.4234 20.5576 30.4637C19.9699 30.6484 19.3715 30.797 18.7656 30.9086H18.7665Z" fill="#D2BA6B"/>
<path fill-rule="evenodd" clip-rule="evenodd" d="M26.2144 20.2875C26.2144 20.2875 26.1316 20.7353 25.984 21.0176C25.8364 21.2999 25.6768 21.6907 25.6768 21.6907C25.6778 21.6026 25.6882 21.5149 25.7079 21.4291C25.5215 21.5378 25.0684 21.7994 24.9399 21.9158C24.8182 22.0245 24.6136 22.2162 24.5619 22.3068C24.6835 21.9496 24.8103 21.6286 24.8312 21.4809C24.6448 21.6156 23.7747 22.3327 23.3218 22.8065L21.9107 23.9483C21.7479 24.0361 21.5802 24.1146 21.4084 24.1834C21.1652 24.2869 20.8778 24.3749 20.6655 24.4579C20.7225 24.3051 20.813 24.1703 20.94 24.0409C21.0746 23.9141 21.4784 23.4765 21.5405 23.2729C21.5975 23.0606 21.6105 22.9338 21.5354 22.7551C21.4654 22.7732 21.305 22.7811 21.1963 22.8121C21.0876 22.8432 20.971 22.9596 20.971 22.9596C20.971 22.9596 21.0538 22.4858 21.2325 22.038C21.0978 22.0431 20.8674 22.0819 20.8674 22.0819C20.8674 22.0819 21.1885 21.5434 21.7378 21.1681C21.5696 21.2039 21.405 21.255 21.246 21.3207C20.9249 21.4553 20.5729 21.6547 20.3114 21.7634C20.4589 21.5586 21.4945 20.0806 22.1107 18.7032C22.7251 17.3284 22.9547 16.9764 23.0893 16.2386C23.1591 15.8735 23.1405 15.334 23.1591 14.8509C23.1772 14.3718 23.2368 13.9421 23.1981 13.6547C23.3585 13.854 23.9592 14.4159 23.9799 15.6716C23.998 16.9272 23.4052 18.6231 22.776 19.5369C22.9296 19.5809 23.3276 19.6328 23.7365 18.9225C24.1454 18.2122 24.1405 18.0138 24.2881 17.7186C24.3062 17.8662 24.3009 17.9179 24.3009 17.9179C24.3009 17.9179 24.8965 17.1957 25.1786 16.2869C25.2356 16.6779 25.4039 17.0223 25.1397 17.7394C24.9042 18.3866 24.5962 18.5446 24.5962 18.5446C24.5962 18.5446 24.7489 18.5187 24.974 18.384C25.0129 18.4798 25.0052 18.5888 25.0699 18.6274C25.1346 18.666 25.2227 18.731 25.2356 18.7931C25.3054 18.6895 25.4142 18.5574 25.448 18.4591C25.422 18.6639 25.4039 19.5594 25.4992 20.0151C25.6987 19.997 25.9031 19.984 26.0429 19.6241C25.9472 19.9763 25.9472 20.1885 26.0118 20.4889C26.118 20.4165 26.2137 20.287 26.2137 20.287L26.2144 20.2875Z" fill="#C0993A"/>
<path fill-rule="evenodd" clip-rule="evenodd" d="M19.4874 6.01684C19.4874 6.01684 19.288 6.09961 18.9489 6.09961C18.6538 6.09961 18.7366 5.98578 18.2758 5.98578C17.5665 5.98578 15.0888 6.39538 14.6538 6.38958C14.3715 6.38446 15.6064 6.51126 15.6064 6.51126L18.7626 6.55529L19.3968 6.50409L19.6324 6.02452L19.4874 6.01684Z" fill="#A88F33"/>
<path fill-rule="evenodd" clip-rule="evenodd" d="M11.3034 12.1865C11.3034 12.1865 10.8995 12.4945 10.7286 12.7302C10.5578 12.9659 10.4672 13.121 10.2729 13.3127C10.3185 13.3144 10.3641 13.3083 10.4076 13.2946C10.4076 13.2946 10.4076 13.3458 10.3765 13.3593C10.4034 13.3563 10.4306 13.3593 10.4561 13.3682C10.4816 13.377 10.5048 13.3915 10.524 13.4105C10.467 13.4415 10.3117 13.597 10.4334 13.7808C10.524 13.9206 10.7157 13.9334 10.7157 13.9334C10.7157 13.9334 10.6716 14.0604 10.8554 14.0474C11.2516 14.0293 11.6943 13.8557 11.8987 13.8998C12.1035 13.951 12.2199 13.9697 12.3648 14.221C12.5184 14.4695 12.6522 14.5084 12.6522 14.5084C12.6522 14.5084 12.7428 14.2778 12.7222 13.9336C12.7965 13.748 12.8377 13.5509 12.8439 13.3511L12.7092 12.3595L12.1216 11.6164L11.3604 12.0385L11.3034 12.1859V12.1865Z" fill="#E3C571"/>
<path fill-rule="evenodd" clip-rule="evenodd" d="M12.0259 12.0388C12.0259 12.0388 12.0829 12.1735 12.3211 12.1863C12.2952 12.2433 12.2952 12.2511 12.303 12.295C12.3082 12.339 12.3158 12.4037 12.3158 12.4037C12.3421 12.391 12.3658 12.3737 12.3858 12.3525C12.3988 12.4095 12.3728 12.5 12.3858 12.5648C12.3938 12.6043 12.4068 12.6425 12.4246 12.6787C12.4283 12.6698 12.4327 12.6612 12.4375 12.6529C12.4426 12.6399 12.4887 12.7927 12.6162 12.9089C12.6161 12.891 12.6205 12.8734 12.629 12.8577C12.631 12.8902 12.6417 12.9215 12.6601 12.9483C12.6505 12.9438 12.6418 12.9377 12.6343 12.9302C12.6343 12.9302 12.6471 13.3398 12.7171 13.5516C12.7288 13.5379 12.7392 13.5232 12.7481 13.5076C12.7481 13.4948 12.743 13.6216 12.73 13.7124C12.712 13.803 12.7249 13.9298 12.7249 13.9298C12.7716 13.8931 12.8229 13.8626 12.8775 13.8392C12.9552 13.808 13.0823 13.7122 13.1598 13.4999C13.2047 13.3797 13.2394 13.2558 13.2634 13.1297C13.2884 13.1779 13.3057 13.2298 13.3146 13.2833C13.3199 13.348 13.4416 13.3144 13.4416 13.3144L13.4675 13.0321L13.6211 12.3926L13.7609 11.9965L14.434 10.9481L15.6502 10.0115L16.7117 10.2549L17.6074 9.038L16.0644 8.11111L14.6041 8.26386L13.2789 10.0994L12.2175 11.7642L12.0259 12.0387V12.0388Z" fill="#D8B65B"/>
<path fill-rule="evenodd" clip-rule="evenodd" d="M19.6737 9.38257C19.6737 9.38257 19.5831 9.40066 19.3216 9.53617C19.0602 9.67168 18.8789 9.71469 18.7779 9.91402C18.6769 10.1134 18.6692 10.2714 18.6692 10.2714C18.6692 10.2714 18.8479 10.1937 18.9515 10.1678C19.0602 10.142 19.1819 10.1497 19.1689 10.1937C19.1565 10.2239 19.1392 10.2519 19.1177 10.2765C19.1177 10.2765 19.3225 10.2714 19.317 10.3724C19.3116 10.4735 19.2783 10.5847 19.2396 10.6339C19.2006 10.6851 19.0402 10.7609 19.0221 10.8204C18.9781 10.9421 19.0402 10.9472 19.0168 11.0455C18.9988 11.1415 18.9134 11.3278 18.6337 11.654C18.3463 11.9803 18.2241 12.2107 18.2241 12.2107C18.2241 12.2107 18.0843 11.9492 18.0118 11.7239C17.9606 11.7497 17.6857 11.9025 17.6857 11.9025L17.0487 9.68379L17.0615 9.53617C17.0615 9.53617 17.1185 9.46637 17.1315 9.33683C17.0358 9.30577 17.0228 9.27983 16.8958 9.15831C16.7688 9.0368 16.6654 8.889 16.4533 8.78796C16.4222 8.73096 16.3833 8.65348 16.228 8.62225C16.0727 8.59102 15.9795 8.56542 15.9795 8.56542C15.9795 8.56542 16.0623 8.53418 16.1012 8.4695C16.0053 8.48247 15.9278 8.51353 15.7181 8.50841C15.5057 8.50312 15.4824 8.49544 15.366 8.51353C15.2496 8.53162 15.11 8.58351 15.0579 8.40482C15.0009 8.36079 14.8792 8.3997 14.7756 8.55227C14.672 8.70485 14.6359 8.82671 14.4365 8.88627C14.4225 8.97414 14.3917 9.0585 14.3459 9.13476C14.2889 9.23067 14.1983 9.32642 14.0766 9.46875C13.8849 9.69403 13.916 10.0642 13.6105 10.3465C13.3025 10.6286 13.6617 9.5645 13.6617 9.5645L14.1536 8.3869L15.5542 7.0173L17.729 6.86984L17.9413 7.99624L19.0028 8.3613L19.6734 9.38393L19.6737 9.38257Z" fill="#D3AE4D"/>
<path fill-rule="evenodd" clip-rule="evenodd" d="M20.0182 9.63104L19.1043 8.31332L18.4648 7.82129C18.4648 7.82129 18.0092 6.98263 17.9781 6.95669C17.9522 6.9386 17.5224 6.89201 17.248 6.87392L17.2992 7.00072C17.3591 7.02018 17.4123 7.05607 17.4528 7.10432C17.5745 7.24409 17.6521 7.50811 17.3752 7.7904C17.4839 7.82914 17.5287 7.8416 17.6236 7.82914C17.5279 7.94314 17.3105 8.18651 17.2975 8.39882C17.2845 8.57222 17.3932 8.62393 17.3932 8.62393C17.3932 8.62393 17.2275 8.81559 17.2198 9.13593C17.2981 9.04768 17.3837 8.96626 17.4758 8.89256C17.6675 8.73896 17.9315 8.56625 18.1102 8.45753C18.1077 8.50315 18.1139 8.54883 18.1283 8.59219C18.1283 8.59219 18.4621 8.31776 18.7427 8.43944C18.8695 8.49645 18.8125 8.67513 18.8125 8.67513C18.8125 8.67513 18.986 8.61045 19.1077 8.73214C19.2294 8.85382 19.4028 9.16699 19.4908 9.28885C19.5296 9.34585 19.6306 9.45457 19.734 9.62267C19.8753 9.85831 19.9933 10.1072 20.0863 10.3658C20.0914 10.2622 20.1122 10.1173 20.2911 10.1173L20.0192 9.63052L20.0182 9.63104Z" fill="#CAA13E"/>
<path fill-rule="evenodd" clip-rule="evenodd" d="M6.3172 13.3748C6.3172 13.3748 6.25252 13.2142 6.3172 12.901C6.38188 12.5879 6.48292 12.4402 6.51654 11.9794C6.55016 11.5186 6.85054 10.9438 6.85054 10.9438L7.68154 10.566L8.26932 10.7264L8.44272 11.5135L7.69963 11.9231C7.69963 11.9231 7.66088 12.0965 7.45113 12.2363C7.24138 12.3761 6.95141 12.4848 6.88161 12.6273C6.83988 12.7146 6.80942 12.8068 6.79098 12.9017C6.79098 12.9017 6.57867 12.8577 6.45186 12.9975C6.3172 13.14 6.32232 13.2668 6.3172 13.3755V13.3748Z" fill="#F4EFC8"/>
<path fill-rule="evenodd" clip-rule="evenodd" d="M7.99478 13.1651C7.99478 13.1651 7.92481 13.2091 7.8731 13.3186C7.8219 13.2359 7.69953 12.7439 7.69441 12.3011C7.68929 11.8584 7.66284 11.7487 7.76524 11.5961C7.86764 11.4436 8.26921 11.2828 8.21221 11.008C8.15521 10.7466 7.91696 10.6378 7.62444 10.7129C7.41964 10.7641 7.26723 11.1997 7.05492 11.4171C6.89432 11.5828 6.70284 11.5569 6.65112 11.6475C6.58115 11.7692 6.64583 11.8909 6.62518 11.9685C6.61989 11.9945 6.55521 12.1342 6.43864 12.3025C6.20312 12.6416 5.80445 13.1207 5.75256 13.5504C5.77065 13.307 5.75785 13.3019 5.82254 13.0326L5.78362 12.9679L6.03962 12.1291L6.20534 11.4379L6.57569 10.2805L7.22798 9.09742L7.86234 8.38797L8.52248 8.432L8.60014 9.42356L8.97816 11.2852L9.77296 12.2638L8.4991 13.121L7.99427 13.1651H7.99478Z" fill="#EBCC73"/>
<path fill-rule="evenodd" clip-rule="evenodd" d="M8.39109 13.5169C8.39109 13.5169 8.28238 13.5428 8.24347 13.5222C8.20456 13.5015 8.16598 13.4781 8.17878 13.4522C8.19158 13.4262 8.26156 13.3824 8.26156 13.3616C8.26299 13.3427 8.25704 13.3241 8.24497 13.3096C8.23289 13.2951 8.21564 13.2859 8.19687 13.2839C8.13731 13.2762 8.11922 13.315 8.11922 13.315C8.11922 13.315 8.06222 13.2711 8.0158 13.2638C8.04326 13.2604 8.0709 13.2586 8.09857 13.2585C8.02702 13.2261 7.95113 13.2043 7.87329 13.1938C7.93797 13.155 8.06495 13.041 8.14772 13.041C8.2305 13.041 8.28238 13.0282 8.26941 12.9842C8.25644 12.9402 8.19176 12.8755 8.12195 12.8495C8.14772 12.8185 8.16598 12.7719 8.10386 12.6447C8.03901 12.5179 8.06495 12.4324 8.08577 12.4015C8.10386 12.3626 8.16854 12.2928 8.19961 12.2488C8.23067 12.2047 8.25661 12.1452 8.30832 12.1141C8.33426 12.096 8.41703 12.0629 8.49998 12.0313C8.5906 12.0003 8.6657 11.9614 8.71741 12.0003C8.77441 12.039 8.74847 12.0909 8.74847 12.0909C8.74847 12.0909 8.92716 12.026 9.08758 12.109C9.24818 12.1865 9.63918 12.2358 9.63918 12.2358L9.7793 12.5181L8.85241 13.3129L8.46926 13.5046L8.39161 13.5174L8.39109 13.5169Z" fill="#E5C66B"/>
<path fill-rule="evenodd" clip-rule="evenodd" d="M9.67766 12.2175C9.67766 12.2175 9.39026 12.4092 9.32557 12.479C9.36431 12.4843 9.429 12.5102 9.40306 12.549C9.37199 12.5877 9.18563 12.7224 9.08203 12.8494C8.97332 12.9762 8.86972 13.1368 8.83354 13.2144C8.7948 13.2842 8.49955 13.4888 8.39868 13.5146C8.61099 13.5146 9.03817 13.2531 9.1986 13.2531C9.19348 13.3308 9.24263 13.4189 9.33325 13.4265C9.42388 13.4342 9.68534 13.4835 10.0374 13.2661C10.3895 13.0538 10.2731 12.8958 10.4206 12.7923C10.7029 12.6058 10.8167 12.4401 10.972 12.3367C11.1273 12.2332 11.2077 12.2097 11.2077 12.2097C11.2077 12.2097 11.2128 12.132 11.2589 12.1399C11.2715 12.1413 11.2835 12.1462 11.2935 12.154C11.3036 12.1617 11.3113 12.1721 11.3159 12.1839C11.3159 12.1839 11.5852 11.9923 11.9303 11.9405C11.9222 11.937 11.9158 11.9305 11.9122 11.9225C11.9122 11.9225 11.938 11.9095 11.9433 11.8965C11.9433 11.8965 11.9613 11.8706 11.9743 11.8835C11.9873 11.8965 12.0054 11.9923 12.0313 12.0312C12.0883 12.0052 12.197 11.7619 12.197 11.7619L12.4587 11.0137V10.3301L12.2539 10.3691L10.7179 11.0213L9.78569 11.9871L9.67698 12.2175H9.67766Z" fill="#E6BD62"/>
<path fill-rule="evenodd" clip-rule="evenodd" d="M14.0996 8.86481C14.1827 8.84465 14.2624 8.81233 14.336 8.76889C14.3049 8.85184 14.3049 8.94246 14.1703 9.13924C14.0356 9.33601 14.0305 9.36451 13.9218 9.56897C13.8131 9.78127 13.8001 10.0868 13.6965 10.2212C13.7429 10.1987 13.7927 10.1839 13.844 10.1774C13.844 10.1774 13.7405 10.268 13.6965 10.3638C13.6525 10.4595 13.5748 10.6588 13.3833 10.7807C13.1918 10.9025 12.9483 10.98 12.6868 11.2674C12.4252 11.5495 12.1561 11.9069 12.0212 12.0354C12.0912 11.9137 12.187 11.6704 12.2129 11.5099C12.2388 11.3495 12.2076 11.1577 12.2516 10.9455C12.2957 10.7334 12.2957 10.5805 12.5076 10.2102C12.7196 9.83981 13.0824 8.55317 13.0824 8.55317L13.8643 8.30469L14.1 8.86395L14.0996 8.86481Z" fill="#B6933F"/>
<path fill-rule="evenodd" clip-rule="evenodd" d="M13.5352 8.391C13.5352 8.391 13.2997 8.73012 13.235 9.03049C13.1703 9.33086 13.2297 9.30492 13.191 9.45255C13.1678 9.54256 13.1678 9.63697 13.191 9.72698C13.2725 9.59557 13.3842 9.48547 13.5168 9.40579C13.7395 9.2713 13.9207 9.17539 14.0288 9.06155C14.1375 8.93987 14.2281 8.74053 14.4636 8.58778C14.3679 8.57481 14.2332 8.53078 14.2076 8.53658C14.3035 8.42787 14.5908 8.26215 14.8807 8.06281C15.1681 7.85801 15.15 7.77541 15.6161 7.57095C15.4634 7.59689 15.3908 7.55798 15.2639 7.57095C15.3151 7.46223 15.4943 7.41035 15.6735 7.23183C15.8527 7.05332 15.5596 6.78912 15.5596 6.78912L14.1943 7.61498L13.5342 8.39168L13.5352 8.391Z" fill="#C49937"/>
<path fill-rule="evenodd" clip-rule="evenodd" d="M9.83032 7.7747L9.86138 7.52621L10.2524 6.8997L10.6615 5.79942V4.29517L10.6304 3.42528L10.6951 2.8556L10.7442 2.67453L10.7961 2.60455L11.1299 2.77795L11.5909 3.40446L11.635 4.61363L11.187 6.52167L9.90798 7.91721L9.83032 7.7747Z" fill="#DFC068"/>
<path fill-rule="evenodd" clip-rule="evenodd" d="M10.8478 2.53457C10.8478 2.53457 10.643 2.53986 10.5993 3.39166C10.5557 4.24347 10.5345 4.6913 10.5034 5.11336C10.4724 5.53542 10.4 5.7916 10.3637 6.04026C10.3273 6.28892 10.3067 6.62787 10.1903 6.83506C10.1391 6.9308 10.0297 7.23118 9.77332 7.45646C9.48591 7.70496 9.05652 7.87852 8.99149 7.8915C8.87749 7.91727 8.30012 7.97427 8.0646 8.10381C7.98183 8.14784 7.83932 8.19955 7.68146 8.34718C7.36811 8.62929 6.95134 9.13413 6.65097 9.74256C6.19017 10.6514 5.72937 13.217 5.72937 13.217L5.83296 13.0436C5.83296 13.0436 5.84594 12.8132 6.07634 12.4092C6.30162 12.0054 6.23693 11.5523 6.55011 10.7782C6.67179 10.4831 6.82454 10.0999 7.01091 9.77362C7.30616 9.24284 7.66336 8.78716 8.0233 8.53867C8.61091 8.13487 9.25824 8.0468 9.25824 8.0468L9.95474 7.586C9.95474 7.586 10.0764 7.35048 10.237 7.08116C10.4621 6.70331 10.749 6.28124 10.8117 5.66769C10.9076 4.75888 10.677 4.16342 10.69 3.62497C10.7029 3.08651 10.7081 2.69039 10.8169 2.59447C10.9258 2.49856 10.848 2.53491 10.848 2.53491L10.8478 2.53457Z" fill="#A88F33"/>
<path fill-rule="evenodd" clip-rule="evenodd" d="M10.848 6.59932C10.848 6.59932 11.1552 5.84327 11.2958 5.17272C11.3218 5.03807 11.3735 4.90358 11.3865 4.79487C11.4512 4.1605 11.4692 3.89904 11.3865 3.55207C11.3218 3.29607 11.0733 3.06533 10.9437 2.88647C10.8169 2.69993 10.7574 2.63047 10.7833 2.59122C10.8093 2.55196 10.9101 2.48779 11.0084 2.49547C11.1129 2.49852 11.2157 2.52278 11.3105 2.56679C11.4054 2.6108 11.4903 2.67363 11.56 2.75147C11.7594 2.98187 11.9173 3.76387 11.9173 3.76387L12.0833 4.79572L12.5054 6.09535L10.8483 6.60035L10.848 6.59932Z" fill="#C99E3D"/>
<path fill-rule="evenodd" clip-rule="evenodd" d="M13.7345 5.81241C13.7345 5.81241 13.6775 5.83819 13.5741 5.81241C13.5785 5.85468 13.5712 5.89734 13.5529 5.93571C13.5346 5.97407 13.5061 6.00664 13.4705 6.02984C13.3618 5.98581 12.3441 6.07388 12.3441 6.07388C12.3441 6.07388 11.8703 5.99093 11.7227 5.36441C11.6193 4.94748 11.8004 4.37284 11.7408 3.99481C11.6502 3.4381 11.5234 3.32921 11.5104 3.15599C11.4974 2.98276 11.4845 2.93856 11.4845 2.82984C11.4275 2.81687 11.3938 2.79878 11.337 2.79878C11.324 2.74758 11.3498 2.70287 11.293 2.61224C11.324 2.62521 11.5363 2.65116 11.7848 2.88668C11.9896 3.07833 11.9896 3.14814 12.0205 3.18705C12.0593 3.22579 12.3726 3.49425 12.5073 3.76185C12.6419 4.02946 12.9034 4.88279 12.9629 5.02257C12.981 5.07957 13.0199 5.13657 13.1165 5.26594C13.2667 5.45248 13.4867 5.76087 13.7352 5.81207L13.7345 5.81241Z" fill="#B58634"/>
<path fill-rule="evenodd" clip-rule="evenodd" d="M12.0571 3.19998C12.214 3.45334 12.3549 3.71622 12.479 3.9871C12.6318 4.33133 12.7224 4.61361 12.914 4.84401C12.8105 4.54381 12.6266 3.95348 12.5179 3.74373C12.3962 3.52186 12.1478 3.28293 12.0571 3.20015V3.19998Z" fill="#A88F33"/>
<path fill-rule="evenodd" clip-rule="evenodd" d="M10.2965 7.45644C10.2965 7.45644 10.0351 7.52112 9.54832 7.77746C9.38772 7.86024 9.23515 7.93004 9.08752 7.99489C8.70404 8.16829 8.29274 8.32855 7.96642 8.41695C7.99237 8.44801 8.00517 8.46081 8.00517 8.46081C8.00517 8.46081 8.00517 8.58779 8.07514 8.66015C8.0364 8.69906 7.51843 9.05115 7.67134 10.2291C7.77477 10.1903 7.89645 10.1385 7.91454 10.1385C7.94577 10.1438 7.95345 10.2291 7.9922 10.2291C8.03094 10.2291 8.15791 10.1779 8.29257 10.0038C8.28745 10.0738 8.20979 10.778 8.62656 11.2517C8.70421 11.1611 8.90099 10.8607 8.90099 10.8607L8.90611 10.765C8.90611 10.765 8.9242 10.431 9.03308 10.1255C9.14197 9.82 9.3541 9.59472 9.3541 9.59472L10.4619 8.01281L10.2962 7.45627L10.2965 7.45644Z" fill="#E6C367"/>
<path fill-rule="evenodd" clip-rule="evenodd" d="M9.26103 9.77921C9.21031 9.81505 9.15443 9.84296 9.09531 9.86198C9.07722 9.7973 9.05128 9.57458 9.20403 9.35715C9.38271 9.09552 9.77354 8.7564 9.88226 8.48675C9.95223 8.31318 9.92117 7.87832 10.5426 7.32161C11.164 6.76489 11.4072 6.57341 11.4072 6.57341L12.4117 6.06857L13.6466 6.55531L13.0331 8.96001L12.5568 10.0864L10.6624 9.7292L9.26086 9.77921H9.26103Z" fill="#DCBA5A"/>
<path fill-rule="evenodd" clip-rule="evenodd" d="M9.98389 9.12623L10.2196 8.83115V8.6214C10.2196 8.6214 10.481 8.55143 10.7632 8.26403C11.0453 7.97662 11.4363 7.4252 11.7807 7.45882C12.1251 7.49773 12.1587 8.20702 12.1717 8.40653C12.1847 8.60604 12.2287 9.05882 12.2985 9.30236C12.3761 9.54573 11.4597 10.4673 11.4597 10.4673L10.8372 10.9411L9.98389 9.12623Z" fill="#E9CE77"/>
<path fill-rule="evenodd" clip-rule="evenodd" d="M10.7134 11.5831C10.7134 11.5831 10.905 11.2828 10.7646 11.2181C10.8473 11.0317 11.0001 10.8349 11.0001 10.8349C11.0001 10.8349 11.1088 10.5658 11.4609 10.2344C11.8129 9.90294 12.0305 9.68278 12.0875 9.46023C12.1227 9.31519 12.1418 9.16673 12.1445 9.01752C12.1826 9.04861 12.2233 9.07631 12.2662 9.10029C12.3232 9.12623 12.5924 9.34878 12.5536 9.79678C12.5149 10.2448 12.3488 10.4311 12.3488 10.4311C12.3488 10.4311 12.1884 10.5916 12.0746 10.6745C11.9527 10.7573 11.9089 10.853 11.7042 10.8609C11.7253 10.8442 11.7489 10.831 11.7742 10.822C11.7742 10.822 11.5619 10.7962 11.4479 10.8996C11.3339 11.0031 11.0916 11.3217 10.9699 11.4176C10.8482 11.4953 10.7139 11.5833 10.7139 11.5833L10.7134 11.5831Z" fill="#CDAE50"/>
<path fill-rule="evenodd" clip-rule="evenodd" d="M19.3217 6.54746C19.0158 6.43598 18.6944 6.37309 18.3691 6.36109C17.8253 6.343 17.0305 6.37406 16.2513 6.37918C15.4124 6.3843 14.6513 6.09178 13.595 6.04007C13.4216 5.93647 12.9806 5.48335 11.604 6.44386C11.6868 6.43874 12.6034 6.23155 12.9217 6.6304C13.2427 7.02652 13.1521 7.69963 13.1083 7.86005C13.0253 8.21743 12.756 8.73779 12.6475 9.10285C12.5389 9.46791 12.5645 9.65973 12.4869 9.91573C12.4092 10.1717 12.2384 10.2989 12.3392 10.594C12.4739 10.5112 12.544 10.5112 12.769 10.0064C12.9939 9.50153 12.9477 9.14159 13.3206 8.71441C13.6856 8.28467 14.2934 7.6969 14.5245 7.54927C14.7555 7.40164 16.5904 6.44898 18.5116 7.35778C18.9749 7.30863 19.3219 6.54729 19.3219 6.54729L19.3217 6.54746Z" fill="#D2A83E"/>
<path fill-rule="evenodd" clip-rule="evenodd" d="M12.378 6.19517C12.3761 6.17572 12.3718 6.15657 12.3652 6.13817C12.3472 6.10031 12.3236 6.06538 12.2952 6.03457C12.2952 6.03457 11.8395 5.9518 11.6091 5.97757C11.2051 6.0216 10.84 6.52132 10.6692 6.77767C10.4984 7.03401 10.286 7.42996 10.0556 7.6346C10.0582 7.61466 10.0536 7.59447 10.0427 7.57759C10.0427 7.57759 10.0556 7.59568 10.0299 7.62163C10.0041 7.64757 10.0039 7.66037 10.0169 7.67283L10.0558 7.71157C10.0686 7.71157 10.426 7.55097 10.9128 7.09716C11.4306 6.62338 11.8267 6.38035 12.0339 6.29706C12.1444 6.25011 12.2599 6.21592 12.3781 6.19517H12.378Z" fill="#C29637"/>
<path fill-rule="evenodd" clip-rule="evenodd" d="M21.217 4.2486C21.217 4.2486 21.134 4.35202 21.0304 4.46603C20.8 4.7094 20.4997 4.98366 20.2433 5.26594C20.0001 5.53525 19.7257 5.745 19.4175 6.09709C19.1092 6.44917 18.7519 6.84 18.6614 6.954C18.5786 7.06801 18.514 7.25438 18.514 7.35012C18.4699 7.31906 18.4182 7.28544 18.4182 7.28544C18.44 7.32609 18.466 7.3643 18.4959 7.39944C18.5605 7.49007 18.6614 7.60424 18.7133 7.67388C18.7769 7.76252 18.8226 7.86277 18.8478 7.96896C18.8788 7.97408 19.0782 8.01299 19.3268 7.6039C19.5755 7.19481 19.9015 6.74699 19.9015 6.74699L20.4193 5.97796L20.7456 5.32567L21.1552 4.59556L21.2175 4.2486H21.217Z" fill="#AC8132"/>
<path fill-rule="evenodd" clip-rule="evenodd" d="M21.7476 3.72565C21.7476 3.72565 21.4342 3.98165 21.3126 4.13525C21.1909 4.28885 20.903 4.69196 20.903 4.69196L21.0065 4.67899L21.5322 4.21307L21.737 3.84801L21.7474 3.72633L21.7476 3.72565Z" fill="#A88F33"/>
<path fill-rule="evenodd" clip-rule="evenodd" d="M21.6518 24.3004C21.6518 24.3004 21.6466 24.088 21.7658 23.9612C21.8874 23.8343 22.1955 23.6479 22.4959 22.9488C22.7962 22.2498 22.8297 22.0919 22.8297 22.0919C22.8297 22.0919 22.2912 22.5527 21.9593 22.6614C22.037 22.5008 22.081 22.387 22.1199 22.3041C22.0759 22.2653 21.8895 22.2213 21.8714 22.2006C21.9748 22.097 22.0318 21.8433 22.2416 21.675C22.5109 21.4702 23.0028 21.1183 23.385 20.8046C23.7673 20.4909 24.519 19.7613 24.6149 19.549C24.6719 19.6318 24.6847 19.6835 24.6847 19.6835C24.6847 19.6835 24.3068 20.1755 24.11 20.4887C23.9365 20.758 23.9494 20.9107 23.9494 20.9107L24.3068 20.7571C24.3068 20.7571 24.4102 21.1403 23.9418 21.7229C24.1466 21.6453 24.2292 21.6919 24.3456 21.627C24.1539 21.7489 23.8899 21.9146 23.6414 22.3701C23.398 22.8258 23.0666 23.3566 22.5075 23.6878C21.9637 24.0374 21.6504 24.2988 21.6504 24.2988L21.6518 24.3004Z" fill="#A67A2E"/>
<path fill-rule="evenodd" clip-rule="evenodd" d="M20.2486 6.81694C20.2486 6.81694 20.0363 7.25948 20.0053 7.60388C20.0001 7.68683 19.9793 7.75151 19.9793 7.84725C19.9742 8.15531 19.9974 8.49971 19.9281 8.66014C19.9022 8.59546 19.8892 8.55142 19.8633 8.52565C19.8245 8.63437 19.7546 8.97348 19.6976 9.10029C19.6718 9.01751 19.6148 8.73011 19.6201 8.391C19.6254 8.05188 19.6329 7.98703 19.6329 7.91723C19.6201 8.02065 19.5501 8.1606 19.5242 8.24337C19.4854 8.17357 19.4414 8.08294 19.3895 8.00785C19.3585 8.05905 19.3197 8.13466 19.2861 8.17357C19.2808 8.14251 19.268 8.05956 19.2602 7.94317C19.255 7.80851 19.2472 7.63512 19.255 7.59876C19.2678 7.52896 19.3767 7.25453 19.6071 7.00331C19.8815 6.70293 20.1638 6.12574 20.2466 5.94705C20.3293 5.76836 20.6814 5.02545 20.6814 5.02545H20.9507L20.5597 5.91599C20.5597 5.91599 20.3242 6.40273 20.2025 6.58159C20.0809 6.76045 19.8245 7.27296 19.7105 7.4723C19.7933 7.36358 19.8633 7.30658 19.9462 7.20299C20.0264 7.13045 20.249 6.81728 20.249 6.81728L20.2486 6.81694Z" fill="#8C6228"/>
<path fill-rule="evenodd" clip-rule="evenodd" d="M21.7527 3.69183C21.7087 3.82723 21.6392 3.95294 21.5479 4.06218C21.3873 4.25384 21.0429 4.51001 20.8748 4.71447C20.7212 4.91381 20.4141 5.45755 20.5537 6.10216C20.6048 5.96238 20.7013 5.68539 20.9576 5.37205C21.2139 5.0587 21.4883 4.69894 21.6232 4.41939C21.7576 4.1371 21.7757 3.91455 21.7757 3.91455L21.8269 3.84987L21.7959 3.70224L21.7518 3.69183H21.7527Z" fill="#CBA94C"/>
<path fill-rule="evenodd" clip-rule="evenodd" d="M26.9955 20.8645C26.9955 20.8645 26.8919 20.5824 26.8609 20.3261C26.8298 20.0697 26.9121 20.0189 26.8168 19.7255C26.7598 19.5468 26.6564 19.5719 26.6305 19.5468C26.6045 19.5217 26.5864 19.2517 26.5916 19.1041C26.5967 18.9565 26.5864 18.765 26.5605 18.6821C26.5218 18.651 26.4958 18.6251 26.4388 18.4336C26.3741 18.2419 26.3431 18.1462 26.312 18.0893C26.2809 18.0325 26.1901 17.9806 26.1901 17.9236C26.1901 17.8096 26.2937 17.7502 26.2937 17.7188C26.2886 17.6541 26.211 17.706 26.1901 17.6878C26.1644 17.6567 26.255 17.4703 26.2214 17.4444C26.2084 17.4316 26.1178 17.5403 26.0944 17.5093C26.0685 17.478 26.0374 17.17 25.9908 16.9655C25.9469 16.7662 25.9002 16.6213 25.8951 16.5617C25.8899 16.5047 25.5377 15.5002 25.4523 15.2568C25.3836 15.0512 25.3257 14.842 25.2789 14.6303C25.253 14.5086 25.2349 14.26 25.2219 14.2859C25.209 14.3118 25.2168 14.4386 25.196 14.4335C25.1779 14.4282 25.1132 13.9857 25.0926 13.9157C25.0745 13.8458 24.9656 13.6085 24.939 13.4368C24.913 13.2633 24.8562 12.8102 24.8173 12.5021C24.7784 12.1941 24.7603 12.0673 24.7603 11.9901C24.7666 11.8014 24.7563 11.6126 24.7292 11.4257C24.678 11.0994 24.5756 10.7033 24.4858 10.4731C24.3125 10.038 23.8515 8.9248 23.769 8.64781C23.769 8.57783 23.8597 8.61675 23.8597 8.61675C23.8597 8.61675 24.0848 9.18114 24.2505 9.61599C24.4111 10.051 24.5638 10.4342 24.6028 10.4731C24.6338 10.5118 24.8772 10.939 24.9859 11.638C25.0946 12.3371 25.1334 12.9817 25.1982 13.4114C25.2293 13.6162 25.2552 13.8335 25.3199 14.0509C25.3897 14.2866 25.4984 14.53 25.6409 14.9027C25.7626 15.216 25.8532 15.4775 25.9024 15.7028C25.9594 15.9902 25.9594 16.2076 25.993 16.3501C26.0243 16.4718 26.0707 16.715 26.1796 17.0669C26.2884 17.4188 26.4487 17.8721 26.5574 18.1542C26.7699 18.7186 26.8646 19.1898 26.8967 19.441C26.925 19.6999 27.021 20.5957 26.995 20.8649L26.9955 20.8645Z" fill="#A88F33"/>
<path fill-rule="evenodd" clip-rule="evenodd" d="M21.7658 3.66079L21.7528 3.69185C21.7528 3.69185 21.7915 3.70483 21.7839 3.75671C21.7844 3.82769 21.7801 3.89863 21.7709 3.96902C21.7581 4.05964 21.7321 4.12945 21.727 4.18645C21.727 4.30814 21.7451 4.44791 21.5734 4.79488C21.5222 4.89063 21.4907 4.9734 21.4647 5.0304C21.4 5.17018 21.3871 5.191 21.3301 5.25569C21.4207 5.20448 21.747 4.99968 21.9125 5.0304C21.7987 5.09509 21.6251 5.22206 21.5164 5.38778C21.5424 5.3929 21.6511 5.41372 21.8236 5.38778C22.111 5.34375 22.432 5.24015 22.7141 5.26081C23.0223 5.2789 22.9006 4.89063 22.9006 4.89063L22.545 4.1088L21.8719 3.63519L21.7658 3.66096V3.66079Z" fill="#BE9C44"/>
<path fill-rule="evenodd" clip-rule="evenodd" d="M23.5212 9.51728C23.5212 9.51728 23.2208 9.21691 23.0991 8.18607C22.9774 7.15045 23.0034 5.62603 23.0034 5.62603L22.76 5.03057C22.76 5.03057 22.7088 4.63445 22.5813 4.48699C22.4538 4.33953 22.2035 4.09087 22.0895 3.96918C21.9755 3.84749 21.8461 3.68178 21.7684 3.65583C21.8072 3.59115 21.9807 3.22609 22.646 3.22097C23.3113 3.21585 23.5164 3.58603 23.5859 3.72069C23.6553 3.85535 23.969 4.4375 24.0854 5.54684C24.1941 6.65483 24.1994 6.73777 24.1813 7.12092C24.1683 7.33324 24.0984 7.8251 23.9765 8.35059C23.8652 8.79604 23.7436 9.2932 23.5208 9.51831L23.5212 9.51728Z" fill="#A17C34"/>
<path fill-rule="evenodd" clip-rule="evenodd" d="M22.5792 10.4001C22.6793 10.4073 22.7794 10.3848 22.8667 10.3352C22.9624 10.3301 23.3094 10.3742 23.576 10.035C23.5941 10.1125 23.6409 10.3224 23.519 10.5088C23.5839 10.444 23.6796 10.4182 23.6926 10.4001C23.6977 10.4958 23.7883 10.7909 23.4052 11.5081C23.5086 11.3942 23.6303 11.3993 23.739 11.3864C23.7443 11.521 23.8167 11.974 23.6252 12.2175C23.4984 12.3832 23.2911 12.3313 23.2911 12.3313C23.2942 12.2952 23.2942 12.2588 23.2911 12.2226C23.286 12.1527 23.2601 12.0829 23.2783 12.0363C23.1782 11.9905 23.087 11.9274 23.009 11.8497C22.7837 11.6374 22.4912 11.2751 22.4705 11.0058C22.4446 10.7054 22.7139 10.6407 22.7139 10.6407C22.6913 10.6206 22.6721 10.5969 22.6569 10.5708C22.6439 10.5269 22.631 10.4569 22.5792 10.4001Z" fill="#8C6228"/>
<path fill-rule="evenodd" clip-rule="evenodd" d="M20.5823 7.1431C20.5823 7.1431 20.5693 7.12501 20.4995 7.20778C20.5125 7.12501 20.5255 7.04718 20.5306 6.97209C20.5636 6.90257 20.6064 6.83809 20.6575 6.7806C20.6186 6.85808 20.5927 6.92806 20.5927 6.92806C20.5927 6.92806 20.6886 6.74937 20.8284 6.64066C20.9241 6.563 21.0458 6.52682 21.0975 6.45429C21.1545 6.37663 21.1415 6.36366 21.1545 6.35069C21.1545 6.35069 21.2815 6.26792 21.4757 6.02438C21.5015 5.99332 21.5404 5.9597 21.5663 5.92863C21.6102 5.91054 21.7138 5.86395 21.8354 5.80166C21.9624 5.73186 22.1047 5.63611 22.1928 5.59686C22.3662 5.51921 22.5502 5.52706 22.6355 5.4052C22.7002 5.38711 22.77 5.19289 22.7572 5.02734C22.8529 5.06609 23.3448 5.37158 23.5132 6.03957C23.6349 6.51334 23.4173 7.24345 23.3267 7.59571C23.2361 7.94796 23.2233 8.20925 23.0963 8.36968C22.9357 8.58216 22.4181 8.88168 22.2911 9.02999C22.1824 9.15167 21.8563 9.45973 21.8691 9.68228C21.882 9.84799 22.0865 9.93828 22.1307 9.96968C22.1749 10.0011 22.1745 10.0397 22.2575 10.0209C22.3404 10.0021 22.3713 9.96388 22.4051 9.96388C22.4438 9.969 22.4438 9.97685 22.4619 9.97685C22.4751 9.97646 22.4881 9.97468 22.5008 9.97156C22.5008 9.97156 22.4879 10.2072 21.9365 10.2788C21.8976 10.284 21.8588 10.2968 21.8095 10.3047C21.8744 10.2736 21.9131 10.2736 21.9831 10.1779C21.9054 10.1649 21.6827 10.152 21.6257 10.1339C21.6438 10.1028 21.7034 10.0199 21.7525 9.98111C21.7965 9.94237 21.7474 9.92991 21.7086 9.95005C21.6419 9.99543 21.578 10.0447 21.517 10.0975C21.4523 10.1545 21.3953 10.2322 21.2917 10.3023C21.2607 10.1987 21.2658 10.0019 21.3876 9.8596C21.3564 9.86472 21.2968 9.95534 21.24 9.93725C21.2297 9.84282 21.2359 9.74732 21.2581 9.65497C21.2892 9.5384 21.4574 9.33395 21.4574 9.33395L22.2703 7.8814L22.4437 6.78111L20.5823 7.14276V7.1431Z" fill="#92723A"/>
<path fill-rule="evenodd" clip-rule="evenodd" d="M20.5385 7.20519C20.5385 7.20519 20.4945 7.23625 20.5826 7.29581C20.5696 7.3139 20.5385 7.37859 20.4996 7.42262C20.4557 7.47382 20.409 7.50556 20.3909 7.54959C20.3521 7.64022 20.3211 7.70234 20.3211 7.74125C20.3211 7.78016 20.3081 8.02866 20.1994 8.18908C20.1605 8.24608 20.1164 8.34183 20.0854 8.40651C20.0207 8.52035 19.9637 8.61131 19.9507 8.66251C19.9249 8.75314 19.9068 9.00163 19.9068 9.00163C19.9068 9.00163 19.9638 8.93165 19.9845 8.90588C19.9533 8.97057 19.9196 9.04037 19.8705 9.09225C19.9015 9.06631 19.9922 9.00163 20.1449 8.86697C20.3573 8.68845 20.6887 8.38808 21.0927 8.15017C20.9709 8.1942 20.8674 8.1942 20.7846 8.20717C20.8493 8.14249 21.4319 7.45897 21.7374 7.39429C21.7559 7.37077 21.7652 7.34124 21.7633 7.31134L21.5017 7.28557L20.9709 7.39941L20.8934 6.98981L20.5385 7.20468V7.20519Z" fill="#B18E3E"/>
<path fill-rule="evenodd" clip-rule="evenodd" d="M21.3826 9.53534C21.3826 9.53534 21.3127 9.60514 21.248 9.77871C21.1982 9.72671 21.1555 9.66835 21.121 9.60514C21.0253 9.44472 20.8778 9.24009 20.5334 9.35665C20.5283 9.24794 20.5204 9.19094 20.5334 9.11328C20.5904 9.10048 20.7638 8.96071 20.9372 8.75608C21.059 8.6163 21.1729 8.45571 21.2505 8.25125C21.3017 8.21233 21.3903 8.14765 21.5065 8.07256C21.6723 7.95872 21.8716 7.80325 21.9027 7.62985C21.825 7.66091 21.6593 7.73856 21.4106 7.72576C21.5065 7.68173 21.654 7.63514 21.6359 7.44348C21.6748 7.41754 21.7059 7.39945 21.7059 7.39945C21.6767 7.38972 21.646 7.38532 21.6153 7.38648C21.61 7.36839 21.6023 7.34262 21.5582 7.35542C21.5142 7.36822 21.507 7.36839 21.5012 7.38648C21.4832 7.39177 21.4236 7.38648 21.3796 7.41771C21.3355 7.44894 21.2138 7.5522 21.1673 7.57029C21.1853 7.53923 21.2111 7.4928 21.2111 7.4928C21.2111 7.4928 21.0843 7.5056 20.9937 7.544C20.828 7.60101 20.6365 7.7046 20.4423 7.80547C20.4604 7.7744 20.4682 7.75427 20.481 7.74846C20.4938 7.74266 20.525 7.73566 20.525 7.73037C20.525 7.72508 20.5122 7.67917 20.5199 7.66057C20.578 7.53756 20.6465 7.41977 20.7247 7.30848C20.8153 7.18663 20.8334 7.01323 20.8334 7.01323L21.2295 6.81389L22.3428 6.55789L23.0652 6.60192L22.9746 7.10164L22.5479 7.97408L22.1829 8.76888L21.7659 9.25579L21.3828 9.53534H21.3826Z" fill="#543E26"/>
<path fill-rule="evenodd" clip-rule="evenodd" d="M23.1871 7.37281C23.1871 7.37281 22.7521 7.91126 22.6304 7.99421C22.708 7.82849 23.1871 6.84204 23.3605 6.5676C23.3217 6.53654 23.2698 6.53654 23.3915 6.0556C23.2881 6.2988 23.2518 6.42578 23.1664 6.49046C23.0811 6.55514 23.0705 6.53449 23.0128 6.53449C23.0237 6.51479 23.0282 6.49218 23.0256 6.46981C23.0256 6.46981 22.6606 6.42578 22.4113 6.42578C22.1619 6.42578 21.6684 6.56043 21.3938 6.66915C21.1764 6.75977 21.0547 6.75977 20.977 6.81661C20.8994 6.88129 20.8553 6.95126 20.8164 6.96935C20.7854 6.98744 20.6379 7.03403 20.6041 7.08319C20.5731 7.13439 20.5214 7.1919 20.5214 7.20487C20.5214 7.21784 20.5084 7.2361 20.5473 7.22296C20.5601 7.21784 20.656 7.16596 20.7647 7.10128C20.9122 7.0185 21.0909 6.92276 21.2204 6.86576C21.5905 6.71813 21.7071 6.74407 21.8726 6.71301C22.046 6.68195 22.2947 6.60942 22.4602 6.60942C22.6259 6.6043 22.9393 6.60942 23.0118 6.62239C22.9807 6.64833 22.9548 6.67939 22.9678 6.7881C22.9678 6.81917 22.9418 6.85279 22.9166 6.92788C22.8391 7.14019 22.6915 7.49227 22.6094 7.67096C22.4956 7.91416 22.3662 8.11879 22.3022 8.2456C22.2382 8.3724 22.0974 8.7064 21.958 8.88509C21.8185 9.06377 21.7457 9.17249 21.702 9.2114C21.6583 9.25031 21.3446 9.48054 21.368 9.56349C21.425 9.54539 21.7849 9.40989 22.0462 9.11566C22.3075 8.82143 22.3595 8.64189 22.564 8.48129C22.7684 8.32069 22.929 8.05155 23.0248 7.829C23.105 7.62181 23.0869 7.55713 23.1878 7.37332L23.1871 7.37281Z" fill="#806031"/>
<path fill-rule="evenodd" clip-rule="evenodd" d="M13.8125 11.3917C13.8125 11.3917 13.7555 11.6272 13.626 11.7437C13.4992 11.8577 13.2739 11.9561 13.2481 12.1477C13.217 12.3392 13.4734 12.4351 13.4734 12.4351C13.4734 12.4351 13.3334 12.6655 13.3334 12.8389C13.3334 13.0176 13.3283 13.0512 13.3464 13.2221C13.3259 13.2353 13.3084 13.2527 13.2952 13.2733C13.2952 13.2733 13.308 13.439 13.435 13.5424C13.562 13.6458 13.6705 13.7081 13.7352 13.6822C13.7451 13.7033 13.7537 13.7249 13.7611 13.747C13.7611 13.747 13.8571 13.5037 13.9217 13.2913C13.9864 13.0739 14.0434 13.1048 14.0692 12.8123C14.095 12.5198 14.3764 12.0175 14.3764 12.0175L14.5684 11.5883L14.2552 11.3449L13.8125 11.3915V11.3917Z" fill="#B6903C"/>
<path fill-rule="evenodd" clip-rule="evenodd" d="M14.3949 11.8135C14.3304 11.8798 14.2707 11.9508 14.2166 12.0258C14.1338 12.1399 14.0691 12.2433 13.9474 12.2875C13.8257 12.3317 13.7481 12.3313 13.7558 12.4532C13.7635 12.5751 13.8775 12.6266 13.9421 12.6887C14.0121 12.7534 14.0691 12.8621 14.0381 12.984C14.0768 12.9659 14.1468 12.9451 14.2115 12.8053C14.2762 12.6655 14.7286 11.8137 14.7286 11.8137H14.3949V11.8135Z" fill="#685026"/>
<path fill-rule="evenodd" clip-rule="evenodd" d="M16.1791 9.84851C16.1791 9.84851 16.2179 9.74509 16.1791 9.66999C16.1402 9.59234 15.9047 9.5664 15.7881 9.47834C15.6665 9.38771 15.5188 9.32474 15.3972 9.3645C15.4152 9.32047 15.4878 9.22456 15.4282 9.20391C15.3712 9.18582 15.1591 9.28156 15.1021 9.32559C15.0451 9.36962 14.9155 9.42133 14.8898 9.45257C14.864 9.4838 14.8198 9.54319 14.7939 9.51725C14.7679 9.49916 14.7551 9.45257 14.7111 9.47834C14.6671 9.50411 14.4551 9.67767 14.416 9.77871C14.3769 9.87974 14.289 10.105 14.025 10.3612C13.761 10.6174 13.647 10.7832 13.7246 10.879C13.8023 10.9747 13.8386 10.9049 13.8516 10.9877C13.8616 11.069 13.8572 11.1513 13.8386 11.2311C13.8076 11.3657 13.7559 11.4925 13.8257 11.5185C14.0044 11.5755 14.1779 11.4673 14.2167 11.5004C14.2943 11.5702 14.1726 11.8214 14.3564 11.8705C14.543 11.9217 14.7268 11.8265 14.7268 11.8265L15.405 11.4615L16.0575 11.1172L16.3913 10.4569L16.2123 9.90551L16.1781 9.84851H16.1791Z" fill="#D4B968"/>
<path fill-rule="evenodd" clip-rule="evenodd" d="M15.5393 11.4252C15.5393 11.4252 15.4253 11.2518 15.5652 11.0989C15.7052 10.946 15.9043 10.8815 15.982 10.7858C15.9672 10.7675 15.9474 10.7541 15.925 10.747C15.9765 10.6548 16.0552 10.5806 16.1503 10.5345C16.1115 10.4958 16.0596 10.4647 16.0028 10.4647C15.8758 10.4647 15.798 10.5424 15.6816 10.5424C15.5678 10.5424 15.5548 10.4854 15.5548 10.4854C15.5548 10.4854 15.7465 10.4673 15.7282 10.3818C15.7101 10.2912 15.677 10.2912 15.677 10.2912C15.677 10.2912 16.0472 10.1376 16.1119 10.0557C16.1765 9.97374 16.1689 9.87697 16.1818 9.83823C16.2257 9.83823 16.482 9.70357 16.5856 9.76057C16.6892 9.81758 16.6167 9.97288 16.6167 9.97288C16.6167 9.97288 16.9302 9.73719 17.09 9.50611C17.2297 9.51908 17.2948 9.41037 17.3972 9.41037C17.5241 9.41037 17.7235 9.58377 17.7622 9.95394C17.7882 10.1662 17.8269 10.2879 17.7882 10.6634C17.7701 10.8757 17.7752 11.329 17.8394 11.5539C17.8832 11.7326 17.9868 11.7145 17.9868 11.7145C17.9709 11.769 17.9394 11.8176 17.8962 11.8543C17.8262 11.919 17.8185 12.09 17.8262 12.1547C17.8365 12.202 17.8495 12.2486 17.8651 12.2944C17.8651 12.2944 17.7824 12.3902 17.7615 12.455C17.7434 12.5197 17.6581 12.5638 17.5958 12.5638C17.5335 12.5638 17.5648 12.5585 17.482 12.5638C17.3992 12.569 17.3733 12.5818 17.3214 12.5638C17.2695 12.5457 17.2308 12.5248 17.2516 12.359C17.2697 12.1932 16.6121 11.8075 16.6121 11.8075L15.5369 11.4244L15.5393 11.4252Z" fill="#CCA849"/>
<path fill-rule="evenodd" clip-rule="evenodd" d="M14.3042 13.0614C14.3042 13.0614 14.5397 13.3748 15.5081 13.3748C15.969 13.3748 16.1296 13.3308 16.225 13.3048C16.3286 13.2789 16.7168 13.1263 17.1079 12.6653C17.46 12.2486 17.3823 12.0777 17.3823 12.0777L17.1775 12.0467L16.5119 12.1373L14.5423 12.9761L14.3033 13.0614H14.3042Z" fill="#585136"/>
<path fill-rule="evenodd" clip-rule="evenodd" d="M15.0266 13.139C15.0266 13.139 14.1877 13.3256 14.1877 12.7948C14.1877 12.277 14.7055 11.7333 14.8351 11.6376C14.9697 11.5417 15.2908 11.4328 15.2908 11.4328H16.0649L16.2124 11.8238L16.1477 12.6677L15.0266 13.1389V13.139Z" fill="#252211"/>
<path fill-rule="evenodd" clip-rule="evenodd" d="M15.8006 11.591C15.8006 11.591 15.6402 11.4434 15.2751 11.6422C14.9101 11.8411 14.6148 12.2566 14.5967 12.634C14.5787 12.9678 14.8712 13.2165 15.3269 13.2295C15.666 13.2423 15.8706 13.2035 15.9742 13.1783C15.9483 13.1472 15.8136 12.9789 15.8136 12.9789L15.8008 11.5912L15.8006 11.591Z" fill="#C3B378"/>
<path fill-rule="evenodd" clip-rule="evenodd" d="M15.6429 11.6736C15.6429 11.6736 15.6041 11.6426 15.4893 11.7047C15.3935 11.7559 15.2538 11.8912 15.1451 11.9869C15.0751 12.0439 15.0311 12.0697 14.9915 12.1137C14.8309 12.3054 14.6962 12.6187 14.774 12.774C14.8519 12.9293 15.108 13.108 15.7605 12.9863L15.641 11.6738L15.6429 11.6736Z" fill="#E6D89C"/>
<path fill-rule="evenodd" clip-rule="evenodd" d="M15.4306 11.9948C15.4306 11.9948 15.327 12.1554 15.327 12.4118C15.327 12.6733 15.4746 13.09 16.0183 13.1211C16.4351 13.147 16.7146 12.5205 17.0175 12.2771C17.2479 12.0908 17.3877 12.0855 17.3877 12.0855C17.3877 12.0855 17.1522 11.8295 16.5231 11.4978C15.9017 11.1638 15.2053 11.1198 14.8273 11.6325C15.006 11.6195 15.5833 11.4719 15.5833 11.4719L15.8656 11.5625L15.4306 11.995V11.9948Z" fill="#252211"/>
<path fill-rule="evenodd" clip-rule="evenodd" d="M16.2432 12.3339C16.2251 12.2952 16.2122 12.2433 16.2873 12.2305C16.3623 12.2177 16.3959 12.2252 16.4219 12.2817C16.4478 12.3382 16.4731 12.3853 16.4347 12.4087C16.3959 12.4293 16.2949 12.4087 16.2431 12.3336L16.2432 12.3339ZM16.1216 11.9689C16.1216 11.9689 16.0956 11.9869 16.1086 11.9508C16.1137 11.9069 16.1475 11.8291 16.2303 11.8473C16.313 11.8656 16.2951 11.9561 16.2815 11.982C16.2678 12.0079 16.1987 12.0518 16.1468 12.0332C16.1403 12.0315 16.1342 12.0283 16.1291 12.0238C16.124 12.0194 16.12 12.0137 16.1175 12.0074C16.1149 12.0011 16.1139 11.9943 16.1145 11.9876C16.1151 11.9808 16.1173 11.9743 16.1209 11.9685L16.1216 11.9689Z" fill="#6F674D"/>
<path fill-rule="evenodd" clip-rule="evenodd" d="M9.11353 12.1344C9.11353 12.1344 9.31833 12.288 9.55623 12.282C9.79175 12.2767 10.0947 12.0335 10.2345 11.8781C10.3172 11.7874 10.3881 11.6917 10.4649 11.6166C10.5297 11.5519 10.5736 11.5208 10.6046 11.4768C10.6487 11.4256 10.6953 11.3294 10.7186 11.2981C10.6616 11.3422 10.5789 11.42 10.4934 11.4717C10.4106 11.5229 10.2319 11.6192 10.1594 11.6451C10.0896 11.671 9.36458 12.0547 9.36458 12.0547L9.11353 12.1344Z" fill="#AC924C"/>
<path fill-rule="evenodd" clip-rule="evenodd" d="M9.42664 10.2214C9.42664 10.2214 9.54047 10.1437 9.76063 10.0944C9.97294 10.0432 10.4001 10.0038 10.4001 10.0038L10.7522 10.1574L10.892 10.6882L10.636 11.2398L10.3098 11.4446L9.93949 10.8491L9.42749 10.2224L9.42664 10.2214Z" fill="#9F8E57"/>
<path fill-rule="evenodd" clip-rule="evenodd" d="M8.96585 10.6952L8.84399 10.7862C8.84399 10.7862 8.87523 10.7292 8.901 10.5558C8.92677 10.3824 9.0616 9.96031 9.25838 9.71693C9.45516 9.47356 9.45004 9.48653 9.45004 9.48653C9.43193 9.48321 9.41332 9.4838 9.39546 9.48824C9.3776 9.49269 9.36089 9.50089 9.34644 9.5123C9.37238 9.45495 9.5381 9.25015 9.70382 9.14775C9.86954 9.04534 9.93422 9.01309 10.1076 9.09654C10.281 9.18 10.325 9.22335 10.452 9.21823C10.579 9.21311 10.6875 9.07845 10.6875 9.07845C10.6875 9.07845 10.7135 9.16123 10.6177 9.35289C10.522 9.54456 10.144 9.93539 10.144 9.93539L9.35685 10.4739L8.96585 10.6957V10.6952Z" fill="#EAC970"/>
<path fill-rule="evenodd" clip-rule="evenodd" d="M9.54817 10.1567C9.54817 10.1567 10.1179 10.2344 10.2913 10.0739C10.2964 10.092 10.3172 10.092 10.3172 10.105C10.3158 10.1148 10.3112 10.1238 10.3042 10.1308C10.3231 10.1277 10.3421 10.126 10.3612 10.1256C10.384 10.1324 10.4075 10.1368 10.4312 10.1386C10.4503 10.1382 10.4693 10.1364 10.4882 10.1333C10.4864 10.1462 10.482 10.1586 10.4753 10.1697C10.4687 10.1808 10.4598 10.1905 10.4493 10.1982C10.4752 10.1982 10.5005 10.2033 10.5005 10.2239C10.5005 10.2446 10.5056 10.3069 10.4745 10.3199C10.4488 10.327 10.4214 10.3251 10.3969 10.3146C10.3989 10.3636 10.4123 10.4115 10.4358 10.4545C10.487 10.5503 10.5962 10.6593 10.743 10.6279C10.743 10.6279 10.8205 10.8143 10.4943 11.2285C10.4505 11.2855 10.4037 11.3631 10.3469 11.4278C10.3244 11.4768 10.3073 11.528 10.2957 11.5806C10.2957 11.5806 10.8473 11.3683 11.0051 10.8841C11.1657 10.3973 11.1968 9.91845 11.1657 9.47062C11.1605 9.34364 11.1398 9.25319 11.1087 9.18834C11.0311 9.02774 10.8135 9.05368 10.7256 9.14431C10.5986 9.27128 10.3863 9.58701 10.0912 9.80444C9.79086 10.0219 9.77806 10.0604 9.54749 10.1567H9.54817Z" fill="#D7BC6B"/>
<path fill-rule="evenodd" clip-rule="evenodd" d="M8.86478 10.8558C8.86478 10.8558 8.75606 10.9205 8.69905 11.163C8.64204 11.4115 8.75026 11.7144 8.8129 11.8102C8.87554 11.9059 9.01772 12.1675 9.31266 12.1805C9.38566 12.1801 9.45785 12.1651 9.52499 12.1365C9.62795 12.0893 9.72453 12.0292 9.81242 11.9578C9.93941 11.862 10.0428 11.7793 10.0299 11.7714C9.99881 11.7584 9.24797 11.137 9.24797 11.137L8.96566 10.822L8.86461 10.8561L8.86478 10.8558Z" fill="#585136"/>
<path fill-rule="evenodd" clip-rule="evenodd" d="M9.57428 11.8861C9.57428 11.8861 9.72703 11.8733 9.81766 11.8163C9.90829 11.7593 9.28687 11.1432 9.28687 11.1432L9.3309 11.8088L9.57428 11.8861Z" fill="#453A25"/>
<path fill-rule="evenodd" clip-rule="evenodd" d="M8.91396 10.809C8.91396 10.809 8.8363 10.9566 8.8363 10.9955C8.82333 11.1223 8.86224 11.521 8.89331 11.6478C8.92437 11.7825 9.09264 11.9869 9.31024 11.9869C9.44472 11.9869 9.63126 11.9042 9.63126 11.8835C9.63126 11.8576 9.4396 11.8323 9.38789 11.7359C9.35683 11.6847 9.34386 11.5574 9.33669 11.4287C9.33157 11.3459 9.33157 11.2553 9.36263 11.2239C9.4326 11.1462 9.4454 10.9235 9.4454 10.9235L9.69389 10.4619H9.36707L8.97608 10.7052L8.91396 10.809Z" fill="#84754B"/>
<path fill-rule="evenodd" clip-rule="evenodd" d="M8.81812 10.9515C8.81812 10.9515 9.07411 10.6124 9.30484 10.5345C9.53557 10.4567 9.63882 10.5035 9.63882 10.5035L9.50417 10.8479L9.31252 11.0602L9.32549 11.1689C9.32549 11.1689 9.29426 11.4563 9.48591 11.6556C9.67756 11.855 9.8199 11.8473 9.90284 11.8473C9.98578 11.8473 10.2238 11.7773 10.3455 11.4899C10.4542 11.2208 10.5449 10.8755 10.3274 10.5294C10.115 10.185 9.73968 10.1717 9.66715 10.1717C9.59462 10.1717 9.02513 10.2002 8.81812 10.951V10.9515Z" fill="#252211"/>
<path fill-rule="evenodd" clip-rule="evenodd" d="M15.3917 12.1035C15.296 12.0594 15.3866 11.7903 15.4823 11.7074C15.5781 11.6244 15.6998 11.5289 15.9122 11.5157C15.9897 11.5106 16.0648 11.5597 16.052 11.6116C16.0339 11.7074 15.8993 11.842 15.7776 11.9378C15.6093 12.0699 15.5004 12.1526 15.3917 12.1035Z" fill="#F7F7E7"/>
<path fill-rule="evenodd" clip-rule="evenodd" d="M10.2135 10.6356C10.2834 10.6305 10.3741 10.6868 10.3922 10.7626C10.4103 10.8454 10.3481 11.0111 10.2135 11.0111C10.1047 11.0111 10.0477 10.8765 10.0477 10.8377C10.049 10.8059 10.0579 10.7748 10.0737 10.7471C10.0788 10.7392 10.0918 10.6486 10.2135 10.6356Z" fill="#F8F6DE"/>
<path fill-rule="evenodd" clip-rule="evenodd" d="M9.20394 10.6951C9.20394 10.6951 9.02525 10.7779 8.94247 10.9511C8.88333 11.079 8.86544 11.2222 8.89127 11.3607C8.90425 11.4254 8.96893 11.5858 9.01296 11.6428C9.05699 11.6998 9.11656 11.7387 9.16059 11.7334C9.20462 11.7281 9.29508 11.6117 9.29508 11.5419C9.29508 11.4721 9.30037 11.1769 9.3857 11.0163C9.46079 10.8559 9.20445 10.6953 9.20445 10.6953L9.20394 10.6951Z" fill="#D4C38B"/>
<path fill-rule="evenodd" clip-rule="evenodd" d="M9.22969 10.6822C9.19862 10.7003 9.14691 10.7262 9.15971 10.7598C9.17268 10.7909 9.2814 10.811 9.32031 10.8868C9.36434 10.9644 9.36434 11.0472 9.35137 11.0861C9.38519 11.0701 9.41588 11.0481 9.442 11.0213C9.499 10.9566 9.5688 10.8687 9.62837 10.8687C9.66728 10.8687 9.70602 10.8868 9.74237 10.8868C9.79938 10.8868 9.85621 10.8687 9.86406 10.8091C9.87686 10.7315 9.75534 10.6615 9.68537 10.6745C9.69834 10.6233 9.71643 10.5477 9.65943 10.4958C9.60243 10.4439 9.42391 10.5347 9.38499 10.5607C9.34608 10.5866 9.22969 10.6824 9.22969 10.6824V10.6822Z" fill="#E2D59D"/>
<path fill-rule="evenodd" clip-rule="evenodd" d="M13.3438 16.1217L13.727 16.0085L13.8357 16.0862C13.8357 16.0862 13.9132 16.2519 14.035 16.2725C13.9961 16.3553 13.8951 16.4261 13.9004 16.4848C13.9057 16.5436 13.9574 16.5884 13.9574 16.5884C13.9574 16.5884 13.613 17.158 14.2914 17.7319C14.1308 17.7966 13.9263 17.8855 13.8176 17.9367C13.8951 17.9548 14.0608 17.9879 14.1308 18.0507C14.2007 18.1135 14.2007 18.1335 14.2654 18.1724C14.3301 18.2113 14.3688 18.263 14.356 18.2862C14.312 18.2603 14.1644 18.1828 14.1386 18.2552C14.1128 18.3275 13.4991 18.2992 13.4991 18.2992L12.4635 18.4985C12.4635 18.4985 12.5023 18.3949 12.3935 18.2992C12.2667 18.1854 12.1114 18.3043 11.9457 18.1775C11.7283 18.0118 11.7204 17.8201 11.6506 17.7478C11.7204 17.7037 11.8629 17.6391 12.2021 17.5942C12.1891 17.5682 12.1451 17.4906 12.171 17.4208C12.2021 17.3302 12.3314 17.2732 12.2927 17.1648C12.3497 17.1518 12.3755 17.1518 12.518 16.9731C12.6526 16.7944 12.7354 16.7557 12.839 16.7427C12.9426 16.7298 13.0047 16.7427 13.1964 16.564C13.3308 16.4372 13.287 16.3285 13.287 16.3285C13.287 16.3285 13.3749 16.3 13.344 16.1213L13.3438 16.1217Z" fill="#CBAC5A"/>
<path fill-rule="evenodd" clip-rule="evenodd" d="M12.2124 16.1793C12.2175 16.1534 12.2383 16.1404 12.3781 16.1534C12.5179 16.1664 13.4033 16.0706 13.6441 16.0576C13.8875 16.0396 14.7444 16.0524 15.1614 16.1404C15.5783 16.2285 16.0002 16.332 16.2047 16.3838C16.4095 16.4407 16.474 16.4612 16.4661 16.4872C16.461 16.5131 16.4149 16.5384 16.3885 16.5312C16.3627 16.5261 15.6843 16.3189 15.4747 16.2752C15.2651 16.2315 14.54 16.1146 14.1435 16.1216C13.7733 16.1269 13.6257 16.1165 13.3125 16.1527C12.9992 16.1916 12.4814 16.2433 12.3261 16.2227C12.1725 16.2046 12.2042 16.2046 12.212 16.1786L12.2124 16.1793Z" fill="#D6BC6F"/>
<path fill-rule="evenodd" clip-rule="evenodd" d="M14.2962 18.2084C14.2962 18.2084 14.827 18.4958 15.0186 18.8479C15.1584 19.1093 14.9359 19.2389 14.9359 19.2389C14.9359 19.2389 15.2362 19.2389 15.1973 19.4046C15.1792 19.508 14.6795 19.7876 14.3455 19.9352C14.0064 20.0828 14.0194 20.0751 13.8537 20.1009C13.6931 20.1268 13.2529 20.0497 13.1623 20.1785C13.0717 20.3074 13.1111 20.4402 13.1364 20.4608C13.1623 20.4789 13.3721 20.5049 13.3721 20.5049C13.3721 20.5049 13.328 20.6265 12.8932 20.6395C12.4583 20.6525 12.3494 20.6834 12.3235 20.7301C12.2976 20.774 12.4063 20.7482 12.6058 20.7813C12.8051 20.8124 13.0847 20.8325 13.0847 20.8325C13.0847 20.8325 12.994 20.9102 12.7585 20.9723C12.4892 21.0421 12.0672 21.107 11.9404 21.1846C12.005 21.2286 12.101 21.2933 12.1452 21.2984C12.0364 21.3244 11.8835 21.3814 11.8578 21.402C11.8965 21.428 11.9484 21.459 11.9484 21.459C11.9484 21.459 11.7308 21.7205 11.604 21.7853C11.4772 21.8502 10.7471 22.1891 10.4958 22.1244C9.86933 21.9587 9.79168 21.2727 9.63893 21.221C9.40853 21.1433 9.29982 21.2984 9.09519 21.1897C9.18582 21.125 9.23514 21.0863 9.33088 21.0423C9.22729 20.9911 8.6914 20.6513 8.6914 20.6513C8.63536 20.5291 8.57316 20.4099 8.50503 20.2941C8.40144 20.1154 8.24903 19.8772 8.13469 19.6674C7.8862 19.2066 7.87323 18.9943 7.64795 18.7329C7.68686 18.6817 7.82135 18.6888 7.82135 18.6888L9.70891 19.3102L13.0558 19.4072L13.9262 18.1646L14.2964 18.2086L14.2962 18.2084Z" fill="#DFC677"/>
<path fill-rule="evenodd" clip-rule="evenodd" d="M9.3385 20.1035C9.3587 20.126 9.38224 20.1452 9.4083 20.1605C9.47316 20.2046 9.5689 20.2564 9.63358 20.3339C9.65952 20.2952 9.72421 20.2252 9.83838 20.3339C9.95256 20.4426 10.0944 20.3652 10.1826 20.3909C10.2732 20.4222 10.2784 20.435 10.2784 20.435C10.2784 20.435 10.3296 20.3909 10.4441 20.3443C10.5141 20.3184 10.5968 20.3003 10.6874 20.2745C10.7702 20.2564 10.8608 20.2305 10.9231 20.2305C10.9801 20.2692 11.1846 20.4865 12.0053 20.1658C12.7795 19.8654 12.958 19.8318 13.0875 19.8782C13.1005 19.8472 13.1135 19.7876 13.3128 19.7955C13.3128 19.7127 13.1471 19.4304 13.1471 19.4304L12.2332 19.1172H11.7333L10.2343 19.3917L9.4037 19.8656L9.33901 20.1046L9.3385 20.1035Z" fill="#C4A859"/>
<path fill-rule="evenodd" clip-rule="evenodd" d="M8.83875 19.578C8.83875 19.578 8.85683 19.7178 9.06402 19.8654C9.26882 20.0129 9.33317 20.101 9.33317 20.101C9.33317 20.101 9.37208 20.0498 9.40314 19.9975C9.4342 19.9405 9.46014 19.8758 9.51185 19.8578C9.61545 19.8137 9.85097 19.8965 9.90285 19.8835C9.94688 19.8707 9.93391 19.7801 9.9805 19.7801C10.0892 19.7748 10.159 19.8499 10.1979 19.8499C10.2368 19.8499 10.3324 19.8448 10.3454 19.8241C10.3584 19.8035 10.3635 19.5884 10.5111 19.4848C10.6717 19.371 10.8685 19.4202 10.9207 19.4461C10.9207 19.4848 10.9258 19.5808 11.0294 19.5859C11.133 19.591 11.1433 19.5729 11.2342 19.604C11.3252 19.635 11.4336 19.5989 11.4827 19.7514C11.5267 19.7386 11.6303 19.7257 11.6044 19.578C11.6556 19.5393 11.7003 19.5133 11.8092 19.3606C11.8351 19.3219 11.879 19.2778 11.9128 19.2208C12.0034 19.2208 12.1121 19.2027 12.257 19.3295C12.213 19.3606 12.1871 19.3807 12.1743 19.4123C12.2121 19.4498 12.2468 19.4905 12.2777 19.534C12.3166 19.5852 12.3425 19.648 12.3917 19.661C12.5004 19.692 12.6791 19.648 12.8784 19.661C13.0701 19.6739 13.2305 19.7437 13.3005 19.7878C13.3264 19.775 13.3264 19.7697 13.3911 19.7827C13.4558 19.7956 13.5049 19.8007 13.4351 19.718C13.4739 19.7361 13.5179 19.775 13.5568 19.7361C13.5957 19.6972 13.6266 19.6403 13.7353 19.6274C13.8441 19.6144 13.883 19.6325 13.927 19.5186C13.984 19.3789 13.7872 19.3789 13.7872 19.3789C13.7872 19.3789 13.8778 19.2959 13.9789 19.1872C14.1006 19.0734 14.2403 18.9257 14.274 18.7445C14.331 18.4105 14.0048 18.3666 14.0048 18.3666L12.4229 18.8534L10.4889 18.7575L8.83977 19.5782L8.83875 19.578Z" fill="#927D49"/>
<path fill-rule="evenodd" clip-rule="evenodd" d="M7.41743 15.0084C7.41743 15.0084 7.36623 15.0731 7.33466 15.2259C7.30309 15.3786 7.31657 15.3605 7.29063 15.4693C7.26469 15.578 6.94605 16.6602 7.06552 17.0253C7.18499 17.3903 7.39183 17.525 7.5212 17.8201C7.54714 17.8848 7.5724 17.9237 7.58588 17.9807C7.62991 18.1722 7.59117 18.3198 7.64288 18.5115C7.66097 18.5762 7.70774 18.6513 7.77754 18.7289C7.93114 18.8894 8.18151 19.0421 8.28954 19.1508C8.44212 19.3114 8.65972 19.6378 8.93671 19.6686C9.08434 19.6867 9.29408 19.6246 9.46748 19.5212C9.62108 19.4253 9.71597 19.2908 9.87708 19.214C9.99092 19.157 10.1126 19.1363 10.2213 19.1104C10.4466 19.0663 10.6512 19.0592 10.7729 19.0844C10.9593 19.1233 11.3994 19.258 11.6433 19.258C11.8339 19.2549 12.0234 19.2289 12.2077 19.1804C12.5779 19.0716 13.0257 18.8851 13.321 18.8023C13.4944 18.7511 13.6341 18.7376 13.7766 18.7066C14.02 18.6496 14.2245 18.5719 14.341 18.4243C14.2634 18.3336 14.1676 18.1939 13.6497 18.199C13.0621 18.212 12.3837 18.5381 12.0497 18.59C11.7157 18.6419 11.5708 18.6857 11.1979 18.5511C10.8323 18.4151 10.8202 18.3251 10.8202 18.3251C10.8202 18.3251 10.4364 18.0566 10.2758 17.3723C10.1152 16.6879 10.2758 16.1892 10.6927 15.7152C10.8014 15.5935 10.7755 15.4848 10.7755 15.4848C10.7755 15.4848 11.0499 15.1146 10.9748 14.768C10.892 14.4236 10.3613 14.4935 10.3613 14.4935L7.4176 15.0084H7.41743Z" fill="#6E6342"/>
<path fill-rule="evenodd" clip-rule="evenodd" d="M7.86015 16.1606C7.83733 16.2035 7.82659 16.2518 7.82909 16.3004C7.83421 16.3702 7.85503 16.4608 8.06461 16.6654C8.2433 16.8439 8.20438 17.0432 8.20438 17.0432C8.20438 17.0432 8.29432 17.0613 8.53838 16.9472C8.73003 16.8565 8.79438 17.0171 8.79438 17.0171C8.85017 16.9879 8.91064 16.9686 8.97306 16.9601C9.02962 16.9549 9.08437 16.9374 9.13349 16.9089C9.13349 16.9089 9.35877 17.1393 9.55554 17.248C9.73423 17.3439 9.83782 17.4086 9.92589 17.3439C10.0087 17.2869 10.0087 17.1704 10.0034 17.1187C9.98283 17.0709 9.95683 17.0258 9.92589 16.984C9.86889 16.9012 9.77826 16.8053 9.77229 16.728C9.75932 16.5495 9.90694 16.337 9.87571 16.2853C9.84448 16.2336 9.72826 16.2207 9.44086 16.3242C9.14322 16.4225 7.85896 16.1611 7.85896 16.1611L7.86015 16.1606Z" fill="#39331F"/>
<path fill-rule="evenodd" clip-rule="evenodd" d="M8.53857 17.318C8.53857 17.318 8.39119 17.1782 8.44288 16.4998C8.50545 16.4989 8.56793 16.505 8.62916 16.5179C8.62916 16.5179 8.7095 17.0435 8.53857 17.318Z" fill="#292311"/>
<path fill-rule="evenodd" clip-rule="evenodd" d="M7.48745 14.4906C7.50802 14.4754 7.52711 14.4583 7.54445 14.4394C7.49325 14.5352 7.25688 14.9183 7.44854 15.5216C7.6402 16.1222 8.12165 16.57 8.71454 16.5908C9.30744 16.6116 9.61908 16.3215 9.97543 15.8866C10.1152 15.7133 10.2758 15.4957 10.4181 15.3482C10.6304 15.1176 10.7962 15.053 10.7962 14.8304C10.7962 14.3747 10.3301 14.1701 9.64399 13.9657C8.95791 13.7612 8.33908 13.7865 8.01805 13.9264C7.70488 14.079 7.57022 14.2396 7.48728 14.4908L7.48745 14.4906Z" fill="#252211"/>
<path fill-rule="evenodd" clip-rule="evenodd" d="M9.69057 17.5224L9.74177 17.4964C9.74177 17.4964 9.75456 17.2916 9.83749 17.2971C9.92025 17.3101 9.95916 17.419 9.95131 17.4577C9.94619 17.4964 9.92554 17.5613 9.84261 17.5535C9.73392 17.556 9.69006 17.5224 9.69006 17.5224H9.69057Z" fill="#3F3824"/>
<path fill-rule="evenodd" clip-rule="evenodd" d="M9.46033 16.6525C9.46033 16.6525 9.51153 16.6344 9.57416 16.6965C9.62536 16.6965 9.84859 16.6705 9.91857 16.7146C9.98854 16.7586 10.0092 16.7973 10.0092 16.7973C10.0092 16.7973 9.74773 16.8543 9.60522 16.7973C9.46033 16.7482 9.46033 16.6525 9.46033 16.6525Z" fill="#2D2815"/>
<path fill-rule="evenodd" clip-rule="evenodd" d="M10.6124 16.6911C10.6124 16.6782 10.4726 16.5825 10.325 16.5512C10.299 16.5461 10.2937 16.5642 10.2738 16.5642C10.2608 16.5591 10.2557 16.5202 10.2557 16.5202L10.1717 16.5644C10.1717 16.5644 10.1587 16.5825 10.2028 16.6156C10.2415 16.6466 10.3064 16.6725 10.3245 16.7242C10.3426 16.7759 10.3426 16.794 10.3504 16.8019C10.3555 16.807 10.4462 16.8019 10.4902 16.7759C10.5342 16.75 10.6172 16.7077 10.6119 16.6906L10.6124 16.6911Z" fill="#82764F"/>
<path fill-rule="evenodd" clip-rule="evenodd" d="M9.30493 17.2169C9.30493 17.2169 9.3307 17.0383 9.50427 17.0305C9.68279 17.0175 9.71658 17.1909 9.71658 17.1909L9.61299 17.2945C9.61299 17.292 9.53533 17.1832 9.30578 17.2169H9.30493Z" fill="#2D2816"/>
<path fill-rule="evenodd" clip-rule="evenodd" d="M10.4312 16.4478C10.4312 16.4478 10.3352 16.5514 10.1231 16.5825C10.105 16.5565 10.0661 16.5048 10.1231 16.422C10.1801 16.3392 10.2448 16.3132 10.3095 16.339C10.338 16.3436 10.3646 16.3563 10.3862 16.3756C10.4078 16.3949 10.4234 16.4199 10.4312 16.4478Z" fill="#574F35"/>
<path fill-rule="evenodd" clip-rule="evenodd" d="M10.8221 16.5748C10.8273 16.5488 10.8093 16.5437 10.8221 16.5307C10.8349 16.5178 10.905 16.492 10.918 16.5048C10.9231 16.5101 10.918 16.5307 10.918 16.556C10.918 16.5812 10.918 16.6072 10.905 16.6258C10.8869 16.6517 10.8352 16.6647 10.8093 16.657C10.7833 16.6493 10.7782 16.613 10.7782 16.6058C10.791 16.6007 10.8221 16.5877 10.8221 16.5748ZM11.2641 16.2953C11.2641 16.2823 11.3081 16.2563 11.3341 16.2563C11.3728 16.2563 11.3728 16.2874 11.3781 16.2953C11.3909 16.3004 11.3909 16.29 11.4039 16.3133C11.4168 16.3367 11.4351 16.378 11.422 16.404C11.4088 16.4299 11.3573 16.4478 11.3445 16.4427C11.3264 16.4297 11.2694 16.3133 11.2641 16.2953Z" fill="#82764F"/>
<path fill-rule="evenodd" clip-rule="evenodd" d="M10.3741 16.6344C10.3741 16.6344 10.4311 16.6472 10.5088 16.712C10.4829 16.7301 10.4439 16.7508 10.4439 16.7508C10.4439 16.7508 10.4388 16.6912 10.3741 16.6342V16.6344Z" fill="#6E6342"/>
<path fill-rule="evenodd" clip-rule="evenodd" d="M10.2473 16.0648C10.2343 16.052 10.286 16.0209 10.3171 16.026C10.3482 16.0311 10.3611 16.052 10.3947 16.0571C10.4284 16.0622 10.4337 16.0441 10.446 16.0311C10.4582 16.0182 10.503 16.026 10.5106 16.0311C10.5154 16.0368 10.5198 16.0429 10.5236 16.0492C10.5242 16.0394 10.5267 16.0298 10.5312 16.0209C10.5356 16.0121 10.5418 16.0043 10.5494 15.998C10.5593 15.9907 10.5708 15.9858 10.5829 15.9835C10.595 15.9813 10.6075 15.9818 10.6194 15.9851C10.6245 16.0031 10.6504 16.0678 10.6453 16.0808C10.6402 16.0938 10.5625 16.112 10.5494 16.0989C10.5624 16.1301 10.6194 16.1948 10.627 16.2076C10.6347 16.2204 10.57 16.2517 10.5443 16.2465C10.5081 16.244 10.2853 16.1144 10.2466 16.0653L10.2473 16.0648ZM10.5864 15.635C10.5816 15.6219 10.5725 15.611 10.5605 15.6039C10.5424 15.5988 10.4828 15.6039 10.4828 15.635C10.4828 15.666 10.534 15.8398 10.5915 15.9303C10.6564 16.0209 10.7003 16.0958 10.7443 16.1167C10.7581 16.1229 10.7738 16.1238 10.7882 16.119C10.8026 16.1141 10.8147 16.1041 10.8219 16.0907C10.8271 16.0777 10.84 15.982 10.8349 15.7567C10.8298 15.5314 10.8219 15.3139 10.809 15.3009C10.796 15.288 10.7443 15.2881 10.7262 15.3139C10.7081 15.3397 10.5915 15.5962 10.5862 15.635H10.5864Z" fill="#585136"/>
<path fill-rule="evenodd" clip-rule="evenodd" d="M10.3561 16.9606C10.3561 16.9606 10.2654 16.9036 10.1773 16.9425C10.0946 16.9814 10.0997 17.1341 10.0997 17.1341C10.1183 17.1414 10.1384 17.144 10.1583 17.1417C10.1782 17.1395 10.1972 17.1324 10.2137 17.1211C10.2707 17.0824 10.3431 17.0177 10.3561 16.9608V16.9606Z" fill="#574F35"/>
<path fill-rule="evenodd" clip-rule="evenodd" d="M10.5269 17.1651C10.5218 17.1139 10.4757 17.1139 10.4757 17.0875C10.4789 17.0748 10.4862 17.0636 10.4965 17.0556C10.5068 17.0476 10.5195 17.0433 10.5325 17.0434C10.5585 17.0434 10.5837 17.0745 10.6155 17.0946C10.6465 17.1127 10.6931 17.1458 10.6983 17.1852C10.7034 17.2247 10.6471 17.3327 10.5844 17.3327C10.5218 17.3327 10.5404 17.2161 10.5274 17.1644L10.5269 17.1651ZM11.0266 17.0951C11.0266 17.0951 10.923 17.1262 10.9307 17.0951C10.9384 17.0641 10.9619 17.0564 10.9956 17.0564C11.0126 17.0385 11.0356 17.0274 11.0602 17.0252C11.0743 17.0245 11.0882 17.0291 11.099 17.0381C11.099 17.0381 11.169 17.0071 11.1896 17.0252C11.2103 17.0432 11.1949 17.0432 11.2077 17.0641C11.224 17.0872 11.2347 17.1138 11.2389 17.1417C11.2389 17.1624 11.1613 17.2064 11.099 17.1987C11.0266 17.1832 11.0394 17.1081 11.0266 17.0951ZM11.6298 16.9786C11.6298 16.9786 11.6608 16.9967 11.635 17.0175C11.617 17.0356 11.5263 17.0687 11.4485 17.0745C11.3709 17.0745 11.3011 17.0873 11.3011 17.0615C11.3011 17.0357 11.3657 16.9839 11.4045 16.9709C11.4122 16.9611 11.4221 16.9533 11.4333 16.9479C11.4446 16.9425 11.4569 16.9398 11.4693 16.9398C11.5004 16.9398 11.6219 16.9268 11.6557 16.9217C11.6868 16.9164 11.7127 16.9345 11.6944 16.9605C11.6868 16.9786 11.6298 16.9786 11.6298 16.9786ZM11.8084 16.1791C11.8084 16.1791 11.7695 16.2619 11.7257 16.2619C11.6816 16.2568 11.6816 16.2438 11.6816 16.2308C11.6816 16.2127 11.7257 16.1661 11.7204 16.1532C11.7076 16.1532 11.6763 16.1532 11.6816 16.1221C11.6816 16.0962 11.7257 16.0651 11.7644 16.0709C11.7937 16.0469 11.8301 16.0332 11.868 16.0322C11.912 16.0322 11.9508 16.045 11.9508 16.0709C11.9508 16.0969 11.8996 16.1537 11.8808 16.1668C11.8602 16.1875 11.8342 16.201 11.8084 16.1796V16.1791ZM11.2181 17.7092C11.2181 17.7092 11.1669 17.7145 11.1669 17.7403C11.1669 17.7533 11.1797 17.7533 11.198 17.7456C11.2085 17.745 11.2189 17.7432 11.229 17.7403C11.2342 17.7456 11.2342 17.7713 11.2731 17.7713C11.305 17.767 11.3358 17.7565 11.3637 17.7403C11.3947 17.7275 11.4207 17.7143 11.4207 17.6891C11.4077 17.645 11.3818 17.6242 11.343 17.6242C11.3232 17.623 11.3034 17.6275 11.286 17.6372C11.286 17.6372 11.2731 17.6113 11.229 17.6372C11.185 17.6631 11.1901 17.6631 11.2031 17.6761C11.2263 17.6968 11.2186 17.7102 11.2186 17.7102L11.2181 17.7092ZM10.9256 17.9785C10.9256 17.9656 10.9903 17.9396 11.0084 17.9475C11.0264 17.9526 11.0782 18.0509 11.0782 18.0613C11.0782 18.0743 11.0135 18.1054 10.9875 18.1054C10.9616 18.1054 10.9177 18.0613 10.9177 18.0542C10.9177 18.049 10.9488 18.0414 10.9488 18.0361C10.9565 18.0233 10.9256 17.992 10.9256 17.9791V17.9785ZM10.7208 17.6005C10.7338 17.5954 10.7338 17.5824 10.7518 17.5694C10.7575 17.5657 10.764 17.5633 10.7707 17.5624C10.7775 17.5615 10.7843 17.5621 10.7908 17.5643C10.7953 17.5562 10.8016 17.5491 10.8093 17.5437C10.8169 17.5383 10.8256 17.5347 10.8348 17.5331C10.8659 17.528 10.8918 17.5331 10.886 17.5461C10.886 17.585 10.9119 17.6107 10.9119 17.6418C10.9119 17.6729 10.8938 17.7118 10.8292 17.7377C10.7645 17.7558 10.6764 17.7558 10.6634 17.7507C10.6505 17.7456 10.6375 17.6937 10.6505 17.6677C10.6634 17.6418 10.6996 17.6135 10.7204 17.6005H10.7208Z" fill="#82764F"/>
<path fill-rule="evenodd" clip-rule="evenodd" d="M10.8032 17.6181C10.8032 17.6181 10.7591 17.644 10.7591 17.657C10.7552 17.6695 10.7535 17.6826 10.754 17.6957C10.754 17.7034 10.811 17.6906 10.8187 17.6828C10.8213 17.6776 10.8032 17.6316 10.8032 17.6181Z" fill="#6E6342"/>
<path fill-rule="evenodd" clip-rule="evenodd" d="M10.4181 17.4964C10.4439 17.5017 10.4879 17.4964 10.5215 17.5093C10.5475 17.5223 10.5655 17.5482 10.5396 17.5793C10.5137 17.6103 10.4884 17.6569 10.4309 17.6491C10.3662 17.6439 10.3041 17.6103 10.3041 17.5844C10.303 17.568 10.3052 17.5515 10.3105 17.536C10.3159 17.5204 10.3242 17.5061 10.3352 17.4938C10.3611 17.4732 10.3739 17.4861 10.4179 17.4964H10.4181Z" fill="#585136"/>
<path fill-rule="evenodd" clip-rule="evenodd" d="M10.3871 17.5224C10.3871 17.5224 10.3043 17.587 10.2835 17.6183C10.2576 17.6493 10.1308 17.8098 10.0921 17.8434C10.1049 17.8207 10.1196 17.799 10.1359 17.7787C10.0847 17.8114 10.0463 17.8608 10.0272 17.9185C9.99615 18.0144 10.2008 18.0661 10.3352 18.105C10.4697 18.1439 10.5217 18.1562 10.5217 18.1562C10.4722 18.0818 10.4297 18.003 10.3948 17.9207C10.3436 17.799 10.3171 17.786 10.3507 17.729C10.3767 17.672 10.4156 17.6333 10.4156 17.5893C10.4001 17.5483 10.3871 17.5224 10.3871 17.5224Z" fill="#574F35"/>
<path fill-rule="evenodd" clip-rule="evenodd" d="M7.43564 17.727C7.45449 17.7304 7.4738 17.7304 7.49265 17.727C7.53139 17.7217 7.93536 17.5734 8.35741 17.6C8.67337 17.6191 8.98654 17.6705 9.29199 17.7536C9.82276 17.8934 10.4829 18.1704 10.9101 18.3284C11.0239 18.3723 11.1354 18.4501 11.2173 18.481C11.5436 18.608 11.5564 18.608 11.748 18.6416C11.9733 18.6727 12.2037 18.5976 12.4445 18.5459C12.7396 18.481 13.2445 18.45 13.6872 18.3853C13.8303 18.3654 13.9715 18.3334 14.1092 18.2895C14.1092 18.2895 13.7571 18.6416 12.913 18.7684C12.5718 18.8203 12.2251 18.8246 11.8827 18.7814C11.6134 18.7555 11.4349 18.7166 11.3002 18.6778C11.1475 18.6338 10.8341 18.5172 10.4484 18.4218C10.1791 18.3518 9.87874 18.3001 9.5345 18.2354C8.68526 18.0799 7.76367 17.9014 7.4353 17.728L7.43564 17.727Z" fill="#252211"/>
<path fill-rule="evenodd" clip-rule="evenodd" d="M6.48262 16.127C6.27782 16.3004 6.06056 16.4661 5.84842 16.6265L5.20893 17.1178C4.99151 17.2783 4.7792 17.444 4.5616 17.6046C4.344 17.7652 4.12674 17.9178 3.896 18.0654C4.1008 17.892 4.31806 17.7314 4.53548 17.5735C4.75291 17.4157 4.97836 17.2609 5.18811 17.1008L5.8276 16.6087C6.04759 16.4483 6.2599 16.2826 6.48262 16.1273V16.127ZM5.35127 17.9393C5.35127 17.9393 5.58167 17.7476 5.86907 17.4785C6.22628 17.1446 6.66387 16.7173 6.80364 16.6398L5.3511 17.9394L5.35127 17.9393Z" fill="#CFB66C"/>
<path fill-rule="evenodd" clip-rule="evenodd" d="M5.35132 17.9391C5.46532 17.8253 5.58701 17.714 5.70869 17.6051L5.89506 17.4447C5.95207 17.3935 6.01692 17.336 6.07375 17.279C6.18759 17.1652 6.29903 17.0433 6.41287 16.9269C6.46929 16.8684 6.52894 16.8131 6.59155 16.7612C6.62285 16.7335 6.65762 16.71 6.69498 16.6912C6.72621 16.6731 6.75983 16.64 6.80369 16.6342C6.77792 16.6731 6.74686 16.6912 6.72092 16.7248C6.68986 16.7508 6.66392 16.7818 6.63814 16.8076C6.58114 16.8646 6.51646 16.9163 6.45946 16.9682C6.33777 17.0718 6.21097 17.173 6.08928 17.2814C5.9676 17.3898 5.85376 17.5067 5.7319 17.6154C5.59998 17.7268 5.47829 17.8355 5.35132 17.9396V17.9391ZM6.89961 16.9035C6.89961 16.9035 6.05566 17.7296 5.88209 17.864L6.89961 16.9035Z" fill="#CFB66C"/>
<path fill-rule="evenodd" clip-rule="evenodd" d="M6.89972 16.9035C6.8238 16.9914 6.7424 17.0744 6.656 17.152L6.4 17.3953C6.31723 17.4781 6.23941 17.5611 6.15151 17.6438C6.06089 17.7215 5.97812 17.7974 5.8822 17.8691L6.13069 17.6257C6.21364 17.543 6.30426 17.4732 6.39232 17.3902L6.64082 17.1469C6.72615 17.0615 6.80909 16.9786 6.89972 16.9035ZM6.93846 17.3513C6.86067 17.5684 6.769 17.7803 6.66403 17.9857C6.4466 18.4207 6.12045 18.9643 5.97795 19.2415L6.93846 17.3513Z" fill="#CFB66C"/>
<path fill-rule="evenodd" clip-rule="evenodd" d="M6.93842 17.3515C6.93842 17.4472 6.91248 17.5302 6.88142 17.613C6.85114 17.6958 6.81662 17.777 6.77799 17.8563C6.73908 17.934 6.69505 18.0169 6.65102 18.092C6.60699 18.1671 6.55527 18.2446 6.51636 18.3224L6.2549 18.7832C6.16428 18.9368 6.07621 19.0913 5.98047 19.2389C6.04515 19.0732 6.13322 18.9179 6.21616 18.7651C6.30678 18.6115 6.38956 18.4579 6.47216 18.299C6.51249 18.2199 6.54877 18.1387 6.58087 18.0558C6.61962 17.9729 6.65836 17.8952 6.68959 17.8202C6.72833 17.7374 6.75939 17.6596 6.7983 17.5846C6.84216 17.5042 6.87852 17.4266 6.93808 17.3515H6.93842Z" fill="#CFB66C"/>
<path fill-rule="evenodd" clip-rule="evenodd" d="M7.86025 19.4744C7.86025 19.4744 7.60425 19.8136 7.62985 20.2433C7.69965 20.0182 7.78772 19.6738 7.86025 19.4744ZM8.10362 19.8144C8.10362 19.8144 8.013 20.736 7.93791 21.1891C8.04406 20.6654 8.06471 20.7094 8.10362 19.8144ZM9.79938 21.2436C9.79938 21.2436 9.41623 22.37 9.40838 22.683C9.49132 22.3611 9.65175 21.7035 9.79938 21.2427V21.2436Z" fill="#DEC270"/>
<path fill-rule="evenodd" clip-rule="evenodd" d="M10.6951 19.4048C10.6951 19.4048 11.3165 20.43 11.7826 21.305C11.6564 20.8647 11.3663 20.0571 10.6951 19.4048Z" fill="#CBAF59"/>
<path fill-rule="evenodd" clip-rule="evenodd" d="M12.3652 20.914C12.7064 21.5171 13.0141 22.1385 13.2868 22.7755C13.2351 22.3353 13.0952 21.582 12.3652 20.914Z" fill="#E3C677"/>
<path fill-rule="evenodd" clip-rule="evenodd" d="M17.2739 22.4255C17.3773 22.3608 17.582 22.0086 17.7607 21.9207C17.9392 21.83 18.0738 21.812 18.2344 21.6333C18.3949 21.4467 18.4392 21.3329 18.791 21.1854C19.283 20.973 18.9446 20.6985 18.9446 20.6985C18.9988 20.6453 19.0567 20.596 19.118 20.5511C19.245 20.4553 19.3924 20.3388 19.3796 20.1341C19.3615 19.7899 19.2968 19.2902 19.0146 19.0002C19.289 18.9432 19.8145 18.9045 20.141 18.8217C20.5188 18.7258 20.6924 18.5911 20.6924 18.5911C20.6924 18.5911 20.475 18.221 20.8271 17.8482C21.1791 17.4755 21.4666 17.2528 21.6789 16.8358C21.4355 16.8048 21.0645 16.6754 20.1176 17.0352C20.1687 17.0592 20.218 17.0869 20.2652 17.1179C20.2652 17.1179 19.6827 17.2785 19.4704 17.4572C19.1001 17.7704 19.0535 18.0267 18.6522 18.2184C18.251 18.4101 17.847 18.3582 17.5132 18.5135C17.1794 18.6688 17.13 18.8009 17.0082 18.8579C17.0341 18.8889 17.0031 18.9407 17.0522 18.9847C17.0212 19.0287 16.8399 19.3238 16.6561 19.3238C16.6742 19.3938 16.8295 19.4455 16.8295 19.4455C16.8295 19.4455 16.7157 19.5284 16.4257 19.5491C16.5732 19.7027 16.7131 19.8701 17.0988 20.1135C17.0678 20.1782 16.9382 20.2741 16.9901 20.3958C17.0471 20.5174 17.1949 20.6832 17.7849 20.8178C17.4845 20.8306 17.1326 20.9006 16.6585 20.8359C16.1847 20.7789 16.1071 20.7453 15.8145 20.8178C15.8456 20.8489 15.9284 20.8489 16.0009 20.9317C15.9233 20.9368 15.4365 20.8747 15.2708 21.0923C15.0974 21.3174 15.0223 21.6877 15.0353 21.9362C14.9446 21.9802 14.8566 22.0579 14.9006 22.2185C14.9446 22.3791 15.175 22.4308 15.3227 22.5317C15.4701 22.6404 15.4831 22.6791 15.623 22.6533C15.7705 22.6223 15.9879 22.4748 16.1149 22.4748C16.2419 22.4748 16.3323 22.5706 16.3323 22.5706C16.3323 22.5706 16.6768 22.4049 16.7104 22.4359C16.7414 22.467 16.7155 22.6663 16.7491 22.6974C16.7833 22.7208 17.1712 22.4904 17.2748 22.4255H17.2739Z" fill="#ECD592"/>
<path fill-rule="evenodd" clip-rule="evenodd" d="M24.8002 12.0648C23.1821 7.88618 19.182 7.11203 19.182 7.11203H7.7697L7.81373 11.3683H10.0865V20.8726H7.76953V25.1212H18.8661C21.5405 25.1212 23.6842 22.4337 23.6842 22.4337C27.1172 17.5613 24.8 12.0648 24.8 12.0648H24.8002ZM18.9257 19.5702C18.9257 19.5702 18.0553 20.826 17.1082 20.826H15.2138L15.169 11.3787H17.6001C17.6001 11.3787 18.7265 11.6142 19.5134 13.8433C19.5134 13.8433 20.5567 17.0348 18.9257 19.5702Z" fill="white" fill-opacity="0.8"/>
</svg>
