<svg width="32" height="32" viewBox="0 0 32 32" fill="none" xmlns="http://www.w3.org/2000/svg">
<g clip-path="url(#clip0_2386_18332)">
<rect width="32" height="32" fill="black"/>
<path fill-rule="evenodd" clip-rule="evenodd" d="M24.9937 10.1475L25.5207 8.85231C25.5207 8.85231 24.85 8.13274 24.0355 7.31724C23.221 6.50173 21.4962 6.98144 21.4962 6.98144L19.5318 4.75006H16.0822H12.6326L10.6683 6.98144C10.6683 6.98144 8.94347 6.50173 8.12898 7.31724C7.31449 8.13274 6.64373 8.85231 6.64373 8.85231L7.17076 10.1475L6.5 12.0664C6.5 12.0664 8.47274 19.5477 8.70391 20.4613C9.15907 22.2602 9.47049 22.9558 10.7641 23.8673C12.0577 24.7787 14.4053 26.3618 14.7886 26.6016C15.1719 26.8415 15.651 27.2501 16.0822 27.2501C16.5134 27.2501 16.9925 26.8415 17.3758 26.6016C17.7591 26.3618 20.1068 24.7787 21.4004 23.8673C22.694 22.9558 23.0054 22.2602 23.4605 20.4613C23.6917 19.5477 25.6645 12.0664 25.6645 12.0664L24.9937 10.1475Z" fill="url(#paint0_linear_2386_18332)"/>
<path fill-rule="evenodd" clip-rule="evenodd" d="M20.9452 8.39652C20.9452 8.39652 23.4718 11.4547 23.4718 12.1083C23.4718 12.7619 23.154 12.9344 22.8344 13.2742C22.5148 13.614 21.1191 15.0979 20.9399 15.2884C20.7607 15.479 20.3875 15.768 20.607 16.288C20.8265 16.8081 21.1503 17.4698 20.7902 18.141C20.4301 18.8123 19.8133 19.2603 19.418 19.1862C19.0227 19.1121 18.0945 18.6264 17.7531 18.4045C17.4117 18.1826 16.3298 17.2892 16.3298 16.9474C16.3298 16.6056 17.4482 15.9918 17.6548 15.8524C17.8615 15.713 18.8039 15.1733 18.8232 14.9614C18.8425 14.7495 18.8351 14.6874 18.557 14.1639C18.2789 13.6404 17.778 12.9419 17.8614 12.4771C17.9447 12.0123 18.7525 11.7707 19.329 11.5527C19.9054 11.3348 21.0152 10.9231 21.1538 10.8591C21.2925 10.7951 21.2567 10.7341 20.8367 10.6942C20.4167 10.6544 19.2249 10.496 18.6876 10.6459C18.1502 10.7959 17.2323 11.024 17.1579 11.145C17.0835 11.266 17.0179 11.2701 17.0943 11.6874C17.1706 12.1048 17.5638 14.1074 17.6019 14.4631C17.6401 14.8188 17.7148 15.054 17.3317 15.1416C16.9486 15.2293 16.3038 15.3816 16.0822 15.3816C15.8606 15.3816 15.2157 15.2293 14.8327 15.1416C14.4496 15.054 14.5242 14.8188 14.5624 14.4631C14.6006 14.1074 14.9937 12.1048 15.0701 11.6874C15.1464 11.2701 15.0808 11.266 15.0065 11.145C14.9321 11.024 14.0141 10.7959 13.4768 10.6459C12.9395 10.496 11.7477 10.6544 11.3277 10.6942C10.9077 10.7341 10.8719 10.7951 11.0105 10.8591C11.1492 10.9231 12.259 11.3348 12.8354 11.5527C13.4118 11.7707 14.2196 12.0123 14.303 12.4771C14.3864 12.9419 13.8855 13.6404 13.6074 14.1639C13.3293 14.6874 13.3219 14.7495 13.3412 14.9614C13.3605 15.1733 14.3029 15.713 14.5096 15.8524C14.7162 15.9918 15.8345 16.6056 15.8345 16.9474C15.8345 17.2892 14.7527 18.1826 14.4113 18.4045C14.0699 18.6264 13.1416 19.1121 12.7464 19.1862C12.3511 19.2603 11.7343 18.8123 11.3742 18.141C11.0141 17.4698 11.3379 16.8081 11.5573 16.288C11.7768 15.768 11.4037 15.479 11.2244 15.2884C11.0452 15.0979 9.6495 13.614 9.32993 13.2742C9.01036 12.9344 8.69257 12.7619 8.69257 12.1083C8.69257 11.4547 11.2192 8.39652 11.2192 8.39652C11.2192 8.39652 13.3513 8.80428 13.6387 8.80428C13.9262 8.80428 14.549 8.56442 15.124 8.37254C15.6989 8.18065 16.0822 8.17926 16.0822 8.17926C16.0822 8.17926 16.4655 8.18065 17.0404 8.37254C17.6153 8.56442 18.2382 8.80428 18.5257 8.80428C18.8131 8.80428 20.9452 8.39652 20.9452 8.39652ZM19.051 20.0946C19.2074 20.1926 19.112 20.3775 18.9696 20.4783C18.8271 20.5791 16.9125 22.0636 16.7267 22.2276C16.5409 22.3917 16.2678 22.6627 16.0822 22.6627C15.8965 22.6627 15.6234 22.3917 15.4376 22.2276C15.2518 22.0636 13.3373 20.5791 13.1948 20.4783C13.0523 20.3775 12.9569 20.1926 13.1133 20.0946C13.2697 19.9966 13.7591 19.7492 14.4343 19.3993C15.1094 19.0495 15.9509 18.7521 16.0822 18.7521C16.2135 18.7521 17.0549 19.0495 17.7301 19.3993C18.4053 19.7492 18.8946 19.9966 19.051 20.0946Z" fill="white"/>
<mask id="mask0_2386_18332" style="mask-type:alpha" maskUnits="userSpaceOnUse" x="8" y="4" width="17" height="5">
<path d="M21.4962 6.98138L19.5318 4.75H16.0822H12.6326L10.6683 6.98138C10.6683 6.98138 8.94346 6.50167 8.12897 7.31717C8.12897 7.31717 10.4287 7.10932 11.2192 8.39652C11.2192 8.39652 13.3513 8.80428 13.6388 8.80428C13.9262 8.80428 14.5491 8.56442 15.124 8.37254C15.6989 8.18065 16.0822 8.17926 16.0822 8.17926C16.0822 8.17926 16.4655 8.18065 17.0404 8.37254C17.6154 8.56442 18.2382 8.80428 18.5257 8.80428C18.8132 8.80428 20.9452 8.39652 20.9452 8.39652C21.7357 7.10932 24.0355 7.31717 24.0355 7.31717C23.221 6.50167 21.4962 6.98138 21.4962 6.98138Z" fill="white"/>
</mask>
<g mask="url(#mask0_2386_18332)">
<path d="M21.4962 6.98138L19.5318 4.75H16.0822H12.6326L10.6683 6.98138C10.6683 6.98138 8.94346 6.50167 8.12897 7.31717C8.12897 7.31717 10.4287 7.10932 11.2192 8.39652C11.2192 8.39652 13.3513 8.80428 13.6388 8.80428C13.9262 8.80428 14.5491 8.56442 15.124 8.37254C15.6989 8.18065 16.0822 8.17926 16.0822 8.17926C16.0822 8.17926 16.4655 8.18065 17.0404 8.37254C17.6154 8.56442 18.2382 8.80428 18.5257 8.80428C18.8132 8.80428 20.9452 8.39652 20.9452 8.39652C21.7357 7.10932 24.0355 7.31717 24.0355 7.31717C23.221 6.50167 21.4962 6.98138 21.4962 6.98138Z" fill="url(#paint1_linear_2386_18332)"/>
</g>
</g>
<defs>
<linearGradient id="paint0_linear_2386_18332" x1="6.5" y1="16.1588" x2="25.6645" y2="16.1588" gradientUnits="userSpaceOnUse">
<stop stop-color="#FF5500"/>
<stop offset="0.409877" stop-color="#FF5500"/>
<stop offset="0.581981" stop-color="#FF2000"/>
<stop offset="1" stop-color="#FF2000"/>
</linearGradient>
<linearGradient id="paint1_linear_2386_18332" x1="8.47071" y1="6.80574" x2="24.0355" y2="6.80574" gradientUnits="userSpaceOnUse">
<stop stop-color="#FF452A"/>
<stop offset="1" stop-color="#FF2000"/>
</linearGradient>
<clipPath id="clip0_2386_18332">
<rect width="32" height="32" rx="12" fill="white"/>
</clipPath>
</defs>
</svg>
