<svg width="32" height="32" viewBox="0 0 32 32" fill="none" xmlns="http://www.w3.org/2000/svg">
<g clip-path="url(#clip0_2379_17347)">
<mask id="mask0_2379_17347" style="mask-type:alpha" maskUnits="userSpaceOnUse" x="0" y="0" width="32" height="32">
<path fill-rule="evenodd" clip-rule="evenodd" d="M0 0H32V32H0V0Z" fill="white"/>
</mask>
<g mask="url(#mask0_2379_17347)">
<path fill-rule="evenodd" clip-rule="evenodd" d="M16 32C7.2 32 0 24.8 0 15.92C0.08 7.12 7.2 -0.0799958 16.08 4.15795e-06C24.88 0.0800042 32 7.20001 32 16.16C31.92 24.88 24.8 32 16 32Z" fill="#2C7DF7"/>
<path d="M18.5945 26.6666C16.8671 26.6666 15.6062 26.3 14.812 25.5666C14.0762 24.9459 13.6493 24.0936 13.6244 23.1963C13.6155 22.9236 13.6872 22.6536 13.8325 22.4128C13.968 22.2047 14.1637 22.0321 14.3997 21.9125C14.674 21.7919 14.9764 21.7292 15.2829 21.7292C15.5895 21.7292 15.8918 21.7919 16.1661 21.9125C16.4017 22.0316 16.5965 22.2045 16.7302 22.4128C16.8797 22.6525 16.9541 22.9229 16.9457 23.1963C16.9611 23.5227 16.8548 23.8447 16.6431 24.1129C16.4666 24.3319 16.2144 24.4946 15.9242 24.5766C16.208 24.895 16.6095 25.1156 17.0589 25.1999C17.5616 25.3286 18.0823 25.3948 18.6058 25.3965C19.299 25.4019 19.9778 25.223 20.5538 24.8832C21.1514 24.5112 21.597 23.9794 21.8247 23.3666C22.1133 22.6373 22.2541 21.869 22.2407 21.0967C22.264 20.2915 22.1099 19.49 21.7868 18.7366C21.5439 18.134 21.0827 17.6186 20.4744 17.2699C19.9089 16.9546 19.2526 16.7892 18.5835 16.7933C18.0005 16.8368 17.4383 17.005 16.9457 17.2833L15.7312 17.8199V17.2833L21.1892 10.8307H13.6244V17.5267C13.603 18.0099 13.7481 18.4875 14.0405 18.8966C14.182 19.075 14.3733 19.2181 14.5959 19.3121C14.8186 19.4061 15.065 19.4478 15.3113 19.4333C15.7665 19.4251 16.2066 19.2884 16.567 19.0433C16.9755 18.7795 17.3309 18.4572 17.6186 18.0899C17.6444 18.0255 17.6922 17.9697 17.7553 17.93C17.806 17.8914 17.8707 17.8701 17.9377 17.87C18.0691 17.8806 18.1934 17.9272 18.2933 18.0033C18.4197 18.1278 18.4885 18.2895 18.4861 18.4566C18.4715 18.5689 18.4488 18.6802 18.418 18.7899C18.1493 19.3631 17.6989 19.856 17.1206 20.2095C16.5835 20.5297 15.9492 20.6995 15.3007 20.6967C13.6629 20.6967 12.5282 20.4122 11.8968 19.8433C11.5722 19.5289 11.3221 19.1606 11.161 18.7599C10.9999 18.3592 10.9312 17.9343 10.9587 17.5099V10.8307H7.11108V9.5866H10.9767V6.74992L10.0916 5.96944V5.33333H12.6598L13.6244 5.77339V9.5866L23.6174 9.55981L24.6122 10.4398L18.4847 15.8661C18.8549 15.7349 19.2448 15.6518 19.6421 15.6194C20.4284 15.6497 21.1956 15.8427 21.8817 16.1828C22.6761 16.5156 23.3456 17.0421 23.8108 17.6999C24.2276 18.2569 24.5227 18.8775 24.6808 19.53C24.8107 20.0446 24.8805 20.5696 24.8888 21.0968C24.8929 22.1029 24.634 23.0963 24.1324 24C23.6566 24.8752 22.8559 25.5808 21.8628 26.0001C20.8463 26.4415 19.7277 26.6697 18.5945 26.6666Z" fill="white"/>
</g>
</g>
<defs>
<clipPath id="clip0_2379_17347">
<rect width="32" height="32" fill="white"/>
</clipPath>
</defs>
</svg>
