<svg width="32" height="32" viewBox="0 0 32 32" fill="none" xmlns="http://www.w3.org/2000/svg">
<g opacity="0.1">
<path fill-rule="evenodd" clip-rule="evenodd" d="M11.5917 6.00961C14.019 6.13412 15.8983 7.90923 17.6321 9.64761C19.3878 11.408 21.2377 13.3042 21.3685 15.8127C21.5045 18.42 20.1948 20.9042 18.3113 22.671C16.502 24.3682 14.048 24.9133 11.5917 24.9839C9.04478 25.0572 6.23737 24.9539 4.48237 23.0687C2.75158 21.2095 2.97571 18.3761 3.05396 15.8127C3.12878 13.3618 3.31582 10.8279 4.91199 8.99514C6.59076 7.06756 9.06798 5.88016 11.5917 6.00961Z" fill="white"/>
<path fill-rule="evenodd" clip-rule="evenodd" d="M11.5917 6.00961C14.019 6.13412 15.8983 7.90923 17.6321 9.64761C19.3878 11.408 21.2377 13.3042 21.3685 15.8127C21.5045 18.42 20.1948 20.9042 18.3113 22.671C16.502 24.3682 14.048 24.9133 11.5917 24.9839C9.04478 25.0572 6.23737 24.9539 4.48237 23.0687C2.75158 21.2095 2.97571 18.3761 3.05396 15.8127C3.12878 13.3618 3.31582 10.8279 4.91199 8.99514C6.59076 7.06756 9.06798 5.88016 11.5917 6.00961Z" fill="white" stroke="url(#paint0_linear_258_5)" stroke-width="0.849562"/>
</g>
<g opacity="0.2">
<path fill-rule="evenodd" clip-rule="evenodd" d="M12.9698 6.00961C15.3972 6.13412 17.2765 7.90923 19.0102 9.64761C20.7659 11.408 22.6158 13.3042 22.7466 15.8127C22.8826 18.42 21.5729 20.9042 19.6895 22.671C17.8802 24.3682 15.4262 24.9133 12.9698 24.9839C10.4229 25.0572 7.61553 24.9539 5.86053 23.0687C4.12973 21.2095 4.35387 18.3761 4.43212 15.8127C4.50694 13.3618 4.69398 10.8279 6.29014 8.99514C7.96892 7.06756 10.4461 5.88016 12.9698 6.00961Z" fill="white"/>
<path fill-rule="evenodd" clip-rule="evenodd" d="M12.9698 6.00961C15.3972 6.13412 17.2765 7.90923 19.0102 9.64761C20.7659 11.408 22.6158 13.3042 22.7466 15.8127C22.8826 18.42 21.5729 20.9042 19.6895 22.671C17.8802 24.3682 15.4262 24.9133 12.9698 24.9839C10.4229 25.0572 7.61553 24.9539 5.86053 23.0687C4.12973 21.2095 4.35387 18.3761 4.43212 15.8127C4.50694 13.3618 4.69398 10.8279 6.29014 8.99514C7.96892 7.06756 10.4461 5.88016 12.9698 6.00961Z" fill="white" stroke="url(#paint1_linear_258_5)" stroke-width="0.849562"/>
</g>
<g opacity="0.5">
<path fill-rule="evenodd" clip-rule="evenodd" d="M15.8491 6.00961C18.2764 6.13412 20.1558 7.90923 21.8895 9.64761C23.6452 11.408 25.4951 13.3042 25.6259 15.8127C25.7619 18.42 24.4522 20.9042 22.5687 22.671C20.7595 24.3682 18.3055 24.9133 15.8491 24.9839C13.3022 25.0572 10.4948 24.9539 8.7398 23.0687C7.00901 21.2095 7.23315 18.3761 7.3114 15.8127C7.38621 13.3618 7.57325 10.8279 9.16942 8.99514C10.8482 7.06756 13.3254 5.88016 15.8491 6.00961Z" fill="white"/>
<path fill-rule="evenodd" clip-rule="evenodd" d="M15.8491 6.00961C18.2764 6.13412 20.1558 7.90923 21.8895 9.64761C23.6452 11.408 25.4951 13.3042 25.6259 15.8127C25.7619 18.42 24.4522 20.9042 22.5687 22.671C20.7595 24.3682 18.3055 24.9133 15.8491 24.9839C13.3022 25.0572 10.4948 24.9539 8.7398 23.0687C7.00901 21.2095 7.23315 18.3761 7.3114 15.8127C7.38621 13.3618 7.57325 10.8279 9.16942 8.99514C10.8482 7.06756 13.3254 5.88016 15.8491 6.00961Z" fill="white" stroke="url(#paint2_linear_258_5)" stroke-width="0.849562"/>
</g>
<path fill-rule="evenodd" clip-rule="evenodd" d="M18.7283 6.00961C21.1556 6.13412 23.035 7.90923 24.7687 9.64761C26.5244 11.408 28.3743 13.3042 28.5051 15.8127C28.6411 18.42 27.3314 20.9042 25.4479 22.671C23.6386 24.3682 21.1847 24.9133 18.7283 24.9839C16.1814 25.0572 13.374 24.9539 11.619 23.0687C9.88819 21.2095 10.1123 18.3761 10.1906 15.8127C10.2654 13.3618 10.4524 10.8279 12.0486 8.99514C13.7274 7.06756 16.2046 5.88016 18.7283 6.00961Z" fill="white"/>
<path fill-rule="evenodd" clip-rule="evenodd" d="M18.7283 6.00961C21.1556 6.13412 23.035 7.90923 24.7687 9.64761C26.5244 11.408 28.3743 13.3042 28.5051 15.8127C28.6411 18.42 27.3314 20.9042 25.4479 22.671C23.6386 24.3682 21.1847 24.9133 18.7283 24.9839C16.1814 25.0572 13.374 24.9539 11.619 23.0687C9.88819 21.2095 10.1123 18.3761 10.1906 15.8127C10.2654 13.3618 10.4524 10.8279 12.0486 8.99514C13.7274 7.06756 16.2046 5.88016 18.7283 6.00961Z" fill="white" stroke="url(#paint3_linear_258_5)" stroke-width="0.849562"/>
<defs>
<linearGradient id="paint0_linear_258_5" x1="12.1891" y1="6" x2="12.1891" y2="25" gradientUnits="userSpaceOnUse">
<stop offset="0.354167" stop-color="#8AB9F0"/>
<stop offset="1" stop-color="#3E96FD"/>
</linearGradient>
<linearGradient id="paint1_linear_258_5" x1="13.5672" y1="6" x2="13.5672" y2="25" gradientUnits="userSpaceOnUse">
<stop offset="0.354167" stop-color="#8AB9F0"/>
<stop offset="1" stop-color="#3E96FD"/>
</linearGradient>
<linearGradient id="paint2_linear_258_5" x1="16.4465" y1="6" x2="16.4465" y2="25" gradientUnits="userSpaceOnUse">
<stop offset="0.354167" stop-color="#8AB9F0"/>
<stop offset="1" stop-color="#3E96FD"/>
</linearGradient>
<linearGradient id="paint3_linear_258_5" x1="19.3257" y1="6" x2="19.3257" y2="25" gradientUnits="userSpaceOnUse">
<stop offset="0.354167" stop-color="#8AB9F0"/>
<stop offset="1" stop-color="#3E96FD"/>
</linearGradient>
</defs>
</svg>
