<svg width="32" height="32" viewBox="0 0 32 32" fill="none" xmlns="http://www.w3.org/2000/svg">
<g clip-path="url(#clip0_2386_17741)">
<path d="M30.4063 1.25L17.92 10.5237L20.229 5.05235L30.4063 1.25Z" fill="#E2761B" stroke="#E2761B" stroke-linecap="round" stroke-linejoin="round"/>
<path d="M1.58119 1.25L13.9671 10.6116L11.771 5.05235L1.58119 1.25Z" fill="#E4761B" stroke="#E4761B" stroke-linecap="round" stroke-linejoin="round"/>
<path d="M25.9137 22.7465L22.5882 27.8414L29.7035 29.799L31.749 22.8594L25.9137 22.7465Z" fill="#E4761B" stroke="#E4761B" stroke-linecap="round" stroke-linejoin="round"/>
<path d="M0.26355 22.8594L2.29649 29.799L9.41179 27.8414L6.0863 22.7465L0.26355 22.8594Z" fill="#E4761B" stroke="#E4761B" stroke-linecap="round" stroke-linejoin="round"/>
<path d="M9.01021 14.1379L7.02747 17.1371L14.0926 17.4508L13.8416 9.85864L9.01021 14.1379Z" fill="#E4761B" stroke="#E4761B" stroke-linecap="round" stroke-linejoin="round"/>
<path d="M22.9773 14.1379L18.0831 9.77081L17.92 17.4508L24.9726 17.1371L22.9773 14.1379Z" fill="#E4761B" stroke="#E4761B" stroke-linecap="round" stroke-linejoin="round"/>
<path d="M9.41177 27.8414L13.6533 25.7708L9.98903 22.9096L9.41177 27.8414Z" fill="#E4761B" stroke="#E4761B" stroke-linecap="round" stroke-linejoin="round"/>
<path d="M18.3341 25.7708L22.5882 27.8414L21.9984 22.9096L18.3341 25.7708Z" fill="#E4761B" stroke="#E4761B" stroke-linecap="round" stroke-linejoin="round"/>
<path d="M22.5882 27.8414L18.3341 25.7708L18.6729 28.5441L18.6353 29.7112L22.5882 27.8414Z" fill="#D7C1B3" stroke="#D7C1B3" stroke-linecap="round" stroke-linejoin="round"/>
<path d="M9.41176 27.8414L13.3647 29.7112L13.3396 28.5441L13.6533 25.7708L9.41176 27.8414Z" fill="#D7C1B3" stroke="#D7C1B3" stroke-linecap="round" stroke-linejoin="round"/>
<path d="M13.4275 21.0774L9.88863 20.0359L12.3859 18.8939L13.4275 21.0774Z" fill="#233447" stroke="#233447" stroke-linecap="round" stroke-linejoin="round"/>
<path d="M18.56 21.0774L19.6016 18.8939L22.1114 20.0359L18.56 21.0774Z" fill="#233447" stroke="#233447" stroke-linecap="round" stroke-linejoin="round"/>
<path d="M9.41176 27.8414L10.0141 22.7465L6.08627 22.8595L9.41176 27.8414Z" fill="#CD6116" stroke="#CD6116" stroke-linecap="round" stroke-linejoin="round"/>
<path d="M21.9859 22.7465L22.5882 27.8414L25.9137 22.8595L21.9859 22.7465Z" fill="#CD6116" stroke="#CD6116" stroke-linecap="round" stroke-linejoin="round"/>
<path d="M24.9725 17.1371L17.92 17.4508L18.5725 21.0775L19.6141 18.8939L22.1239 20.0359L24.9725 17.1371Z" fill="#CD6116" stroke="#CD6116" stroke-linecap="round" stroke-linejoin="round"/>
<path d="M9.88863 20.0359L12.3984 18.8939L13.4275 21.0775L14.0925 17.4508L7.02745 17.1371L9.88863 20.0359Z" fill="#CD6116" stroke="#CD6116" stroke-linecap="round" stroke-linejoin="round"/>
<path d="M7.02745 17.1371L9.98902 22.9096L9.88863 20.0359L7.02745 17.1371Z" fill="#E4751F" stroke="#E4751F" stroke-linecap="round" stroke-linejoin="round"/>
<path d="M22.1239 20.0359L21.9984 22.9096L24.9725 17.1371L22.1239 20.0359Z" fill="#E4751F" stroke="#E4751F" stroke-linecap="round" stroke-linejoin="round"/>
<path d="M14.0926 17.4508L13.4275 21.0775L14.2557 25.3567L14.4439 19.7222L14.0926 17.4508Z" fill="#E4751F" stroke="#E4751F" stroke-linecap="round" stroke-linejoin="round"/>
<path d="M17.92 17.4508L17.5812 19.7096L17.7318 25.3567L18.5726 21.0775L17.92 17.4508Z" fill="#E4751F" stroke="#E4751F" stroke-linecap="round" stroke-linejoin="round"/>
<path d="M18.5725 21.0775L17.7318 25.3567L18.3341 25.7708L21.9984 22.9096L22.1239 20.0359L18.5725 21.0775Z" fill="#F6851B" stroke="#F6851B" stroke-linecap="round" stroke-linejoin="round"/>
<path d="M9.88863 20.0359L9.98902 22.9096L13.6533 25.7708L14.2557 25.3567L13.4275 21.0775L9.88863 20.0359Z" fill="#F6851B" stroke="#F6851B" stroke-linecap="round" stroke-linejoin="round"/>
<path d="M18.6353 29.7112L18.6729 28.5441L18.3592 28.268H13.6282L13.3396 28.5441L13.3647 29.7112L9.41176 27.8414L10.7922 28.9708L13.5906 30.9159H18.3969L21.2078 28.9708L22.5882 27.8414L18.6353 29.7112Z" fill="#C0AD9E" stroke="#C0AD9E" stroke-linecap="round" stroke-linejoin="round"/>
<path d="M18.3341 25.7708L17.7318 25.3567H14.2557L13.6533 25.7708L13.3396 28.5441L13.6282 28.2681H18.3592L18.6729 28.5441L18.3341 25.7708Z" fill="#161616" stroke="#161616" stroke-linecap="round" stroke-linejoin="round"/>
<path d="M30.9333 11.1261L32 6.00608L30.4063 1.25L18.3341 10.21L22.9773 14.1378L29.5404 16.0578L30.9961 14.3637L30.3686 13.912L31.3726 12.9959L30.5945 12.3935L31.5984 11.628L30.9333 11.1261Z" fill="#763D16" stroke="#763D16" stroke-linecap="round" stroke-linejoin="round"/>
<path d="M0 6.00608L1.06667 11.1261L0.38902 11.628L1.39294 12.3935L0.627451 12.9959L1.63137 13.912L1.00392 14.3637L2.44706 16.0578L9.0102 14.1378L13.6533 10.21L1.58118 1.25L0 6.00608Z" fill="#763D16" stroke="#763D16" stroke-linecap="round" stroke-linejoin="round"/>
<path d="M29.5404 16.0578L22.9773 14.1378L24.9725 17.137L21.9984 22.9096L25.9137 22.8594H31.749L29.5404 16.0578Z" fill="#F6851B" stroke="#F6851B" stroke-linecap="round" stroke-linejoin="round"/>
<path d="M9.0102 14.1378L2.44706 16.0578L0.263535 22.8594H6.08628L9.98903 22.9096L7.02746 17.137L9.0102 14.1378Z" fill="#F6851B" stroke="#F6851B" stroke-linecap="round" stroke-linejoin="round"/>
<path d="M17.92 17.4508L18.3341 10.21L20.2416 5.05237H11.771L13.6533 10.21L14.0926 17.4508L14.2431 19.7347L14.2557 25.3567H17.7318L17.7569 19.7347L17.92 17.4508Z" fill="#F6851B" stroke="#F6851B" stroke-linecap="round" stroke-linejoin="round"/>
</g>
<defs>
<clipPath id="clip0_2386_17741">
<rect width="32" height="32" fill="white"/>
</clipPath>
</defs>
</svg>
