<svg width="32" height="32" viewBox="0 0 32 32" fill="none" xmlns="http://www.w3.org/2000/svg">
<g clip-path="url(#clip0_2403_20227)">
<path d="M16 32C24.8366 32 32 24.8366 32 16C32 7.16344 24.8366 0 16 0C7.16344 0 0 7.16344 0 16C0 24.8366 7.16344 32 16 32Z" fill="#3375BB"/>
<path fill-rule="evenodd" clip-rule="evenodd" d="M15.45 7.19998C15.7693 6.93333 16.2337 6.93334 16.5529 7.2C18.9183 9.17552 21.6155 9.16021 22.6583 9.15429C22.7103 9.154 22.7583 9.15372 22.8018 9.15372C23.0322 9.15372 23.253 9.24615 23.4147 9.41031C23.5764 9.57447 23.6655 9.79662 23.662 10.027C23.6127 13.2975 23.4816 15.6313 23.2245 17.3415C22.9675 19.0506 22.5736 20.2207 21.9396 21.1019C21.3011 21.9893 20.4805 22.4933 19.6051 22.977C19.4535 23.0608 19.2989 23.1447 19.1406 23.2305C18.3721 23.6474 17.5173 24.1111 16.5029 24.8387C16.2032 25.0538 15.7997 25.0538 15.5 24.8387C14.4866 24.1118 13.6329 23.6483 12.8656 23.2318C12.7065 23.1454 12.5512 23.0611 12.3989 22.9768C11.5243 22.493 10.7047 21.9888 10.0674 21.1012C9.4348 20.2199 9.04224 19.0498 8.78619 17.341C8.52997 15.631 8.39946 13.2974 8.35007 10.027C8.34659 9.79664 8.43568 9.57447 8.59738 9.41031C8.75908 9.24616 8.97987 9.15372 9.21029 9.15372C9.25336 9.15372 9.30081 9.15399 9.35239 9.15429C10.3868 9.16022 13.0843 9.17567 15.45 7.19998ZM10.0861 10.8692C10.1443 13.6615 10.2713 15.6411 10.4878 17.086C10.7263 18.6777 11.0625 19.5368 11.4652 20.0977C11.8632 20.6522 12.3856 21.0031 13.2318 21.4712C13.3697 21.5475 13.5151 21.6263 13.6678 21.7091C14.3197 22.0627 15.1043 22.4882 16.0015 23.0921C16.8999 22.4874 17.6856 22.0616 18.3387 21.7078C18.4907 21.6254 18.6355 21.547 18.7729 21.4711C19.6202 21.0028 20.1438 20.6517 20.5429 20.097C20.9466 19.536 21.2837 18.6769 21.523 17.0856C21.7402 15.6408 21.8677 13.6615 21.926 10.8694C20.5892 10.8271 18.2267 10.5529 16.0014 8.94888C13.7788 10.551 11.4196 10.8265 10.0861 10.8692Z" fill="white"/>
</g>
<defs>
<clipPath id="clip0_2403_20227">
<rect width="32" height="32" rx="16" fill="white"/>
</clipPath>
</defs>
</svg>
