<?xml version="1.0" encoding="UTF-8"?>
<svg width="3300px" height="2200px" viewBox="0 0 3300 2200" version="1.1" xmlns="http://www.w3.org/2000/svg" xmlns:xlink="http://www.w3.org/1999/xlink">
    <title>circle</title>
    <g id="Page-1" stroke="none" stroke-width="1" fill="none" fill-rule="evenodd">
        <g id="circle">
            <g id="Notes">
                <rect id="artboard" fill="#FFFFFF" fill-rule="nonzero" x="0" y="0" width="3300" height="2200"></rect>
                <line x1="263" y1="292" x2="3036" y2="292" id="Path" stroke="#000000" stroke-width="0.5"></line>
                <text id="Weight/Scale-Variations" fill="#000000" fill-rule="nonzero" font-family="Helvetica" font-size="13" font-weight="normal">
                    <tspan x="263" y="322">Weight/Scale Variations</tspan>
                </text>
                <text id="Ultralight" fill="#000000" fill-rule="nonzero" font-family="Helvetica" font-size="13" font-weight="normal">
                    <tspan x="533.711" y="322">Ultralight</tspan>
                </text>
                <text id="Thin" fill="#000000" fill-rule="nonzero" font-family="Helvetica" font-size="13" font-weight="normal">
                    <tspan x="843.422" y="322">Thin</tspan>
                </text>
                <text id="Light" fill="#000000" fill-rule="nonzero" font-family="Helvetica" font-size="13" font-weight="normal">
                    <tspan x="1138.63" y="322">Light</tspan>
                </text>
                <text id="Regular" fill="#000000" fill-rule="nonzero" font-family="Helvetica" font-size="13" font-weight="normal">
                    <tspan x="1426.84" y="322">Regular</tspan>
                </text>
                <text id="Medium" fill="#000000" fill-rule="nonzero" font-family="Helvetica" font-size="13" font-weight="normal">
                    <tspan x="1723.06" y="322">Medium</tspan>
                </text>
                <text id="Semibold" fill="#000000" fill-rule="nonzero" font-family="Helvetica" font-size="13" font-weight="normal">
                    <tspan x="2015.77" y="322">Semibold</tspan>
                </text>
                <text id="Bold" fill="#000000" fill-rule="nonzero" font-family="Helvetica" font-size="13" font-weight="normal">
                    <tspan x="2326.48" y="322">Bold</tspan>
                </text>
                <text id="Heavy" fill="#000000" fill-rule="nonzero" font-family="Helvetica" font-size="13" font-weight="normal">
                    <tspan x="2618.19" y="322">Heavy</tspan>
                </text>
                <text id="Black" fill="#000000" fill-rule="nonzero" font-family="Helvetica" font-size="13" font-weight="normal">
                    <tspan x="2917.4" y="322">Black</tspan>
                </text>
                <line x1="263" y1="1903" x2="3036" y2="1903" id="Path" stroke="#000000" stroke-width="0.5"></line>
                <g id="Group" transform="translate(264.367190, 1918.068400)" fill="#000000" fill-rule="nonzero">
                    <path d="M7.88086,15.761678 C12.18751,15.761678 15.77151,12.18746 15.77151,7.88082 C15.77151,3.5742 12.17771,0 7.87109,0 C3.57422,0 -8.8817842e-16,3.5742 -8.8817842e-16,7.88082 C-8.8817842e-16,12.18746 3.58398,15.761678 7.88086,15.761678 Z M7.88086,14.277303 C4.33593,14.277303 1.5039,11.43551 1.5039,7.88082 C1.5039,4.3261 4.32617,1.4843 7.87109,1.4843 C11.42581,1.4843 14.27731,4.3261 14.27731,7.88082 C14.27731,11.43551 11.43551,14.277303 7.88086,14.277303 Z M4.28711,7.88082 C4.28711,8.31051 4.58984,8.60348 5.03906,8.60348 L7.13867,8.60348 L7.13867,10.72262 C7.13867,11.16207 7.43164,11.4648 7.86133,11.4648 C8.31054,11.4648 8.60351,11.16207 8.60351,10.72262 L8.60351,8.60348 L10.72261,8.60348 C11.16211,8.60348 11.46481,8.31051 11.46481,7.88082 C11.46481,7.44137 11.16211,7.13863 10.72261,7.13863 L8.60351,7.13863 L8.60351,5.02926 C8.60351,4.58 8.31054,4.2773 7.86133,4.2773 C7.43164,4.2773 7.13867,4.58 7.13867,5.02926 L7.13867,7.13863 L5.03906,7.13863 C4.58984,7.13863 4.28711,7.44137 4.28711,7.88082 Z" id="Shape"></path>
                </g>
                <g id="Group" transform="translate(283.615050, 1915.988300)" fill="#000000" fill-rule="nonzero">
                    <path d="M9.96095,19.92186 C15.41015,19.92186 19.92185,15.40037 19.92185,9.96092 C19.92185,4.5117 15.40035,0 9.95115,0 C4.51172,0 8.8817842e-16,4.5117 8.8817842e-16,9.96092 C8.8817842e-16,15.40037 4.52148,19.92186 9.96095,19.92186 Z M9.96095,18.2617 C5.35156,18.2617 1.66992,14.57029 1.66992,9.96092 C1.66992,5.3515 5.34179,1.6601 9.95115,1.6601 C14.56055,1.6601 18.26175,5.3515 18.26175,9.96092 C18.26175,14.57029 14.57035,18.2617 9.96095,18.2617 Z M5.42968,9.96092 C5.42968,10.43943 5.76172,10.7617 6.25976,10.7617 L9.13085,10.7617 L9.13085,13.64256 C9.13085,14.13084 9.46285,14.47264 9.94145,14.47264 C10.42965,14.47264 10.77145,14.14061 10.77145,13.64256 L10.77145,10.7617 L13.65235,10.7617 C14.14065,10.7617 14.48245,10.43943 14.48245,9.96092 C14.48245,9.47264 14.14065,9.13084 13.65235,9.13084 L10.77145,9.13084 L10.77145,6.2597 C10.77145,5.7617 10.42965,5.4199 9.94145,5.4199 C9.46285,5.4199 9.13085,5.7617 9.13085,6.2597 L9.13085,9.13084 L6.25976,9.13084 C5.76172,9.13084 5.42968,9.47264 5.42968,9.96092 Z" id="Shape"></path>
                </g>
                <g id="Group" transform="translate(307.901860, 1913.224600)" fill="#000000" fill-rule="nonzero">
                    <path d="M12.71484,25.43946 C19.67774,25.43946 25.43944,19.6777438 25.43944,12.72462 C25.43944,5.7617 19.66794,0 12.70504,0 C5.75195,0 0,5.7617 0,12.72462 C0,19.6777438 5.76172,25.43946 12.71484,25.43946 Z M12.71484,23.62306 C6.67969,23.62306 1.82617,18.75978 1.82617,12.72462 C1.82617,6.6797 6.66992,1.8262 12.70504,1.8262 C18.75004,1.8262 23.61324,6.6797 23.61324,12.72462 C23.61324,18.75978 18.75974,23.62306 12.71484,23.62306 Z M6.94336,12.72462 C6.94336,13.2422 7.31445,13.60352 7.86134,13.60352 L11.80664,13.60352 L11.80664,17.5586 C11.80664,18.09571 12.17774,18.47657 12.69534,18.47657 C13.23244,18.47657 13.60354,18.10548 13.60354,17.5586 L13.60354,13.60352 L17.55864,13.60352 C18.09574,13.60352 18.47654,13.2422 18.47654,12.72462 C18.47654,12.17774 18.10544,11.80665 17.55864,11.80665 L13.60354,11.80665 L13.60354,7.8613 C13.60354,7.3145 13.23244,6.9336 12.69534,6.9336 C12.17774,6.9336 11.80664,7.3145 11.80664,7.8613 L11.80664,11.80665 L7.86134,11.80665 C7.31445,11.80665 6.94336,12.17774 6.94336,12.72462 Z" id="Shape"></path>
                </g>
                <text id="Design-Variations" fill="#000000" fill-rule="nonzero" font-family="Helvetica" font-size="13" font-weight="normal">
                    <tspan x="263" y="1953">Design Variations</tspan>
                </text>
                <text id="Symbols-are-supported-in-up-to-nine-weights-and-three-scales." fill="#000000" fill-rule="nonzero" font-family="Helvetica" font-size="13" font-weight="normal">
                    <tspan x="263" y="1971">Symbols are supported in up to nine weights and three scales.</tspan>
                </text>
                <text id="For-optimal-layout-with-text-and-other-symbols,-vertically-align" fill="#000000" fill-rule="nonzero" font-family="Helvetica" font-size="13" font-weight="normal">
                    <tspan x="263" y="1989">For optimal layout with text and other symbols, vertically align</tspan>
                </text>
                <text id="symbols-with-the-adjacent-text." fill="#000000" fill-rule="nonzero" font-family="Helvetica" font-size="13" font-weight="normal">
                    <tspan x="263" y="2007">symbols with the adjacent text.</tspan>
                </text>
                <line x1="776" y1="1919" x2="776" y2="1933" id="Path" stroke="#00AEEF" stroke-width="0.5"></line>
                <g id="Group" transform="translate(778.490230, 1918.732400)" fill="#000000" fill-rule="nonzero">
                    <path d="M0.82032,14.42385 C1.33789,14.42385 1.5918,14.2285375 1.77735,13.681662 L3.03711,10.2344 L8.79887,10.2344 L10.05857,13.681662 C10.24417,14.2285375 10.49807,14.42385 11.00587,14.42385 C11.52347,14.42385 11.85547,14.11135 11.85547,13.623069 C11.85547,13.457053 11.82617,13.300803 11.74807,13.09572 L7.16797,0.8985 C6.94336,0.3028 6.54297,0 5.91797,0 C5.3125,0 4.90235,0.293 4.6875,0.8887 L0.10743,13.10549 C0.0293,13.310569 -4.4408921e-16,13.466819 -4.4408921e-16,13.632834 C-4.4408921e-16,14.121116 0.3125,14.42385 0.82032,14.42385 Z M3.51563,8.75002 L5.88868,2.1778 L5.9375,2.1778 L8.31057,8.75002 L3.51563,8.75002 Z" id="Shape"></path>
                </g>
                <line x1="793.197" y1="1919" x2="793.197" y2="1933" id="Path" stroke="#00AEEF" stroke-width="0.5"></line>
                <text id="Margins" fill="#000000" fill-rule="nonzero" font-family="Helvetica" font-size="13" font-weight="normal">
                    <tspan x="776" y="1953">Margins</tspan>
                </text>
                <text id="Leading-and-trailing-margins-on-the-left-and-right-side-of-each-symbol" fill="#000000" fill-rule="nonzero" font-family="Helvetica" font-size="13" font-weight="normal">
                    <tspan x="776" y="1971">Leading and trailing margins on the left and right side of each symbol</tspan>
                </text>
                <text id="can-be-adjusted-by-modifying-the-x-location-of-the-margin-guidelines." fill="#000000" fill-rule="nonzero" font-family="Helvetica" font-size="13" font-weight="normal">
                    <tspan x="776" y="1989">can be adjusted by modifying the x-location of the margin guidelines.</tspan>
                </text>
                <text id="Modifications-are-automatically-applied-proportionally-to-all" fill="#000000" fill-rule="nonzero" font-family="Helvetica" font-size="13" font-weight="normal">
                    <tspan x="776" y="2007">Modifications are automatically applied proportionally to all</tspan>
                </text>
                <text id="scales-and-weights." fill="#000000" fill-rule="nonzero" font-family="Helvetica" font-size="13" font-weight="normal">
                    <tspan x="776" y="2025">scales and weights.</tspan>
                </text>
                <g id="Group" transform="translate(1291.248126, 1914.517396)" fill="#000000" fill-rule="nonzero">
                    <path d="M0.593673634,20.347834 L2.29289363,22.056824 C3.15226363,22.925964 4.13859363,22.867374 5.06632363,21.841984 L15.7596736,10.054874 L14.7928736,9.07830404 L4.17765363,20.757994 C3.82609363,21.158384 3.49406363,21.256044 3.02531363,20.787294 L1.85343363,19.625184 C1.38468363,19.166198 1.49210363,18.824401 1.89249363,18.4630728 L13.3670736,7.66230404 L12.3905736,6.69550404 L0.798753634,17.584166 C-0.187576366,18.5021352 -0.265706366,19.478698 0.593673634,20.347834 Z M7.00968363,2.15450404 C6.58976363,2.56460404 6.56046363,3.14080404 6.79484363,3.53140404 C7.02921363,3.89280404 7.48820363,4.12710404 8.13277363,3.96110404 C9.59757363,3.61930404 11.1209736,3.56070404 12.5467736,4.49820404 L11.9608736,5.95330404 C11.6190736,6.78340404 11.7948736,7.36930404 12.3319736,7.91620404 L14.6268736,10.230654 C15.1151736,10.718934 15.5252736,10.738464 16.0916736,10.640804 L17.1561736,10.445494 L17.8202736,11.119324 L17.7811736,11.675964 C17.7420736,12.174014 17.8690736,12.554874 18.3573736,13.033384 L19.1190736,13.775574 C19.5975736,14.254084 20.2127736,14.283384 20.6815736,13.814634 L23.5916736,10.894714 C24.0604736,10.425964 24.0409736,9.83026404 23.5623736,9.35174404 L22.7909736,8.59002404 C22.3123736,8.11150404 21.9413736,7.95530404 21.4627736,7.99430404 L20.8866736,8.04310404 L20.2420736,7.40840404 L20.4862736,6.28530404 C20.6131736,5.71890404 20.4569736,5.27950404 19.8709736,4.69350404 L17.6737736,2.50600404 C14.3338736,-0.814295964 9.90027363,-0.736195964 7.00968363,2.15450404 Z M8.50387363,2.52560404 C10.9354736,0.748204036 14.2264736,1.05100404 16.4530736,3.27750404 L18.8846736,5.68960404 C19.1190736,5.92400404 19.1580736,6.10960404 19.0897736,6.45140404 L18.7674736,7.93570404 L20.2713736,9.42010404 L21.2577736,9.36151404 C21.5116736,9.35174404 21.5897736,9.37127404 21.7850736,9.56658404 L22.3612736,10.142764 L19.9198736,12.584164 L19.3436736,12.007994 C19.1483736,11.812684 19.1190736,11.734554 19.1288736,11.470884 L19.1971736,10.494324 L17.7030736,9.00994404 L16.1795736,9.26385404 C15.8573736,9.33221404 15.7108736,9.30291404 15.4666736,9.06854404 L13.4647736,7.06660404 C13.2108736,6.83220404 13.1815736,6.66620404 13.3377736,6.29510404 L14.2166736,4.20530404 C12.6541736,2.75020404 10.6229736,2.12520404 8.59167363,2.72090404 C8.43547363,2.75990404 8.37687363,2.63300404 8.50387363,2.52560404 Z" id="Shape"></path>
                </g>
                <text id="Exporting" fill="#000000" fill-rule="nonzero" font-family="Helvetica" font-size="13" font-weight="normal">
                    <tspan x="1289" y="1953">Exporting</tspan>
                </text>
                <text id="Symbols-should-be-outlined-when-exporting-to-ensure-the" fill="#000000" fill-rule="nonzero" font-family="Helvetica" font-size="13" font-weight="normal">
                    <tspan x="1289" y="1971">Symbols should be outlined when exporting to ensure the</tspan>
                </text>
                <text id="design-is-preserved-when-submitting-to-Xcode." fill="#000000" fill-rule="nonzero" font-family="Helvetica" font-size="13" font-weight="normal">
                    <tspan x="1289" y="1989">design is preserved when submitting to Xcode.</tspan>
                </text>
                <text id="template-version" fill="#000000" fill-rule="nonzero" font-family="Helvetica" font-size="13" font-weight="normal">
                    <tspan x="2952" y="1933">Template v.4.0</tspan>
                </text>
                <text id="Requires-Xcode-14-or-greater" fill="#000000" fill-rule="nonzero" font-family="Helvetica" font-size="13" font-weight="normal">
                    <tspan x="2865" y="1951">Requires Xcode 14 or greater</tspan>
                </text>
                <text id="descriptive-name" fill="#000000" fill-rule="nonzero" font-family="Helvetica" font-size="13" font-weight="normal">
                    <tspan x="2911" y="1969">Generated from circle</tspan>
                </text>
                <text id="Typeset-at-100-points" fill="#000000" fill-rule="nonzero" font-family="Helvetica" font-size="13" font-weight="normal">
                    <tspan x="2912" y="1987">Typeset at 100 points</tspan>
                </text>
                <text id="Small" fill="#000000" fill-rule="nonzero" font-family="Helvetica" font-size="13" font-weight="normal">
                    <tspan x="263" y="726">Small</tspan>
                </text>
                <text id="Medium" fill="#000000" fill-rule="nonzero" font-family="Helvetica" font-size="13" font-weight="normal">
                    <tspan x="263" y="1156">Medium</tspan>
                </text>
                <text id="Large" fill="#000000" fill-rule="nonzero" font-family="Helvetica" font-size="13" font-weight="normal">
                    <tspan x="263" y="1586">Large</tspan>
                </text>
            </g>
            <g id="Guides" transform="translate(263.000000, 600.785000)">
                <g id="H-reference" transform="translate(76.993654, 24.756000)" fill="#27AAE1" fill-rule="nonzero">
                    <path d="M0,70.459 L2.644096,70.459 L28.334446,3.3267 L29.036646,3.3267 L29.036646,0 L27.128946,0 L0,70.459 Z M10.694846,45.9791 L45.987846,45.9791 L45.237846,43.7305 L11.444846,43.7305 L10.694846,45.9791 Z M54.125946,70.459 L56.770046,70.459 L29.644546,0 L28.438946,0 L28.438946,3.3267 L54.125946,70.459 Z" id="Shape"></path>
                </g>
                <line x1="0" y1="95.215" x2="2773" y2="95.215" id="Baseline-S" stroke="#27AAE1" stroke-width="0.5"></line>
                <line x1="0" y1="24.756" x2="2773" y2="24.756" id="Capline-S" stroke="#27AAE1" stroke-width="0.5"></line>
                <g id="H-reference" transform="translate(76.993654, 454.756000)" fill="#27AAE1" fill-rule="nonzero">
                    <path d="M0,70.459 L2.644096,70.459 L28.334446,3.3267 L29.036646,3.3267 L29.036646,0 L27.128946,0 L0,70.459 Z M10.694846,45.9791 L45.987846,45.9791 L45.237846,43.7305 L11.444846,43.7305 L10.694846,45.9791 Z M54.125946,70.459 L56.770046,70.459 L29.644546,0 L28.438946,0 L28.438946,3.3267 L54.125946,70.459 Z" id="Shape"></path>
                </g>
                <line x1="0" y1="525.215" x2="2773" y2="525.215" id="Baseline-M" stroke="#27AAE1" stroke-width="0.5"></line>
                <line x1="0" y1="454.755" x2="2773" y2="454.755" id="Capline-M" stroke="#27AAE1" stroke-width="0.5"></line>
                <g id="H-reference" transform="translate(76.993654, 884.756000)" fill="#27AAE1" fill-rule="nonzero">
                    <path d="M0,70.459 L2.644096,70.459 L28.334446,3.3267 L29.036646,3.3267 L29.036646,0 L27.128946,0 L0,70.459 Z M10.694846,45.9791 L45.987846,45.9791 L45.237846,43.7305 L11.444846,43.7305 L10.694846,45.9791 Z M54.125946,70.459 L56.770046,70.459 L29.644546,0 L28.438946,0 L28.438946,3.3267 L54.125946,70.459 Z" id="Shape"></path>
                </g>
                <line x1="0" y1="955.215" x2="2773" y2="955.215" id="Baseline-L" stroke="#27AAE1" stroke-width="0.5"></line>
                <line x1="0" y1="884.755" x2="2773" y2="884.755" id="Capline-L" stroke="#27AAE1" stroke-width="0.5"></line>
                <line x1="252.649" y1="1.13686838e-13" x2="252.649" y2="119.336" id="left-margin-Ultralight-S" stroke="#00AEEF" stroke-width="0.5"></line>
                <line x1="340.773" y1="1.13686838e-13" x2="340.773" y2="119.336" id="right-margin-Ultralight-S" stroke="#00AEEF" stroke-width="0.5"></line>
                <line x1="1140.58" y1="1.13686838e-13" x2="1140.58" y2="119.336" id="left-margin-Regular-S" stroke="#00AEEF" stroke-width="0.5"></line>
                <line x1="1233.11" y1="1.13686838e-13" x2="1233.11" y2="119.336" id="right-margin-Regular-S" stroke="#00AEEF" stroke-width="0.5"></line>
                <line x1="2621.57" y1="1.13686838e-13" x2="2621.57" y2="119.336" id="left-margin-Black-S" stroke="#00AEEF" stroke-width="0.5"></line>
                <line x1="2719.23" y1="1.13686838e-13" x2="2719.23" y2="119.336" id="right-margin-Black-S" stroke="#00AEEF" stroke-width="0.5"></line>
            </g>
            <g id="Symbols" transform="translate(522.000000, 625.000000)" fill="#000000">
                <g id="Black-S" transform="translate(2372.000000, 0.000000)">
                    <path d="M13.5469957,54.1215411 C13.8014989,53.841858 14.1114317,53.618365 14.457191,53.4654265 C14.8026123,53.3120655 15.1767624,53.2330614 15.5546303,53.2326389 L77.5006781,53.2833367 C77.7647293,53.2841817 78.0224434,53.3610734 78.2434015,53.5055623 C78.4643596,53.6496286 78.6384222,53.8553774 78.7444652,54.0966146 C78.8509306,54.3378519 78.8847292,54.605283 78.8420585,54.8655319 C78.7993878,55.1257809 78.6823603,55.3682855 78.5044954,55.5630498 L65.3129164,70.087982 C65.0585822,70.3680876 64.7480579,70.5915806 64.4024676,70.7449416 C64.0564548,70.8978801 63.6821358,70.9768842 63.3035919,70.9768842 L1.35931856,70.9261864 C1.09552078,70.9257639 0.837536352,70.8484497 0.616730343,70.7043833 C0.395924334,70.5598944 0.221794139,70.3545682 0.11549766,70.1129085 C0.00920118076,69.8716712 -0.0247325761,69.6042401 0.0178874113,69.3439912 C0.0604736002,69.0837422 0.177788411,68.84166 0.355501253,68.6464733 L13.5469957,54.1215411 Z M78.5044954,42.0301053 C78.6823603,42.225292 78.7993878,42.4673742 78.8420585,42.7276231 C78.8847292,42.9878721 78.8509306,43.2553032 78.7444652,43.4965404 C78.6384222,43.7382002 78.4643596,43.9435264 78.2434015,44.0880153 C78.0224434,44.2320817 77.7647293,44.3093959 77.5006781,44.3098184 L15.5563203,44.3605162 C15.1781144,44.3605162 14.8039643,44.2815121 14.457867,44.1285736 C14.1117697,43.9752126 13.8014989,43.7517196 13.5469957,43.471614 L0.355501253,28.9383166 C0.177788411,28.7432989 0.0604736002,28.5009632 0.0178874113,28.2407143 C-0.0247325761,27.9804653 0.00920118076,27.7131187 0.11549766,27.471797 C0.221794139,27.2304752 0.395924334,27.02498 0.616730343,26.8806601 C0.837536352,26.7363402 1.09552078,26.6592795 1.35931856,26.6586035 L63.3052818,26.6079057 C63.6834032,26.6082437 64.0572998,26.6873323 64.4028901,26.8404398 C64.7489029,26.9935473 65.0585822,27.2169558 65.3129164,27.4968079 L78.5044954,42.0301053 Z M13.5469957,0.888902195 C13.8014989,0.609151493 14.1114317,0.385574002 14.457191,0.232500312 C14.8026123,0.0794604206 15.1767624,0.000236589938 15.5546303,0 L77.5006781,0.0506978438 C77.7647293,0.0512386208 78.0224434,0.128366941 78.2434015,0.272720601 C78.4643596,0.417074262 78.6384222,0.622434328 78.7444652,0.863857461 C78.8509306,1.10531439 78.8847292,1.37242443 78.8420585,1.63274096 C78.7993878,1.89304481 78.6823603,2.13538051 78.5044954,2.33039821 L65.3129164,16.8553305 C65.0585822,17.1351826 64.7480579,17.3589291 64.4024676,17.5120365 C64.0564548,17.665144 63.6821358,17.7442327 63.3035919,17.7442327 L1.35931856,17.6935348 C1.09552078,17.6928589 0.837536352,17.6157981 0.616730343,17.4714783 C0.395924334,17.3271584 0.221794139,17.1216631 0.11549766,16.8803414 C0.00920118076,16.6390197 -0.0247325761,16.371673 0.0178874113,16.1114241 C0.0604736002,15.8511752 0.177788411,15.6088395 0.355501253,15.4138218 L13.5469957,0.888902195 Z" id="Shape"></path>
                </g>
                <g id="Regular-S" transform="translate(888.000000, 0.000000)">
                    <path d="M13.5469957,54.1215411 C13.8014989,53.841858 14.1114317,53.618365 14.457191,53.4654265 C14.8026123,53.3120655 15.1767624,53.2330614 15.5546303,53.2326389 L77.5006781,53.2833367 C77.7647293,53.2841817 78.0224434,53.3610734 78.2434015,53.5055623 C78.4643596,53.6496286 78.6384222,53.8553774 78.7444652,54.0966146 C78.8509306,54.3378519 78.8847292,54.605283 78.8420585,54.8655319 C78.7993878,55.1257809 78.6823603,55.3682855 78.5044954,55.5630498 L65.3129164,70.087982 C65.0585822,70.3680876 64.7480579,70.5915806 64.4024676,70.7449416 C64.0564548,70.8978801 63.6821358,70.9768842 63.3035919,70.9768842 L1.35931856,70.9261864 C1.09552078,70.9257639 0.837536352,70.8484497 0.616730343,70.7043833 C0.395924334,70.5598944 0.221794139,70.3545682 0.11549766,70.1129085 C0.00920118076,69.8716712 -0.0247325761,69.6042401 0.0178874113,69.3439912 C0.0604736002,69.0837422 0.177788411,68.84166 0.355501253,68.6464733 L13.5469957,54.1215411 Z M78.5044954,42.0301053 C78.6823603,42.225292 78.7993878,42.4673742 78.8420585,42.7276231 C78.8847292,42.9878721 78.8509306,43.2553032 78.7444652,43.4965404 C78.6384222,43.7382002 78.4643596,43.9435264 78.2434015,44.0880153 C78.0224434,44.2320817 77.7647293,44.3093959 77.5006781,44.3098184 L15.5563203,44.3605162 C15.1781144,44.3605162 14.8039643,44.2815121 14.457867,44.1285736 C14.1117697,43.9752126 13.8014989,43.7517196 13.5469957,43.471614 L0.355501253,28.9383166 C0.177788411,28.7432989 0.0604736002,28.5009632 0.0178874113,28.2407143 C-0.0247325761,27.9804653 0.00920118076,27.7131187 0.11549766,27.471797 C0.221794139,27.2304752 0.395924334,27.02498 0.616730343,26.8806601 C0.837536352,26.7363402 1.09552078,26.6592795 1.35931856,26.6586035 L63.3052818,26.6079057 C63.6834032,26.6082437 64.0572998,26.6873323 64.4028901,26.8404398 C64.7489029,26.9935473 65.0585822,27.2169558 65.3129164,27.4968079 L78.5044954,42.0301053 Z M13.5469957,0.888902195 C13.8014989,0.609151493 14.1114317,0.385574002 14.457191,0.232500312 C14.8026123,0.0794604206 15.1767624,0.000236589938 15.5546303,0 L77.5006781,0.0506978438 C77.7647293,0.0512386208 78.0224434,0.128366941 78.2434015,0.272720601 C78.4643596,0.417074262 78.6384222,0.622434328 78.7444652,0.863857461 C78.8509306,1.10531439 78.8847292,1.37242443 78.8420585,1.63274096 C78.7993878,1.89304481 78.6823603,2.13538051 78.5044954,2.33039821 L65.3129164,16.8553305 C65.0585822,17.1351826 64.7480579,17.3589291 64.4024676,17.5120365 C64.0564548,17.665144 63.6821358,17.7442327 63.3035919,17.7442327 L1.35931856,17.6935348 C1.09552078,17.6928589 0.837536352,17.6157981 0.616730343,17.4714783 C0.395924334,17.3271584 0.221794139,17.1216631 0.11549766,16.8803414 C0.00920118076,16.6390197 -0.0247325761,16.371673 0.0178874113,16.1114241 C0.0604736002,15.8511752 0.177788411,15.6088395 0.355501253,15.4138218 L13.5469957,0.888902195 Z" id="Shape"></path>
                </g>
                <g id="Ultralight-S" transform="translate(0.000000, 2.000000)">
                    <path d="M12.7894222,51.4142469 C13.029693,51.1485547 13.3222938,50.9362418 13.6487176,50.7909539 C13.9748223,50.6452647 14.3280492,50.5702127 14.6847861,50.5698113 L73.1666939,50.617973 C73.4159789,50.6187757 73.6592811,50.691821 73.8678828,50.8290819 C74.0764845,50.9659415 74.2408132,51.1613978 74.3409261,51.3905674 C74.4414378,51.6197369 74.4733463,51.87379 74.4330618,52.1210202 C74.3927774,52.3682504 74.2822942,52.598624 74.1143759,52.7836453 L61.6604949,66.5819795 C61.4203835,66.848073 61.1272243,67.060386 60.8009601,67.2060752 C60.474297,67.3513631 60.1209106,67.4264151 59.7635356,67.4264151 L1.2833029,67.3782534 C1.03425719,67.377852 0.790699739,67.3044054 0.582241618,67.1675458 C0.373783498,67.0302849 0.209390993,66.8352299 0.109038813,66.605659 C0.00868663337,66.3764895 -0.0233494837,66.1224364 0.0168871135,65.8752062 C0.0570918023,65.627976 0.167846147,65.3980038 0.335620952,65.2125811 L12.7894222,51.4142469 Z M74.1143759,39.9287186 C74.2822942,40.1140539 74.3927774,40.3439178 74.4330618,40.5910315 C74.4733463,40.8381452 74.4414378,41.0920786 74.3409261,41.3211401 C74.2408132,41.5506028 74.0764845,41.7455659 73.8678828,41.8827621 C73.6592811,42.0195572 73.4159789,42.0929692 73.1666939,42.0933704 L14.6863815,42.1415094 C14.3293256,42.1415094 13.9760987,42.0664928 13.6493558,41.9212734 C13.3226129,41.7756528 13.029693,41.5634399 12.7894222,41.2974718 L0.335620952,27.4976964 C0.167846147,27.3125216 0.0570918023,27.0824171 0.0168871135,26.8353034 C-0.0233494837,26.5881897 0.00868663337,26.3343365 0.109038813,26.1051947 C0.209390993,25.876053 0.373783498,25.6809294 0.582241618,25.5438936 C0.790699739,25.4068579 1.03425719,25.3336865 1.2833029,25.3330447 L59.765131,25.2849057 C60.1221071,25.2852266 60.4750947,25.3603235 60.801359,25.5057033 C61.1280221,25.6510832 61.4203835,25.8632159 61.6604949,26.1289433 L74.1143759,39.9287186 Z M12.7894222,0.844436183 C13.029693,0.578679594 13.3222938,0.366286235 13.6487176,0.220869829 C13.9748223,0.075485531 14.3280492,0.000224754878 14.6847861,0 L73.1666939,0.0481617595 C73.4159789,0.0486754849 73.6592811,0.121945575 73.8678828,0.259078158 C74.0764845,0.396210741 74.2408132,0.591297975 74.3409261,0.820644274 C74.4414378,1.05002268 74.4733463,1.30377094 74.4330618,1.55106552 C74.3927774,1.79834806 74.2822942,2.02856127 74.1143759,2.2138235 L61.6604949,16.0121676 C61.4203835,16.2780205 61.1272243,16.4905744 60.8009601,16.6360229 C60.474297,16.7814714 60.1209106,16.8566038 59.7635356,16.8566038 L1.2833029,16.808442 C1.03425719,16.8077999 0.790699739,16.734594 0.582241618,16.5974935 C0.373783498,16.460393 0.209390993,16.2651774 0.109038813,16.0359274 C0.00868663337,15.8066774 -0.0233494837,15.5527044 0.0168871135,15.305474 C0.0570918023,15.0582437 0.167846147,14.8280305 0.335620952,14.6427682 L12.7894222,0.844436183 Z" id="Shape"></path>
                </g>
            </g>
        </g>
    </g>
</svg>