<svg width="32" height="32" viewBox="0 0 32 32" fill="none" xmlns="http://www.w3.org/2000/svg">
<g clip-path="url(#clip0_2403_20161)">
<path d="M16 32C24.8366 32 32 24.8366 32 16C32 7.16344 24.8366 0 16 0C7.16344 0 0 7.16344 0 16C0 24.8366 7.16344 32 16 32Z" fill="black"/>
<path d="M16.015 8C13.82 8 12.0437 9.7763 12.0437 11.9712V13.4596C11.273 13.5991 10.5 13.7852 10.5 14.0266V21.794C10.5 21.794 10.5 22.0089 10.7414 22.1107C11.6163 22.4651 15.0581 23.6833 15.8488 23.9623C15.9507 24 15.9795 24 16.0061 24C16.0437 24 16.0615 24 16.1633 23.9623C16.954 23.6833 20.4048 22.4651 21.2796 22.1107C21.5033 22.0177 21.5122 21.8029 21.5122 21.8029V14.0266C21.5122 13.7852 20.7503 13.5903 19.9773 13.4596V11.9712C19.9884 9.7763 18.201 8 16.015 8ZM16.015 9.89812C17.3084 9.89812 18.0903 10.68 18.0903 11.9734V13.2669C16.6395 13.165 15.4014 13.165 13.9419 13.2669V11.9734C13.9419 10.6777 14.7237 9.89812 16.015 9.89812ZM16.0061 15.1716C17.8112 15.1716 19.3261 15.3112 19.3261 15.5615V20.4075C19.3261 20.4828 19.3173 20.4917 19.2508 20.5183C19.1866 20.5471 16.1722 21.6346 16.1722 21.6346C16.1722 21.6346 16.0504 21.6722 16.015 21.6722C15.9773 21.6722 15.8577 21.6257 15.8577 21.6257C15.8577 21.6257 12.8433 20.5382 12.7791 20.5094C12.7148 20.4806 12.7038 20.4718 12.7038 20.3987V15.5526C12.686 15.3023 14.201 15.1716 16.0061 15.1716Z" fill="white"/>
</g>
<defs>
<clipPath id="clip0_2403_20161">
<rect width="32" height="32" rx="16" fill="white"/>
</clipPath>
</defs>
</svg>
