<svg width="16" height="16" viewBox="0 0 16 16" fill="none" xmlns="http://www.w3.org/2000/svg">
<circle cx="8" cy="8" r="8" fill="#F7931A"/>
<path d="M11.141 5.90881C11.0194 4.83937 10.0884 4.49639 8.91907 4.41448L8.89311 2.92857L7.98865 2.94445L8.01396 4.3912C7.77619 4.39538 7.53322 4.40432 7.29183 4.41335L7.26655 2.95702L6.36257 2.97278L6.38817 4.45827C6.19242 4.46569 6.00018 4.47268 5.81267 4.47608L5.81247 4.47147L4.56499 4.49282L4.58209 5.45881C4.58209 5.45881 5.24977 5.43442 5.23889 5.44691C5.60524 5.44063 5.72819 5.65123 5.76608 5.83416L5.79571 7.52692C5.82099 7.52662 5.85399 7.52709 5.89142 7.53156C5.86129 7.53213 5.82903 7.53249 5.79588 7.53335L5.83704 9.90475C5.82298 10.0203 5.75841 10.2053 5.50246 10.2103C5.51421 10.2203 4.84498 10.2216 4.84498 10.2216L4.68413 11.3048L5.86116 11.2843C6.0802 11.2807 6.29578 11.2806 6.50739 11.2783L6.534 12.7811L7.43749 12.7655L7.41151 11.2786C7.65967 11.2794 7.89978 11.2771 8.13415 11.2728L8.15959 12.7529L9.06405 12.737L9.03815 11.2369C10.5572 11.1231 11.6148 10.7214 11.722 9.2912C11.8086 8.13953 11.2588 7.63593 10.392 7.44372C10.9118 7.16754 11.2314 6.69134 11.141 5.90881V5.90881ZM9.93175 9.1443C9.95185 10.2674 8.02663 10.1732 7.41366 10.1845L7.37913 8.19331C7.99229 8.18275 9.91137 7.97291 9.93175 9.1443ZM9.46205 6.34239C9.47961 7.36416 7.87377 7.27292 7.36319 7.28188L7.33172 5.47599C7.8423 5.46703 9.44334 5.27667 9.46205 6.34239V6.34239Z" fill="white"/>
</svg>
