<svg width="32" height="32" viewBox="0 0 32 32" fill="none" xmlns="http://www.w3.org/2000/svg">
<path d="M16 32C24.8366 32 32 24.8366 32 16C32 7.16344 24.8366 0 16 0C7.16344 0 0 7.16344 0 16C0 24.8366 7.16344 32 16 32Z" fill="#242A2E"/>
<path d="M8.87033 7.75035H5.95578L12.0212 13.6838C14.2177 15.8314 17.779 15.8314 19.9771 13.6838L26.0449 7.75035H23.128L18.5199 12.2576C17.8485 12.9114 16.9436 13.2779 16.0009 13.2779C15.0583 13.2779 14.1534 12.9114 13.482 12.2576L8.87033 7.75035Z" fill="white"/>
<path d="M23.1666 24.2498H26.0831L19.9783 18.2798C17.7818 16.1322 14.2205 16.1322 12.0224 18.2798L5.91758 24.2498H8.83213L13.4797 19.706C14.1511 19.0522 15.0559 18.6857 15.9986 18.6857C16.9413 18.6857 17.8461 19.0522 18.5175 19.706L23.1666 24.2498Z" fill="white"/>
</svg>
