<svg width="32" height="32" viewBox="0 0 32 32" fill="none" xmlns="http://www.w3.org/2000/svg">
<g clip-path="url(#clip0_2379_17322)">
<path d="M16 32C24.8366 32 32 24.8366 32 16C32 7.16344 24.8366 0 16 0C7.16344 0 0 7.16344 0 16C0 24.8366 7.16344 32 16 32Z" fill="black"/>
<path fill-rule="evenodd" clip-rule="evenodd" d="M16 29.0147C23.1878 29.0147 29.0146 23.1878 29.0146 16C29.0146 8.8122 23.1878 2.98533 16 2.98533C8.81217 2.98533 2.9853 8.8122 2.9853 16C2.9853 23.1878 8.81217 29.0147 16 29.0147ZM30.7924 16C30.7924 24.1697 24.1696 30.7925 16 30.7925C7.83033 30.7925 1.20752 24.1697 1.20752 16C1.20752 7.83036 7.83033 1.20755 16 1.20755C24.1696 1.20755 30.7924 7.83036 30.7924 16Z" fill="white"/>
<path d="M18.8176 21.3333C18.7169 21.2327 18.7169 21.0314 18.6163 20.8302C18.6163 20.6289 18.5157 20.4277 18.5157 20.2264C18.3144 20.4277 18.1132 20.5283 17.9119 20.7296C17.7106 20.9308 17.4088 21.0314 17.2075 21.1321C16.9056 21.2327 16.7043 21.3333 16.3018 21.434C15.9999 21.5346 15.5974 21.5346 15.2955 21.5346C14.6918 21.5346 14.1886 21.434 13.6855 21.2327C13.1823 21.0314 12.7798 20.8302 12.3773 20.5283C11.9748 20.2264 11.7735 19.8239 11.5723 19.4214C11.371 19.0189 11.2704 18.5157 11.2704 18.0126C11.2704 16.805 11.7735 15.7987 12.6792 15.195C13.5849 14.4906 14.9937 14.1887 16.805 14.1887H18.5157V13.4843C18.5157 12.8805 18.3144 12.478 18.0125 12.1761C17.61 11.8742 17.1069 11.673 16.4025 11.673C15.7987 11.673 15.3962 11.7736 15.0943 12.0755C14.7924 12.3774 14.6918 12.6792 14.6918 13.0818H11.6729C11.6729 12.5786 11.7735 12.0755 11.9748 11.673C12.176 11.2704 12.4779 10.8679 12.9811 10.4654C13.3836 10.1635 13.8867 9.86163 14.4905 9.66038C15.0943 9.45912 15.7987 9.35849 16.6037 9.35849C17.3081 9.35849 17.9119 9.45912 18.5157 9.66038C19.1194 9.86163 19.6226 10.0629 20.1257 10.4654C20.5282 10.7673 20.9308 11.2704 21.132 11.7736C21.3333 12.2767 21.5345 12.8805 21.5345 13.5849V18.6164C21.5345 19.2201 21.5345 19.7233 21.6352 20.1258C21.7358 20.5283 21.8364 20.9308 21.9371 21.1321V21.3333H18.8176ZM15.8993 19.2201C16.2012 19.2201 16.5031 19.2201 16.7043 19.1195C17.0062 19.0189 17.2075 18.9182 17.4088 18.8176C17.61 18.717 17.8113 18.6164 17.9119 18.4151C18.0125 18.3145 18.2138 18.1132 18.3144 18.0126V16H16.805C16.3018 16 15.8993 16 15.5974 16.1006C15.2955 16.2013 14.9937 16.3019 14.7924 16.5031C14.5911 16.7044 14.3899 16.805 14.2893 17.1069C14.1886 17.3082 14.1886 17.6101 14.1886 17.8113C14.1886 18.2138 14.2893 18.5157 14.5911 18.8176C14.893 19.1195 15.3962 19.2201 15.8993 19.2201Z" fill="white"/>
</g>
<defs>
<clipPath id="clip0_2379_17322">
<rect width="32" height="32" fill="white"/>
</clipPath>
</defs>
</svg>
