<svg width="32" height="32" viewBox="0 0 32 32" fill="none" xmlns="http://www.w3.org/2000/svg">
<circle cx="16" cy="16" r="16" fill="#F3BA2C"/>
<g clip-path="url(#clip0_2379_17220)">
<path d="M11.6501 14.2126L16.0003 9.86231L20.3526 14.2145L22.8838 11.6833L16.0003 4.79991L9.11906 11.6812L11.6502 14.2124L11.6501 14.2126ZM4.80035 15.9999L7.33163 13.4683L9.86273 15.9994L7.33145 18.5307L4.80035 15.9999ZM11.6501 17.7875L16.0003 22.1375L20.3525 17.7855L22.8851 20.3153L22.8838 20.3167L16.0003 27.1999L9.11906 20.3186L9.11547 20.315L11.6503 17.7873L11.6501 17.7875ZM22.1379 16.001L24.6692 13.4697L27.2003 16.0008L24.6691 18.5321L22.1379 16.001Z" fill="white"/>
<path d="M18.5675 15.9986H18.5686L16.0003 13.4301L14.102 15.3279L13.8839 15.5461L13.4341 15.996L13.4305 15.9995L13.4341 16.0031L16.0003 18.5697L18.5688 16.0013L18.57 15.9998L18.5677 15.9986" fill="white"/>
</g>
<defs>
<clipPath id="clip0_2379_17220">
<rect width="22.4" height="22.4" fill="white" transform="translate(4.80035 4.79991)"/>
</clipPath>
</defs>
</svg>
