<svg width="32" height="32" viewBox="0 0 32 32" fill="none" xmlns="http://www.w3.org/2000/svg">
<path d="M15.6512 2C11.8101 2 8.70155 5.10853 8.70155 8.94961V11.5543C7.35271 11.7984 6 12.124 6 12.5465V26.1395C6 26.1395 6 26.5155 6.42248 26.6938C7.95349 27.314 13.9767 29.4457 15.3605 29.9341C15.5388 30 15.5891 30 15.6357 30C15.7015 30 15.7326 30 15.9109 29.9341C17.2946 29.4457 23.3333 27.314 24.8643 26.6938C25.2558 26.531 25.2713 26.155 25.2713 26.155V12.5465C25.2713 12.124 23.938 11.7829 22.5853 11.5543V8.94961C22.6046 5.10853 19.4767 2 15.6512 2ZM15.6512 5.32171C17.9147 5.32171 19.2829 6.68992 19.2829 8.95349V11.2171C16.7442 11.0388 14.5775 11.0388 12.0233 11.2171V8.95349C12.0233 6.68605 13.3915 5.32171 15.6512 5.32171ZM15.6357 14.5504C18.7946 14.5504 21.4457 14.7946 21.4457 15.2326V23.7132C21.4457 23.845 21.4302 23.8605 21.314 23.907C21.2015 23.9574 15.9264 25.8605 15.9264 25.8605C15.9264 25.8605 15.7132 25.9264 15.6512 25.9264C15.5853 25.9264 15.376 25.845 15.376 25.845C15.376 25.845 10.1008 23.9419 9.98837 23.8915C9.87597 23.8411 9.85659 23.8256 9.85659 23.6977V15.2171C9.82558 14.7791 12.4767 14.5504 15.6357 14.5504Z" fill="black"/>
</svg>
