<svg width="32" height="32" viewBox="0 0 32 32" fill="none" xmlns="http://www.w3.org/2000/svg">
<g clip-path="url(#clip0_2379_17266)">
<path d="M15.9957 31.9887C24.8127 31.9887 31.9603 24.8412 31.9603 16.0242C31.9603 7.20717 24.8127 0.0596466 15.9957 0.0596466C7.17878 0.0596466 0.03125 7.20717 0.03125 16.0242C0.03125 24.8412 7.17878 31.9887 15.9957 31.9887Z" fill="#C8ECE1"/>
<path d="M6.08923 12.2213C5.89164 12.0373 6.07601 11.8075 6.23782 11.6811C6.44085 11.4908 6.64195 11.2843 6.83254 11.1023C7.68089 10.2388 8.52956 9.4002 9.488 8.66697C9.61869 8.23522 10.2224 8.5919 9.96714 8.93929C8.7703 9.89184 7.68515 10.9864 6.60305 12.0697L6.61744 12.0553C6.62098 12.0523 6.62423 12.049 6.62717 12.0456C6.49103 12.196 6.28605 12.4018 6.08923 12.2213Z" fill="#308D8A"/>
<path d="M22.4039 12.5442C22.3804 12.5155 22.3631 12.4824 22.3529 12.4467C22.3427 12.4111 22.3399 12.3738 22.3446 12.337C22.3493 12.3004 22.3615 12.265 22.3804 12.2331C22.3993 12.2012 22.4245 12.1735 22.4544 12.1517C23.5276 10.9771 24.5696 9.77909 25.6984 8.65533C25.7987 8.51803 26.0423 8.50285 26.1329 8.66661C26.2231 8.81483 26.1446 8.96922 26.0321 9.07814C25.7805 9.36053 25.4961 9.61065 25.2379 9.8868C24.5766 10.5694 23.9543 11.2836 23.332 12C23.0737 12.205 22.7812 12.8721 22.4039 12.5442Z" fill="#308D8A"/>
<path d="M9.82955 9.01158C9.76398 9.00853 9.7019 8.98107 9.65557 8.9346C9.60923 8.88805 9.58192 8.8259 9.57908 8.76034C9.57844 8.72294 9.58561 8.68576 9.60015 8.65128C9.6147 8.6168 9.63627 8.58579 9.66351 8.56011C9.69076 8.53449 9.72304 8.51484 9.75838 8.50242C9.79364 8.49001 9.83118 8.48511 9.8685 8.48802C10.2061 8.44254 10.5075 8.41416 10.8408 8.39585C15.7718 8.05592 20.7376 8.19598 25.6627 8.45148C25.8073 8.43984 25.9349 8.5721 25.9373 8.71209C25.9287 9.09133 25.4756 8.97461 25.2267 8.9727C20.1091 8.70627 14.9432 8.56082 9.82955 9.01158Z" fill="#308D8A"/>
<path d="M22.0954 12.7623C22.0149 12.7592 21.9398 12.7561 21.8768 12.7623C19.03 12.6025 16.1704 12.6223 13.3139 12.6418C11.2811 12.6562 9.24958 12.6694 7.22741 12.6196C7.15191 12.5782 7.06978 12.5505 6.9847 12.5375C6.85787 12.4945 6.72779 12.4617 6.59573 12.4395C6.54478 12.4286 6.49344 12.4189 6.44248 12.4092C6.42187 12.4014 6.40359 12.3951 6.38259 12.3885C6.31244 12.366 6.23921 12.3546 6.16554 12.3547C6.16126 12.3547 6.1566 12.3547 6.15232 12.3528C6.15629 12.3536 6.16032 12.3543 6.16438 12.3547H6.1601C6.10141 12.3445 6.04219 12.3378 5.98273 12.3345C5.9876 12.2977 6.00061 12.2625 6.02079 12.2314C6.04098 12.2004 6.06784 12.1742 6.09942 12.1548C6.27212 12.0331 6.48838 12.0287 6.68948 12.056C7.52924 12.1645 8.37018 12.1408 9.21346 12.1179C9.71908 12.105 10.2248 12.091 10.7304 12.1061C11.9047 12.1287 13.0805 12.119 14.2563 12.1093C15.725 12.0972 17.1953 12.0856 18.6633 12.1384C19.3194 12.1268 19.9767 12.1517 20.6329 12.1773C21.2218 12.2011 21.8107 12.224 22.3988 12.2209C22.4352 12.2112 22.4732 12.2091 22.5105 12.2148C22.5478 12.2204 22.5835 12.2337 22.6154 12.2538C22.6473 12.2739 22.6747 12.3003 22.6959 12.3315C22.7172 12.3626 22.7317 12.3978 22.7388 12.4348C22.7559 12.725 22.5093 12.7678 22.2545 12.7678C22.2024 12.7662 22.1479 12.7642 22.0954 12.7623Z" fill="#308D8A"/>
<path d="M6.8847 12.5219H6.90756C6.90093 12.5234 6.89245 12.5234 6.8847 12.5219Z" fill="#308D8A"/>
<path d="M6.38332 12.3866C6.31325 12.3639 6.23996 12.3526 6.16629 12.3531C6.16201 12.3531 6.15735 12.3532 6.15307 12.3509C6.15735 12.3509 6.16201 12.3509 6.16512 12.3531H6.16085C6.08961 12.3392 6.0172 12.3319 5.94459 12.3314H5.92242C5.89863 12.2796 5.88966 12.2221 5.89653 12.1655C5.9034 12.1088 5.92582 12.0552 5.96131 12.0105C6.05583 11.89 6.1309 11.7063 6.30787 11.7029C6.60115 11.7051 6.65015 12.0397 6.46345 12.2158C6.4676 12.2476 6.4653 12.28 6.45668 12.3109C6.44806 12.3417 6.43329 12.3705 6.41327 12.3956L6.38332 12.3866Z" fill="#308D8A"/>
<path d="M7.44324 12.6682C7.19582 12.6612 6.93485 12.6391 6.6937 12.6355C6.4366 12.6107 6.14489 12.683 5.90996 12.5578C5.54706 12.3038 6.13477 11.5706 6.45876 11.6406C6.66413 11.6861 6.75204 11.9701 6.5735 12.1047C6.88467 12.1124 7.18454 12.1264 7.49532 12.1435C7.8349 12.1824 7.78395 12.6943 7.44324 12.6682Z" fill="#308D8A"/>
<path d="M22.039 14.5057C16.9242 14.3093 11.8058 14.5003 6.68904 14.44C6.36581 14.4272 6.35376 13.9292 6.68904 13.9176C11.9349 13.9592 17.1816 13.8009 22.4252 13.9817C22.7621 13.974 22.7893 14.4921 22.4428 14.5069C22.307 14.5108 22.1721 14.5096 22.039 14.5057Z" fill="#308D8A"/>
<path d="M25.2872 18.3106C22.2257 18.1604 19.1501 18.2418 16.0817 18.202C14.9093 18.1849 13.7444 18.1149 12.5733 18.1476C11.7389 18.1344 10.898 18.3087 10.0687 18.2499C9.76342 18.1682 9.82799 17.7116 10.1543 17.7337C11.8408 17.6785 13.5344 17.533 15.2251 17.6626C17.4644 17.6964 19.7048 17.6626 21.9444 17.7174C23.0724 17.7268 24.2047 17.6762 25.3284 17.7862C25.5618 17.7936 25.9371 17.7154 25.9605 18.0422C25.9511 18.4012 25.5237 18.3098 25.2794 18.3106H25.2872Z" fill="#308D8A"/>
<path d="M9.87498 18.1771L9.85242 18.1576L9.84149 18.1491C9.85355 18.1584 9.86604 18.1689 9.88038 18.1783C8.53035 17.1028 7.46889 15.7371 6.31018 14.4734C6.03324 14.2552 6.35763 13.851 6.61862 14.0483C7.63223 15.0646 8.46188 16.2471 9.5564 17.1829C9.78203 17.4085 10.0275 17.6022 10.2593 17.8119C10.4669 18.0549 10.111 18.398 9.87498 18.1771Z" fill="#308D8A"/>
<path d="M25.6793 18.2933C25.6345 18.2829 25.5932 18.261 25.5595 18.2299C25.5257 18.1988 25.5005 18.1594 25.4864 18.1157C25.4724 18.0719 25.4699 18.0253 25.4792 17.9803C25.4886 17.9353 25.5094 17.8934 25.5397 17.8589C24.591 16.6594 23.4763 15.594 22.3479 14.5672C21.8329 14.3913 22.3479 13.7301 22.6902 14.1634C23.8075 15.1338 24.849 16.1884 25.8053 17.3179C25.9527 17.4898 26.0387 17.6341 26.1609 17.8111C26.3074 18.1164 25.9675 18.3739 25.6793 18.2933Z" fill="#308D8A"/>
<path d="M9.94659 20.1958C9.87925 20.1789 9.82128 20.1364 9.78488 20.0773C9.74856 20.0182 9.73678 19.9473 9.7521 19.8796C9.79099 19.7057 9.96092 19.6629 10.1185 19.685C10.3269 19.6468 10.5373 19.6197 10.7486 19.6038C15.6845 19.3198 20.6531 19.5493 25.6031 19.5236C25.9263 19.5333 25.9418 20.0344 25.605 20.0461C20.389 20.0896 15.131 19.7956 9.94659 20.1958Z" fill="#308D8A"/>
<path d="M6.72565 23.8506C6.35692 23.9035 6.26162 23.3624 6.64787 23.327C7.22507 23.3624 7.79333 23.3075 8.36862 23.2834C13.0976 23.2111 17.8281 23.2966 22.5579 23.3258C22.8535 23.3904 22.8014 23.851 22.4991 23.8444C17.2249 23.8304 11.9584 23.7133 6.6891 23.8487L6.72565 23.8506Z" fill="#308D8A"/>
<path d="M22.4279 23.6813C22.1385 23.4569 22.4668 23.173 22.6449 23.0054C22.6391 23.0115 22.6329 23.017 22.627 23.0225C23.6057 21.9687 24.4696 20.8092 25.4852 19.7909C25.5101 19.4774 26.0029 19.4918 26.0056 19.8088C26.0091 19.8799 25.9957 19.9508 25.9667 20.0157C25.9376 20.0806 25.8937 20.1378 25.8384 20.1826C25.0216 20.9889 24.3354 21.9147 23.5621 22.7622C23.3147 23.0602 23.0456 23.3457 22.788 23.6327C22.7445 23.6838 22.6837 23.717 22.6173 23.726C22.5508 23.7349 22.4834 23.719 22.4279 23.6813Z" fill="#308D8A"/>
<path d="M6.43306 23.6742C5.98809 23.4689 6.41867 23.066 6.62755 22.8695C7.20785 22.2207 7.81387 21.5502 8.45181 20.9667C8.85007 20.5615 9.26863 20.1799 9.69258 19.8034C9.77034 19.7299 9.86996 19.6517 9.97965 19.6533C10.2686 19.642 10.3515 20.0655 10.0776 20.1623C8.91074 21.1802 7.84033 22.3086 6.80685 23.4475C6.71583 23.5813 6.63221 23.7377 6.43306 23.6742Z" fill="#308D8A"/>
<path d="M9.78689 19.8974C15.0772 19.4469 20.4395 19.764 25.7618 19.7289C24.8062 20.8631 23.9637 22.1177 23.02 23.2672L23.0164 23.2713C22.9238 23.3681 22.8027 23.4963 22.7364 23.6306C17.8312 23.5945 12.9239 23.4963 8.01994 23.5815C7.50432 23.6061 6.99687 23.6565 6.48126 23.6463C7.52682 22.3469 8.60999 21.0613 9.78689 19.8974Z" fill="#308D8A"/>
<path d="M25.8517 17.9936C25.7962 17.9936 25.7432 17.9976 25.6955 17.9963C24.5258 17.8701 23.3487 17.9281 22.1754 17.9171C19.846 17.8556 17.515 17.8936 15.1857 17.8556C13.4325 17.7081 11.676 17.8715 9.92568 17.9343C9.71204 17.7294 9.49194 17.536 9.28597 17.3089C8.29269 16.3796 7.50936 15.2369 6.62445 14.1911C11.8403 14.2491 17.0578 14.0464 22.2717 14.2641C22.3396 14.2663 22.4084 14.2677 22.4764 14.2677C22.5124 14.2964 22.5524 14.3185 22.5949 14.3332C23.7424 15.4768 24.8786 16.6624 25.8517 17.9936Z" fill="#308D8A"/>
<path d="M25.8561 8.82489C25.9035 8.82489 25.9583 8.82957 26.0148 8.83432C24.938 9.96802 23.9306 11.1627 22.8946 12.3346C22.8668 12.3545 22.8431 12.3797 22.8247 12.4089C22.2016 12.4128 21.576 12.3875 20.9507 12.3613C20.2499 12.3325 19.5475 12.3046 18.8466 12.3183C17.2788 12.2595 15.7089 12.2728 14.1398 12.2861C12.8839 12.2969 11.6286 12.3076 10.374 12.2822C9.83394 12.2655 9.29384 12.2822 8.75381 12.2956C7.85313 12.3209 6.95498 12.3471 6.05766 12.2273C6.03564 12.2234 6.01612 12.2212 5.99286 12.2187C5.99535 12.2153 5.99743 12.2105 5.99992 12.2067C7.1162 11.0515 8.23698 9.8877 9.46625 8.86348C14.9096 8.37135 20.4065 8.53199 25.8561 8.82489Z" fill="#308D8A"/>
</g>
<defs>
<clipPath id="clip0_2379_17266">
<rect width="32" height="32" fill="white"/>
</clipPath>
</defs>
</svg>
