<svg width="32" height="32" viewBox="0 0 32 32" fill="none" xmlns="http://www.w3.org/2000/svg">
<g clip-path="url(#clip0_2379_17340)">
<mask id="mask0_2379_17340" style="mask-type:alpha" maskUnits="userSpaceOnUse" x="0" y="0" width="32" height="32">
<path fill-rule="evenodd" clip-rule="evenodd" d="M0 0H32V32H0V0Z" fill="white"/>
</mask>
<g mask="url(#mask0_2379_17340)">
<path fill-rule="evenodd" clip-rule="evenodd" d="M16 32C7.2 32 0 24.8 0 15.92C0.08 7.12 7.2 -0.0799958 16.08 4.15801e-06C24.88 0.0800042 32 7.20001 32 16.16C31.92 24.88 24.8 32 16 32Z" fill="#FF060A"/>
<path d="M24.6713 11.7602C23.8822 10.8369 22.7906 9.42689 21.9015 8.4269L21.8489 8.38024C21.7613 8.29117 21.6627 8.22131 21.5569 8.17357C19.4131 7.66691 9.43604 5.30361 9.24139 5.33361C9.18685 5.34329 9.13471 5.36835 9.08883 5.40694L9.03885 5.45694C8.97731 5.53614 8.93057 5.63182 8.90207 5.73694L8.88892 5.78027V6.01694V6.0536C10.0121 10.0169 14.4469 23 15.3202 26.0467C15.3728 26.2533 15.4728 26.6467 15.6596 26.6667H15.7016C15.8016 26.6667 16.2277 25.9533 16.2277 25.9533C16.2277 25.9533 23.8454 14.2468 24.6161 13.0002C24.7158 12.8466 24.8039 12.6814 24.8791 12.5068C24.8983 12.3702 24.8892 12.2297 24.8528 12.0988C24.8164 11.968 24.7539 11.8513 24.6713 11.7602ZM18.1821 13.1235L21.4333 9.70689L23.3403 11.9335L18.1821 13.1235ZM16.9195 12.9002L11.322 7.08692L20.3785 9.20356L16.9195 12.9002ZM17.4246 14.4235L23.1536 13.2535L16.6039 23.2534L17.4246 14.4235ZM10.5618 7.66691L16.4513 14.0002L15.5991 23.26L10.5618 7.66691Z" fill="white"/>
</g>
</g>
<defs>
<clipPath id="clip0_2379_17340">
<rect width="32" height="32" fill="white"/>
</clipPath>
</defs>
</svg>
