<svg width="32" height="32" viewBox="0 0 32 32" fill="none" xmlns="http://www.w3.org/2000/svg">
<g clip-path="url(#clip0_2386_17667)">
<rect width="32" height="32" fill="#F3E5D8"/>
<path d="M25.0039 6.75L17.2 12.5461L18.6431 9.12647L25.0039 6.75Z" fill="#E2761B" stroke="#E2761B" stroke-linecap="round" stroke-linejoin="round"/>
<path d="M6.98825 6.75L14.7294 12.601L13.3569 9.12647L6.98825 6.75Z" fill="#E4761B" stroke="#E4761B" stroke-linecap="round" stroke-linejoin="round"/>
<path d="M22.1961 20.1853L20.1177 23.3696L24.5647 24.5931L25.8431 20.2559L22.1961 20.1853Z" fill="#E4761B" stroke="#E4761B" stroke-linecap="round" stroke-linejoin="round"/>
<path d="M6.16475 20.2559L7.43534 24.5931L11.8824 23.3696L9.80397 20.1853L6.16475 20.2559Z" fill="#E4761B" stroke="#E4761B" stroke-linecap="round" stroke-linejoin="round"/>
<path d="M11.6314 14.8049L10.3922 16.6794L14.8079 16.8755L14.651 12.1304L11.6314 14.8049Z" fill="#E4761B" stroke="#E4761B" stroke-linecap="round" stroke-linejoin="round"/>
<path d="M20.3608 14.8049L17.302 12.0755L17.2 16.8755L21.6078 16.6794L20.3608 14.8049Z" fill="#E4761B" stroke="#E4761B" stroke-linecap="round" stroke-linejoin="round"/>
<path d="M11.8824 23.3696L14.5334 22.0755L12.2432 20.2872L11.8824 23.3696Z" fill="#E4761B" stroke="#E4761B" stroke-linecap="round" stroke-linejoin="round"/>
<path d="M17.4588 22.0755L20.1177 23.3696L19.749 20.2872L17.4588 22.0755Z" fill="#E4761B" stroke="#E4761B" stroke-linecap="round" stroke-linejoin="round"/>
<path d="M20.1177 23.3696L17.4588 22.0755L17.6706 23.8088L17.6471 24.5382L20.1177 23.3696Z" fill="#D7C1B3" stroke="#D7C1B3" stroke-linecap="round" stroke-linejoin="round"/>
<path d="M11.8824 23.3696L14.3529 24.5382L14.3373 23.8088L14.5333 22.0755L11.8824 23.3696Z" fill="#D7C1B3" stroke="#D7C1B3" stroke-linecap="round" stroke-linejoin="round"/>
<path d="M14.3922 19.1422L12.1804 18.4912L13.7412 17.7775L14.3922 19.1422Z" fill="#233447" stroke="#233447" stroke-linecap="round" stroke-linejoin="round"/>
<path d="M17.6 19.1422L18.251 17.7775L19.8196 18.4912L17.6 19.1422Z" fill="#233447" stroke="#233447" stroke-linecap="round" stroke-linejoin="round"/>
<path d="M11.8824 23.3696L12.2588 20.1853L9.80394 20.2559L11.8824 23.3696Z" fill="#CD6116" stroke="#CD6116" stroke-linecap="round" stroke-linejoin="round"/>
<path d="M19.7412 20.1853L20.1177 23.3696L22.1961 20.2559L19.7412 20.1853Z" fill="#CD6116" stroke="#CD6116" stroke-linecap="round" stroke-linejoin="round"/>
<path d="M21.6079 16.6794L17.2 16.8755L17.6079 19.1422L18.2588 17.7775L19.8275 18.4912L21.6079 16.6794Z" fill="#CD6116" stroke="#CD6116" stroke-linecap="round" stroke-linejoin="round"/>
<path d="M12.1804 18.4912L13.749 17.7775L14.3922 19.1422L14.8079 16.8755L10.3922 16.6794L12.1804 18.4912Z" fill="#CD6116" stroke="#CD6116" stroke-linecap="round" stroke-linejoin="round"/>
<path d="M10.3922 16.6794L12.2431 20.2873L12.1804 18.4912L10.3922 16.6794Z" fill="#E4751F" stroke="#E4751F" stroke-linecap="round" stroke-linejoin="round"/>
<path d="M19.8274 18.4912L19.749 20.2873L21.6078 16.6794L19.8274 18.4912Z" fill="#E4751F" stroke="#E4751F" stroke-linecap="round" stroke-linejoin="round"/>
<path d="M14.8078 16.8755L14.3922 19.1422L14.9098 21.8167L15.0274 18.2952L14.8078 16.8755Z" fill="#E4751F" stroke="#E4751F" stroke-linecap="round" stroke-linejoin="round"/>
<path d="M17.2 16.8755L16.9882 18.2873L17.0823 21.8167L17.6078 19.1422L17.2 16.8755Z" fill="#E4751F" stroke="#E4751F" stroke-linecap="round" stroke-linejoin="round"/>
<path d="M17.6078 19.1421L17.0824 21.8166L17.4588 22.0755L19.749 20.2872L19.8274 18.4911L17.6078 19.1421Z" fill="#F6851B" stroke="#F6851B" stroke-linecap="round" stroke-linejoin="round"/>
<path d="M12.1804 18.4911L12.2431 20.2872L14.5333 22.0755L14.9098 21.8166L14.3922 19.1421L12.1804 18.4911Z" fill="#F6851B" stroke="#F6851B" stroke-linecap="round" stroke-linejoin="round"/>
<path d="M17.6471 24.5383L17.6706 23.8088L17.4745 23.6363H14.5176L14.3373 23.8088L14.3529 24.5383L11.8824 23.3696L12.7451 24.0755L14.4941 25.2912H17.498L19.2549 24.0755L20.1176 23.3696L17.6471 24.5383Z" fill="#C0AD9E" stroke="#C0AD9E" stroke-linecap="round" stroke-linejoin="round"/>
<path d="M17.4588 22.0755L17.0823 21.8167H14.9098L14.5333 22.0755L14.3372 23.8088L14.5176 23.6363H17.4745L17.6706 23.8088L17.4588 22.0755Z" fill="#161616" stroke="#161616" stroke-linecap="round" stroke-linejoin="round"/>
<path d="M25.3333 12.9225L26 9.72255L25.0039 6.75L17.4588 12.35L20.3608 14.8049L24.4627 16.0049L25.3725 14.9461L24.9804 14.6637L25.6078 14.0912L25.1216 13.7147L25.749 13.2363L25.3333 12.9225Z" fill="#763D16" stroke="#763D16" stroke-linecap="round" stroke-linejoin="round"/>
<path d="M6 9.72255L6.66667 12.9225L6.24314 13.2363L6.87059 13.7147L6.39216 14.0912L7.01961 14.6637L6.62745 14.9461L7.52941 16.0049L11.6314 14.8049L14.5333 12.35L6.98824 6.75L6 9.72255Z" fill="#763D16" stroke="#763D16" stroke-linecap="round" stroke-linejoin="round"/>
<path d="M24.4627 16.0049L20.3608 14.8049L21.6078 16.6794L19.749 20.2873L22.1961 20.2559H25.8431L24.4627 16.0049Z" fill="#F6851B" stroke="#F6851B" stroke-linecap="round" stroke-linejoin="round"/>
<path d="M11.6314 14.8049L7.52939 16.0049L6.16469 20.2559H9.8039L12.2431 20.2873L10.3921 16.6794L11.6314 14.8049Z" fill="#F6851B" stroke="#F6851B" stroke-linecap="round" stroke-linejoin="round"/>
<path d="M17.2 16.8755L17.4588 12.35L18.651 9.12646H13.3569L14.5333 12.35L14.8078 16.8755L14.902 18.3029L14.9098 21.8167H17.0823L17.098 18.3029L17.2 16.8755Z" fill="#F6851B" stroke="#F6851B" stroke-linecap="round" stroke-linejoin="round"/>
</g>
<defs>
<clipPath id="clip0_2386_17667">
<rect width="32" height="32" rx="12" fill="white"/>
</clipPath>
</defs>
</svg>
