<svg width="32" height="32" viewBox="0 0 32 32" fill="none" xmlns="http://www.w3.org/2000/svg">
<path d="M19.5941 3H12.3811C12.1354 3 11.9475 3.20237 11.9475 3.4481C11.8029 10.4298 8.26147 17.0646 2.17596 21.7624C1.98805 21.907 1.94468 22.1961 2.07478 22.3985L6.2956 28.4117C6.44015 28.6141 6.7148 28.6574 6.91716 28.5129C10.7333 25.593 13.7977 22.0804 15.9948 18.1776C18.2064 22.0804 21.2709 25.593 25.0725 28.5129C25.2749 28.6574 25.5495 28.6141 25.6941 28.4117L29.9149 22.3985C30.0594 22.1961 30.0161 21.9214 29.8137 21.7624C23.7137 17.0646 20.1867 10.4443 20.0422 3.4481C20.0277 3.20237 19.8254 3 19.5941 3Z" fill="#FF875B"/>
</svg>
