<svg width="32" height="32" viewBox="0 0 32 32" fill="none" xmlns="http://www.w3.org/2000/svg">
<rect width="32" height="32" rx="16" fill="#E7007A"/>
<path d="M15.9982 8.60683C18.5476 8.60683 20.6144 7.42389 20.6144 5.96465C20.6144 4.50542 18.5476 3.32248 15.9982 3.32248C13.4487 3.32248 11.382 4.50542 11.382 5.96465C11.382 7.42389 13.4487 8.60683 15.9982 8.60683Z" fill="white"/>
<path d="M15.9982 28.7115C18.5476 28.7115 20.6144 27.5286 20.6144 26.0693C20.6144 24.6101 18.5476 23.4272 15.9982 23.4272C13.4487 23.4272 11.382 24.6101 11.382 26.0693C11.382 27.5286 13.4487 28.7115 15.9982 28.7115Z" fill="white"/>
<path d="M9.6124 12.3334C10.8783 10.141 10.87 7.76645 9.59405 7.02974C8.31807 6.29303 6.25751 7.47314 4.99166 9.66558C3.72582 11.858 3.73403 14.2326 5.01002 14.9693C6.286 15.706 8.34656 14.5259 9.6124 12.3334Z" fill="white"/>
<path d="M27.0069 22.3766C28.2727 20.1841 28.2652 17.81 26.9901 17.0738C25.715 16.3375 23.6551 17.5181 22.3892 19.7105C21.1234 21.903 21.1309 24.2771 22.406 25.0133C23.6812 25.7495 25.741 24.569 27.0069 22.3766Z" fill="white"/>
<path d="M9.59405 25.0129C10.87 24.2762 10.8783 21.9016 9.6124 19.7092C8.34656 17.5167 6.286 16.3366 5.01002 17.0733C3.73403 17.81 3.72582 20.1846 4.99166 22.377C6.25751 24.5695 8.31807 25.7496 9.59405 25.0129Z" fill="white"/>
<path d="M26.9918 14.97C28.2669 14.2338 28.2744 11.8597 27.0086 9.66721C25.7427 7.47476 23.6829 6.29425 22.4077 7.03046C21.1326 7.76668 21.1251 10.1408 22.391 12.3333C23.6568 14.5257 25.7167 15.7062 26.9918 14.97Z" fill="white"/>
</svg>
