<svg width="32" height="32" viewBox="0 0 32 32" fill="none" xmlns="http://www.w3.org/2000/svg">
<path d="M10.1688 12.3562C13.3875 9.21248 18.6125 9.21248 21.8313 12.3562L22.2188 12.7375C22.3813 12.8937 22.3813 13.15 22.2188 13.3062L20.8938 14.6C20.8125 14.6812 20.6813 14.6812 20.6 14.6L20.0688 14.0812C17.8188 11.8875 14.1813 11.8875 11.9313 14.0812L11.3625 14.6375C11.2813 14.7187 11.15 14.7187 11.0688 14.6375L9.74376 13.3437C9.58126 13.1875 9.58126 12.9312 9.74376 12.775L10.1688 12.3562ZM24.575 15.0312L25.7563 16.1812C25.9188 16.3375 25.9188 16.5937 25.7563 16.75L20.4375 21.9437C20.275 22.1 20.0125 22.1 19.8563 21.9437L16.0813 18.2562C16.0438 18.2187 15.975 18.2187 15.9375 18.2562L12.1625 21.9437C12 22.1 11.7375 22.1 11.5813 21.9437L6.24376 16.75C6.08126 16.5937 6.08126 16.3375 6.24376 16.1812L7.42501 15.0312C7.58751 14.875 7.85001 14.875 8.00626 15.0312L11.7813 18.7187C11.8188 18.7562 11.8875 18.7562 11.925 18.7187L15.7 15.0312C15.8625 14.875 16.125 14.875 16.2813 15.0312L20.0563 18.7187C20.0938 18.7562 20.1625 18.7562 20.2 18.7187L23.975 15.0312C24.15 14.875 24.4125 14.875 24.575 15.0312Z" fill="url(#paint0_radial_2386_18162)"/>
<defs>
<radialGradient id="paint0_radial_2386_18162" cx="0" cy="0" r="1" gradientUnits="userSpaceOnUse" gradientTransform="translate(6.12195 16.0299) scale(19.7562 12.0625)">
<stop stop-color="#5D9DF6"/>
<stop offset="1" stop-color="#006FFF"/>
</radialGradient>
</defs>
</svg>
