<svg width="32" height="32" viewBox="0 0 32 32" fill="none" xmlns="http://www.w3.org/2000/svg">
<path fill-rule="evenodd" clip-rule="evenodd" d="M28.5523 7.67653L29.3018 5.83444C29.3018 5.83444 28.3479 4.81105 27.1895 3.65122C26.0311 2.49138 23.5781 3.17364 23.5781 3.17364L20.7843 0.00012207H15.8782H10.9721L8.17833 3.17364C8.17833 3.17364 5.72528 2.49138 4.56689 3.65122C3.40851 4.81105 2.45454 5.83444 2.45454 5.83444L3.20409 7.67653L2.25012 10.4056C2.25012 10.4056 5.0558 21.0457 5.38458 22.345C6.03191 24.9035 6.47482 25.8928 8.31461 27.1891C10.1544 28.4853 13.4933 30.7368 14.0384 31.0779C14.5835 31.419 15.2649 32.0001 15.8782 32.0001C16.4915 32.0001 17.1729 31.419 17.718 31.0779C18.2631 30.7368 21.602 28.4853 23.4418 27.1891C25.2816 25.8928 25.7245 24.9035 26.3718 22.345C26.7005 21.0457 29.5063 10.4056 29.5063 10.4056L28.5523 7.67653Z" fill="url(#paint0_linear_2386_18350)"/>
<path fill-rule="evenodd" clip-rule="evenodd" d="M22.7943 5.18619C22.7943 5.18619 26.3878 9.53557 26.3878 10.4651C26.3878 11.3947 25.9358 11.6401 25.4813 12.1233C25.0268 12.6065 23.0418 14.717 22.7869 14.988C22.5319 15.2591 22.0013 15.67 22.3134 16.4096C22.6256 17.1493 23.0861 18.0905 22.574 19.0451C22.0618 19.9997 21.1845 20.6368 20.6224 20.5315C20.0602 20.4261 18.74 19.7353 18.2545 19.4198C17.769 19.1042 16.2303 17.8336 16.2303 17.3474C16.2303 16.8613 17.8209 15.9884 18.1147 15.7901C18.4086 15.5918 19.749 14.8242 19.7764 14.5229C19.8038 14.2216 19.7934 14.1332 19.3978 13.3888C19.0023 12.6442 18.2899 11.6507 18.4085 10.9897C18.5271 10.3287 19.6759 9.98498 20.4958 9.67496C21.3155 9.36501 22.894 8.77957 23.0911 8.68855C23.2884 8.59747 23.2374 8.51076 22.64 8.45406C22.0428 8.39737 20.3477 8.17209 19.5835 8.38536C18.8193 8.59863 17.5137 8.92311 17.408 9.09518C17.3022 9.26724 17.209 9.27304 17.3176 9.86661C17.4261 10.4602 17.9853 13.3083 18.0395 13.8142C18.0938 14.3201 18.2 14.6545 17.6552 14.7793C17.1104 14.904 16.1933 15.1205 15.8781 15.1205C15.563 15.1205 14.6458 14.904 14.101 14.7793C13.5562 14.6545 13.6623 14.3201 13.7166 13.8142C13.7709 13.3083 14.33 10.4602 14.4386 9.86661C14.5472 9.27304 14.4539 9.26724 14.3482 9.09518C14.2425 8.92311 12.9368 8.59863 12.1726 8.38536C11.4084 8.17209 9.71345 8.39737 9.11613 8.45406C8.51881 8.51076 8.46784 8.59747 8.66504 8.68855C8.86224 8.77957 10.4407 9.36501 11.2604 9.67496C12.0802 9.98498 13.2291 10.3287 13.3477 10.9897C13.4663 11.6507 12.7539 12.6442 12.3584 13.3888C11.9628 14.1332 11.9523 14.2216 11.9798 14.5229C12.0072 14.8242 13.3476 15.5918 13.6415 15.7901C13.9354 15.9884 15.5259 16.8613 15.5259 17.3474C15.5259 17.8336 13.9872 19.1042 13.5017 19.4198C13.0162 19.7353 11.696 20.4261 11.1338 20.5315C10.5717 20.6368 9.69437 19.9997 9.18222 19.0451C8.67015 18.0905 9.13064 17.1493 9.44272 16.4096C9.75488 15.67 9.22427 15.2591 8.96929 14.988C8.71444 14.717 6.72938 12.6065 6.27488 12.1233C5.82038 11.6401 5.36841 11.3947 5.36841 10.4651C5.36841 9.53557 8.96186 5.18619 8.96186 5.18619C8.96186 5.18619 11.9941 5.76611 12.4029 5.76611C12.8118 5.76611 13.6976 5.42498 14.5153 5.15208C15.333 4.87918 15.8781 4.8772 15.8781 4.8772C15.8781 4.8772 16.4232 4.87918 17.2409 5.15208C18.0586 5.42498 18.9444 5.76611 19.3533 5.76611C19.7621 5.76611 22.7943 5.18619 22.7943 5.18619ZM20.1005 21.8234C20.3229 21.9629 20.1872 22.2258 19.9846 22.3692C19.782 22.5126 17.059 24.6238 16.7948 24.8571C16.5305 25.0905 16.1421 25.4759 15.8781 25.4759C15.614 25.4759 15.2256 25.0905 14.9614 24.8571C14.6971 24.6238 11.9742 22.5126 11.7715 22.3692C11.5689 22.2258 11.4333 21.9629 11.6557 21.8234C11.8782 21.6841 12.5741 21.3322 13.5344 20.8347C14.4946 20.3372 15.6913 19.9142 15.8781 19.9142C16.0649 19.9142 17.2615 20.3372 18.2218 20.8347C19.1821 21.3322 19.878 21.6841 20.1005 21.8234Z" fill="white"/>
<mask id="mask0_2386_18350" style="mask-type:alpha" maskUnits="userSpaceOnUse" x="4" y="0" width="24" height="6">
<path d="M23.5779 3.17352L20.7842 0H15.8781H10.972L8.17821 3.17352C8.17821 3.17352 5.72516 2.49126 4.56677 3.65109C4.56677 3.65109 7.83751 3.35547 8.96182 5.18617C8.96182 5.18617 11.9941 5.76609 12.4029 5.76609C12.8118 5.76609 13.6976 5.42496 14.5153 5.15206C15.3329 4.87916 15.8781 4.87718 15.8781 4.87718C15.8781 4.87718 16.4232 4.87916 17.2409 5.15206C18.0586 5.42496 18.9444 5.76609 19.3532 5.76609C19.7621 5.76609 22.7943 5.18617 22.7943 5.18617C23.9186 3.35547 27.1894 3.65109 27.1894 3.65109C26.031 2.49126 23.5779 3.17352 23.5779 3.17352Z" fill="white"/>
</mask>
<g mask="url(#mask0_2386_18350)">
<path d="M23.5779 3.17352L20.7842 0H15.8781H10.972L8.17821 3.17352C8.17821 3.17352 5.72516 2.49126 4.56677 3.65109C4.56677 3.65109 7.83751 3.35547 8.96182 5.18617C8.96182 5.18617 11.9941 5.76609 12.4029 5.76609C12.8118 5.76609 13.6976 5.42496 14.5153 5.15206C15.3329 4.87916 15.8781 4.87718 15.8781 4.87718C15.8781 4.87718 16.4232 4.87916 17.2409 5.15206C18.0586 5.42496 18.9444 5.76609 19.3532 5.76609C19.7621 5.76609 22.7943 5.18617 22.7943 5.18617C23.9186 3.35547 27.1894 3.65109 27.1894 3.65109C26.031 2.49126 23.5779 3.17352 23.5779 3.17352Z" fill="url(#paint1_linear_2386_18350)"/>
</g>
<defs>
<linearGradient id="paint0_linear_2386_18350" x1="2.25012" y1="16.2259" x2="29.5063" y2="16.2259" gradientUnits="userSpaceOnUse">
<stop stop-color="#FF5500"/>
<stop offset="0.409877" stop-color="#FF5500"/>
<stop offset="0.581981" stop-color="#FF2000"/>
<stop offset="1" stop-color="#FF2000"/>
</linearGradient>
<linearGradient id="paint1_linear_2386_18350" x1="5.0528" y1="2.92372" x2="27.1894" y2="2.92372" gradientUnits="userSpaceOnUse">
<stop stop-color="#FF452A"/>
<stop offset="1" stop-color="#FF2000"/>
</linearGradient>
</defs>
</svg>
