<svg width="32" height="32" viewBox="0 0 32 32" fill="none" xmlns="http://www.w3.org/2000/svg">
<circle cx="16" cy="16" r="16" fill="#F7931A"/>
<path d="M22.2821 11.8176C22.0387 9.67872 20.1767 8.99276 17.8381 8.82895L17.7862 5.85713L15.9773 5.88889L16.0279 8.78238C15.5524 8.79075 15.0664 8.80862 14.5837 8.82669L14.5331 5.91403L12.7251 5.94554L12.7763 8.91652C12.3848 8.93136 12.0003 8.94535 11.6253 8.95214L11.6249 8.94293L9.12996 8.98563L9.16416 10.9176C9.16416 10.9176 10.4995 10.8688 10.4778 10.8938C11.2105 10.8812 11.4564 11.3025 11.5321 11.6683L11.5914 15.0538C11.642 15.0532 11.708 15.0542 11.7828 15.0631C11.7226 15.0642 11.658 15.065 11.5917 15.0667L11.6741 19.8095C11.6459 20.0406 11.5168 20.4107 11.0049 20.4205C11.0284 20.4406 9.68995 20.4431 9.68995 20.4431L9.36825 22.6097L11.7223 22.5685C12.1604 22.5614 12.5916 22.5613 13.0148 22.5566L13.068 25.5622L14.875 25.531L14.823 22.5571C15.3193 22.5587 15.7995 22.5543 16.2683 22.5456L16.3192 25.5058L18.1281 25.4741L18.0763 22.4737C21.1144 22.2462 23.2296 21.4429 23.444 18.5824C23.6173 16.2791 22.5176 15.2718 20.7841 14.8874C21.8235 14.3351 22.4628 13.3827 22.2821 11.8176ZM19.8635 18.2886C19.9037 20.5347 16.0532 20.3464 14.8273 20.3689L14.7583 16.3866C15.9846 16.3655 19.8227 15.9458 19.8635 18.2886ZM18.9241 12.6848C18.9592 14.7283 15.7475 14.5458 14.7264 14.5637L14.6634 10.952C15.6846 10.9341 18.8867 10.5533 18.9241 12.6848Z" fill="white"/>
</svg>
