<?xml version="1.0" encoding="UTF-8"?>
<svg width="3300px" height="2200px" viewBox="0 0 3300 2200" version="1.1" xmlns="http://www.w3.org/2000/svg" xmlns:xlink="http://www.w3.org/1999/xlink">
    <title>bookmark.square.fill</title>
    <g id="Page-2" stroke="none" stroke-width="1" fill="none" fill-rule="evenodd">
        <g id="bookmark.square.fill">
            <g id="Notes">
                <rect id="artboard" fill="#FFFFFF" fill-rule="nonzero" x="0" y="0" width="3300" height="2200"></rect>
                <line x1="263" y1="292" x2="3036" y2="292" id="Path" stroke="#000000" stroke-width="0.5"></line>
                <text id="Weight/Scale-Variations" fill="#000000" fill-rule="nonzero" font-family="Helvetica" font-size="13" font-weight="normal">
                    <tspan x="263" y="322">Weight/Scale Variations</tspan>
                </text>
                <text id="Ultralight" fill="#000000" fill-rule="nonzero" font-family="Helvetica" font-size="13" font-weight="normal">
                    <tspan x="533.711" y="322">Ultralight</tspan>
                </text>
                <text id="Thin" fill="#000000" fill-rule="nonzero" font-family="Helvetica" font-size="13" font-weight="normal">
                    <tspan x="843.422" y="322">Thin</tspan>
                </text>
                <text id="Light" fill="#000000" fill-rule="nonzero" font-family="Helvetica" font-size="13" font-weight="normal">
                    <tspan x="1138.63" y="322">Light</tspan>
                </text>
                <text id="Regular" fill="#000000" fill-rule="nonzero" font-family="Helvetica" font-size="13" font-weight="normal">
                    <tspan x="1426.84" y="322">Regular</tspan>
                </text>
                <text id="Medium" fill="#000000" fill-rule="nonzero" font-family="Helvetica" font-size="13" font-weight="normal">
                    <tspan x="1723.06" y="322">Medium</tspan>
                </text>
                <text id="Semibold" fill="#000000" fill-rule="nonzero" font-family="Helvetica" font-size="13" font-weight="normal">
                    <tspan x="2015.77" y="322">Semibold</tspan>
                </text>
                <text id="Bold" fill="#000000" fill-rule="nonzero" font-family="Helvetica" font-size="13" font-weight="normal">
                    <tspan x="2326.48" y="322">Bold</tspan>
                </text>
                <text id="Heavy" fill="#000000" fill-rule="nonzero" font-family="Helvetica" font-size="13" font-weight="normal">
                    <tspan x="2618.19" y="322">Heavy</tspan>
                </text>
                <text id="Black" fill="#000000" fill-rule="nonzero" font-family="Helvetica" font-size="13" font-weight="normal">
                    <tspan x="2917.4" y="322">Black</tspan>
                </text>
                <line x1="263" y1="1903" x2="3036" y2="1903" id="Path" stroke="#000000" stroke-width="0.5"></line>
                <g id="Group" transform="translate(264.367190, 1918.068400)" fill="#000000" fill-rule="nonzero">
                    <path d="M7.88086,15.761678 C12.18751,15.761678 15.77151,12.18746 15.77151,7.88082 C15.77151,3.5742 12.17771,0 7.87109,0 C3.57422,0 -8.8817842e-16,3.5742 -8.8817842e-16,7.88082 C-8.8817842e-16,12.18746 3.58398,15.761678 7.88086,15.761678 Z M7.88086,14.277303 C4.33593,14.277303 1.5039,11.43551 1.5039,7.88082 C1.5039,4.3261 4.32617,1.4843 7.87109,1.4843 C11.42581,1.4843 14.27731,4.3261 14.27731,7.88082 C14.27731,11.43551 11.43551,14.277303 7.88086,14.277303 Z M4.28711,7.88082 C4.28711,8.31051 4.58984,8.60348 5.03906,8.60348 L7.13867,8.60348 L7.13867,10.72262 C7.13867,11.16207 7.43164,11.4648 7.86133,11.4648 C8.31054,11.4648 8.60351,11.16207 8.60351,10.72262 L8.60351,8.60348 L10.72261,8.60348 C11.16211,8.60348 11.46481,8.31051 11.46481,7.88082 C11.46481,7.44137 11.16211,7.13863 10.72261,7.13863 L8.60351,7.13863 L8.60351,5.02926 C8.60351,4.58 8.31054,4.2773 7.86133,4.2773 C7.43164,4.2773 7.13867,4.58 7.13867,5.02926 L7.13867,7.13863 L5.03906,7.13863 C4.58984,7.13863 4.28711,7.44137 4.28711,7.88082 Z" id="Shape"></path>
                </g>
                <g id="Group" transform="translate(283.615050, 1915.988300)" fill="#000000" fill-rule="nonzero">
                    <path d="M9.96095,19.92186 C15.41015,19.92186 19.92185,15.40037 19.92185,9.96092 C19.92185,4.5117 15.40035,0 9.95115,0 C4.51172,0 8.8817842e-16,4.5117 8.8817842e-16,9.96092 C8.8817842e-16,15.40037 4.52148,19.92186 9.96095,19.92186 Z M9.96095,18.2617 C5.35156,18.2617 1.66992,14.57029 1.66992,9.96092 C1.66992,5.3515 5.34179,1.6601 9.95115,1.6601 C14.56055,1.6601 18.26175,5.3515 18.26175,9.96092 C18.26175,14.57029 14.57035,18.2617 9.96095,18.2617 Z M5.42968,9.96092 C5.42968,10.43943 5.76172,10.7617 6.25976,10.7617 L9.13085,10.7617 L9.13085,13.64256 C9.13085,14.13084 9.46285,14.47264 9.94145,14.47264 C10.42965,14.47264 10.77145,14.14061 10.77145,13.64256 L10.77145,10.7617 L13.65235,10.7617 C14.14065,10.7617 14.48245,10.43943 14.48245,9.96092 C14.48245,9.47264 14.14065,9.13084 13.65235,9.13084 L10.77145,9.13084 L10.77145,6.2597 C10.77145,5.7617 10.42965,5.4199 9.94145,5.4199 C9.46285,5.4199 9.13085,5.7617 9.13085,6.2597 L9.13085,9.13084 L6.25976,9.13084 C5.76172,9.13084 5.42968,9.47264 5.42968,9.96092 Z" id="Shape"></path>
                </g>
                <g id="Group" transform="translate(307.901860, 1913.224600)" fill="#000000" fill-rule="nonzero">
                    <path d="M12.71484,25.43946 C19.67774,25.43946 25.43944,19.6777438 25.43944,12.72462 C25.43944,5.7617 19.66794,0 12.70504,0 C5.75195,0 0,5.7617 0,12.72462 C0,19.6777438 5.76172,25.43946 12.71484,25.43946 Z M12.71484,23.62306 C6.67969,23.62306 1.82617,18.75978 1.82617,12.72462 C1.82617,6.6797 6.66992,1.8262 12.70504,1.8262 C18.75004,1.8262 23.61324,6.6797 23.61324,12.72462 C23.61324,18.75978 18.75974,23.62306 12.71484,23.62306 Z M6.94336,12.72462 C6.94336,13.2422 7.31445,13.60352 7.86134,13.60352 L11.80664,13.60352 L11.80664,17.5586 C11.80664,18.09571 12.17774,18.47657 12.69534,18.47657 C13.23244,18.47657 13.60354,18.10548 13.60354,17.5586 L13.60354,13.60352 L17.55864,13.60352 C18.09574,13.60352 18.47654,13.2422 18.47654,12.72462 C18.47654,12.17774 18.10544,11.80665 17.55864,11.80665 L13.60354,11.80665 L13.60354,7.8613 C13.60354,7.3145 13.23244,6.9336 12.69534,6.9336 C12.17774,6.9336 11.80664,7.3145 11.80664,7.8613 L11.80664,11.80665 L7.86134,11.80665 C7.31445,11.80665 6.94336,12.17774 6.94336,12.72462 Z" id="Shape"></path>
                </g>
                <text id="Design-Variations" fill="#000000" fill-rule="nonzero" font-family="Helvetica" font-size="13" font-weight="normal">
                    <tspan x="263" y="1953">Design Variations</tspan>
                </text>
                <text id="Symbols-are-supported-in-up-to-nine-weights-and-three-scales." fill="#000000" fill-rule="nonzero" font-family="Helvetica" font-size="13" font-weight="normal">
                    <tspan x="263" y="1971">Symbols are supported in up to nine weights and three scales.</tspan>
                </text>
                <text id="For-optimal-layout-with-text-and-other-symbols,-vertically-align" fill="#000000" fill-rule="nonzero" font-family="Helvetica" font-size="13" font-weight="normal">
                    <tspan x="263" y="1989">For optimal layout with text and other symbols, vertically align</tspan>
                </text>
                <text id="symbols-with-the-adjacent-text." fill="#000000" fill-rule="nonzero" font-family="Helvetica" font-size="13" font-weight="normal">
                    <tspan x="263" y="2007">symbols with the adjacent text.</tspan>
                </text>
                <line x1="776" y1="1919" x2="776" y2="1933" id="Path" stroke="#00AEEF" stroke-width="0.5"></line>
                <g id="Group" transform="translate(778.490230, 1918.732400)" fill="#000000" fill-rule="nonzero">
                    <path d="M0.82032,14.42385 C1.33789,14.42385 1.5918,14.2285375 1.77735,13.681662 L3.03711,10.2344 L8.79887,10.2344 L10.05857,13.681662 C10.24417,14.2285375 10.49807,14.42385 11.00587,14.42385 C11.52347,14.42385 11.85547,14.11135 11.85547,13.623069 C11.85547,13.457053 11.82617,13.300803 11.74807,13.09572 L7.16797,0.8985 C6.94336,0.3028 6.54297,0 5.91797,0 C5.3125,0 4.90235,0.293 4.6875,0.8887 L0.10743,13.10549 C0.0293,13.310569 -4.4408921e-16,13.466819 -4.4408921e-16,13.632834 C-4.4408921e-16,14.121116 0.3125,14.42385 0.82032,14.42385 Z M3.51563,8.75002 L5.88868,2.1778 L5.9375,2.1778 L8.31057,8.75002 L3.51563,8.75002 Z" id="Shape"></path>
                </g>
                <line x1="793.197" y1="1919" x2="793.197" y2="1933" id="Path" stroke="#00AEEF" stroke-width="0.5"></line>
                <text id="Margins" fill="#000000" fill-rule="nonzero" font-family="Helvetica" font-size="13" font-weight="normal">
                    <tspan x="776" y="1953">Margins</tspan>
                </text>
                <text id="Leading-and-trailing-margins-on-the-left-and-right-side-of-each-symbol" fill="#000000" fill-rule="nonzero" font-family="Helvetica" font-size="13" font-weight="normal">
                    <tspan x="776" y="1971">Leading and trailing margins on the left and right side of each symbol</tspan>
                </text>
                <text id="can-be-adjusted-by-modifying-the-x-location-of-the-margin-guidelines." fill="#000000" fill-rule="nonzero" font-family="Helvetica" font-size="13" font-weight="normal">
                    <tspan x="776" y="1989">can be adjusted by modifying the x-location of the margin guidelines.</tspan>
                </text>
                <text id="Modifications-are-automatically-applied-proportionally-to-all" fill="#000000" fill-rule="nonzero" font-family="Helvetica" font-size="13" font-weight="normal">
                    <tspan x="776" y="2007">Modifications are automatically applied proportionally to all</tspan>
                </text>
                <text id="scales-and-weights." fill="#000000" fill-rule="nonzero" font-family="Helvetica" font-size="13" font-weight="normal">
                    <tspan x="776" y="2025">scales and weights.</tspan>
                </text>
                <g id="Group" transform="translate(1291.248126, 1914.517396)" fill="#000000" fill-rule="nonzero">
                    <path d="M0.593673634,20.347834 L2.29289363,22.056824 C3.15226363,22.925964 4.13859363,22.867374 5.06632363,21.841984 L15.7596736,10.054874 L14.7928736,9.07830404 L4.17765363,20.757994 C3.82609363,21.158384 3.49406363,21.256044 3.02531363,20.787294 L1.85343363,19.625184 C1.38468363,19.166198 1.49210363,18.824401 1.89249363,18.4630728 L13.3670736,7.66230404 L12.3905736,6.69550404 L0.798753634,17.584166 C-0.187576366,18.5021352 -0.265706366,19.478698 0.593673634,20.347834 Z M7.00968363,2.15450404 C6.58976363,2.56460404 6.56046363,3.14080404 6.79484363,3.53140404 C7.02921363,3.89280404 7.48820363,4.12710404 8.13277363,3.96110404 C9.59757363,3.61930404 11.1209736,3.56070404 12.5467736,4.49820404 L11.9608736,5.95330404 C11.6190736,6.78340404 11.7948736,7.36930404 12.3319736,7.91620404 L14.6268736,10.230654 C15.1151736,10.718934 15.5252736,10.738464 16.0916736,10.640804 L17.1561736,10.445494 L17.8202736,11.119324 L17.7811736,11.675964 C17.7420736,12.174014 17.8690736,12.554874 18.3573736,13.033384 L19.1190736,13.775574 C19.5975736,14.254084 20.2127736,14.283384 20.6815736,13.814634 L23.5916736,10.894714 C24.0604736,10.425964 24.0409736,9.83026404 23.5623736,9.35174404 L22.7909736,8.59002404 C22.3123736,8.11150404 21.9413736,7.95530404 21.4627736,7.99430404 L20.8866736,8.04310404 L20.2420736,7.40840404 L20.4862736,6.28530404 C20.6131736,5.71890404 20.4569736,5.27950404 19.8709736,4.69350404 L17.6737736,2.50600404 C14.3338736,-0.814295964 9.90027363,-0.736195964 7.00968363,2.15450404 Z M8.50387363,2.52560404 C10.9354736,0.748204036 14.2264736,1.05100404 16.4530736,3.27750404 L18.8846736,5.68960404 C19.1190736,5.92400404 19.1580736,6.10960404 19.0897736,6.45140404 L18.7674736,7.93570404 L20.2713736,9.42010404 L21.2577736,9.36151404 C21.5116736,9.35174404 21.5897736,9.37127404 21.7850736,9.56658404 L22.3612736,10.142764 L19.9198736,12.584164 L19.3436736,12.007994 C19.1483736,11.812684 19.1190736,11.734554 19.1288736,11.470884 L19.1971736,10.494324 L17.7030736,9.00994404 L16.1795736,9.26385404 C15.8573736,9.33221404 15.7108736,9.30291404 15.4666736,9.06854404 L13.4647736,7.06660404 C13.2108736,6.83220404 13.1815736,6.66620404 13.3377736,6.29510404 L14.2166736,4.20530404 C12.6541736,2.75020404 10.6229736,2.12520404 8.59167363,2.72090404 C8.43547363,2.75990404 8.37687363,2.63300404 8.50387363,2.52560404 Z" id="Shape"></path>
                </g>
                <text id="Exporting" fill="#000000" fill-rule="nonzero" font-family="Helvetica" font-size="13" font-weight="normal">
                    <tspan x="1289" y="1953">Exporting</tspan>
                </text>
                <text id="Symbols-should-be-outlined-when-exporting-to-ensure-the" fill="#000000" fill-rule="nonzero" font-family="Helvetica" font-size="13" font-weight="normal">
                    <tspan x="1289" y="1971">Symbols should be outlined when exporting to ensure the</tspan>
                </text>
                <text id="design-is-preserved-when-submitting-to-Xcode." fill="#000000" fill-rule="nonzero" font-family="Helvetica" font-size="13" font-weight="normal">
                    <tspan x="1289" y="1989">design is preserved when submitting to Xcode.</tspan>
                </text>
                <text id="template-version" fill="#000000" fill-rule="nonzero" font-family="Helvetica" font-size="13" font-weight="normal">
                    <tspan x="2952" y="1933">Template v.4.0</tspan>
                </text>
                <text id="Requires-Xcode-14-or-greater" fill="#000000" fill-rule="nonzero" font-family="Helvetica" font-size="13" font-weight="normal">
                    <tspan x="2865" y="1951">Requires Xcode 14 or greater</tspan>
                </text>
                <text id="descriptive-name" fill="#000000" fill-rule="nonzero" font-family="Helvetica" font-size="13" font-weight="normal">
                    <tspan x="2825" y="1969">Generated from bookmark.square.fill</tspan>
                </text>
                <text id="Typeset-at-100-points" fill="#000000" fill-rule="nonzero" font-family="Helvetica" font-size="13" font-weight="normal">
                    <tspan x="2912" y="1987">Typeset at 100 points</tspan>
                </text>
                <text id="Small" fill="#000000" fill-rule="nonzero" font-family="Helvetica" font-size="13" font-weight="normal">
                    <tspan x="263" y="726">Small</tspan>
                </text>
                <text id="Medium" fill="#000000" fill-rule="nonzero" font-family="Helvetica" font-size="13" font-weight="normal">
                    <tspan x="263" y="1156">Medium</tspan>
                </text>
                <text id="Large" fill="#000000" fill-rule="nonzero" font-family="Helvetica" font-size="13" font-weight="normal">
                    <tspan x="263" y="1586">Large</tspan>
                </text>
            </g>
            <g id="Guides" transform="translate(263.000000, 600.785000)">
                <g id="H-reference" transform="translate(76.993654, 24.756000)" fill="#27AAE1" fill-rule="nonzero">
                    <path d="M0,70.459 L2.644096,70.459 L28.334446,3.3267 L29.036646,3.3267 L29.036646,0 L27.128946,0 L0,70.459 Z M10.694846,45.9791 L45.987846,45.9791 L45.237846,43.7305 L11.444846,43.7305 L10.694846,45.9791 Z M54.125946,70.459 L56.770046,70.459 L29.644546,0 L28.438946,0 L28.438946,3.3267 L54.125946,70.459 Z" id="Shape"></path>
                </g>
                <line x1="0" y1="95.215" x2="2773" y2="95.215" id="Baseline-S" stroke="#27AAE1" stroke-width="0.5"></line>
                <line x1="0" y1="24.756" x2="2773" y2="24.756" id="Capline-S" stroke="#27AAE1" stroke-width="0.5"></line>
                <g id="H-reference" transform="translate(76.993654, 454.756000)" fill="#27AAE1" fill-rule="nonzero">
                    <path d="M0,70.459 L2.644096,70.459 L28.334446,3.3267 L29.036646,3.3267 L29.036646,0 L27.128946,0 L0,70.459 Z M10.694846,45.9791 L45.987846,45.9791 L45.237846,43.7305 L11.444846,43.7305 L10.694846,45.9791 Z M54.125946,70.459 L56.770046,70.459 L29.644546,0 L28.438946,0 L28.438946,3.3267 L54.125946,70.459 Z" id="Shape"></path>
                </g>
                <line x1="0" y1="525.215" x2="2773" y2="525.215" id="Baseline-M" stroke="#27AAE1" stroke-width="0.5"></line>
                <line x1="0" y1="454.755" x2="2773" y2="454.755" id="Capline-M" stroke="#27AAE1" stroke-width="0.5"></line>
                <g id="H-reference" transform="translate(76.993654, 884.756000)" fill="#27AAE1" fill-rule="nonzero">
                    <path d="M0,70.459 L2.644096,70.459 L28.334446,3.3267 L29.036646,3.3267 L29.036646,0 L27.128946,0 L0,70.459 Z M10.694846,45.9791 L45.987846,45.9791 L45.237846,43.7305 L11.444846,43.7305 L10.694846,45.9791 Z M54.125946,70.459 L56.770046,70.459 L29.644546,0 L28.438946,0 L28.438946,3.3267 L54.125946,70.459 Z" id="Shape"></path>
                </g>
                <line x1="0" y1="955.215" x2="2773" y2="955.215" id="Baseline-L" stroke="#27AAE1" stroke-width="0.5"></line>
                <line x1="0" y1="884.755" x2="2773" y2="884.755" id="Capline-L" stroke="#27AAE1" stroke-width="0.5"></line>
                <line x1="253.35" y1="1.13686838e-13" x2="253.35" y2="119.336" id="left-margin-Ultralight-S" stroke="#00AEEF" stroke-width="0.5"></line>
                <line x1="340.073" y1="1.13686838e-13" x2="340.073" y2="119.336" id="right-margin-Ultralight-S" stroke="#00AEEF" stroke-width="0.5"></line>
                <line x1="1141.51" y1="1.13686838e-13" x2="1141.51" y2="119.336" id="left-margin-Regular-S" stroke="#00AEEF" stroke-width="0.5"></line>
                <line x1="1232.18" y1="1.13686838e-13" x2="1232.18" y2="119.336" id="right-margin-Regular-S" stroke="#00AEEF" stroke-width="0.5"></line>
                <line x1="2622.5" y1="1.13686838e-13" x2="2622.5" y2="119.336" id="left-margin-Black-S" stroke="#00AEEF" stroke-width="0.5"></line>
                <line x1="2718.3" y1="1.13686838e-13" x2="2718.3" y2="119.336" id="right-margin-Black-S" stroke="#00AEEF" stroke-width="0.5"></line>
            </g>
            <g id="Symbols" transform="translate(535.000000, 627.000000)" fill-rule="nonzero">
                <g id="Black-S" transform="translate(2374.000000, 0.000000)">
                    <path d="M45.0061159,20.396543 C44.1732105,13.0773439 37.8015183,10.7300152 29.799022,10.1694637 L29.6213195,0 L23.431265,0.108695183 L23.6044847,10.010103 C21.9772052,10.0387448 20.3143714,10.0998952 18.6623169,10.1617301 L18.4892683,0.19473356 L12.3025331,0.302545877 L12.4777033,10.4691249 C11.1380054,10.5199068 9.82232968,10.56778 8.5390257,10.5910151 L8.53765692,10.5594989 L0,10.7056166 L0.117027659,17.3167777 C0.117027659,17.3167777 4.68661573,17.1498202 4.61211963,17.235335 C7.119425,17.192321 7.96088532,18.6336853 8.22016733,19.8856442 L8.42295277,31.4706604 C8.59596714,31.4686072 8.8218166,31.4720292 9.07798463,31.5024846 C8.87177723,31.5062488 8.6510265,31.5089864 8.42411624,31.5148037 L8.70584632,47.7444824 C8.60958655,48.5352977 8.16770867,49.8017656 6.4160066,49.8353009 C6.4964227,49.9040823 1.91627445,49.9126372 1.91627445,49.9126372 L0.815405504,57.3266588 L8.87088752,57.185674 C10.3699804,57.1613781 11.8454275,57.1610359 13.2936358,57.1449527 L13.4757868,67.43 L19.6592027,67.3232348 L19.4813634,57.1466637 C21.1797855,57.1521388 22.8230456,57.1370822 24.4270558,57.1073111 L24.6011994,67.2370014 L30.7912539,67.1285252 L30.6139621,56.8612721 C41.0102916,56.0827759 48.2484244,53.3339142 48.9820929,43.5453935 C49.5751189,35.6635897 45.8119879,32.216648 39.8800177,30.9013144 C43.4368044,29.011194 45.6244644,25.7520837 45.0061159,20.396543 L45.0061159,20.396543 Z" id="Path" fill="#000000"></path>
                    <path d="M36.72976,42.5400213 C36.8673229,50.2260889 23.6911972,49.5817335 19.496112,49.6587276 L19.2597914,36.0314506 C23.4562111,35.9592472 36.590144,34.52305 36.72976,42.5400213 Z" id="Path" fill="#FFFFFF"></path>
                    <path d="M33.5151352,23.3638969 C33.6352803,30.3568462 22.6450694,29.7324066 19.1506992,29.793694 L18.935321,17.4343221 C22.4296911,17.3730347 33.3870512,16.0702256 33.5151352,23.3638969 L33.5151352,23.3638969 Z" id="Path" fill="#FFFFFF"></path>
                </g>
                <g id="Regular-S" transform="translate(890.000000, 0.000000)">
                    <path d="M45.0061159,20.396543 C44.1732105,13.0773439 37.8015183,10.7300152 29.799022,10.1694637 L29.6213195,0 L23.431265,0.108695183 L23.6044847,10.010103 C21.9772052,10.0387448 20.3143714,10.0998952 18.6623169,10.1617301 L18.4892683,0.19473356 L12.3025331,0.302545877 L12.4777033,10.4691249 C11.1380054,10.5199068 9.82232968,10.56778 8.5390257,10.5910151 L8.53765692,10.5594989 L0,10.7056166 L0.117027659,17.3167777 C0.117027659,17.3167777 4.68661573,17.1498202 4.61211963,17.235335 C7.119425,17.192321 7.96088532,18.6336853 8.22016733,19.8856442 L8.42295277,31.4706604 C8.59596714,31.4686072 8.8218166,31.4720292 9.07798463,31.5024846 C8.87177723,31.5062488 8.6510265,31.5089864 8.42411624,31.5148037 L8.70584632,47.7444824 C8.60958655,48.5352977 8.16770867,49.8017656 6.4160066,49.8353009 C6.4964227,49.9040823 1.91627445,49.9126372 1.91627445,49.9126372 L0.815405504,57.3266588 L8.87088752,57.185674 C10.3699804,57.1613781 11.8454275,57.1610359 13.2936358,57.1449527 L13.4757868,67.43 L19.6592027,67.3232348 L19.4813634,57.1466637 C21.1797855,57.1521388 22.8230456,57.1370822 24.4270558,57.1073111 L24.6011994,67.2370014 L30.7912539,67.1285252 L30.6139621,56.8612721 C41.0102916,56.0827759 48.2484244,53.3339142 48.9820929,43.5453935 C49.5751189,35.6635897 45.8119879,32.216648 39.8800177,30.9013144 C43.4368044,29.011194 45.6244644,25.7520837 45.0061159,20.396543 L45.0061159,20.396543 Z" id="Path" fill="#000000"></path>
                    <path d="M36.72976,42.5400213 C36.8673229,50.2260889 23.6911972,49.5817335 19.496112,49.6587276 L19.2597914,36.0314506 C23.4562111,35.9592472 36.590144,34.52305 36.72976,42.5400213 Z" id="Path" fill="#FFFFFF"></path>
                    <path d="M33.5151352,23.3638969 C33.6352803,30.3568462 22.6450694,29.7324066 19.1506992,29.793694 L18.935321,17.4343221 C22.4296911,17.3730347 33.3870512,16.0702256 33.5151352,23.3638969 L33.5151352,23.3638969 Z" id="Path" fill="#FFFFFF"></path>
                </g>
                <g id="Ultralight-S" transform="translate(0.000000, 0.000000)">
                    <path d="M45.0061159,20.396543 C44.1732105,13.0773439 37.8015183,10.7300152 29.799022,10.1694637 L29.6213195,0 L23.431265,0.108695183 L23.6044847,10.010103 C21.9772052,10.0387448 20.3143714,10.0998952 18.6623169,10.1617301 L18.4892683,0.19473356 L12.3025331,0.302545877 L12.4777033,10.4691249 C11.1380054,10.5199068 9.82232968,10.56778 8.5390257,10.5910151 L8.53765692,10.5594989 L0,10.7056166 L0.117027659,17.3167777 C0.117027659,17.3167777 4.68661573,17.1498202 4.61211963,17.235335 C7.119425,17.192321 7.96088532,18.6336853 8.22016733,19.8856442 L8.42295277,31.4706604 C8.59596714,31.4686072 8.8218166,31.4720292 9.07798463,31.5024846 C8.87177723,31.5062488 8.6510265,31.5089864 8.42411624,31.5148037 L8.70584632,47.7444824 C8.60958655,48.5352977 8.16770867,49.8017656 6.4160066,49.8353009 C6.4964227,49.9040823 1.91627445,49.9126372 1.91627445,49.9126372 L0.815405504,57.3266588 L8.87088752,57.185674 C10.3699804,57.1613781 11.8454275,57.1610359 13.2936358,57.1449527 L13.4757868,67.43 L19.6592027,67.3232348 L19.4813634,57.1466637 C21.1797855,57.1521388 22.8230456,57.1370822 24.4270558,57.1073111 L24.6011994,67.2370014 L30.7912539,67.1285252 L30.6139621,56.8612721 C41.0102916,56.0827759 48.2484244,53.3339142 48.9820929,43.5453935 C49.5751189,35.6635897 45.8119879,32.216648 39.8800177,30.9013144 C43.4368044,29.011194 45.6244644,25.7520837 45.0061159,20.396543 L45.0061159,20.396543 Z" id="Path" fill="#000000"></path>
                    <path d="M36.72976,42.5400213 C36.8673229,50.2260889 23.6911972,49.5817335 19.496112,49.6587276 L19.2597914,36.0314506 C23.4562111,35.9592472 36.590144,34.52305 36.72976,42.5400213 Z" id="Path" fill="#FFFFFF"></path>
                    <path d="M33.5151352,23.3638969 C33.6352803,30.3568462 22.6450694,29.7324066 19.1506992,29.793694 L18.935321,17.4343221 C22.4296911,17.3730347 33.3870512,16.0702256 33.5151352,23.3638969 L33.5151352,23.3638969 Z" id="Path" fill="#FFFFFF"></path>
                </g>
            </g>
            <path d="M580.006116,647.396543 C579.173211,640.077344 572.801518,637.730015 564.799022,637.169464 L564.62132,627 L558.431265,627.108695 L558.604485,637.010103 C556.977205,637.038745 555.314371,637.099895 553.662317,637.16173 L553.489268,627.194734 L547.302533,627.302546 L547.477703,637.469125 C546.138005,637.519907 544.82233,637.56778 543.539026,637.591015 L543.537657,637.559499 L535,637.705617 L535.117028,644.316778 C535.117028,644.316778 539.686616,644.14982 539.61212,644.235335 C542.119425,644.192321 542.960885,645.633685 543.220167,646.885644 L543.422953,658.47066 C543.595967,658.468607 543.821817,658.472029 544.077985,658.502485 C543.871777,658.506249 543.651026,658.508986 543.424116,658.514804 L543.705846,674.744482 C543.609587,675.535298 543.167709,676.801766 541.416007,676.835301 C541.496423,676.904082 536.916274,676.912637 536.916274,676.912637 L535.815406,684.326659 L543.870888,684.185674 C545.36998,684.161378 546.845428,684.161036 548.293636,684.144953 L548.475787,694.43 L554.659203,694.323235 L554.481363,684.146664 C556.179785,684.152139 557.823046,684.137082 559.427056,684.107311 L559.601199,694.237001 L565.791254,694.128525 L565.613962,683.861272 C576.010292,683.082776 583.248424,680.333914 583.982093,670.545394 C584.575119,662.66359 580.811988,659.216648 574.880018,657.901314 C578.436804,656.011194 580.624464,652.752084 580.006116,647.396543 L580.006116,647.396543 Z" id="Path" fill="#000000" fill-rule="nonzero"></path>
            <path d="M571.72976,669.540021 C571.867323,677.226089 558.691197,676.581734 554.496112,676.658728 L554.259791,663.031451 C558.456211,662.959247 571.590144,661.52305 571.72976,669.540021 Z" id="Path" fill="#FFFFFF" fill-rule="nonzero"></path>
            <path d="M568.515135,650.363897 C568.63528,657.356846 557.645069,656.732407 554.150699,656.793694 L553.935321,644.434322 C557.429691,644.373035 568.387051,643.070226 568.515135,650.363897 L568.515135,650.363897 Z" id="Path" fill="#FFFFFF" fill-rule="nonzero"></path>
        </g>
    </g>
</svg>