<svg width="32" height="32" viewBox="0 0 32 32" fill="none" xmlns="http://www.w3.org/2000/svg">
<rect width="32" height="32" rx="16" fill="#5FCADE"/>
<g clip-path="url(#clip0_2379_17257)">
<path d="M11.8272 8.00111C16.4172 7.99963 21.0076 7.99963 25.5983 8.00111C25.5997 9.56507 25.5997 11.1288 25.5983 12.6922C21.0081 12.6937 16.4177 12.6937 11.8272 12.6922C11.8257 11.1282 11.8257 9.56453 11.8272 8.00111Z" fill="white"/>
<path d="M6.40505 14.4571C7.88593 14.449 9.36706 14.449 10.8484 14.4571C10.8561 16.018 10.8561 17.5793 10.8484 19.1408C9.36712 19.1489 7.88599 19.149 6.40505 19.1412C6.39737 17.58 6.39737 16.0186 6.40505 14.4571Z" fill="white"/>
<path d="M11.8306 14.4571C15.1437 14.4496 18.4565 14.4496 21.7691 14.4571C21.7761 16.0181 21.7761 17.5793 21.7691 19.1409C18.4561 19.1481 15.1433 19.1481 11.8306 19.1409C11.8237 17.5798 11.8237 16.0185 11.8306 14.4571Z" fill="white"/>
<path d="M11.8347 20.9144C13.3131 20.8975 14.7912 20.8975 16.2691 20.9144C16.2845 22.4718 16.2847 24.0298 16.2698 25.5887C14.7914 25.6041 13.3133 25.6038 11.8355 25.5879C11.8201 24.0307 11.8199 22.4728 11.8347 20.9144Z" fill="white"/>
</g>
<defs>
<clipPath id="clip0_2379_17257">
<rect width="19.2" height="17.6" fill="white" transform="translate(6.39929 8)"/>
</clipPath>
</defs>
</svg>
