<svg width="32" height="32" viewBox="0 0 32 32" fill="none" xmlns="http://www.w3.org/2000/svg">
<g clip-path="url(#clip0_2379_17371)">
<mask id="mask0_2379_17371" style="mask-type:alpha" maskUnits="userSpaceOnUse" x="0" y="0" width="32" height="32">
<path fill-rule="evenodd" clip-rule="evenodd" d="M0 0H32V32H0V0Z" fill="white"/>
</mask>
<g mask="url(#mask0_2379_17371)">
<path fill-rule="evenodd" clip-rule="evenodd" d="M16 32C7.2 32 0 24.8 0 15.92C0.08 7.12 7.2 -0.0799958 16.08 4.15795e-06C24.88 0.0800042 32 7.20001 32 16.16C31.92 24.88 24.8 32 16 32Z" fill="#0252F3"/>
<path d="M12.2754 6.71686C12.9902 7.13504 13.9101 7.4299 14.2806 7.52506C15.0623 7.33304 17.0232 7.08659 18.6129 7.63691C20.2027 8.18723 20.1742 11.2485 19.9613 12.7103C19.9317 13.4668 20.0172 14.996 20.5961 15.0612C21.175 15.1264 22.6269 15.8532 23.2805 16.2085L23.3347 16.3438C23.2914 16.5757 22.9495 16.7819 22.784 16.856C20.2127 15.186 18.9319 16.0893 18.6129 16.7497C18.4564 17.1298 18.0586 17.9248 17.7191 18.064C17.3797 18.2031 17.1781 18.5932 17.1197 18.7709V21.2455L16.5995 21.6842C16.6083 21.4124 16.609 20.799 16.5417 20.52C16.4745 20.241 16.2335 20.2088 16.1214 20.2275L14.6188 20.3794L14.3403 20.6325C14.0713 20.2545 13.6292 20.475 13.4418 20.6325C12.9795 20.277 12.4085 20.4844 12.1809 20.6325C11.8782 20.1331 11.2106 20.2294 10.9146 20.34C10.8586 20.2688 10.7234 20.1106 10.6309 20.0476C10.5384 19.9846 10.4488 20.1076 10.4155 20.1769H10.2053C9.85227 19.3311 9.1265 19.4345 8.80776 19.592C8.45048 19.2186 8.05993 19.2977 7.90931 19.3839C7.60668 19.015 7.11856 19.0976 6.91233 19.185C6.79677 18.899 6.29118 18.8122 6.05283 18.8046C6.35756 18.3858 7.13947 17.399 7.82928 16.803C8.69153 16.0579 7.91252 15.235 7.72553 14.5344C7.53853 13.8338 8.46299 12.8108 8.99281 11.8211C9.41667 11.0293 9.55716 9.76382 9.57443 9.23005L10.312 7.22834C10.6686 6.88361 11.5607 6.29869 12.2754 6.71686Z" fill="white"/>
<path d="M17.5583 18.9368V20.9798C17.9969 20.5665 19.9613 20.8145 19.9613 20.0941C19.9613 19.5178 20.1392 18.9092 20.2282 18.6769L21.2211 16.7497C20.2238 16.077 19.3493 16.6363 19.0367 17C18.8955 17.8219 17.9922 18.6336 17.5583 18.9368Z" fill="white"/>
<path d="M21.6565 17L21.9226 16.856L22.7085 17.3758L22.0676 18.5731L21.9226 20.8952V22.7523C21.5118 23.6271 20.4473 25.4634 19.475 25.8104C18.585 25.8289 16.6929 25.8994 16.2441 26.0328C15.6831 26.1996 14.7274 26.6667 13.7197 26.6667C12.9135 26.6667 10.4611 26.5851 9.33568 26.5443C8.66735 26.5332 7.16446 26.1218 6.49959 24.5649C5.88676 23.1299 5.70275 22.734 5.68009 22.7025L5.67764 22.7019C5.6774 22.6998 5.67816 22.6998 5.68009 22.7025L6.16118 22.8119C6.17327 22.8961 6.24703 23.0825 6.44533 23.1549C6.64363 23.2274 7.14059 23.2153 7.36428 23.2002C7.41869 23.4462 7.61094 23.9212 7.94467 23.8539C8.2784 23.7866 8.41825 23.8258 8.44647 23.8539C8.54118 24.0027 8.87692 24.3146 9.46215 24.3716C10.1937 24.4428 10.7559 24.4104 10.8587 24.1127C10.9409 23.8746 10.8607 23.7331 10.8104 23.6921L11.3787 23.9121C11.4379 24.1386 11.6812 24.5696 12.1809 24.4816C12.6805 24.3936 12.9989 24.0653 13.0956 23.9121C13.2387 24.0394 13.5793 24.2655 13.7969 24.1516C14.069 24.0092 14.2568 23.938 14.4378 23.4656C14.4962 23.5993 14.7002 23.8047 15.0484 23.5562C15.3967 23.3077 15.5361 23.06 15.5623 22.9673C15.6368 23.0384 15.8529 23.1679 16.1214 23.1161C16.3899 23.0643 16.5521 22.5898 16.5995 22.3589L17.5583 21.5047C17.9158 21.3918 18.7807 21.1623 19.3802 21.1468C20.1296 21.1275 20.3914 20.5936 20.4365 20.2275C20.4726 19.9347 20.5178 19.2817 20.5358 18.9917L21.6565 17Z" fill="white"/>
<path d="M5.9417 20.4374L5.55904 20.1935C5.62499 19.9236 5.82997 19.3599 6.12234 19.2638C6.41471 19.1677 6.53939 19.4017 6.56519 19.5307C6.45856 19.5786 6.1051 20.1551 5.9417 20.4374Z" fill="white"/>
<path d="M7.01234 19.592L6.33731 20.5847L6.82316 20.7642L7.57127 19.5538L7.01234 19.592Z" fill="white"/>
<path d="M7.83784 21.1554L7.23591 20.9207C7.45949 20.2763 7.95823 19.6826 8.242 19.7471C8.46901 19.7986 8.47131 20.0662 8.44408 20.1935L7.83784 21.1554Z" fill="white"/>
<path d="M9.0761 19.9864L8.242 21.206C8.53437 21.3717 9.22945 21.3916 9.54045 21.3809L9.86721 20.8516C9.89158 20.7304 9.89903 20.4208 9.73393 20.1521C9.56883 19.8833 9.22659 19.9296 9.0761 19.9864Z" fill="white"/>
<path d="M10.4694 20.5847L8.65472 23.4469C9.37698 24.2896 10.1654 24.1082 10.4694 23.9121C10.3402 22.9931 10.4156 21.3109 10.4694 20.5847Z" fill="white"/>
<path d="M8.97071 21.7943C8.79014 22.5485 8.18787 23.2683 7.90931 23.5339C7.47959 22.8226 7.40864 21.9361 7.42688 21.5817C7.70856 21.8368 8.57347 21.8298 8.97071 21.7943Z" fill="white"/>
<path d="M6.56519 22.7794C6.38769 22.5028 6.43052 21.67 6.47412 21.2882L7.08487 21.4557C7.00815 21.8837 7.1536 22.4877 7.23591 22.7362L6.56519 22.7794Z" fill="white"/>
<path d="M6.16118 21.1554L5.80784 20.9207C5.76444 21.1998 5.68854 21.808 5.73213 22.0068C5.77572 22.2056 6.03632 22.3886 6.16118 22.4552C6.04004 22.2305 6.1107 21.495 6.16118 21.1554Z" fill="white"/>
<path d="M5.58575 20.7965L5.33337 20.5209L5.47463 21.6502L5.58575 20.7965Z" fill="white"/>
<path d="M11.9794 21.1554C12.0276 21.6932 11.3965 22.8085 11.0749 23.299C10.9518 22.745 10.7362 21.5191 10.8587 21.0479C11.0119 20.4589 11.9191 20.4831 11.9794 21.1554Z" fill="white"/>
<path d="M12.3714 22.0564L12.5673 20.8516C12.9653 20.6086 13.1904 20.7898 13.2533 20.9107L12.8764 22.1129L12.3714 22.0564Z" fill="white"/>
<path d="M14.105 21.887H13.4418C13.5096 21.5419 13.707 20.8392 13.9543 20.7897C14.2015 20.7401 14.2734 21.0918 14.2784 21.2738L14.105 21.887Z" fill="white"/>
<path d="M15.1527 21.5047L14.5271 21.7498C14.5422 21.6181 14.5904 21.2796 14.6628 20.9798C14.7352 20.6801 15.0196 20.669 15.1527 20.7009V21.5047Z" fill="white"/>
<path d="M15.7105 21.5047V20.7009L16.2457 20.5847L16.1703 21.411L15.7105 21.5047Z" fill="white"/>
<path d="M16.306 21.887L15.7105 22.0242C15.7105 22.2797 15.7633 22.7987 15.9743 22.831C16.1854 22.8633 16.2432 22.6454 16.2457 22.5325L16.306 21.887Z" fill="white"/>
<path d="M15.2658 22.0564L14.5271 22.2259V22.7826C14.5472 22.9547 14.6432 23.299 14.8663 23.299C15.0894 23.299 15.2005 22.987 15.2281 22.831L15.2658 22.0564Z" fill="white"/>
<path d="M14.1427 22.3589L13.404 22.4599C13.3663 22.9574 13.3739 23.9283 13.7055 23.8315C14.0372 23.7347 14.1352 23.3142 14.1427 23.1161V22.3589Z" fill="white"/>
<path d="M12.8764 22.7826L11.9266 22.6696C11.7784 23.1161 11.595 24.0298 12.0472 24.1127C12.4995 24.1957 12.7332 23.8361 12.7935 23.6459L12.8764 22.7826Z" fill="white"/>
<path d="M19.9613 8.29994C19.4298 6.90241 17.6269 6.66225 16.7919 6.71686C20.8508 3.86916 23.7448 6.06911 24.6845 7.52506C25.3452 8.14972 26.6667 9.62241 26.6667 10.5158C26.6667 11.6325 26.1004 11.3932 26.1004 13.2119C26.1004 15.0306 24.2672 17 24.0138 16.2085C23.7605 15.417 21.1374 15.0612 20.5961 14.4084C20.0547 13.7557 20.6257 10.0469 19.9613 8.29994Z" fill="white"/>
<path d="M14.9053 9.76645C14.8358 9.49986 14.5963 9.57779 14.4853 9.65008C14.2536 9.85163 13.7684 12.3165 14.717 13.0297C15.6657 13.7428 17.2298 13.2234 17.5556 12.9134C17.8815 12.6033 19.2791 11.5026 18.4753 9.27794C17.6715 7.0533 15.4919 8.13851 15.2167 8.47957C14.9433 8.81839 15.3918 8.96599 15.49 8.99832L15.4919 8.99895C15.586 9.02995 16.0929 8.56487 16.2015 8.72765C16.3101 8.89043 15.4629 9.89035 15.2167 10.7042C14.9705 11.5181 15.4774 12.8436 14.9488 12.4173C14.4201 11.991 14.9922 10.0997 14.9053 9.76645Z" fill="#0252F3"/>
<path d="M8.85793 15.6587C8.65481 16.0802 8.53761 16.6137 8.50439 16.8277C8.71983 18.5401 9.87316 17.9636 10.5268 17.5767C11.1805 17.1898 12.5032 15.774 12.411 14.8602C12.3187 13.9465 10.4884 13.3291 9.71935 13.5102C8.95033 13.6913 9.11182 15.1319 8.85793 15.6587Z" fill="#0252F3"/>
<path d="M11.4769 12.4609C10.6476 12.586 10.2502 12.374 10.1552 12.2523C9.73021 12.0464 9.77264 11.649 9.74481 11.2469C9.71699 10.8447 10.4266 10.2937 10.6561 9.34795C10.8398 8.59137 11.048 8.23348 11.1292 8.14911C12.5275 6.62999 13.4249 8.30553 13.4666 8.79701C13.5084 9.28849 13.1953 10.1673 13.1188 11.0162C13.0423 11.8651 12.5136 12.3045 11.4769 12.4609Z" fill="#0252F3"/>
<path d="M11.9617 8.31392C11.826 8.22677 11.5657 8.55091 11.4525 8.72387C11.3716 9.08033 11.1632 9.89603 10.977 10.3071C10.7442 10.821 10.4922 11.1117 10.3468 11.4128C10.2304 11.6536 10.6216 11.8245 10.8318 11.8799C10.8172 11.6256 10.8123 11.0484 10.9093 10.7743C11.0306 10.4317 12.1313 8.42286 11.9617 8.31392Z" fill="white"/>
<path d="M9.05043 16.8361C8.9889 17.0995 9.24008 17.3135 9.37336 17.3875C9.37336 17.1323 9.47349 16.4985 9.66574 16.1939C9.858 15.8893 9.75034 15.5847 9.9349 14.9426C10.1195 14.3006 10.5347 14.103 9.98105 14.0783C9.42735 14.0536 9.58115 15.3213 9.47349 15.7329C9.36582 16.1445 9.12735 16.5067 9.05043 16.8361Z" fill="white"/>
</g>
</g>
<defs>
<clipPath id="clip0_2379_17371">
<rect width="32" height="32" fill="white"/>
</clipPath>
</defs>
</svg>
