<svg width="32" height="32" viewBox="0 0 32 32" fill="none" xmlns="http://www.w3.org/2000/svg">
<path d="M16 32C24.8366 32 32 24.8366 32 16C32 7.16344 24.8366 0 16 0C7.16344 0 0 7.16344 0 16C0 24.8366 7.16344 32 16 32Z" fill="url(#paint0_linear_2386_18088)"/>
<path d="M27.646 16.2285H24.7855C24.7855 10.4413 20.0432 5.75 14.1931 5.75C8.41529 5.75 3.71789 10.3264 3.60294 16.0146C3.48399 21.8942 9.06024 27 15.0046 27H15.7523C20.9931 27 28.0172 22.9417 29.1147 17.9968C29.3175 17.0853 28.5895 16.2285 27.646 16.2285ZM9.94222 16.4863C9.94222 17.2603 9.30237 17.8932 8.52004 17.8932C7.73772 17.8932 7.09789 17.26 7.09789 16.4863V14.2104C7.09789 13.4364 7.73772 12.8035 8.52004 12.8035C9.30237 12.8035 9.94222 13.4364 9.94222 14.2104V16.4863ZM14.8806 16.4863C14.8806 17.2603 14.2408 17.8932 13.4584 17.8932C12.6761 17.8932 12.0363 17.26 12.0363 16.4863V14.2104C12.0363 13.4364 12.6764 12.8035 13.4584 12.8035C14.2408 12.8035 14.8806 13.4364 14.8806 14.2104V16.4863Z" fill="url(#paint1_linear_2386_18088)"/>
<defs>
<linearGradient id="paint0_linear_2386_18088" x1="16" y1="0" x2="16" y2="32" gradientUnits="userSpaceOnUse">
<stop stop-color="#534BB1"/>
<stop offset="1" stop-color="#551BF9"/>
</linearGradient>
<linearGradient id="paint1_linear_2386_18088" x1="16.3749" y1="5.75" x2="16.3749" y2="27" gradientUnits="userSpaceOnUse">
<stop stop-color="white"/>
<stop offset="1" stop-color="white" stop-opacity="0.82"/>
</linearGradient>
</defs>
</svg>
