<svg width="32" height="32" viewBox="0 0 32 32" fill="none" xmlns="http://www.w3.org/2000/svg">
<circle cx="16" cy="16" r="16" fill="#1B284F"/>
<path d="M16.8891 18.3119C12.8644 16.5122 10.3495 12.8594 10.2027 9.18332C10.2011 9.14848 10.1896 9.11479 10.1697 9.08617C10.1498 9.05755 10.1221 9.03516 10.09 9.02158C10.0578 9.00801 10.0225 9.00381 9.9881 9.00947C9.95367 9.01513 9.92156 9.03041 9.89545 9.05356C8.89631 9.92892 8.09803 11.0098 7.55522 12.2222C7.01241 13.4346 6.73788 14.7499 6.75041 16.0782C6.79311 21.0623 10.8405 25.1541 15.8283 25.2485C19.8557 25.3249 23.3103 22.831 24.66 19.298C24.6722 19.2665 24.6756 19.2322 24.6698 19.1989C24.664 19.1656 24.6491 19.1345 24.6269 19.109C24.6047 19.0835 24.5759 19.0646 24.5436 19.0544C24.5114 19.0441 24.477 19.0429 24.4441 19.0508C22.098 19.6406 19.4197 19.4431 16.8891 18.3119Z" fill="#F9D85E"/>
<path d="M25.0997 14.3322C25.096 14.3135 25.0927 14.2948 25.0894 14.2765C25.0391 14.0096 24.9774 13.7471 24.9042 13.4889C24.9012 13.4772 24.8979 13.4659 24.8945 13.4555C24.8588 13.3315 24.8208 13.208 24.7805 13.0863C24.7771 13.0769 24.7741 13.0673 24.7708 13.0579C24.6854 12.8037 24.5895 12.5545 24.4832 12.3103L24.4762 12.2943C24.4245 12.1766 24.3708 12.0608 24.3144 11.9451C24.3144 11.9421 24.3114 11.9391 24.3098 11.9361C24.2517 11.8175 24.1912 11.7004 24.1283 11.5848C24.1263 11.5818 24.125 11.5785 24.123 11.5751C24.0585 11.457 23.9917 11.3404 23.9228 11.2252C23.9208 11.2222 23.9191 11.2189 23.9171 11.2155C23.8529 11.1094 23.7861 11.0049 23.717 10.902L23.694 10.8666C23.5499 10.6511 23.397 10.4423 23.2353 10.2401L23.2063 10.2038C23.1204 10.0977 23.0326 9.99349 22.9427 9.89119C22.856 9.79289 22.767 9.69648 22.6759 9.60197L22.6652 9.59096C22.5828 9.50556 22.4984 9.4215 22.414 9.33944L22.3766 9.30408C22.2892 9.22112 22.2003 9.13962 22.1098 9.05956L22.0764 9.03187C21.9841 8.95114 21.8903 8.87242 21.7949 8.79569C21.7862 8.78835 21.7772 8.78168 21.7685 8.77468C21.6673 8.69395 21.5647 8.61522 21.4606 8.5385L21.4543 8.53416C21.3486 8.45677 21.2414 8.38171 21.1327 8.30899L21.1284 8.30599C20.9104 8.1581 20.6859 8.02077 20.4548 7.89401L20.4285 7.87933C20.3173 7.81929 20.2061 7.76147 20.0949 7.70587C20.0802 7.69853 20.0656 7.69086 20.0505 7.68385C19.8157 7.5691 19.5753 7.46424 19.3293 7.36928L19.287 7.35327C19.1598 7.30479 19.0313 7.2592 18.9017 7.2165L18.894 7.21383C18.7729 7.17413 18.6512 7.13644 18.5271 7.10175L18.4937 7.0924C18.3623 7.05571 18.2298 7.0218 18.0964 6.99066L18.0891 6.98899C17.9623 6.95964 17.8346 6.93284 17.7061 6.9086L17.6814 6.90426C17.548 6.87958 17.4129 6.85734 17.2761 6.83755H17.2728C17.0613 6.80841 16.8477 6.78617 16.632 6.77083L16.7387 6.7805C16.8234 6.78817 16.9055 6.79685 16.9862 6.80585C17.0658 6.81497 17.1437 6.82498 17.2197 6.83588H17.2234C17.2979 6.84655 17.3705 6.85767 17.4412 6.86924H17.4476C17.5172 6.88147 17.585 6.89459 17.6511 6.9086L17.6597 6.91027C17.7245 6.92428 17.7875 6.93862 17.8492 6.95397L17.8616 6.9573C17.9213 6.97265 17.98 6.98866 18.0367 7.00534L18.052 7.01001C18.1074 7.02669 18.1613 7.04415 18.2138 7.06238L18.2325 7.06939C18.2832 7.0874 18.3326 7.10575 18.3809 7.12543L18.4036 7.1351C18.4497 7.15412 18.495 7.17413 18.5391 7.19482C18.5481 7.19882 18.5564 7.20349 18.5654 7.20783C18.6071 7.22817 18.6485 7.24886 18.6882 7.27054C18.6985 7.27621 18.7085 7.28221 18.7185 7.28822C18.7559 7.30924 18.7933 7.33058 18.829 7.35293C18.841 7.36061 18.8523 7.36861 18.8643 7.37662C18.8977 7.39797 18.931 7.41932 18.9617 7.44334C18.9761 7.45368 18.9894 7.46469 19.0034 7.4767C19.0318 7.49804 19.0601 7.51906 19.0871 7.54141C19.1042 7.55509 19.1205 7.5701 19.1365 7.58444C19.1599 7.60446 19.1836 7.62414 19.2059 7.64516C19.2283 7.66617 19.2479 7.68685 19.2686 7.70754C19.2893 7.72822 19.302 7.74089 19.3183 7.75691C19.3548 7.7956 19.3903 7.83552 19.4247 7.87666C19.4761 7.93804 19.7386 8.2733 19.8814 8.86174C20.0529 9.57061 20.0232 10.3075 20.1853 11.0177C20.2127 11.1371 20.2417 11.2536 20.272 11.368C20.28 11.3983 20.2884 11.4283 20.2967 11.4584C20.3207 11.5473 20.3455 11.6343 20.3711 11.7192C20.3791 11.7453 20.3868 11.7716 20.3951 11.7976C21.2291 14.483 22.897 15.759 25.1347 17.4686C25.3008 16.4281 25.2896 15.367 25.1014 14.3302L25.0997 14.3322Z" fill="#EF7730"/>
<path d="M25.1622 14.719C24.8349 13.9625 24.8349 13.9625 16.0606 10.7931C11.644 9.19752 10.8233 7.65735 14.0211 6.96049C14.1768 6.92691 14.3338 6.89711 14.4921 6.87109C14.9884 6.79031 15.4904 6.74982 15.9933 6.75C20.6705 6.75 24.538 10.217 25.1622 14.719Z" fill="#F9D85E"/>
</svg>
