<svg width="32" height="32" viewBox="0 0 32 32" fill="none" xmlns="http://www.w3.org/2000/svg">
<path d="M27.2949 15.9785H24.4344C24.4344 10.1913 19.6922 5.5 13.842 5.5C8.06422 5.5 3.36682 10.0764 3.25187 15.7646C3.13292 21.6442 8.70917 26.75 14.6536 26.75H15.4013C20.642 26.75 27.6662 22.6917 28.7637 17.7468C28.9664 16.8353 28.2384 15.9785 27.2949 15.9785ZM9.59114 16.2363C9.59114 17.0103 8.95129 17.6432 8.16897 17.6432C7.38664 17.6432 6.74682 17.01 6.74682 16.2363V13.9604C6.74682 13.1864 7.38664 12.5535 8.16897 12.5535C8.95129 12.5535 9.59114 13.1864 9.59114 13.9604V16.2363ZM14.5295 16.2363C14.5295 17.0103 13.8897 17.6432 13.1074 17.6432C12.325 17.6432 11.6852 17.01 11.6852 16.2363V13.9604C11.6852 13.1864 12.3253 12.5535 13.1074 12.5535C13.8897 12.5535 14.5295 13.1864 14.5295 13.9604V16.2363Z" fill="url(#paint0_linear_2386_18091)"/>
<defs>
<linearGradient id="paint0_linear_2386_18091" x1="16.0239" y1="5.5" x2="16.0239" y2="26.75" gradientUnits="userSpaceOnUse">
<stop stop-color="#534BB1"/>
<stop offset="1" stop-color="#551BF9"/>
</linearGradient>
</defs>
</svg>
