<svg width="32" height="32" viewBox="0 0 32 32" fill="none" xmlns="http://www.w3.org/2000/svg">
<path fill-rule="evenodd" clip-rule="evenodd" d="M15.0445 2.31109C15.5412 1.89629 16.2635 1.89631 16.7602 2.31112C20.4397 5.38414 24.6352 5.36033 26.2574 5.35112C26.3383 5.35066 26.4129 5.35024 26.4806 5.35024C26.8391 5.35024 27.1825 5.49402 27.434 5.74937C27.6856 6.00472 27.8242 6.35031 27.8187 6.7087C27.742 11.7961 27.5381 15.4264 27.1381 18.0867C26.7384 20.7453 26.1257 22.5656 25.1395 23.9363C24.1463 25.3166 22.8697 26.1006 21.508 26.8531C21.2722 26.9835 21.0316 27.114 20.7854 27.2475C19.5899 27.896 18.2603 28.6172 16.6824 29.7491C16.2161 30.0836 15.5885 30.0836 15.1223 29.7491C13.5458 28.6183 12.2179 27.8974 11.0243 27.2494C10.7769 27.1151 10.5352 26.9839 10.2984 26.8528C8.93778 26.1001 7.66288 25.3159 6.6716 23.9351C5.6875 22.5643 5.07685 20.7442 4.67855 18.086C4.27999 15.4261 4.07697 11.796 4.00015 6.70872C3.99474 6.35032 4.13332 6.00474 4.38485 5.74938C4.63639 5.49402 4.97984 5.35024 5.33827 5.35024C5.40526 5.35024 5.47907 5.35066 5.55932 5.35112C7.16836 5.36034 11.3644 5.38438 15.0445 2.31109ZM6.70056 8.01878C6.79124 12.3623 6.98875 15.4416 7.32555 17.6894C7.69653 20.1653 8.21946 21.5017 8.84586 22.3742C9.46508 23.2367 10.2776 23.7825 11.594 24.5108C11.8085 24.6294 12.0346 24.7521 12.2721 24.8809C13.2863 25.4308 14.5068 26.0927 15.9023 27.0322C17.2998 26.0915 18.5221 25.4292 19.538 24.8788C19.7744 24.7507 19.9997 24.6286 20.2134 24.5105C21.5315 23.7821 22.3459 23.236 22.9668 22.373C23.5947 21.5004 24.1192 20.1641 24.4913 17.6887C24.8293 15.4413 25.0276 12.3623 25.1183 8.01902C23.0388 7.95332 19.3638 7.52674 15.9023 5.03159C12.4448 7.52376 8.7749 7.95228 6.70056 8.01878Z" fill="#3375BB"/>
</svg>
